<svg width="40" height="39" viewBox="0 0 40 39" fill="none" xmlns="http://www.w3.org/2000/svg">
<path d="M37.433 16.9433H8.75971L21.2866 4.40116C22.2878 3.39882 22.2878 1.75395 21.2866 0.751612C21.0492 0.513354 20.7671 0.324329 20.4565 0.195357C20.146 0.0663852 19.8131 0 19.4769 0C19.1407 0 18.8078 0.0663852 18.4973 0.195357C18.1867 0.324329 17.9047 0.513354 17.6672 0.751612L0.750702 17.6886C0.512733 17.9264 0.323937 18.2088 0.195121 18.5197C0.0663059 18.8306 0 19.1639 0 19.5005C0 19.8371 0.0663059 20.1704 0.195121 20.4814C0.323937 20.7923 0.512733 21.0747 0.750702 21.3125L17.6672 38.2495C17.9048 38.4874 18.187 38.6762 18.4975 38.8049C18.808 38.9337 19.1408 39 19.4769 39C19.813 39 20.1458 38.9337 20.4563 38.8049C20.7668 38.6762 21.049 38.4874 21.2866 38.2495C21.5243 38.0115 21.7128 37.729 21.8414 37.4182C21.97 37.1073 22.0362 36.7741 22.0362 36.4375C22.0362 36.101 21.97 35.7678 21.8414 35.4569C21.7128 35.1461 21.5243 34.8636 21.2866 34.6256L8.75971 22.0835H37.433C38.8449 22.0835 40 20.927 40 19.5134C40 18.0998 38.8449 16.9433 37.433 16.9433Z" fill="white"/>
</svg>
