<svg width="1512" height="982" viewBox="0 0 1512 982" fill="none" xmlns="http://www.w3.org/2000/svg">
<g clip-path="url(#clip0_28_12)">
<mask id="mask0_28_12" style="mask-type:luminance" maskUnits="userSpaceOnUse" x="-267" y="-25" width="2171" height="1093">
<path d="M1903.84 -24.86H-266.18V1067.74H1903.84V-24.86Z" fill="white"/>
</mask>
<g mask="url(#mask0_28_12)">
<path d="M2177.25 -153.98H-539.61V1204.45H2177.25V-153.98Z" fill="#FFCA30"/>
<g opacity="0.26">
<path d="M67.29 -104.07H65.12V1280.49H67.29V-104.07Z" fill="#ED1C24"/>
<path d="M166.12 -104.07H163.95V1288.66H166.12V-104.07Z" fill="#ED1C24"/>
<path d="M264.95 -104.07H262.78V1296.82H264.95V-104.07Z" fill="#ED1C24"/>
<path d="M363.78 -104.07H361.61V1304.98H363.78V-104.07Z" fill="#ED1C24"/>
<path d="M462.61 -104.07H460.44V1313.14H462.61V-104.07Z" fill="#ED1C24"/>
<path d="M561.44 -104.07H559.27V1321.3H561.44V-104.07Z" fill="#ED1C24"/>
<path d="M660.27 -104.07H658.1V1329.46H660.27V-104.07Z" fill="#ED1C24"/>
<path d="M759.1 -104.07H756.93V1337.62H759.1V-104.07Z" fill="#ED1C24"/>
<path d="M857.93 -104.07H855.76V1345.78H857.93V-104.07Z" fill="#ED1C24"/>
<path d="M956.76 -104.07H954.59V1353.94H956.76V-104.07Z" fill="#ED1C24"/>
<path d="M1055.59 -104.07H1053.42V1362.11H1055.59V-104.07Z" fill="#ED1C24"/>
<path d="M1154.42 -104.07H1152.25V1370.27H1154.42V-104.07Z" fill="#ED1C24"/>
<path d="M1253.25 -104.07H1251.08V1378.43H1253.25V-104.07Z" fill="#ED1C24"/>
<path d="M1352.08 -104.07H1349.91V1386.59H1352.08V-104.07Z" fill="#ED1C24"/>
<path d="M1450.91 -104.07H1448.74V1394.75H1450.91V-104.07Z" fill="#ED1C24"/>
<path d="M2205.46 21.89H-323.82V24.81H2205.46V21.89Z" fill="#ED1C24"/>
<path d="M2205.46 120.72H-338.64V123.64H2205.46V120.72Z" fill="#ED1C24"/>
<path d="M2205.47 219.55H-353.46V222.47H2205.47V219.55Z" fill="#ED1C24"/>
<path d="M2205.47 318.38H-368.28V321.3H2205.47V318.38Z" fill="#ED1C24"/>
<path d="M2205.47 417.21H-383.1V420.13H2205.47V417.21Z" fill="#ED1C24"/>
<path d="M2205.46 516.04H-397.93V518.96H2205.46V516.04Z" fill="#ED1C24"/>
<path d="M2205.46 614.87H-412.75V617.79H2205.46V614.87Z" fill="#ED1C24"/>
<path d="M2205.46 713.7H-427.57V716.62H2205.46V713.7Z" fill="#ED1C24"/>
<path d="M2205.46 812.53H-442.39V815.45H2205.46V812.53Z" fill="#ED1C24"/>
<path d="M2205.46 911.36H-457.21V914.28H2205.46V911.36Z" fill="#ED1C24"/>
</g>
<path opacity="0.12" d="M1190.87 364.16C1190.36 338.61 1193.26 305.71 1197.38 273.05C1197.68 303.546 1195.5 334.016 1190.87 364.16Z" fill="#CBE7E9"/>
<path opacity="0.12" d="M1219.19 141.14C1219.19 141.14 1205.77 206.56 1197.38 273.05C1196.97 196.75 1183.38 137.89 1183.38 137.89L1219.19 141.14Z" fill="#CBE7E9"/>
<path opacity="0.12" d="M216.64 168.27C216.64 168.27 285 195.39 254.64 189.97C224.28 184.55 125.5 136.8 216.64 168.27Z" fill="#CBE7E9"/>
<path opacity="0.22" d="M612.67 350.55C612.67 350.55 609.42 374.42 626.78 373.34C644.14 372.26 615.93 326.68 612.67 350.55Z" fill="#CBE7E9"/>
<path opacity="0.22" d="M1485 306.06C1484 314.75 1508.87 331.06 1536 324.51C1563.13 317.96 1488.27 277.85 1485 306.06Z" fill="#CBE7E9"/>
<path opacity="0.22" d="M1501.29 868.1C1500.21 875.69 1516.48 894.1 1539.29 883.29C1562.1 872.48 1505.63 837.72 1501.29 868.1Z" fill="#CBE7E9"/>
<path opacity="0.07" d="M862.08 255.37C925.598 255.37 977.09 203.878 977.09 140.36C977.09 76.8418 925.598 25.35 862.08 25.35C798.562 25.35 747.07 76.8418 747.07 140.36C747.07 203.878 798.562 255.37 862.08 255.37Z" fill="#3E52A4"/>
<path d="M745.11 148.9C739.959 166.058 738.613 184.133 741.166 201.865C743.719 219.596 750.11 236.557 759.892 251.565C769.674 266.573 782.613 279.266 797.805 288.759C812.998 298.252 830.078 304.317 847.855 306.529C865.633 308.742 883.679 307.051 900.735 301.572C917.791 296.093 933.446 286.959 946.61 274.808C959.773 262.656 970.126 247.78 976.949 231.215C983.771 214.651 986.897 196.797 986.11 178.9C986.11 178.74 986.11 178.58 986.11 178.42C984.758 149.373 973.171 121.742 953.401 100.418C933.631 79.0949 906.953 65.4549 878.091 61.9137C849.229 58.3724 820.045 65.1582 795.706 81.0697C771.368 96.9811 753.444 120.992 745.11 148.85V148.9ZM824.57 216.9C818.119 209.287 814.071 199.932 812.937 190.019C811.803 180.105 813.635 170.078 818.2 161.205C822.765 152.332 829.859 145.012 838.584 140.171C847.309 135.33 857.274 133.185 867.218 134.007C877.163 134.83 886.64 138.583 894.452 144.791C902.263 151 908.058 159.386 911.103 168.888C914.149 178.39 914.308 188.582 911.561 198.175C908.814 207.768 903.284 216.33 895.67 222.78C885.467 231.433 872.244 235.678 858.911 234.583C845.577 233.488 833.225 227.142 824.57 216.94V216.9Z" fill="#FFCA30"/>
<path d="M996.14 260C996.14 260 1015.14 290.83 1033.81 279.28C1052.48 267.73 1055.06 227.15 1003.96 230.63C952.86 234.11 996.14 260 996.14 260Z" fill="#FBAA32"/>
<path d="M1001.24 203.65C1003.22 205.561 1004.97 207.707 1006.43 210.04C1026.84 242.53 1003.73 270.64 981.11 274.16C958.49 277.68 936.19 253.68 935.35 250.35C935 248.95 934.69 247.56 934.42 246.21C924.81 196.3 977.51 180.68 1001.24 203.65Z" fill="#FFCA30"/>
<path d="M986.07 178.47C986.332 183.934 986.228 189.41 985.76 194.86C960.21 187.6 926.58 205.49 934.42 246.21C933.82 245.27 918.14 220.71 938.25 196.71C952.37 179.85 971.93 176.59 986.07 178.47Z" fill="#FBAA32"/>
<path d="M783.46 90.36C801.004 75.4982 822.359 65.8449 845.107 62.493C867.854 59.141 891.086 62.2244 912.171 71.394C933.257 80.5636 951.354 95.4531 964.414 114.377C977.475 133.301 984.976 155.503 986.07 178.47C986.07 178.63 986.07 178.79 986.07 178.95L985.88 179.09C966.69 122.84 948.44 82.84 867.9 70C788.08 57.3 745.9 147.25 745.11 148.88C751.932 126.06 765.259 105.724 783.46 90.36Z" fill="#FBAA32"/>
<path opacity="0.07" d="M1415.28 617.85C1461.69 617.85 1499.31 580.229 1499.31 533.82C1499.31 487.412 1461.69 449.79 1415.28 449.79C1368.87 449.79 1331.25 487.412 1331.25 533.82C1331.25 580.229 1368.87 617.85 1415.28 617.85Z" fill="#3E52A4"/>
<path d="M1329.76 539.17C1325.98 551.207 1324.77 563.903 1326.22 576.436C1327.66 588.969 1331.73 601.059 1338.14 611.92C1344.56 622.781 1353.19 632.172 1363.47 639.482C1373.76 646.793 1385.46 651.86 1397.83 654.355C1410.19 656.85 1422.95 656.717 1435.26 653.964C1447.57 651.212 1459.17 645.902 1469.3 638.379C1479.42 630.856 1487.86 621.287 1494.05 610.295C1500.24 599.302 1504.05 587.13 1505.23 574.57C1505.6 570.705 1505.73 566.82 1505.59 562.94C1505.59 562.83 1505.59 562.71 1505.59 562.6C1504.77 541.407 1496.49 521.184 1482.21 505.5C1467.93 489.817 1448.57 479.679 1427.55 476.876C1406.53 474.073 1385.19 478.785 1367.3 490.18C1349.41 501.575 1336.13 518.922 1329.78 539.16L1329.76 539.17ZM1387.29 589.48C1382.64 583.869 1379.75 577.003 1379 569.752C1378.24 562.5 1379.66 555.189 1383.06 548.741C1386.47 542.294 1391.7 537 1398.12 533.53C1404.53 530.06 1411.82 528.57 1419.08 529.246C1426.34 529.923 1433.24 532.738 1438.9 537.333C1444.56 541.929 1448.73 548.1 1450.88 555.065C1453.03 562.031 1453.07 569.478 1450.99 576.465C1448.91 583.453 1444.8 589.666 1439.19 594.32C1431.67 600.56 1421.97 603.556 1412.24 602.648C1402.5 601.74 1393.53 597.004 1387.29 589.48Z" fill="#FFCA30"/>
<path d="M1512.31 622.24C1512.31 622.24 1525.96 644.91 1539.68 636.62C1553.4 628.33 1555.6 598.69 1518.24 600.84C1480.88 602.99 1512.31 622.24 1512.31 622.24Z" fill="#FBAA32"/>
<path d="M1516.46 581.11C1517.9 582.522 1519.16 584.104 1520.21 585.82C1534.87 609.71 1517.77 630.07 1501.21 632.47C1484.65 634.87 1468.55 617.17 1467.96 614.73C1467.71 613.73 1467.5 612.73 1467.32 611.73C1460.68 575.16 1499.3 564.15 1516.46 581.11Z" fill="#FFCA30"/>
<path d="M1505.57 562.61C1505.72 566.613 1505.6 570.622 1505.22 574.61C1486.61 569.1 1461.9 581.92 1467.33 611.72C1466.89 611.04 1455.62 592.97 1470.5 575.59C1474.76 570.622 1480.22 566.823 1486.35 564.552C1492.49 562.281 1499.1 561.612 1505.57 562.61Z" fill="#FBAA32"/>
<path d="M1358.22 496.69C1371.15 485.976 1386.83 479.094 1403.47 476.824C1420.11 474.554 1437.06 476.986 1452.39 483.845C1467.72 490.703 1480.82 501.715 1490.22 515.635C1499.62 529.555 1504.94 545.826 1505.57 562.61C1505.57 562.72 1505.57 562.84 1505.57 562.95L1505.43 563.05C1491.82 521.82 1478.8 492.45 1420.05 482.47C1361.84 472.59 1330.32 537.98 1329.75 539.17C1334.91 522.543 1344.8 507.78 1358.22 496.69Z" fill="#FBAA32"/>
<path opacity="0.07" d="M963.56 734.29C1014.57 734.29 1055.93 692.935 1055.93 641.92C1055.93 590.906 1014.57 549.55 963.56 549.55C912.546 549.55 871.19 590.906 871.19 641.92C871.19 692.935 912.546 734.29 963.56 734.29Z" fill="#3E52A4"/>
<path d="M869.55 647.79C865.434 661.009 864.139 674.945 865.749 688.697C867.358 702.448 871.837 715.708 878.896 727.619C885.954 739.531 895.434 749.827 906.723 757.843C918.012 765.859 930.857 771.415 944.429 774.153C958.001 776.891 971.997 776.749 985.51 773.736C999.024 770.723 1011.75 764.907 1022.88 756.664C1034 748.42 1043.27 737.933 1050.09 725.882C1056.9 713.83 1061.11 700.481 1062.44 686.7C1062.85 682.453 1062.99 678.184 1062.84 673.92C1062.84 673.79 1062.84 673.66 1062.84 673.54C1061.97 650.219 1052.89 627.955 1037.2 610.684C1021.5 593.414 1000.2 582.249 977.071 579.165C953.938 576.08 930.46 581.275 910.788 593.829C891.115 606.384 876.516 625.49 869.57 647.77L869.55 647.79ZM932.79 703.1C927.674 696.931 924.503 689.384 923.676 681.413C922.849 673.442 924.405 665.405 928.146 658.318C931.887 651.231 937.645 645.412 944.693 641.598C951.741 637.783 959.762 636.145 967.741 636.889C975.721 637.632 983.3 640.726 989.521 645.777C995.743 650.829 1000.33 657.612 1002.69 665.268C1005.06 672.925 1005.1 681.111 1002.82 688.792C1000.53 696.473 996.018 703.303 989.85 708.42C985.754 711.818 981.029 714.375 975.945 715.947C970.861 717.518 965.517 718.073 960.218 717.579C954.919 717.085 949.77 715.552 945.064 713.067C940.358 710.583 936.187 707.196 932.79 703.1Z" fill="#FFCA30"/>
<path d="M1070.22 739.12C1070.22 739.12 1085.22 764.04 1100.31 754.92C1115.4 745.8 1117.81 713.23 1076.75 715.59C1035.69 717.95 1070.22 739.12 1070.22 739.12Z" fill="#FBAA32"/>
<path d="M1074.79 693.9C1076.37 695.455 1077.75 697.194 1078.91 699.08C1095.03 725.34 1076.23 747.73 1058.04 750.36C1039.85 752.99 1022.13 733.54 1021.48 730.86C1021.21 729.73 1020.98 728.61 1020.77 727.52C1013.47 687.37 1055.92 675.26 1074.79 693.9Z" fill="#FFCA30"/>
<path d="M1062.82 673.56C1062.99 677.95 1062.85 682.347 1062.43 686.72C1041.98 680.67 1014.81 694.72 1020.77 727.52C1020.29 726.77 1007.91 706.91 1024.26 687.8C1035.74 674.38 1051.48 671.93 1062.82 673.56Z" fill="#FBAA32"/>
<path d="M900.83 601.1C915.045 589.306 932.277 581.728 950.577 579.224C968.877 576.719 987.512 579.389 1004.37 586.931C1021.23 594.472 1035.65 606.584 1045.98 621.894C1056.31 637.205 1062.15 655.102 1062.83 673.56C1062.83 673.68 1062.83 673.81 1062.83 673.94L1062.67 674.05C1047.67 628.72 1033.4 596.44 968.82 585.47C904.82 574.6 870.18 646.47 869.55 647.79C875.213 629.515 886.084 613.289 900.83 601.1Z" fill="#FBAA32"/>
<path opacity="0.07" d="M1513.48 954.12C1564.49 954.12 1605.85 912.765 1605.85 861.75C1605.85 810.735 1564.49 769.38 1513.48 769.38C1462.47 769.38 1421.11 810.735 1421.11 861.75C1421.11 912.765 1462.47 954.12 1513.48 954.12Z" fill="#3E52A4"/>
<path d="M1419.47 867.62C1415.17 881.362 1413.92 895.876 1415.82 910.149C1417.71 924.423 1422.69 938.111 1430.42 950.259C1438.15 962.407 1448.44 972.722 1460.56 980.483C1472.69 988.243 1486.37 993.264 1500.64 995.192C1514.9 997.121 1529.42 995.913 1543.17 991.65C1556.93 987.388 1569.58 980.175 1580.26 970.516C1590.94 960.856 1599.38 948.982 1604.99 935.723C1610.6 922.464 1613.26 908.14 1612.76 893.75C1612.76 893.62 1612.76 893.49 1612.76 893.37C1611.89 870.049 1602.81 847.785 1587.12 830.514C1571.42 813.244 1550.12 802.079 1526.99 798.995C1503.86 795.91 1480.38 801.105 1460.71 813.659C1441.04 826.214 1426.44 845.32 1419.49 867.6L1419.47 867.62ZM1482.71 922.93C1477.59 916.761 1474.42 909.214 1473.6 901.243C1472.77 893.272 1474.32 885.235 1478.07 878.148C1481.81 871.061 1487.57 865.242 1494.61 861.428C1501.66 857.613 1509.68 855.975 1517.66 856.718C1525.64 857.462 1533.22 860.556 1539.44 865.607C1545.66 870.659 1550.25 877.442 1552.61 885.098C1554.98 892.755 1555.02 900.941 1552.74 908.622C1550.45 916.303 1545.94 923.133 1539.77 928.25C1531.5 935.107 1520.84 938.398 1510.14 937.4C1499.44 936.403 1489.57 931.198 1482.71 922.93Z" fill="#FFCA30"/>
<path d="M1450.76 820.93C1464.97 809.136 1482.21 801.558 1500.51 799.054C1518.81 796.549 1537.44 799.219 1554.3 806.76C1571.16 814.302 1585.58 826.414 1595.91 841.724C1606.24 857.035 1612.08 874.932 1612.76 893.39C1612.76 893.51 1612.76 893.64 1612.76 893.77L1612.61 893.88C1597.61 848.55 1583.33 816.27 1518.75 805.3C1454.75 794.43 1420.11 866.3 1419.48 867.62C1425.15 849.348 1436.02 833.123 1450.76 820.93Z" fill="#FBAA32"/>
<path opacity="0.07" d="M1522.6 320.79C1595.14 320.79 1653.94 261.987 1653.94 189.45C1653.94 116.913 1595.14 58.11 1522.6 58.11C1450.06 58.11 1391.26 116.913 1391.26 189.45C1391.26 261.987 1450.06 320.79 1522.6 320.79Z" fill="#3E52A4"/>
<path d="M1388.93 197.81C1382.83 217.343 1381.06 237.973 1383.75 258.26C1386.45 278.546 1393.53 298.001 1404.52 315.266C1415.51 332.531 1430.13 347.19 1447.37 358.221C1464.6 369.252 1484.04 376.389 1504.32 379.133C1524.6 381.878 1545.23 380.163 1564.78 374.11C1584.33 368.058 1602.32 357.812 1617.5 344.088C1632.68 330.364 1644.69 313.493 1652.67 294.651C1660.66 275.81 1664.44 255.453 1663.75 235C1663.75 234.82 1663.75 234.64 1663.75 234.46C1662.52 201.301 1649.6 169.645 1627.28 145.091C1604.96 120.536 1574.68 104.663 1541.79 100.279C1508.9 95.8951 1475.52 103.282 1447.54 121.133C1419.57 138.985 1398.82 166.151 1388.94 197.83L1388.93 197.81ZM1478.85 276.44C1471.58 267.669 1467.07 256.94 1465.9 245.608C1464.73 234.276 1466.94 222.851 1472.26 212.776C1477.58 202.702 1485.76 194.43 1495.78 189.008C1505.8 183.585 1517.2 181.255 1528.55 182.312C1539.89 183.369 1550.66 187.765 1559.51 194.945C1568.36 202.125 1574.87 211.766 1578.24 222.65C1581.61 233.533 1581.67 245.171 1578.42 256.091C1575.18 267.011 1568.77 276.723 1560 284C1554.18 288.835 1547.46 292.474 1540.23 294.711C1533 296.947 1525.39 297.737 1517.86 297.035C1510.32 296.333 1503 294.153 1496.3 290.619C1489.61 287.085 1483.68 282.267 1478.85 276.44Z" fill="#FFCA30"/>
<path d="M1433.42 131.42C1453.63 114.66 1478.13 103.891 1504.14 100.334C1530.16 96.776 1556.65 100.571 1580.61 111.29C1604.58 122.008 1625.07 139.222 1639.76 160.983C1654.45 182.744 1662.76 208.183 1663.74 234.42C1663.74 234.6 1663.74 234.78 1663.74 234.96L1663.52 235.13C1642.25 170.67 1621.89 124.77 1530.07 109.13C1439.07 93.68 1389.82 195.9 1388.92 197.75C1396.99 171.784 1412.45 148.733 1433.42 131.42Z" fill="#FBAA32"/>
<path opacity="0.07" d="M594.85 925.44C621.641 925.44 643.36 903.721 643.36 876.93C643.36 850.139 621.641 828.42 594.85 828.42C568.059 828.42 546.34 850.139 546.34 876.93C546.34 903.721 568.059 925.44 594.85 925.44Z" fill="#3E52A4"/>
<path d="M545.49 880C543.188 887.232 542.496 894.879 543.464 902.406C544.432 909.934 547.035 917.158 551.092 923.571C555.149 929.985 560.56 935.433 566.947 939.533C573.333 943.633 580.539 946.286 588.06 947.305C595.58 948.323 603.232 947.683 610.479 945.43C617.726 943.177 624.392 939.365 630.008 934.261C635.625 929.158 640.057 922.886 642.992 915.888C645.928 908.89 647.296 901.333 647 893.75V893.55C646.562 881.292 641.8 869.584 633.557 860.501C625.315 851.417 614.123 845.544 601.965 843.921C589.807 842.298 577.467 845.03 567.131 851.634C556.794 858.237 549.128 868.286 545.49 880ZM578.69 909C576.007 905.76 574.345 901.797 573.914 897.613C573.483 893.428 574.301 889.21 576.266 885.49C578.231 881.77 581.254 878.717 584.954 876.715C588.654 874.712 592.864 873.852 597.052 874.241C601.241 874.631 605.22 876.253 608.487 878.903C611.754 881.553 614.163 885.112 615.408 889.13C616.653 893.148 616.68 897.445 615.484 901.478C614.288 905.512 611.924 909.1 608.69 911.79C606.543 913.584 604.062 914.938 601.391 915.772C598.72 916.606 595.91 916.905 593.123 916.651C590.337 916.397 587.627 915.596 585.15 914.294C582.674 912.991 580.478 911.213 578.69 909.06V909Z" fill="#FFCA30"/>
<path d="M650.87 928C650.87 928 658.75 941.08 666.67 936.29C674.59 931.5 675.86 914.4 654.29 915.64C632.72 916.88 650.87 928 650.87 928Z" fill="#FBAA32"/>
<path d="M653.26 904.23C654.092 905.044 654.821 905.958 655.43 906.95C663.89 920.74 654.02 932.49 644.43 933.88C634.84 935.27 625.57 925.05 625.23 923.64C625.09 923.04 624.96 922.46 624.86 921.89C621.06 900.8 643.35 894.44 653.26 904.23Z" fill="#FFCA30"/>
<path d="M647 893.55C647.078 895.855 647.012 898.163 646.8 900.46C636.05 897.28 621.8 904.68 624.92 921.89C624.67 921.49 618.16 911.06 626.75 901.03C629.211 898.165 632.362 895.974 635.906 894.666C639.449 893.357 643.267 892.973 647 893.55Z" fill="#FBAA32"/>
<path d="M561.91 855.5C569.372 849.313 578.417 845.337 588.021 844.022C597.625 842.707 607.405 844.105 616.256 848.059C625.107 852.012 632.675 858.364 638.104 866.394C643.534 874.424 646.608 883.814 646.98 893.5V893.7L646.9 893.76C639.05 869.95 631.53 853 597.62 847.24C564.01 841.53 545.82 879.24 545.49 879.97C548.471 870.392 554.177 861.89 561.91 855.5Z" fill="#FBAA32"/>
<path opacity="0.07" d="M54.02 879.03C103.3 879.03 143.25 839.08 143.25 789.8C143.25 740.52 103.3 700.57 54.02 700.57C4.73967 700.57 -35.21 740.52 -35.21 789.8C-35.21 839.08 4.73967 879.03 54.02 879.03Z" fill="#3E52A4"/>
<path d="M-36.8 795.47C-40.7743 808.24 -42.0237 821.701 -40.4673 834.984C-38.9109 848.267 -34.5834 861.075 -27.7649 872.58C-20.9463 884.085 -11.7885 894.031 -0.88385 901.773C10.0208 909.516 22.4293 914.883 35.539 917.528C48.6487 920.172 62.1676 920.035 75.221 917.126C88.2745 914.216 100.572 908.599 111.317 900.637C122.063 892.675 131.017 882.546 137.602 870.906C144.186 859.265 148.253 846.372 149.54 833.06C149.936 828.956 150.063 824.831 149.92 820.71V820.35C149.259 802.52 143.619 785.232 133.639 770.443C123.659 755.653 109.738 743.954 93.4509 736.668C77.1643 729.383 59.1632 726.803 41.4861 729.221C23.8089 731.639 7.16189 738.959 -6.57001 750.35C-20.8175 762.132 -31.3224 777.812 -36.8 795.47ZM24.29 848.9C19.3442 842.945 16.2753 835.657 15.4714 827.958C14.6674 820.259 16.1645 812.494 19.7733 805.646C23.3822 798.798 28.9407 793.173 35.746 789.484C42.5513 785.795 50.2977 784.206 58.0057 784.92C65.7138 785.633 73.0373 788.616 79.0501 793.491C85.063 798.366 89.4951 804.915 91.7862 812.309C94.0772 819.703 94.1243 827.611 91.9213 835.032C89.7184 842.452 85.3644 849.054 79.41 854C71.4235 860.631 61.1304 863.819 50.794 862.862C40.4577 861.906 30.9242 856.884 24.29 848.9Z" fill="#FFCA30"/>
<path d="M157.06 883.7C157.06 883.7 171.56 907.77 186.13 898.96C200.7 890.15 203.03 858.69 163.36 860.96C123.69 863.23 157.06 883.7 157.06 883.7Z" fill="#FBAA32"/>
<path d="M161.47 840C163.003 841.496 164.347 843.176 165.47 845C181.04 870.37 162.88 892 145.31 894.54C127.74 897.08 110.6 878.31 110 875.72C109.73 874.63 109.51 873.55 109.31 872.49C102.24 833.7 143.24 822 161.47 840Z" fill="#FFCA30"/>
<path d="M149.91 820.37C150.063 824.61 149.936 828.856 149.53 833.08C129.77 827.23 103.53 840.84 109.29 872.49C108.83 871.76 96.86 852.58 112.66 834.12C123.75 821.16 139 818.79 149.91 820.37Z" fill="#FBAA32"/>
<path d="M-6.57999 750.37C7.1519 738.979 23.7989 731.659 41.4761 729.241C59.1533 726.823 77.1543 729.403 93.4409 736.688C109.728 743.974 123.649 755.673 133.629 770.463C143.609 785.252 149.249 802.54 149.91 820.37V820.73L149.77 820.84C135.32 777.05 121.48 745.84 59.1 735.27C-2.71999 724.77 -36.19 794.27 -36.8 795.47C-31.3217 777.82 -20.8206 762.148 -6.57999 750.37Z" fill="#FBAA32"/>
<path opacity="0.07" d="M435.93 411.76C485.21 411.76 525.16 371.81 525.16 322.53C525.16 273.25 485.21 233.3 435.93 233.3C386.65 233.3 346.7 273.25 346.7 322.53C346.7 371.81 386.65 411.76 435.93 411.76Z" fill="#3E52A4"/>
<path d="M345.12 328.21C341.145 340.98 339.895 354.443 341.451 367.726C343.007 381.01 347.335 393.819 354.154 405.325C360.973 416.831 370.131 426.777 381.037 434.519C391.942 442.262 404.352 447.629 417.462 450.273C430.573 452.917 444.093 452.78 457.147 449.869C470.201 446.958 482.498 441.339 493.244 433.376C503.989 425.412 512.943 415.282 519.526 403.64C526.109 391.997 530.175 379.103 531.46 365.79C531.857 361.689 531.984 357.567 531.84 353.45C531.84 353.33 531.84 353.2 531.84 353.08C531 330.554 522.223 309.05 507.061 292.369C491.899 275.689 471.327 264.906 448.983 261.928C426.639 258.949 403.961 263.966 384.958 276.091C365.956 288.217 351.852 306.671 345.14 328.19L345.12 328.21ZM406.21 381.64C401.269 375.681 398.206 368.391 397.408 360.692C396.61 352.992 398.113 345.229 401.727 338.384C405.341 331.538 410.903 325.918 417.711 322.234C424.519 318.55 432.266 316.967 439.973 317.686C447.681 318.405 455.002 321.393 461.011 326.272C467.02 331.151 471.448 337.703 473.734 345.098C476.02 352.494 476.061 360.401 473.854 367.82C471.646 375.24 467.288 381.838 461.33 386.78C453.339 393.406 443.042 396.588 432.706 395.624C422.369 394.66 412.839 389.63 406.21 381.64Z" fill="#FFCA30"/>
<path d="M539 416.43C539 416.43 553.47 440.5 568 431.7C582.53 422.9 584.91 391.43 545.24 393.7C505.57 395.97 539 416.43 539 416.43Z" fill="#FBAA32"/>
<path d="M543.39 372.75C544.918 374.252 546.26 375.93 547.39 377.75C562.96 403.11 544.8 424.75 527.22 427.28C509.64 429.81 492.52 411 491.89 408.46C491.63 407.36 491.4 406.28 491.21 405.23C484.15 366.44 525.16 354.75 543.39 372.75Z" fill="#FFCA30"/>
<path d="M531.82 353.1C531.982 357.34 531.858 361.586 531.45 365.81C511.69 359.97 485.45 373.58 491.21 405.23C490.74 404.5 478.78 385.32 494.58 366.86C505.67 353.9 520.87 351.52 531.82 353.1Z" fill="#FBAA32"/>
<path d="M375.34 283.11C389.072 271.722 405.718 264.405 423.394 261.989C441.069 259.572 459.068 262.152 475.353 269.437C491.638 276.722 505.558 288.421 515.538 303.208C525.517 317.996 531.158 335.282 531.82 353.11C531.82 353.23 531.82 353.36 531.82 353.48L531.67 353.59C517.22 309.79 503.39 278.59 441.01 268.01C379.19 257.52 345.72 326.96 345.11 328.22C350.583 310.562 361.089 294.885 375.34 283.11Z" fill="#FBAA32"/>
<path d="M-21.29 409.17C-21.29 409.17 1.30001 446.68 24 433C46.7 419.32 50.35 370.23 -11.48 373.78C-73.31 377.33 -21.29 409.17 -21.29 409.17Z" fill="#FBAA32"/>
<path d="M-14.41 341.09C-12.0349 343.423 -9.95593 346.039 -8.22004 348.88C16.05 388.42 -12.22 422.12 -39.64 426.09C-67.06 430.06 -93.7 400.77 -94.64 396.73C-95.05 395.03 -95.4 393.34 -95.7 391.73C-106.74 331.24 -42.82 313 -14.41 341.09Z" fill="#FFCA30"/>
</g>
</g>
<defs>
<clipPath id="clip0_28_12">
<rect width="1512" height="982" fill="white"/>
</clipPath>
</defs>
</svg>
