<svg width="11" height="14" viewBox="0 0 11 14" fill="none" xmlns="http://www.w3.org/2000/svg">
<path d="M5.5 0C4.77065 0 4.07118 0.294999 3.55546 0.820101C3.03973 1.3452 2.75 2.05739 2.75 2.8C2.75 3.54261 3.03973 4.2548 3.55546 4.7799C4.07118 5.305 4.77065 5.6 5.5 5.6C6.22935 5.6 6.92882 5.305 7.44454 4.7799C7.96027 4.2548 8.25 3.54261 8.25 2.8C8.25 2.05739 7.96027 1.3452 7.44454 0.820101C6.92882 0.294999 6.22935 0 5.5 0ZM8.9375 7H2.0625C1.51549 7 0.990886 7.22125 0.604092 7.61508C0.217299 8.0089 0 8.54305 0 9.1C0 10.6624 0.631125 11.914 1.6665 12.761C2.68537 13.594 4.05212 14 5.5 14C6.94788 14 8.31462 13.594 9.3335 12.761C10.3675 11.914 11 10.6624 11 9.1C11 8.54305 10.7827 8.0089 10.3959 7.61508C10.0091 7.22125 9.48451 7 8.9375 7Z" fill="#5685FD"/>
</svg>
