<svg width="14" height="17" viewBox="0 0 14 17" fill="none" xmlns="http://www.w3.org/2000/svg">
<path d="M11.6667 12.0161C11.0756 12.0161 10.5467 12.2721 10.1422 12.6732L4.59667 9.13153C4.63556 8.93524 4.66667 8.73896 4.66667 8.53414C4.66667 8.32932 4.63556 8.13303 4.59667 7.93675L10.08 4.42922C10.5 4.85592 11.0522 5.12048 11.6667 5.12048C12.9578 5.12048 14 3.97691 14 2.56024C14 1.14357 12.9578 0 11.6667 0C10.3756 0 9.33333 1.14357 9.33333 2.56024C9.33333 2.76506 9.36444 2.96135 9.40333 3.15763L3.92 6.66516C3.5 6.23845 2.94778 5.9739 2.33333 5.9739C1.04222 5.9739 0 7.11747 0 8.53414C0 9.9508 1.04222 11.0944 2.33333 11.0944C2.94778 11.0944 3.5 10.8298 3.92 10.4031L9.45778 13.9533C9.41889 14.1325 9.39556 14.3203 9.39556 14.508C9.39556 15.882 10.4144 17 11.6667 17C12.9189 17 13.9378 15.882 13.9378 14.508C13.9378 13.134 12.9189 12.0161 11.6667 12.0161Z" fill="white"/>
</svg>
