<svg width="80" height="72" viewBox="0 0 80 72" fill="none" xmlns="http://www.w3.org/2000/svg">
<g filter="url(#filter0_d_321_8)">
<circle cx="28" cy="32" r="28" fill="white"/>
</g>
<path d="M11.8125 34.875C10.7079 34.875 9.8125 33.9796 9.8125 32.875C9.8125 31.7704 10.7079 30.875 11.8125 30.875V34.875ZM44.2892 31.4608C45.0703 32.2418 45.0703 33.5082 44.2892 34.2892L31.5613 47.0171C30.7802 47.7982 29.5139 47.7982 28.7329 47.0171C27.9518 46.2361 27.9518 44.9698 28.7329 44.1887L40.0466 32.875L28.7329 21.5613C27.9518 20.7802 27.9518 19.5139 28.7329 18.7329C29.5139 17.9518 30.7802 17.9518 31.5613 18.7329L44.2892 31.4608ZM11.8125 30.875H42.875V34.875H11.8125V30.875Z" fill="#FFC70D"/>
<defs>
<filter id="filter0_d_321_8" x="0" y="0.4" width="79.6" height="71.2" filterUnits="userSpaceOnUse" color-interpolation-filters="sRGB">
<feFlood flood-opacity="0" result="BackgroundImageFix"/>
<feColorMatrix in="SourceAlpha" type="matrix" values="0 0 0 0 0 0 0 0 0 0 0 0 0 0 0 0 0 0 127 0" result="hardAlpha"/>
<feMorphology radius="9" operator="erode" in="SourceAlpha" result="effect1_dropShadow_321_8"/>
<feOffset dx="16" dy="4"/>
<feGaussianBlur stdDeviation="8.3"/>
<feComposite in2="hardAlpha" operator="out"/>
<feColorMatrix type="matrix" values="0 0 0 0 0.174241 0 0 0 0 0.158987 0 0 0 0 0.921667 0 0 0 0.32 0"/>
<feBlend mode="normal" in2="BackgroundImageFix" result="effect1_dropShadow_321_8"/>
<feBlend mode="normal" in="SourceGraphic" in2="effect1_dropShadow_321_8" result="shape"/>
</filter>
</defs>
</svg>
