<svg width="80" height="72" viewBox="0 0 80 72" fill="none" xmlns="http://www.w3.org/2000/svg">
<g filter="url(#filter0_d_321_11)">
<circle cx="28" cy="32" r="28" transform="rotate(-180 28 32)" fill="white"/>
</g>
<path d="M44.1875 29.125C45.2921 29.125 46.1875 30.0204 46.1875 31.125C46.1875 32.2296 45.2921 33.125 44.1875 33.125V29.125ZM11.7108 32.5392C10.9297 31.7582 10.9297 30.4918 11.7108 29.7108L24.4387 16.9829C25.2198 16.2018 26.4861 16.2018 27.2671 16.9829C28.0482 17.7639 28.0482 19.0302 27.2671 19.8113L15.9534 31.125L27.2671 42.4387C28.0482 43.2198 28.0482 44.4861 27.2671 45.2671C26.4861 46.0482 25.2198 46.0482 24.4387 45.2671L11.7108 32.5392ZM44.1875 33.125L13.125 33.125V29.125L44.1875 29.125V33.125Z" fill="#FFC70D"/>
<defs>
<filter id="filter0_d_321_11" x="0" y="0.4" width="79.6" height="71.2" filterUnits="userSpaceOnUse" color-interpolation-filters="sRGB">
<feFlood flood-opacity="0" result="BackgroundImageFix"/>
<feColorMatrix in="SourceAlpha" type="matrix" values="0 0 0 0 0 0 0 0 0 0 0 0 0 0 0 0 0 0 127 0" result="hardAlpha"/>
<feMorphology radius="9" operator="erode" in="SourceAlpha" result="effect1_dropShadow_321_11"/>
<feOffset dx="16" dy="4"/>
<feGaussianBlur stdDeviation="8.3"/>
<feComposite in2="hardAlpha" operator="out"/>
<feColorMatrix type="matrix" values="0 0 0 0 0.174241 0 0 0 0 0.158987 0 0 0 0 0.921667 0 0 0 0.32 0"/>
<feBlend mode="normal" in2="BackgroundImageFix" result="effect1_dropShadow_321_11"/>
<feBlend mode="normal" in="SourceGraphic" in2="effect1_dropShadow_321_11" result="shape"/>
</filter>
</defs>
</svg>
