<svg width="48" height="50" viewBox="0 0 48 50" fill="none" xmlns="http://www.w3.org/2000/svg">
<path d="M44.7505 24.5083C44.3359 20.3394 42.783 16.363 40.2603 13.01C35.927 7.1955 29.2682 3.78674 21.8976 4.4118C16.6261 4.86242 10.7377 7.65339 7.41926 11.8617C4.69954 15.314 0.848137 19.7149 0.118013 24.123C-0.696076 28.9891 2.85963 31.2894 5.92981 34.233C8.39033 36.5879 8.48524 39.7641 10.0112 42.566C11.413 45.1353 14.3408 46.8433 17.1263 47.5592C21.4449 48.6494 27.9723 49.0964 31.8237 46.7415C37.4201 43.3219 41.0013 38.7902 43.5056 32.8703C44.5966 30.2249 45.0238 27.3549 44.7505 24.5083Z" fill="#DCE8EF"/>
<path d="M2.25024 24.841C2.66133 20.6016 4.21461 16.5576 6.74081 13.1499C11.0707 7.23964 17.7299 3.77477 25.101 4.41381C30.3729 4.86816 36.2617 7.70507 39.5804 11.9826C42.3002 15.4918 46.1519 19.9651 46.8821 24.4458C47.6962 29.3919 44.1439 31.7338 41.0699 34.7222C38.6092 37.1195 38.5143 40.3443 36.9919 43.1923C35.5863 45.8076 32.6583 47.5437 29.8764 48.2677C25.5537 49.3759 19.026 49.8302 15.1743 47.4366C9.57754 43.9606 5.99969 39.358 3.49154 33.337C2.40209 30.649 1.97604 27.733 2.25024 24.841Z" stroke="#DCE8EF" stroke-miterlimit="10"/>
<path d="M7.84938 33.027L38.7903 1.40046C38.8688 1.32697 38.9319 1.23798 38.9759 1.13886C39.0199 1.03974 39.0437 0.932548 39.0461 0.823742C39.0484 0.714936 39.0292 0.606773 38.9895 0.505773C38.9499 0.404773 38.8906 0.313029 38.8153 0.236073C38.7401 0.159117 38.6503 0.098544 38.5515 0.0580047C38.4527 0.0174653 38.3469 -0.00219963 38.2405 0.000195175C38.134 0.00258998 38.0292 0.0269955 37.9322 0.0719394C37.8353 0.116883 37.7482 0.181436 37.6763 0.261703L6.73905 31.8882C6.6659 31.9628 6.60784 32.0513 6.56817 32.1488C6.52849 32.2462 6.50798 32.3507 6.50781 32.4563C6.50765 32.5619 6.52782 32.6665 6.56718 32.7641C6.60655 32.8617 6.66433 32.9504 6.73723 33.0252C6.81014 33.0999 6.89674 33.1593 6.99209 33.1998C7.08743 33.2404 7.18966 33.2614 7.29293 33.2615C7.3962 33.2617 7.4985 33.2411 7.59397 33.2008C7.68945 33.1606 7.77623 33.1015 7.84938 33.027Z" fill="#E7B932"/>
<path d="M37.5998 16.6325C37.6022 20.2937 36.3122 23.8324 33.9676 26.5957C31.623 29.359 28.382 31.1606 24.8425 31.6682C24.1574 31.7655 23.4666 31.8146 22.7749 31.8153C19.1504 31.815 15.6516 30.4545 12.9399 27.9909C10.2281 25.5274 8.4913 22.1316 8.05777 18.4453C7.98681 17.8438 7.95204 17.2384 7.95367 16.6325C7.95329 12.8082 9.36141 9.1246 11.8967 6.31749C14.432 3.51038 17.9079 1.78648 21.6299 1.49017C22.0104 1.46075 22.3872 1.44604 22.7713 1.44604C23.4847 1.44689 24.1971 1.4985 24.9035 1.60049C27.8527 2.04234 30.6038 3.38353 32.7985 5.44944C34.9932 7.51535 36.5299 10.2103 37.2085 13.1834C37.2444 13.3452 37.2767 13.5033 37.309 13.6651C37.4994 14.6423 37.5968 15.636 37.5998 16.6325Z" fill="#78B78E"/>
<path d="M35.4552 3.94744C37.9025 6.35743 39.6157 9.41302 40.3955 12.7589L41.6252 12.4722H40.3629V12.6173L40.3955 12.7589C41.1807 16.169 40.9743 19.7327 39.8007 23.0292C38.679 26.1458 36.7287 28.8972 34.1599 30.9871C31.5911 33.0769 28.5012 34.426 25.2228 34.889C24.3814 35.004 23.5331 35.0622 22.6838 35.0632C20.277 35.0657 17.8938 34.5888 15.6731 33.6605C13.4524 32.7321 11.4386 31.3708 9.74909 29.6559L7.95361 31.4305C9.87647 33.3859 12.1693 34.9385 14.6984 35.9978C17.2275 37.057 19.9421 37.6017 22.6838 37.6C23.6485 37.5987 24.612 37.5308 25.5674 37.3967C29.2996 36.8713 32.8179 35.3377 35.7438 32.9609C38.6697 30.584 40.8924 27.454 42.1729 23.9074C42.9784 21.6603 43.3883 19.2905 43.3844 16.9033C43.386 15.3229 43.2083 13.7475 42.8548 12.2072L41.6215 12.4939H42.8874V12.3488L42.8548 12.2072C41.9646 8.39681 40.0141 4.91651 37.229 2.16919L35.4552 3.94744Z" fill="#E7B932"/>
<path d="M37.6002 13.2268C37.2627 13.8128 36.9762 14.4283 36.744 15.0663C36.3812 16.1655 36.2941 17.3619 35.6011 18.3377C34.6869 19.6238 33.0615 19.8332 31.7517 19.1116C28.8275 17.5114 26.2516 14.2213 26.1209 10.7144C26.081 9.68624 26.3785 8.54966 25.8452 7.60376C25.4732 7.01011 24.9775 6.50943 24.394 6.13817C23.8534 5.7643 23.204 5.41285 23.1387 4.66137C23.1387 4.62024 23.1387 4.57538 23.1387 4.53051C23.1568 3.72668 23.8897 3.49862 24.3323 2.97519C24.6577 2.58827 24.9122 2.14361 25.0833 1.66289C25.1087 1.58812 25.1341 1.51708 25.1631 1.44604C28.1445 1.89556 30.9254 3.25978 33.1437 5.36104C35.362 7.4623 36.9149 10.2032 37.6002 13.2268Z" fill="#518E88"/>
<path d="M17.1376 17.6649C17.3722 18.057 17.5561 18.4778 17.6849 18.917C17.9271 19.8036 18.3336 20.6356 18.8828 21.3689C19.6223 22.2323 20.665 22.4902 21.6337 22.9799C23.3936 23.8619 23.6746 25.8616 22.1328 27.1735C20.591 28.4854 18.0657 28.519 16.3908 27.394C14.5606 26.1793 13.6806 23.7162 12.8524 21.7689C12.1979 20.2215 11.891 18.4685 13.2221 17.2015C14.1686 16.3007 16.2688 16.5063 17.0452 17.5378L17.1376 17.6649Z" fill="#518E88"/>
<path d="M21.638 1.52776C20.9531 2.51952 20.8629 3.81958 20.9639 5.02678C21.0648 6.23397 21.3244 7.44489 21.2559 8.6558C21.1874 9.86671 20.7187 11.1482 19.7058 11.7685C19.1396 12.0712 18.5154 12.2412 17.878 12.2662C17.0171 12.348 16.1507 12.348 15.2897 12.2662C14.6668 12.1717 14.0374 12.1307 13.4079 12.1437C12.7734 12.1569 12.1686 12.4232 11.7208 12.8866C11.5166 13.1396 11.3545 13.4257 11.2413 13.7335C10.7402 14.9332 10.4699 16.2221 10.0733 17.4479C9.97067 17.9194 9.70715 18.3372 9.33071 18.6254C9.13818 18.7489 8.91383 18.8093 8.68728 18.7987C8.46073 18.7881 8.24262 18.7069 8.06176 18.566C7.98928 17.9584 7.95317 17.3468 7.95362 16.7347C7.95513 12.8723 9.3706 9.15261 11.9174 6.31848C14.4641 3.48435 17.9547 1.74438 21.6921 1.44604L21.638 1.52776Z" fill="#518E88"/>
<path d="M27.5486 19.0732C27.7497 19.1895 27.9187 19.3761 28.0344 19.6099C28.15 19.8437 28.2073 20.1143 28.1991 20.3879C28.1789 20.5571 28.1317 20.7196 28.0602 20.8661C27.9887 21.0127 27.8944 21.1403 27.7827 21.2417C27.5603 21.4492 27.3002 21.5868 27.0249 21.6425C26.47 21.7664 25.8975 21.6578 25.3986 21.3339C24.8164 20.9531 24.1528 19.7065 24.9562 19.1614C25.7772 18.7123 26.7088 18.6806 27.5486 19.0732Z" fill="#518E88"/>
<path d="M36.8768 21.9237C35.9424 24.5227 34.3174 26.8174 32.1769 28.5604C30.0365 30.3035 27.4615 31.4289 24.7295 31.8155C24.1903 30.3798 25.265 27.8316 26.1415 26.9907C27.2418 25.9406 28.9253 25.7533 30.1356 24.828C31.1882 24.0239 31.8154 22.7057 32.9964 22.0999C33.8029 21.7462 34.6905 21.6193 35.5638 21.7327C36.0057 21.7618 36.4448 21.8257 36.8768 21.9237Z" fill="#518E88"/>
<path d="M24.5845 36.1538V44.8307" stroke="#E7B932" stroke-width="8" stroke-miterlimit="10"/>
<path d="M32.5385 48.0655V49.8923H16.6309V48.0655C16.6304 47.6409 16.7173 47.2204 16.8868 46.8279C17.0563 46.4355 17.3049 46.0789 17.6185 45.7785C17.9321 45.478 18.3045 45.2397 18.7144 45.0771C19.1243 44.9145 19.5636 44.8308 20.0073 44.8308H29.1621C29.6058 44.8308 30.0451 44.9145 30.455 45.0771C30.8649 45.2397 31.2373 45.478 31.5509 45.7785C31.8645 46.0789 32.1131 46.4355 32.2826 46.8279C32.4521 47.2204 32.539 47.6409 32.5385 48.0655Z" fill="#4B1C4A"/>
<path d="M32.5386 48.446H16.6309V49.8922H32.5386V48.446Z" fill="#18203D"/>
<g style="mix-blend-mode:multiply">
<path d="M37.6001 16.6909C37.6026 20.3381 36.296 23.8631 33.9214 26.6159C31.5467 29.3686 28.2642 31.1633 24.6792 31.6689C23.9853 31.7658 23.2857 31.8148 22.5852 31.8154C20.516 31.8183 18.4687 31.3888 16.5726 30.5541C14.6766 29.7193 12.9729 28.4974 11.5693 26.9656C27.0242 28.6872 34.6189 18.3319 37.3165 13.7385C37.5055 14.7111 37.6005 15.6999 37.6001 16.6909Z" fill="#C9DBF0"/>
</g>
<g style="mix-blend-mode:screen" opacity="0.3">
<path d="M9.73845 13.7592C10.1274 12.1019 10.7818 10.5184 11.6764 9.07008C11.8925 8.70374 12.1636 8.33741 12.4091 8.00037C12.6545 7.66334 12.9549 7.32265 13.2663 7.01492C13.8694 6.3753 14.5442 5.80738 15.2775 5.32244C16.7373 4.34353 18.3966 3.70159 20.1351 3.44313C21.8359 3.17825 23.5731 3.26679 25.2382 3.70323C25.502 3.78016 25.3701 4.3663 25.1283 4.34798C23.5452 4.273 21.9602 4.44856 20.4319 4.86818C18.941 5.26435 17.5278 5.90964 16.2519 6.7768C13.7095 8.49127 11.8302 11.0886 10.3905 13.9937C10.2513 14.2318 9.65785 14.0193 9.73845 13.7592Z" fill="#78B78E"/>
</g>
<g style="mix-blend-mode:screen">
<path d="M20.7978 46.0667C20.5231 46.1693 20.2666 46.2645 20.0249 46.3488C19.7831 46.4331 19.5596 46.5246 19.3581 46.6199C19.1622 46.705 18.9805 46.8199 18.8196 46.9606C18.6311 47.1213 18.482 47.323 18.3837 47.5504C18.3544 47.5907 18.1565 47.5943 18.1382 47.5504C18.0835 47.3942 18.0635 47.2279 18.0796 47.0632C18.0909 46.8858 18.1344 46.7121 18.2078 46.5503C18.3708 46.2365 18.6267 45.9806 18.9405 45.8176C19.2321 45.6665 19.5538 45.5826 19.882 45.5722C20.1949 45.5603 20.5069 45.614 20.7978 45.7297C20.8528 45.7333 20.8381 46.0484 20.7978 46.0667Z" fill="#1D262D"/>
</g>
<g style="mix-blend-mode:screen">
<path d="M23.5493 44.2679C23.4577 43.8686 23.3697 43.4693 23.3075 43.0663C23.2351 42.66 23.1996 42.2481 23.2012 41.8354C23.2065 41.4132 23.2519 40.9925 23.3368 40.5789C23.4173 40.1561 23.5684 39.7499 23.7837 39.3773C23.8167 39.3187 24.0035 39.3773 23.9925 39.4579C23.9365 39.8472 23.9168 40.2409 23.9339 40.6338C23.9339 41.0295 23.9815 41.4214 24.0035 41.8207C24.0256 42.2234 24.0256 42.627 24.0035 43.0297C23.9886 43.4445 23.9396 43.8574 23.857 44.2642C23.857 44.3338 23.5786 44.3302 23.5493 44.2679Z" fill="#4C6B81"/>
</g>
</svg>
