<svg width="47" height="50" viewBox="0 0 47 50" fill="none" xmlns="http://www.w3.org/2000/svg">
<path d="M4.5078 17.1643C7.21981 15.7612 10.6715 15.0288 12.9774 13.7997C16.3892 11.9869 19.7792 9.92022 23.5281 9.16971C24.8034 8.90685 26.1091 8.82266 27.4076 8.91954C29.583 9.08269 30.7215 9.56491 31.5626 10.4024C32.4038 11.24 32.915 12.4292 33.8142 13.9955C34.754 15.6042 36.0579 16.9702 37.6212 17.9837C39.1526 18.9663 40.7491 19.8433 42.3998 20.6087C43.9393 21.3842 45.1665 22.6638 45.8768 24.2344C46.5993 25.8222 46.8449 27.5856 46.5838 29.3104C46.3364 30.8351 45.894 32.3217 45.2677 33.7337C43.8761 36.8857 42.0075 39.8047 39.7277 42.3882C38.6488 43.6188 37.4099 44.6992 36.044 45.6006C35.0822 46.2021 34.0236 46.6327 32.915 46.8732C31.7685 47.12 30.5951 47.2187 29.4235 47.1668C28.2025 47.1148 26.9889 46.951 25.7978 46.6774C24.584 46.401 23.3917 46.0375 22.2301 45.5897C21.0959 45.1519 19.9893 44.6458 18.9163 44.0741C17.9349 43.5593 16.9856 42.9853 16.0737 42.3556C14.6053 41.3331 13.1406 40.4448 11.7229 39.455C10.2554 38.4451 8.91615 37.2605 7.73466 35.9272C6.11761 34.06 4.2395 32.6061 2.52818 30.8513C-0.0714303 28.2009 -0.673293 24.1764 0.755225 20.7719C1.4441 19.1222 2.83999 18.0055 4.5078 17.1643Z" fill="#DCE8EF"/>
<path d="M8.22042 12.3421C11.208 11.704 14.7176 11.8998 17.2846 11.3233C19.1664 10.9027 21.0626 10.4133 22.9624 10.0616C24.8416 9.67918 26.7611 9.53302 28.6765 9.62649C29.9622 9.70617 31.2303 9.96613 32.4436 10.3988C34.4522 11.1239 35.3949 11.8853 35.9424 12.9077C36.4899 13.9302 36.6421 15.2028 37.0301 16.896C37.4367 18.6267 38.2593 20.2322 39.4267 21.5731C40.5757 22.8804 41.8177 24.1031 43.143 25.2314C44.3996 26.3941 45.2316 27.9433 45.5069 29.633C45.8114 31.4211 45.6465 33.2575 45.0283 34.9627C44.4625 36.4844 43.7189 37.9338 42.813 39.2809C41.8477 40.7465 40.7558 42.1247 39.5499 43.3997C38.35 44.6834 37.0126 45.8312 35.5617 46.8224C34.2178 47.749 32.736 48.4575 31.171 48.9216C30.0727 49.222 28.9294 49.3227 27.7955 49.2189C26.6205 49.1127 25.464 48.8556 24.3547 48.4539C23.1862 48.0365 22.0577 47.5147 20.9828 46.8949C19.8906 46.2624 18.8427 45.5562 17.8466 44.7811C16.8725 44.0282 15.9427 43.2195 15.0621 42.3591C14.246 41.5666 13.4749 40.729 12.7525 39.8502C11.5996 38.4253 10.4176 37.1418 9.319 35.7858C8.17585 34.4108 7.19752 32.9068 6.40395 31.3044C5.31625 29.0783 3.90223 27.1784 2.70938 25.0393C0.896544 21.7979 1.37513 17.7589 3.65206 14.8475C4.74702 13.448 6.3822 12.7373 8.22042 12.3421Z" stroke="#DCE8EF" stroke-miterlimit="10"/>
<path d="M22.3641 44.2406C21.4146 43.6256 20.7419 42.665 20.4888 41.5624C20.2356 40.4598 20.4219 39.3019 21.0081 38.3344C26.5735 29.6037 32.1607 20.6483 38.1322 12.2041C40.6581 13.9517 43.196 15.686 45.7461 17.407C39.9051 25.9563 33.9699 34.4477 28.2232 43.0768C27.5883 43.9929 26.6222 44.6264 25.529 44.8435C24.4358 45.0607 23.3009 44.8445 22.3641 44.2406Z" fill="#C9DBF0"/>
<path d="M37.2187 28.5418C34.0354 33.2552 30.6635 37.8779 27.5309 42.6384C27.0157 43.3704 26.237 43.8745 25.3583 44.0448C24.4795 44.2152 23.5689 44.0386 22.8175 43.5521C22.0575 43.0527 21.5199 42.2789 21.3172 41.3924C21.1145 40.5058 21.2623 39.5753 21.7298 38.7952C24.7319 33.9513 28.256 29.4555 31.269 24.6333C33.419 26.5585 34.6445 27.2728 37.2187 28.5418Z" fill="#C7404E"/>
<g style="mix-blend-mode:screen" opacity="0.5">
<path d="M28.9342 38.2115C28.8402 38.3156 28.7104 38.3805 28.5706 38.3933C28.4309 38.4061 28.2915 38.3657 28.1801 38.2803C28.1168 38.2485 28.0608 38.2039 28.0154 38.1495C27.97 38.0951 27.9363 38.032 27.9162 37.9641C27.8962 37.8961 27.8903 37.8248 27.8989 37.7545C27.9074 37.6841 27.9304 37.6163 27.9662 37.5552C28.0606 37.4522 28.1907 37.3889 28.33 37.3781C28.4693 37.3673 28.6076 37.4099 28.7167 37.4972C28.7799 37.5276 28.8361 37.5709 28.8818 37.6241C28.9275 37.6774 28.9616 37.7395 28.982 37.8066C29.0025 37.8738 29.0088 37.9444 29.0006 38.0141C28.9923 38.0837 28.9698 38.151 28.9342 38.2115Z" fill="#C3D3DD"/>
</g>
<g style="mix-blend-mode:screen" opacity="0.5">
<path d="M30.8808 33.875C30.7873 33.9799 30.6567 34.0442 30.5166 34.0544C30.3765 34.0645 30.2379 34.0197 30.1303 33.9294C30.0683 33.8962 30.0137 33.8507 29.9697 33.7959C29.9257 33.741 29.8933 33.6778 29.8743 33.6101C29.8554 33.5424 29.8503 33.4715 29.8594 33.4018C29.8685 33.332 29.8916 33.2648 29.9273 33.2043C30.0222 33.1015 30.1529 33.039 30.2924 33.0296C30.432 33.0201 30.5699 33.0645 30.6778 33.1535C30.7396 33.1864 30.7942 33.2314 30.8381 33.286C30.8821 33.3405 30.9145 33.4034 30.9335 33.4709C30.9525 33.5383 30.9576 33.6089 30.9485 33.6783C30.9395 33.7478 30.9164 33.8147 30.8808 33.875Z" fill="#C3D3DD"/>
</g>
<g style="mix-blend-mode:screen" opacity="0.5">
<path d="M24.7174 38.5773C24.6743 38.6344 24.6203 38.6824 24.5584 38.7183C24.4966 38.7542 24.4282 38.7774 24.3573 38.7865C24.2863 38.7957 24.2143 38.7905 24.1454 38.7714C24.0765 38.7523 24.0121 38.7196 23.956 38.6752C23.8311 38.5965 23.7414 38.4727 23.7056 38.3295C23.6698 38.1863 23.6906 38.0348 23.7638 37.9066C23.8064 37.8493 23.8603 37.8012 23.9221 37.7654C23.9839 37.7296 24.0523 37.7068 24.1232 37.6983C24.1941 37.6898 24.266 37.6959 24.3345 37.7161C24.403 37.7363 24.4666 37.7703 24.5216 37.8159C24.6459 37.8933 24.7356 38.0156 24.772 38.1574C24.8085 38.2992 24.7889 38.4496 24.7174 38.5773Z" fill="#C3D3DD"/>
</g>
<g style="mix-blend-mode:screen" opacity="0.5">
<path d="M27.5454 34.2738C27.5252 34.2941 27.5012 34.3102 27.4748 34.3212C27.4483 34.3322 27.42 34.3378 27.3913 34.3378C27.3627 34.3378 27.3344 34.3322 27.3079 34.3212C27.2815 34.3102 27.2575 34.2941 27.2373 34.2738C27.187 34.2416 27.1505 34.1918 27.1351 34.1341C27.1196 34.0764 27.1264 34.015 27.1539 33.962C27.1738 33.9413 27.1978 33.9248 27.2242 33.9136C27.2507 33.9023 27.2792 33.8965 27.308 33.8965C27.3367 33.8965 27.3652 33.9023 27.3917 33.9136C27.4182 33.9248 27.4421 33.9413 27.4621 33.962C27.5124 33.9942 27.5488 34.0441 27.5642 34.1018C27.5797 34.1594 27.573 34.2208 27.5454 34.2738Z" fill="#C3D3DD"/>
</g>
<g style="mix-blend-mode:screen" opacity="0.5">
<path d="M32.4979 29.9342C32.4631 29.9877 32.4085 30.0253 32.346 30.0389C32.2836 30.0524 32.2183 30.0409 32.1644 30.0067C32.1115 29.9693 32.0752 29.913 32.0631 29.8494C32.0509 29.7859 32.0638 29.7201 32.0991 29.6658C32.1157 29.6391 32.1375 29.6159 32.1632 29.5977C32.1889 29.5796 32.218 29.5667 32.2488 29.5599C32.2795 29.5532 32.3113 29.5527 32.3423 29.5584C32.3733 29.5641 32.4028 29.576 32.4291 29.5933C32.4825 29.6301 32.5195 29.6862 32.5324 29.7498C32.5452 29.8134 32.5329 29.8795 32.4979 29.9342Z" fill="#C3D3DD"/>
</g>
<g style="mix-blend-mode:screen" opacity="0.5">
<path d="M24.5656 42.0908C24.5418 42.1332 24.5058 42.1676 24.4622 42.1893C24.4186 42.211 24.3695 42.2192 24.3212 42.2127C24.2729 42.2061 24.2278 42.1852 24.1915 42.1527C24.1553 42.1202 24.1296 42.0775 24.1179 42.0302C24.1062 41.9829 24.109 41.9332 24.126 41.8876C24.1429 41.8419 24.1731 41.8023 24.2128 41.7741C24.2525 41.7458 24.2997 41.7301 24.3484 41.7291C24.3971 41.728 24.445 41.7416 24.4859 41.7681C24.5391 41.8004 24.5774 41.8525 24.5923 41.913C24.6073 41.9734 24.5977 42.0373 24.5656 42.0908Z" fill="#C3D3DD"/>
</g>
<path d="M37.2186 28.5415C36.9865 28.9041 35.3405 28.498 33.6944 27.432C32.0484 26.3661 31.0368 24.9774 31.2435 24.633C31.4501 24.2886 32.8315 25.0645 34.5066 26.134C36.1816 27.2036 37.447 28.1934 37.2186 28.5415Z" fill="#DD6274"/>
<g style="mix-blend-mode:screen">
<path d="M30.3914 27.0914C31.4538 25.4164 32.5668 23.4657 33.7814 21.526C34.3978 20.5761 34.9308 19.5754 35.5036 18.5964C36.0283 17.6244 36.6807 16.7269 37.4434 15.9279C37.563 15.8156 37.6247 15.8772 37.5159 16.0041C36.834 16.858 36.2525 17.7874 35.7828 18.7741C35.268 19.7712 34.7567 20.8262 34.1368 21.8015C32.9439 23.763 31.7764 25.7209 30.5437 27.2401C30.4204 27.3561 30.3262 27.2437 30.3914 27.0914Z" fill="#5C6184"/>
</g>
<path d="M30.3629 36.917C23.8149 38.3927 17.4736 39.5855 10.7842 40.046C9.08011 40.1765 7.55733 38.6501 7.81838 37.0512C9.36292 28.3713 11.0235 19.7784 12.1982 11.0297C11.4731 7.97686 11.1576 6.52296 10.5558 3.59341C12.8327 3.06406 14.0509 2.70149 16.4221 1.97998C17.1001 4.88053 17.5098 6.47945 18.4235 9.78244C23.4451 17.3964 27.4369 25.3729 31.9763 33.2551C32.1737 33.5909 32.2888 33.9687 32.3123 34.3575C32.3357 34.7464 32.2669 35.1352 32.1113 35.4924C31.9557 35.8495 31.7178 36.1647 31.4171 36.4123C31.1164 36.66 30.7613 36.8329 30.381 36.917" fill="#C9DBF0"/>
<path d="M20.366 15.7539C17.683 16.218 16.1457 16.3304 13.2778 16.6132C12.2626 23.6108 10.5984 30.4379 9.4056 37.3992C9.38488 37.5372 9.3978 37.6782 9.44325 37.8101C9.4887 37.942 9.56534 38.061 9.66665 38.157C9.76688 38.2618 9.88908 38.3432 10.0245 38.3952C10.1599 38.4473 10.3051 38.4687 10.4498 38.4579C17.0735 38.03 23.6448 37.0021 30.0829 35.387C30.2164 35.3564 30.3407 35.2945 30.4453 35.2062C30.55 35.1179 30.6321 35.0058 30.6847 34.8794C30.7416 34.7553 30.7676 34.6193 30.7607 34.4829C30.7537 34.3466 30.714 34.2139 30.6448 34.0962C27.2186 27.9507 24.1186 21.7218 20.366 15.7539Z" fill="#E7B932"/>
<path d="M20.3661 15.7538C20.4857 16.1888 19.0753 16.7907 17.103 17.001C15.1306 17.2113 13.3939 17.001 13.2924 16.6131C13.1909 16.2251 14.7173 15.7284 16.686 15.4855C18.6548 15.2425 20.2392 15.3187 20.3661 15.7538Z" fill="#D8A525"/>
<path d="M16.4688 2.05614C14.0179 2.81753 12.7525 3.19822 10.4067 3.74933C10.3722 3.75721 10.3365 3.7577 10.3018 3.75075C10.2671 3.74381 10.2343 3.72958 10.2055 3.70903C10.1767 3.68847 10.1527 3.66204 10.1348 3.63149C10.117 3.60094 10.1059 3.56696 10.1022 3.53179C10.0695 3.14747 10.0514 2.9553 10.0151 2.56736C12.5277 2.01988 13.8874 1.60292 16.5414 0.790771C16.632 1.0917 16.6755 1.24398 16.7698 1.54854C16.7955 1.65326 16.7797 1.76388 16.7256 1.85717C16.6715 1.95047 16.5834 2.01918 16.4797 2.04888" fill="#C9DBF0"/>
<path d="M16.5338 0.826944C16.5882 1.05899 15.1452 1.72249 13.3323 2.22646C11.5195 2.73043 10.0692 2.84645 10.0185 2.58903C9.96769 2.3316 11.3418 1.86389 13.1474 1.35992C14.953 0.85595 16.483 0.5949 16.5338 0.826944Z" fill="#AFC8E2"/>
<path d="M22.0086 33.7699C21.8873 33.7609 21.7655 33.7782 21.6516 33.8208C21.5377 33.8633 21.4343 33.9301 21.3487 34.0165C21.283 34.0719 21.2303 34.1411 21.1941 34.219C21.1579 34.297 21.1392 34.3819 21.1392 34.4679C21.1392 34.5538 21.1579 34.6387 21.1941 34.7167C21.2303 34.7946 21.283 34.8638 21.3487 34.9193C21.4477 34.9947 21.5657 35.0412 21.6895 35.0534C21.8101 35.0632 21.9313 35.0458 22.0442 35.0025C22.1572 34.9592 22.259 34.8911 22.3421 34.8032C22.4062 34.7467 22.4575 34.6773 22.4926 34.5995C22.5277 34.5216 22.5459 34.4372 22.5459 34.3518C22.5459 34.2664 22.5277 34.182 22.4926 34.1042C22.4575 34.0264 22.4062 33.9569 22.3421 33.9004C22.2469 33.8263 22.1324 33.781 22.0122 33.7699" fill="#F0D68B"/>
<path d="M23.5134 27.7513C23.3922 27.7443 23.271 27.7652 23.1592 27.8123C23.0473 27.8594 22.9477 27.9316 22.8681 28.0233C22.8058 28.0816 22.7562 28.1521 22.7223 28.2303C22.6884 28.3086 22.6709 28.393 22.6709 28.4783C22.6709 28.5636 22.6884 28.648 22.7223 28.7262C22.7562 28.8045 22.8058 28.875 22.8681 28.9333C22.9546 29.0017 23.0592 29.0433 23.169 29.053C23.289 29.0601 23.4089 29.0389 23.5192 28.991C23.6294 28.9431 23.7268 28.8699 23.8035 28.7774C23.8643 28.7183 23.9127 28.6475 23.9457 28.5694C23.9788 28.4912 23.9958 28.4072 23.9958 28.3224C23.9958 28.2375 23.9788 28.1535 23.9457 28.0754C23.9127 27.9972 23.8643 27.9265 23.8035 27.8674C23.7212 27.7996 23.6198 27.759 23.5134 27.7513Z" fill="#F0D68B"/>
<path d="M16.6069 20.9783C16.4933 20.9639 16.378 20.9739 16.2686 21.0077C16.1591 21.0415 16.0582 21.0982 15.9724 21.1741C15.9066 21.2493 15.858 21.338 15.83 21.434C15.8021 21.53 15.7955 21.6309 15.8107 21.7297C15.8259 21.8285 15.8625 21.9228 15.918 22.0059C15.9735 22.0891 16.0466 22.1591 16.132 22.211C16.2969 22.3408 16.4958 22.4202 16.7048 22.4394C16.8173 22.4538 16.9316 22.4444 17.0402 22.412C17.1489 22.3795 17.2495 22.3246 17.3357 22.2509C17.4015 22.1748 17.4499 22.0853 17.4776 21.9886C17.5053 21.8919 17.5116 21.7904 17.4961 21.691C17.4806 21.5916 17.4436 21.4968 17.3877 21.4132C17.3318 21.3295 17.2584 21.2591 17.1725 21.2067C17.0081 21.0809 16.8127 21.0019 16.6069 20.9783Z" fill="#F0D68B"/>
<path d="M12.8215 33.3274C12.7177 33.3135 12.6121 33.3215 12.5116 33.3509C12.411 33.3802 12.3177 33.4303 12.2377 33.4978C12.172 33.5602 12.121 33.6364 12.0885 33.7209C12.056 33.8054 12.0427 33.8961 12.0496 33.9864C12.0566 34.0767 12.0836 34.1644 12.1287 34.2429C12.1737 34.3215 12.2358 34.389 12.3102 34.4405C12.4531 34.5628 12.6305 34.6375 12.8178 34.6544C12.921 34.6672 13.0258 34.6586 13.1255 34.6293C13.2253 34.6 13.318 34.5505 13.3979 34.484C13.4642 34.4225 13.5159 34.3469 13.5494 34.2628C13.5828 34.1788 13.5971 34.0883 13.5912 33.998C13.5853 33.9078 13.5593 33.8199 13.5152 33.741C13.4712 33.662 13.41 33.5938 13.3363 33.5414C13.1912 33.4181 13.0112 33.3434 12.8215 33.3274Z" fill="#F0D68B"/>
<path d="M18.8872 29.0784C18.8388 29.0727 18.7898 29.0769 18.7431 29.0906C18.6964 29.1043 18.6529 29.1273 18.6152 29.1581C18.5852 29.1808 18.5608 29.2101 18.5441 29.2437C18.5273 29.2774 18.5186 29.3145 18.5186 29.3521C18.5186 29.3897 18.5273 29.4268 18.5441 29.4605C18.5608 29.4941 18.5852 29.5234 18.6152 29.5461C18.6807 29.6013 18.7635 29.6316 18.8491 29.6316C18.9347 29.6316 19.0175 29.6013 19.083 29.5461C19.113 29.5234 19.1374 29.4941 19.1541 29.4605C19.1709 29.4268 19.1796 29.3897 19.1796 29.3521C19.1796 29.3145 19.1709 29.2774 19.1541 29.2437C19.1374 29.2101 19.113 29.1808 19.083 29.1581C19.0261 29.112 18.9565 29.0842 18.8835 29.0784" fill="#F0D68B"/>
<path d="M21.4541 23.9188C21.4051 23.9129 21.3555 23.9184 21.309 23.9347C21.2625 23.9511 21.2203 23.9779 21.1858 24.013C21.1593 24.0419 21.1392 24.076 21.1268 24.1131C21.1143 24.1503 21.1098 24.1896 21.1136 24.2286C21.1174 24.2676 21.1293 24.3053 21.1486 24.3394C21.1679 24.3735 21.1941 24.4031 21.2257 24.4264C21.2783 24.4667 21.341 24.4917 21.4069 24.4989C21.4561 24.5032 21.5056 24.4966 21.552 24.4797C21.5983 24.4628 21.6404 24.4359 21.6752 24.401C21.7017 24.3721 21.7218 24.338 21.7343 24.3009C21.7467 24.2637 21.7512 24.2244 21.7474 24.1854C21.7436 24.1464 21.7317 24.1087 21.7124 24.0746C21.6931 24.0405 21.6669 24.0109 21.6354 23.9877C21.5832 23.947 21.52 23.923 21.4541 23.9188Z" fill="#F0D68B"/>
<path d="M15.2618 29.064C15.1692 29.0525 15.0757 29.0772 15.0008 29.1329C14.9716 29.1577 14.9487 29.189 14.9339 29.2243C14.9191 29.2596 14.9129 29.2979 14.9157 29.3361C14.9185 29.3743 14.9303 29.4112 14.9502 29.444C14.97 29.4767 14.9973 29.5043 15.0298 29.5245C15.0937 29.5769 15.1722 29.6085 15.2546 29.6151C15.3005 29.622 15.3473 29.6195 15.3922 29.6077C15.4371 29.5958 15.4791 29.5749 15.5156 29.5463C15.545 29.5218 15.5682 29.4907 15.5832 29.4555C15.5983 29.4204 15.6049 29.3822 15.6024 29.344C15.5999 29.3059 15.5885 29.2688 15.569 29.2359C15.5495 29.203 15.5225 29.1752 15.4903 29.1547C15.4249 29.1022 15.3453 29.0706 15.2618 29.064Z" fill="#F0D68B"/>
<path d="M14.2032 19.5063C14.1742 19.5063 14.1416 19.5426 14.1271 19.6332C14.0038 20.2097 13.9276 20.7898 13.8044 21.3518C13.6811 21.9138 13.5687 22.4794 13.4418 23.0269C13.1808 24.1146 12.8979 25.2023 12.6369 26.2537C12.0639 28.3363 11.6374 30.4565 11.3607 32.5987C11.3576 32.6178 11.3585 32.6374 11.3633 32.6562C11.3681 32.6749 11.3768 32.6925 11.3887 32.7078C11.4006 32.7231 11.4155 32.7358 11.4325 32.7451C11.4495 32.7544 11.4683 32.7601 11.4876 32.7618C11.519 32.7652 11.5506 32.7566 11.5761 32.7378C11.6016 32.719 11.6192 32.6914 11.6253 32.6603C12.1583 30.5828 12.8073 28.5669 13.3403 26.4459C13.6211 25.3716 13.8402 24.2821 13.9965 23.1828C14.0799 22.6208 14.1379 22.0407 14.1814 21.457C14.238 20.8641 14.2634 20.2687 14.2576 19.6731C14.2576 19.5752 14.2322 19.5245 14.2032 19.5208" fill="#F0D49C"/>
<path d="M14.1774 2.75586C13.4087 2.98428 12.7054 3.18006 11.9077 3.38673C12.1754 3.38638 12.4425 3.36089 12.7054 3.31059C13.2238 3.20998 13.7215 3.02242 14.1774 2.75586Z" fill="#DCE9F8"/>
<path d="M14.5655 2.29904C13.9412 2.52874 13.303 2.71886 12.6548 2.86827C12.3389 2.93967 12.0194 2.99413 11.6976 3.03142C11.3612 3.06537 11.0301 3.13963 10.7114 3.25259C10.7016 3.2554 10.6929 3.26135 10.6868 3.26953C10.6806 3.2777 10.6772 3.28767 10.6772 3.29791C10.6772 3.30815 10.6806 3.31812 10.6868 3.3263C10.6929 3.33447 10.7016 3.34042 10.7114 3.34323C11.0377 3.34323 11.3532 3.34323 11.6831 3.37586H11.9079C12.7056 3.1692 13.4089 2.97341 14.1776 2.745C14.3335 2.65476 14.4847 2.55674 14.6308 2.45131C14.6707 2.41868 14.6308 2.29904 14.5619 2.29541" fill="#DCE9F8"/>
</svg>
