<svg width="19" height="19" viewBox="0 0 19 19" fill="none" xmlns="http://www.w3.org/2000/svg">
<path d="M8.54894 2.92705C8.8483 2.00574 10.1517 2.00574 10.4511 2.92705L11.4084 5.87336C11.5422 6.28538 11.9262 6.56434 12.3594 6.56434H15.4574C16.4261 6.56434 16.8289 7.80395 16.0451 8.37336L13.5389 10.1943C13.1884 10.4489 13.0417 10.9003 13.1756 11.3123L14.1329 14.2586C14.4323 15.1799 13.3778 15.946 12.5941 15.3766L10.0878 13.5557C9.7373 13.3011 9.2627 13.3011 8.91221 13.5557L6.40594 15.3766C5.62222 15.946 4.56774 15.1799 4.8671 14.2586L5.82441 11.3123C5.95828 10.9003 5.81162 10.4489 5.46114 10.1943L2.95486 8.37335C2.17115 7.80395 2.57392 6.56434 3.54265 6.56434H6.64057C7.0738 6.56434 7.45776 6.28538 7.59163 5.87336L8.54894 2.92705Z" fill="#FCD03E"/>
</svg>
