<svg width="345" height="323" viewBox="0 0 345 323" fill="none" xmlns="http://www.w3.org/2000/svg">
<path d="M207.835 26.3565C200.59 30.6445 198.52 38.0376 197.662 41.0836C197.455 41.8229 195.03 50.9016 199.23 60.3648C200.472 63.1742 201.803 66.0723 204.819 67.4622C206.564 68.2903 208.131 68.2311 214.282 67.6988C217.151 67.4622 220.256 67.1665 223.568 66.8117C225.904 63.8248 229.926 57.8512 231.109 49.4526C231.316 47.8852 233.741 29.1954 223.568 24.2272C216.914 20.9447 208.9 25.7059 207.835 26.3565Z" fill="#FFDC68"/>
<path d="M74.0495 70.4491C77.7407 70.4491 80.7329 67.1391 80.7329 63.056C80.7329 58.9729 77.7407 55.6629 74.0495 55.6629C70.3584 55.6629 67.3661 58.9729 67.3661 63.056C67.3661 67.1391 70.3584 70.4491 74.0495 70.4491Z" fill="#FFDC68"/>
<path d="M225.609 188.917C228.353 188.917 230.577 186.772 230.577 184.126C230.577 181.48 228.353 179.335 225.609 179.335C222.865 179.335 220.641 181.48 220.641 184.126C220.641 186.772 222.865 188.917 225.609 188.917Z" fill="#FFDC68"/>
<path d="M74.1086 159.995C76.1502 159.995 77.8052 158.34 77.8052 156.298C77.8052 154.257 76.1502 152.602 74.1086 152.602C72.0671 152.602 70.4121 154.257 70.4121 156.298C70.4121 158.34 72.0671 159.995 74.1086 159.995Z" fill="#FFDC68"/>
<path d="M67.2179 67.9946C70.4681 67.9946 73.1028 65.2274 73.1028 61.814C73.1028 58.4005 70.4681 55.6333 67.2179 55.6333C63.9677 55.6333 61.333 58.4005 61.333 61.814C61.333 65.2274 63.9677 67.9946 67.2179 67.9946Z" fill="#BB07BE"/>
<path d="M224.248 181.346C226.257 181.346 227.886 179.651 227.886 177.561C227.886 175.47 226.257 173.775 224.248 173.775C222.239 173.775 220.611 175.47 220.611 177.561C220.611 179.651 222.239 181.346 224.248 181.346Z" fill="#BB07BE"/>
<path d="M272.866 76.9551C275.071 76.9551 276.858 75.0485 276.858 72.6966C276.858 70.3447 275.071 68.4382 272.866 68.4382C270.661 68.4382 268.873 70.3447 268.873 72.6966C268.873 75.0485 270.661 76.9551 272.866 76.9551Z" fill="#BB07BE"/>
<path d="M186.159 103.275C185.508 102.24 184.444 103.216 184 103.925C183.083 105.404 182.492 107.237 183.172 108.923C183.675 110.195 184.917 111.259 186.366 111.052C187.697 110.875 188.702 109.781 188.672 108.45C188.672 108.095 188.17 107.829 187.904 108.125C186.336 110.106 184.414 112.915 185.981 115.459C187.076 117.203 189.767 117.44 190.831 115.547C190.565 115.518 190.299 115.488 190.033 115.429C190.181 116.257 190.328 117.085 190.447 117.913C190.535 118.475 191.393 118.238 191.304 117.677C191.157 116.848 191.009 116.02 190.89 115.192C190.831 114.808 190.24 114.778 190.092 115.074C189.619 115.902 188.554 116.198 187.697 115.784C186.75 115.311 186.336 114.246 186.336 113.211C186.336 111.496 187.549 109.988 188.554 108.716C188.288 108.598 188.051 108.509 187.785 108.391C187.815 109.515 186.721 110.343 185.626 110.106C184.798 109.929 184.266 109.219 183.97 108.45C183.675 107.651 183.704 106.853 183.941 106.055C183.97 105.995 185.183 103.363 185.36 103.659C185.686 104.191 186.454 103.748 186.159 103.275Z" fill="#FFDC68"/>
<path d="M65.4144 105.936C66.065 104.162 68.2238 104.931 68.904 106.173C69.1406 106.587 69.2588 107.06 69.318 107.533C69.4363 108.42 69.3476 108.775 68.5787 109.307C67.7506 110.136 67.5436 109.81 67.9872 108.332C68.1942 108.243 68.4308 108.154 68.6378 108.065C69.1997 107.918 69.8503 107.947 70.4122 108.125C71.8317 108.598 72.5414 110.106 72.3344 111.496C72.2752 111.851 72.6301 112.206 72.985 111.999C74.9072 110.904 77.4504 112.117 77.894 114.276C78.0123 114.838 78.8699 114.601 78.7516 114.039C78.1897 111.318 74.9663 109.899 72.5414 111.259C72.7484 111.437 72.985 111.585 73.192 111.762C73.5764 109.16 71.5951 106.735 68.8448 107.149C67.8985 107.297 66.479 107.888 66.3607 109.012C66.272 109.929 67.1296 110.609 67.9872 110.697C70.5305 110.934 70.4713 107.237 69.6433 105.759C68.5195 103.748 65.4144 103.245 64.5272 105.729C64.3498 106.232 65.2074 106.469 65.4144 105.936Z" fill="#FFDC68"/>
<path d="M221.114 217.247C223.391 218.755 225.313 220.677 226.851 222.925C227.176 223.398 227.945 222.955 227.62 222.481C225.993 220.116 223.982 218.105 221.587 216.508C221.084 216.153 220.641 216.922 221.114 217.247Z" fill="#BB07BE"/>
<path d="M226.88 218.873C227.353 219.435 227.797 220.027 228.27 220.589C228.625 221.032 229.246 220.411 228.891 219.967C228.418 219.406 227.974 218.814 227.501 218.252C227.146 217.809 226.525 218.459 226.88 218.873Z" fill="#BB07BE"/>
<path d="M224.16 210.593C226.201 212.486 227.886 214.644 229.187 217.099C229.454 217.602 230.222 217.158 229.956 216.655C228.626 214.142 226.881 211.894 224.781 209.972C224.367 209.558 223.746 210.209 224.16 210.593Z" fill="#BB07BE"/>
<path d="M19.6956 243.892C20.3462 250.309 21.47 256.637 23.0373 262.907C23.1852 263.469 24.0428 263.232 23.8949 262.67C22.3571 256.49 21.2334 250.22 20.5828 243.892C20.5236 243.33 19.6365 243.33 19.6956 243.892Z" fill="#E8E8E8"/>
<path d="M23.2145 263.203C29.0403 264.711 35.1027 264.711 40.9284 263.203C41.4903 263.055 41.2537 262.197 40.6919 262.345C35.0139 263.824 29.129 263.824 23.4511 262.345C22.9188 262.197 22.6822 263.055 23.2145 263.203Z" fill="#E8E8E8"/>
<path d="M41.6087 262.316C41.9931 256.017 42.4958 249.718 43.0873 243.419C43.1464 242.857 42.2593 242.857 42.2001 243.419C41.6087 249.718 41.1059 256.017 40.7215 262.316C40.6919 262.877 41.5791 262.877 41.6087 262.316Z" fill="#E8E8E8"/>
<path d="M20.1979 244.365C27.5615 245.873 35.132 245.814 42.4956 244.158C43.0575 244.039 42.8209 243.182 42.259 243.3C35.0729 244.897 27.6502 244.986 20.4345 243.507C19.8726 243.389 19.636 244.246 20.1979 244.365Z" fill="#E8E8E8"/>
<path d="M20.1092 246.494C20.3458 247.707 21.8835 247.647 22.8298 247.736C25.2252 247.943 27.6502 248.002 30.0455 247.943C32.3522 247.884 34.6588 247.707 36.9655 247.44C38.799 247.204 40.5733 246.967 42.1998 246.051C42.7026 245.784 42.259 245.016 41.7562 245.282C38.8286 246.908 34.7771 246.849 31.4946 246.997C29.8681 247.056 28.212 247.086 26.5856 247.056C25.728 247.026 21.1442 247.233 20.9668 246.258C20.8485 245.696 20.0205 245.932 20.1092 246.494Z" fill="#E8E8E8"/>
<path d="M21.7947 256.756C23.2142 259.27 25.0181 261.487 27.1769 263.41C27.5909 263.794 28.2415 263.173 27.7979 262.789C25.6687 260.926 23.9239 258.767 22.5636 256.312C22.2974 255.81 21.5286 256.253 21.7947 256.756Z" fill="#E8E8E8"/>
<path d="M20.6419 249.925C23.6583 255.011 27.3253 259.683 31.5245 263.883C31.9386 264.297 32.5596 263.646 32.1456 263.262C28.0054 259.122 24.3976 254.508 21.4107 249.481C21.115 249.008 20.3461 249.451 20.6419 249.925Z" fill="#E8E8E8"/>
<path d="M25.5805 247.795C28.7152 253.384 32.3526 258.678 36.4632 263.617C36.8181 264.06 37.4391 263.439 37.0842 262.996C33.0328 258.116 29.4249 252.882 26.3494 247.352C26.0832 246.849 25.3144 247.293 25.5805 247.795Z" fill="#E8E8E8"/>
<path d="M31.2286 248.002C34.2746 252.556 37.3501 257.081 40.4552 261.606C40.7805 262.079 41.5494 261.635 41.2241 261.162C38.119 256.637 35.0434 252.113 31.9975 247.559C31.6722 247.086 30.9033 247.529 31.2286 248.002Z" fill="#E8E8E8"/>
<path d="M35.9599 247.736C37.4977 250.22 39.1537 252.645 40.8689 255.011C41.1942 255.455 41.9631 255.011 41.6378 254.568C39.9226 252.202 38.2665 249.777 36.7288 247.293C36.433 246.82 35.6642 247.263 35.9599 247.736Z" fill="#E8E8E8"/>
<path d="M10.3801 217.868C10.735 219.908 11.0898 221.979 11.4743 224.019C11.5925 224.581 11.6813 225.172 12.1544 225.527C12.4797 225.793 13.5443 225.764 13.7513 226.06C13.7809 225.882 13.8105 225.705 13.8105 225.527C13.3669 225.971 12.9233 226.414 12.4502 226.828C12.3319 226.947 12.3023 227.124 12.3319 227.272C12.598 228.07 12.7755 229.253 13.3078 229.934C13.5739 230.288 14.0471 230.229 14.2541 230.436C14.4315 230.614 14.3724 230.495 14.2836 231.028C14.2245 231.471 14.2245 231.944 14.2836 232.418C14.3724 233.127 14.5794 233.808 14.8455 234.458C16.3833 238.184 19.3701 241.201 22.2387 243.98C22.6527 244.365 23.2737 243.744 22.8597 243.359C21.0262 241.585 19.1927 239.752 17.6845 237.682C16.2059 235.641 14.4611 232.891 15.3778 230.288C15.437 230.141 15.3778 229.934 15.2595 229.845C14.6977 229.401 14.1358 229.579 13.7513 228.869C13.012 227.538 13.4261 227.095 14.3724 226.178C14.5202 226.06 14.5498 225.793 14.4315 225.646C14.1949 225.291 14.0175 225.172 13.6331 225.054C13.3965 224.965 13.0416 225.054 12.805 224.936C12.3023 224.67 12.3023 224.019 12.2136 223.546C11.8587 221.594 11.5038 219.613 11.1785 217.661C11.1194 217.07 10.2618 217.306 10.3801 217.868Z" fill="#E8E8E8"/>
<path d="M11.0307 217.75C22.564 221.594 30.4599 232.359 30.6964 244.543C30.6964 245.104 31.5836 245.104 31.5836 244.543C31.347 231.974 23.185 220.885 11.2673 216.892C10.735 216.715 10.4984 217.572 11.0307 217.75Z" fill="#E8E8E8"/>
<path d="M28.7448 232.418C31.6133 224.463 35.8422 216.774 42.6143 211.54C43.0579 211.185 42.6143 210.416 42.1707 210.771C35.1916 216.182 30.8444 223.99 27.8872 232.181C27.7098 232.713 28.5674 232.95 28.7448 232.418Z" fill="#E8E8E8"/>
<path d="M41.845 211.362C42.052 214.083 42.2885 216.803 42.4956 219.553C42.5547 220.115 43.4419 220.115 43.3827 219.553C43.1757 216.833 42.9391 214.112 42.7321 211.362C42.7026 210.8 41.8154 210.8 41.845 211.362Z" fill="#E8E8E8"/>
<path d="M42.8799 219.258C42.4955 219.347 42.111 219.435 41.7562 219.554C41.1943 219.701 41.4309 220.559 41.9927 220.411C42.3772 220.323 42.7616 220.234 43.1165 220.116C43.6784 219.968 43.4418 219.14 42.8799 219.258Z" fill="#E8E8E8"/>
<path d="M41.3124 220.352C41.4307 220.914 41.9038 221.269 42.4361 221.328C42.6727 221.358 42.8797 221.121 42.8797 220.884C42.8797 220.618 42.6727 220.47 42.4361 220.441C42.5249 220.441 42.4361 220.441 42.4066 220.441C42.377 220.441 42.3178 220.411 42.377 220.441C42.3474 220.411 42.3178 220.411 42.2883 220.382C42.2291 220.352 42.3474 220.441 42.2587 220.352C42.2291 220.322 42.2291 220.322 42.1995 220.293C42.2587 220.352 42.1995 220.293 42.1995 220.263C42.17 220.234 42.17 220.175 42.17 220.234C42.17 220.204 42.1404 220.145 42.1404 220.115C42.0813 219.879 41.8151 219.731 41.6081 219.82C41.3715 219.879 41.2532 220.115 41.3124 220.352Z" fill="#E8E8E8"/>
<path d="M41.9928 221.003C42.0224 222.688 41.9632 224.344 41.7858 226C41.7267 226.533 41.8154 227.775 41.4605 228.189C41.4309 228.218 40.8986 228.307 40.7804 228.396C40.3368 228.751 40.9578 229.372 41.4014 229.017C41.5492 228.899 41.9041 229.017 42.1407 228.751C42.4956 228.396 42.4364 227.568 42.4956 227.154C42.7617 225.113 42.88 223.043 42.8504 220.973C42.88 220.441 41.9928 220.441 41.9928 221.003Z" fill="#E8E8E8"/>
<path d="M40.4256 229.165C41.3719 230.289 41.1057 232.152 41.017 233.512C40.8987 235.079 40.6326 236.528 39.8637 237.889C38.7695 239.9 37.2317 241.585 36.4333 243.774C36.2263 244.306 37.0839 244.543 37.2909 244.01C38.3555 241.142 40.81 239.013 41.5493 235.996C42.0816 233.837 42.5844 230.377 41.0466 228.544C40.6917 228.13 40.0707 228.751 40.4256 229.165Z" fill="#E8E8E8"/>
<path d="M33.4468 244.187C34.2749 235.789 36.4928 227.597 40.0415 219.967C40.2781 219.465 39.5092 218.992 39.2726 219.524C35.6648 227.331 33.3877 235.641 32.5597 244.217C32.5005 244.779 33.3877 244.749 33.4468 244.187Z" fill="#E8E8E8"/>
<path d="M15.9988 222.688C21.174 229.194 24.9593 236.676 27.1772 244.661C27.3251 245.223 28.1827 244.986 28.0348 244.424C25.7577 236.262 21.8837 228.692 16.6198 222.067C16.265 221.624 15.6439 222.245 15.9988 222.688Z" fill="#E8E8E8"/>
<path d="M16.5606 233.601C19.0447 233.453 21.3513 234.044 23.451 235.345C23.9241 235.641 24.3973 234.872 23.8946 234.576C21.6766 233.216 19.163 232.565 16.5606 232.713C15.9691 232.743 15.9691 233.63 16.5606 233.601Z" fill="#E8E8E8"/>
<path d="M21.9725 229.638C21.795 228.011 22.002 226.444 22.6231 224.906C22.8301 224.374 21.9725 224.137 21.7655 224.67C21.1149 226.267 20.9078 227.923 21.0853 229.638C21.1444 230.2 22.0316 230.2 21.9725 229.638Z" fill="#E8E8E8"/>
<path d="M31.554 224.729C32.5299 227.124 33.9494 229.668 34.3043 232.211C34.393 232.773 35.2506 232.536 35.1619 231.974C34.7775 229.401 33.358 226.858 32.4117 224.492C32.2047 223.96 31.347 224.197 31.554 224.729Z" fill="#E8E8E8"/>
<path d="M36.9954 227.538C37.853 226.562 38.6811 225.409 39.7753 224.67C40.692 224.049 41.6975 223.635 42.4072 222.777C42.7621 222.333 42.1411 221.712 41.7862 222.156C41.0173 223.073 39.8935 223.457 38.9768 224.167C37.9713 224.936 37.2024 225.971 36.3744 226.917C35.99 227.361 36.611 227.982 36.9954 227.538Z" fill="#E8E8E8"/>
<path d="M37.291 243.892C38.7105 243.507 40.1596 243.36 41.6382 243.448C42.2001 243.478 42.2001 242.591 41.6382 242.561C40.0708 242.472 38.5626 242.62 37.0544 243.034C36.5221 243.182 36.7292 244.04 37.291 243.892Z" fill="#E8E8E8"/>
<path d="M37.1725 244.247C38.8286 244.395 40.4255 244.188 42.0224 243.685C42.5547 243.507 42.3181 242.65 41.7858 242.827C40.2776 243.3 38.7398 243.478 37.1725 243.359C36.6106 243.33 36.6106 244.217 37.1725 244.247Z" fill="#E8E8E8"/>
<path d="M20.5823 244.099H21.706C22.2679 244.099 22.2679 243.212 21.706 243.212C21.3216 243.212 20.9667 243.212 20.5823 243.212C20.0204 243.212 20.0204 244.099 20.5823 244.099Z" fill="#E8E8E8"/>
<path d="M42.2588 251.255H70.4118C70.9737 251.255 70.9737 250.368 70.4118 250.368C61.0373 250.368 51.6333 250.368 42.2588 250.368C41.6969 250.368 41.6969 251.255 42.2588 251.255Z" fill="#E8E8E8"/>
<path d="M200.945 245.4H217.683C218.245 245.4 218.245 244.513 217.683 244.513C212.094 244.513 206.534 244.513 200.945 244.513C200.383 244.513 200.383 245.4 200.945 245.4Z" fill="#E8E8E8"/>
<path d="M251.691 245.932H323.996H344.579C345.14 245.932 345.14 245.045 344.579 245.045C320.477 245.045 296.375 245.045 272.274 245.045C265.413 245.045 258.552 245.045 251.691 245.045C251.129 245.045 251.129 245.932 251.691 245.932Z" fill="#E8E8E8"/>
<path d="M215.998 148.846C213.75 153.489 211.325 158.043 208.752 162.508C208.634 162.745 208.723 163.129 209.019 163.159C221.705 165.081 233.061 171.38 244.003 177.738C244.505 178.034 244.949 177.265 244.446 176.969C233.416 170.581 222.001 164.253 209.226 162.301C209.314 162.508 209.403 162.745 209.492 162.952C212.094 158.486 214.489 153.932 216.737 149.289C217.003 148.786 216.264 148.313 215.998 148.846Z" fill="#E8E8E8"/>
<path d="M217.95 164.963C218.837 162.419 219.724 159.847 220.611 157.303C220.996 156.239 221.262 155.056 221.764 154.021C221.883 153.4 222.267 152.927 222.859 152.572C223.214 152.661 223.568 152.749 223.923 152.838C224.456 152.986 224.988 153.104 225.491 153.252C226.703 153.548 228.655 153.548 228.448 155.174C228.3 156.328 227.62 157.57 227.235 158.693C226.348 161.207 225.491 163.721 224.603 166.234C224.426 166.767 225.284 167.003 225.461 166.471C226.614 163.159 227.768 159.817 228.921 156.505C229.187 155.736 229.926 154.435 229.335 153.607C228.684 152.72 226.733 152.661 225.727 152.394C224.751 152.158 223.036 151.271 222.031 151.744C221.173 152.128 220.996 153.607 220.729 154.346C219.517 157.806 218.304 161.296 217.092 164.756C216.915 165.258 217.772 165.495 217.95 164.963Z" fill="#E8E8E8"/>
<path d="M229.364 168.127C231.257 164.135 233.179 160.113 235.072 156.121C236.018 154.11 236.964 152.128 237.94 150.117C238.384 149.201 238.739 148.106 239.301 147.249C239.774 146.509 239.892 146.332 240.72 146.657C241.164 146.835 241.696 147.278 242.08 147.544C242.583 147.899 243.382 148.284 243.736 148.757C244.18 149.319 244.003 149.91 243.736 150.62C243.382 151.566 242.849 152.483 242.406 153.4C241.43 155.411 240.454 157.422 239.419 159.433C237.467 163.247 235.427 167.033 233.327 170.788C233.031 171.291 233.8 171.735 234.096 171.232C236.669 166.678 239.123 162.065 241.43 157.392C242.583 155.085 243.855 152.72 244.831 150.324C245.511 148.58 244.032 147.87 242.731 146.953C241.696 146.243 240.069 144.617 238.946 145.948C238.236 146.776 237.852 148.166 237.378 149.171C236.787 150.383 236.225 151.596 235.634 152.838C233.268 157.806 230.902 162.774 228.566 167.743C228.359 168.186 229.128 168.659 229.364 168.127Z" fill="#E8E8E8"/>
<path d="M239.182 174.278C241.726 170.286 244.594 166.5 247.758 163.011C247.581 163.04 247.403 163.07 247.226 163.07C248.35 163.839 249.444 164.578 250.568 165.347C250.509 165.14 250.449 164.933 250.42 164.726C247.906 168.659 245.393 172.563 242.879 176.496C242.583 176.969 243.322 177.413 243.648 176.94C246.161 173.006 248.675 169.103 251.189 165.17C251.337 164.963 251.218 164.697 251.041 164.549C249.917 163.78 248.823 163.04 247.699 162.272C247.551 162.153 247.285 162.212 247.167 162.331C243.943 165.909 241.016 169.724 238.443 173.775C238.118 174.337 238.887 174.781 239.182 174.278Z" fill="#E8E8E8"/>
<path d="M274.463 146.155C271.505 145.031 269.642 142.074 270.175 138.909C270.707 135.686 273.871 132.817 277.124 134.74C279.372 136.07 280.525 139.087 279.667 141.541C278.78 144.173 275.882 145.741 273.191 145.327C272.629 145.238 272.392 146.095 272.954 146.184C276.119 146.657 279.46 144.913 280.525 141.778C281.59 138.643 279.874 134.858 276.799 133.586C273.191 132.108 269.908 135.213 269.287 138.673C268.637 142.34 270.796 145.711 274.196 147.012C274.758 147.219 274.995 146.362 274.463 146.155Z" fill="#E8E8E8"/>
<path d="M280.525 145.593C274.64 145.415 276.858 135.982 282.062 136.337C287.267 136.721 285.138 147.338 279.43 145.386C278.898 145.208 278.662 146.066 279.194 146.243C285.789 148.491 288.746 136.484 282.447 135.479C279.371 134.976 276.592 137.874 276.118 140.743C275.645 143.582 277.567 146.362 280.525 146.45C281.086 146.51 281.086 145.622 280.525 145.593Z" fill="#E8E8E8"/>
<path d="M276.119 118.83C275.616 118.297 275.38 117.44 275.764 116.789C276.148 116.168 277.095 115.872 277.686 116.345C278.219 116.759 278.337 117.647 277.834 118.09C277.243 118.622 276.296 118.356 275.734 117.913C275.291 117.558 274.67 118.179 275.113 118.534C276.03 119.244 277.45 119.598 278.426 118.741C279.313 117.942 279.224 116.464 278.337 115.695C277.42 114.896 275.971 115.133 275.202 116.02C274.345 117.026 274.581 118.534 275.468 119.451C275.882 119.865 276.503 119.244 276.119 118.83Z" fill="#E8E8E8"/>
<path d="M190.299 141.098C189.471 136.07 192.399 130.008 198.077 130.067C200.975 130.097 203.784 131.28 206.712 130.866C208.782 130.57 210.556 129.387 211.798 127.761C213.041 126.134 213.75 124.094 213.869 122.053C214.016 119.037 212.863 115.961 213.691 112.974C214.105 111.466 214.992 110.076 216.501 109.514C217.95 109.012 219.517 109.307 221.025 109.248C223.213 109.159 224.929 108.213 226.023 106.291C227.561 103.6 227.206 100.376 228.27 97.5374C229.542 94.107 233.12 91.1794 236.906 92.865C237.408 93.1016 237.881 92.3327 237.349 92.0961C232.203 89.7894 227.916 94.4323 226.91 99.1048C226.259 102.151 226.378 106.882 222.74 108.095C220.197 108.952 217.329 107.622 214.992 109.366C213.07 110.786 212.508 113.388 212.538 115.665C212.627 119.007 213.662 122.26 212.183 125.454C210.823 128.47 208.131 130.274 204.79 130.067C201.833 129.89 198.905 128.677 195.918 129.446C190.861 130.718 188.702 136.691 189.501 141.364C189.56 141.867 190.418 141.63 190.299 141.098Z" fill="#E8E8E8"/>
<path d="M227.679 120.013C226.584 117.528 228.093 115.163 230.488 114.364C232.233 113.773 234.155 113.743 235.663 112.56C236.846 111.644 237.23 110.49 237.083 109.012C236.935 107.622 236.935 106.527 238.029 105.581C238.946 104.783 240.158 104.487 241.341 104.428C244.594 104.31 249.059 105.966 251.425 102.801C252.519 101.323 252.194 99.4892 252.697 97.8332C253.377 95.5265 255.595 94.107 257.961 94.2253C258.523 94.2549 258.523 93.3677 257.961 93.3382C256.157 93.2494 254.412 93.9296 253.17 95.2308C251.632 96.8573 251.839 98.6908 251.366 100.731C250.094 106.32 242.317 102.387 238.65 104.132C237.29 104.783 236.195 105.936 236.077 107.474C235.929 109.278 236.757 110.756 234.924 111.998C233.948 112.649 232.824 112.856 231.7 113.122C229.837 113.566 228.004 114.128 227.058 115.932C226.289 117.351 226.289 118.978 226.939 120.427C227.146 120.988 227.886 120.515 227.679 120.013Z" fill="#E8E8E8"/>
<path d="M280.377 80.6218C280.259 80.3557 280.14 80.0599 280.052 79.7642C280.436 79.3206 280.791 78.877 281.176 78.4335C281.294 78.4039 281.826 78.7588 282.004 78.7588C282.447 78.8179 282.832 78.6996 283.186 78.4335C284.281 77.5759 283.896 76.2155 284.221 75.0622C284.754 73.0808 287.09 74.4412 288.155 72.9625C289.219 71.5135 288.835 68.438 291.674 69.266C292.236 69.4138 292.472 68.5562 291.91 68.4084C290.284 67.9352 288.805 68.7041 288.214 70.2714C288.036 70.715 287.977 71.2178 287.8 71.6614C287.415 72.6964 287.001 72.8443 285.878 72.9034C285.05 72.9626 284.399 72.9034 283.837 73.6131C283.364 74.2342 283.364 75.0326 283.275 75.7719C283.186 76.8661 283.275 77.7829 281.649 77.6646C281.323 77.635 281.057 77.3393 280.702 77.3393C278.751 77.3097 279.076 79.7051 279.549 80.8584C279.726 81.3907 280.614 81.1541 280.377 80.6218Z" fill="#E8E8E8"/>
<path d="M285.937 83.0766C285.463 82.4555 284.665 80.6516 286.055 80.1784C286.558 80.001 287.208 80.208 287.74 80.208C288.214 80.208 288.628 80.208 289.012 79.8827C290.195 78.9364 289.337 77.2508 289.958 76.0679C290.964 74.1457 292.975 75.6539 294.394 74.6484C295.4 73.9386 295.666 72.5783 295.843 71.4546C295.932 70.8927 295.074 70.6561 294.986 71.218C294.779 72.5487 294.542 74.0274 292.886 74.1752C292.028 74.2639 291.378 73.9682 290.579 74.3527C289.278 74.9737 288.864 76.127 288.835 77.4578C288.805 78.5815 289.071 79.1434 287.179 79.2321C286.942 79.2321 286.705 79.173 286.469 79.173C285.789 79.2321 285.197 79.587 284.813 80.1489C283.985 81.3318 284.458 82.6921 285.286 83.7271C285.67 84.1707 286.291 83.5201 285.937 83.0766Z" fill="#E8E8E8"/>
<path d="M34.5107 99.1048C36.9652 96.1475 40.4548 93.7226 44.4767 94.1366C48.8534 94.5802 51.0122 98.0697 51.4262 102.151C52.1359 108.923 50.4799 117.026 55.0636 122.792C56.8675 125.069 59.5586 126.282 62.4567 125.572C65.9463 124.744 68.667 121.994 71.7721 120.367C75.4391 118.445 80.496 117.41 83.8081 120.634C86.233 122.999 86.7654 126.607 87.5638 129.742C88.3031 132.581 89.5747 135.716 92.118 137.401C93.6557 138.407 95.3414 138.495 97.1157 138.377C99.0971 138.229 103.149 138.111 102.735 141.216C102.675 141.778 103.563 141.778 103.622 141.216C103.77 140.004 103.208 139.028 102.232 138.318C100.694 137.194 98.9196 137.372 97.1157 137.49C95.0752 137.638 93.3305 137.46 91.7631 136.011C90.3436 134.71 89.486 132.877 88.865 131.073C87.83 127.968 87.5342 124.567 85.7599 121.728C84.0151 118.918 80.9987 117.558 77.7457 117.676C73.6352 117.824 70.1752 120.19 66.8926 122.378C65.3253 123.413 63.6396 124.508 61.7174 124.833C59.4108 125.217 57.3703 124.212 55.8917 122.497C53.1118 119.244 52.6683 114.601 52.5204 110.52C52.3725 106.705 52.8753 102.565 51.6036 98.8682C50.4503 95.4969 47.5226 93.3973 44.0035 93.2198C39.9225 93.0128 36.3442 95.4674 33.8306 98.4838C33.5053 98.9273 34.1263 99.5484 34.5107 99.1048Z" fill="#E8E8E8"/>
<path d="M19.5771 144.735C24.1904 152.424 28.301 160.379 31.9384 168.57C32.175 169.103 32.9439 168.63 32.7073 168.127C29.0699 159.935 24.9297 151.98 20.346 144.291C20.0503 143.789 19.2814 144.232 19.5771 144.735Z" fill="#E8E8E8"/>
<path d="M20.1389 144.38C27.325 139.915 34.7181 135.745 42.3183 131.96C42.821 131.693 42.3774 130.925 41.8747 131.191C34.3041 134.976 26.911 139.146 19.6953 143.611C19.1926 143.936 19.6362 144.705 20.1389 144.38Z" fill="#E8E8E8"/>
<path d="M41.7861 131.575C45.5418 139.471 49.5045 147.249 53.7038 154.908C53.97 155.411 54.7389 154.967 54.4727 154.464C50.2734 146.805 46.2811 139.028 42.555 131.132C42.2888 130.599 41.5495 131.043 41.7861 131.575Z" fill="#E8E8E8"/>
<path d="M32.9438 168.748C40.0116 164.49 46.9907 160.113 53.9107 155.618C54.3839 155.322 53.9403 154.553 53.4671 154.849C46.5471 159.344 39.568 163.721 32.5002 167.979C32.027 168.275 32.4706 169.044 32.9438 168.748Z" fill="#E8E8E8"/>
<path d="M32.3817 141.778C32.2043 147.456 32.5296 153.104 33.3576 158.723C33.4464 159.285 34.304 159.048 34.2152 158.486C33.3872 152.956 33.0915 147.367 33.2689 141.778C33.2985 141.216 32.4113 141.216 32.3817 141.778Z" fill="#E8E8E8"/>
<path d="M32.4115 141.482C36.5221 144.706 40.6327 147.87 44.8024 151.005C45.246 151.359 45.6896 150.591 45.246 150.236C41.1354 147.16 37.0544 144.025 33.0325 140.861C32.5889 140.506 31.9679 141.127 32.4115 141.482Z" fill="#E8E8E8"/>
<path d="M34.2743 158.9C37.6751 155.855 42.111 154.228 45.3344 150.945C45.7484 150.531 45.0978 149.91 44.7134 150.324C41.49 153.577 37.0837 155.234 33.6533 158.279C33.2097 158.634 33.8603 159.255 34.2743 158.9Z" fill="#E8E8E8"/>
<path d="M20.76 149.378C21.7063 148.905 22.6527 148.461 23.599 147.988C24.1017 147.752 23.6581 146.983 23.1554 147.219C22.2091 147.692 21.2627 148.136 20.3164 148.609C19.8137 148.875 20.2573 149.615 20.76 149.378Z" fill="#E8E8E8"/>
<path d="M23.8055 154.405C24.604 153.873 25.4616 153.429 26.3488 153.045C26.8811 152.838 26.6445 151.98 26.1122 152.187C25.1363 152.601 24.2195 153.075 23.3324 153.636C22.8888 153.962 23.3324 154.731 23.8055 154.405Z" fill="#E8E8E8"/>
<path d="M27.1476 160.202C27.9757 159.788 28.8037 159.374 29.6317 158.989C30.1345 158.723 29.6909 157.984 29.1881 158.22C28.3601 158.634 27.5321 159.048 26.7041 159.433C26.2013 159.669 26.6449 160.438 27.1476 160.202Z" fill="#E8E8E8"/>
<path d="M28.8631 165.998C29.7799 165.199 30.7262 164.519 31.7908 163.928C32.2935 163.632 31.8499 162.893 31.3472 163.159C30.253 163.78 29.218 164.519 28.2421 165.377C27.7985 165.761 28.4195 166.382 28.8631 165.998Z" fill="#E8E8E8"/>
<path d="M43.4717 137.401C44.1519 136.928 44.8616 136.602 45.6601 136.395C46.222 136.248 45.9854 135.42 45.4235 135.538C44.5659 135.745 43.7379 136.1 42.9986 136.632C42.555 136.957 42.9986 137.726 43.4717 137.401Z" fill="#E8E8E8"/>
<path d="M46.1036 142.458C47.0499 141.867 47.9962 141.275 48.913 140.654C49.3861 140.358 48.9425 139.59 48.4694 139.885C47.5231 140.477 46.5767 141.068 45.66 141.689C45.1573 142.015 45.6008 142.783 46.1036 142.458Z" fill="#E8E8E8"/>
<path d="M49.1198 148.52C50.1252 148.077 51.1603 147.633 52.1657 147.19C52.698 146.953 52.2249 146.184 51.7221 146.421C50.7167 146.864 49.6816 147.308 48.6762 147.751C48.1439 147.988 48.617 148.757 49.1198 148.52Z" fill="#E8E8E8"/>
<path d="M51.2789 152.483C52.0773 151.714 52.9645 151.064 53.9404 150.502C54.4431 150.236 53.9995 149.467 53.4968 149.733C52.4618 150.324 51.5154 151.004 50.6578 151.832C50.2438 152.246 50.8648 152.868 51.2789 152.483Z" fill="#E8E8E8"/>
<path d="M35.4576 164.844C36.1969 165.939 36.8179 167.092 37.2911 168.304C37.4981 168.837 38.3557 168.6 38.1487 168.068C37.646 166.767 37.0249 165.525 36.2265 164.371C35.9012 163.928 35.1323 164.371 35.4576 164.844Z" fill="#E8E8E8"/>
<path d="M39.9817 162.39C40.5435 163.396 41.0758 164.371 41.6377 165.377C41.9039 165.88 42.6728 165.436 42.4066 164.933C41.8447 163.928 41.3124 162.952 40.7506 161.946C40.4844 161.444 39.7155 161.887 39.9817 162.39Z" fill="#E8E8E8"/>
<path d="M45.2163 158.634C45.8077 159.699 46.3992 160.764 46.9906 161.828C47.2568 162.331 48.0257 161.887 47.7595 161.385C47.1681 160.32 46.5766 159.255 45.9852 158.191C45.719 157.688 44.9501 158.132 45.2163 158.634Z" fill="#E8E8E8"/>
<path d="M49.9183 155.825C50.3914 156.948 50.8646 158.072 51.3673 159.166C51.6039 159.699 52.3432 159.226 52.1362 158.723C51.663 157.599 51.1899 156.475 50.6872 155.381C50.4506 154.878 49.6817 155.322 49.9183 155.825Z" fill="#E8E8E8"/>
<path d="M23.0958 139.826C23.6577 140.743 24.19 141.66 24.7519 142.547C25.0476 143.05 25.8165 142.576 25.5208 142.103C24.9589 141.187 24.4266 140.27 23.8647 139.383C23.569 138.909 22.8001 139.353 23.0958 139.826Z" fill="#E8E8E8"/>
<path d="M28.1822 136.869L29.7791 140.418C30.0157 140.95 30.7846 140.477 30.548 139.974C30.0157 138.791 29.4834 137.608 28.9511 136.425C28.685 135.893 27.9456 136.337 28.1822 136.869Z" fill="#E8E8E8"/>
<path d="M32.7666 134.03C33.565 135.095 34.1861 136.248 34.6001 137.49C34.7775 138.022 35.6351 137.786 35.4577 137.253C35.0141 135.923 34.3931 134.681 33.5355 133.586C33.2102 133.143 32.4413 133.557 32.7666 134.03Z" fill="#E8E8E8"/>
<path d="M37.7054 131.753C38.3264 132.699 38.9179 133.616 39.5389 134.562C39.8346 135.035 40.6035 134.592 40.3078 134.119C39.6868 133.172 39.0953 132.256 38.4743 131.309C38.149 130.836 37.3801 131.28 37.7054 131.753Z" fill="#E8E8E8"/>
<path d="M83.69 73.1105C80.8215 72.2233 80.6736 69.1773 82.0339 66.9003C83.3647 64.6823 85.9375 64.0909 87.9484 65.9244C89.6045 67.4621 89.7524 70.0941 88.2146 71.7797C86.6768 73.4949 84.1632 73.4654 82.3888 72.1642C81.9452 71.8093 81.5016 72.5782 81.9452 72.933C84.1927 74.5891 87.4753 74.323 89.1609 71.9867C90.9057 69.6209 90.2847 66.3088 87.8301 64.7119C81.9156 60.897 76.8292 71.898 83.4534 73.9681C84.0153 74.1455 84.2519 73.2879 83.69 73.1105Z" fill="#E8E8E8"/>
<path d="M88.4512 73.8793C86.2332 74.5595 85.7009 71.898 86.6768 70.4785C87.4753 69.3252 89.0426 68.645 90.4621 69.0294C91.8224 69.3843 92.7983 70.7742 92.4434 72.1641C91.9999 73.9089 90.1664 74.5299 88.5399 74.2638C87.978 74.175 87.7414 75.0327 88.3033 75.1214C90.4917 75.5058 92.8575 74.5595 93.3306 72.1937C93.7446 70.1532 92.1477 68.2901 90.1664 68.0535C87.978 67.7874 85.5826 69.3843 85.2869 71.6318C85.0207 73.5836 86.7951 75.3284 88.7469 74.7074C89.2496 74.5595 89.013 73.7019 88.4512 73.8793Z" fill="#E8E8E8"/>
<path d="M69.5839 93.1309C68.8742 94.5799 69.8796 96.029 71.3583 96.4134C72.482 96.7092 73.6649 96.443 74.8183 96.5021C76.0603 96.5613 77.3023 96.857 78.4261 97.3597C80.9102 98.4835 82.5071 100.524 82.5958 103.274C82.6845 105.581 82.0044 107.976 83.0098 110.165C85.1391 114.778 90.9944 111.259 94.0108 114.246C96.5245 116.759 95.4894 121.343 98.8607 123.265C99.3634 123.561 99.807 122.792 99.3043 122.496C96.2879 120.781 96.9976 116.316 94.8684 113.832C93.7447 112.53 92.1182 112.176 90.4621 112.057C88.4512 111.939 85.8488 112.353 84.3702 110.638C82.655 108.627 83.5717 105.61 83.483 103.245C83.4239 101.382 82.8028 99.696 81.5016 98.3652C80.3483 97.2119 78.8401 96.4134 77.2728 95.9994C76.4743 95.7924 75.6463 95.6445 74.8183 95.615C73.7536 95.5558 69.1403 96.0881 70.3824 93.5745C70.619 93.0717 69.8501 92.6281 69.5839 93.1309Z" fill="#E8E8E8"/>
<path d="M0.443588 252.763H16.4719C17.0338 252.763 17.0338 251.876 16.4719 251.876C11.1193 251.876 5.79621 251.876 0.443588 251.876C-0.147863 251.876 -0.147863 252.763 0.443588 252.763Z" fill="#E8E8E8"/>
<path d="M9.07863 272.814H39.9228C40.4846 272.814 40.4846 271.927 39.9228 271.927C29.6315 271.927 19.3699 271.927 9.07863 271.927C8.48718 271.927 8.48718 272.814 9.07863 272.814Z" fill="#E8E8E8"/>
<path d="M38.6812 267.254H67.3666C67.9284 267.254 67.9284 266.367 67.3666 266.367C57.8146 266.367 48.2331 266.367 38.6812 266.367C38.0898 266.367 38.0898 267.254 38.6812 267.254Z" fill="#E8E8E8"/>
<path d="M197.751 265.716C202.572 264.533 207.422 264.415 212.331 265.184C214.401 265.509 216.5 265.834 218.6 265.657C220.64 265.48 222.622 264.859 224.603 264.326C226.851 263.705 229.098 263.232 231.464 263.41C233.889 263.587 236.225 264.267 238.591 264.799C240.632 265.273 242.702 265.598 244.801 265.568C247.019 265.509 249.208 265.125 251.366 264.799C257.281 263.853 262.84 264.445 268.696 265.42C269.258 265.509 269.494 264.652 268.932 264.563C264.201 263.794 259.44 262.995 254.619 263.469C249.592 263.971 244.92 265.213 239.833 264.178C235.575 263.321 231.523 261.99 227.146 262.818C224.81 263.262 222.592 264.09 220.256 264.533C217.654 265.036 215.14 264.74 212.538 264.326C207.481 263.557 202.483 263.617 197.485 264.859C196.982 265.006 197.219 265.864 197.751 265.716Z" fill="#E8E8E8"/>
<path d="M243.175 256.726C252.461 256.223 261.746 255.721 271.032 255.248C275.616 255.011 280.052 255.1 284.606 255.721C286.647 255.987 288.598 256.046 290.639 255.809C292.916 255.543 295.282 255.188 297.411 256.283C297.914 256.549 298.357 255.78 297.854 255.514C294.247 253.68 290.077 255.395 286.203 255.041C283.896 254.834 281.649 254.39 279.342 254.272C276.947 254.153 274.551 254.213 272.156 254.331C262.486 254.774 252.816 255.366 243.145 255.869C242.613 255.869 242.613 256.756 243.175 256.726Z" fill="#E8E8E8"/>
<path d="M61.3335 282.129C65.7102 282.543 70.1165 282.957 74.4932 282.454C76.5337 282.218 78.4855 281.774 80.4669 281.183C83.0397 280.414 85.3464 280.207 88.0079 280.68C90.0484 281.035 92.0593 281.538 94.0998 281.715C96.2586 281.892 98.4174 281.774 100.576 281.567C105.101 281.124 109.625 280.355 114.12 281.36C114.682 281.478 114.919 280.621 114.357 280.503C110.039 279.556 105.722 280.177 101.375 280.621C99.2159 280.828 97.0571 281.035 94.8983 280.917C92.4438 280.798 90.0779 280.148 87.6826 279.763C85.6716 279.438 83.7494 279.438 81.7681 279.911C79.6389 280.443 77.6279 281.153 75.4396 281.478C70.7671 282.159 66.0059 281.685 61.3335 281.271C60.742 281.183 60.7716 282.07 61.3335 282.129Z" fill="#E8E8E8"/>
<path d="M108.117 43.5085C106.964 42.71 105.397 41.4384 105.87 39.8415C106.373 38.1855 107.615 38.9839 108.768 38.5995C110.306 38.0967 110.217 36.2337 109.774 35.0212C109.33 33.8383 108.384 30.9698 110.838 31.9457C111.4 32.1822 111.814 32.5667 112.465 32.3597C113.056 32.1822 113.352 31.6499 113.5 31.0881C113.618 30.5853 113.529 30.053 113.5 29.5207C113.441 29.1658 113.411 28.7814 113.411 28.4265C113.293 27.5689 113.825 27.2141 114.949 27.3619C114.978 27.9238 115.865 27.9238 115.836 27.3619C115.777 26.5339 115.156 25.9424 114.269 25.972C113.233 26.0016 112.672 27.007 112.553 27.9534C112.465 28.604 112.997 30.1122 112.701 30.6445C112.346 30.881 111.991 31.1472 111.607 31.3838C111.459 31.2951 111.311 31.2063 111.163 31.1176C110.897 31.0289 110.69 30.8515 110.424 30.7923C109.507 30.5853 108.768 31.1472 108.443 31.9752C107.881 33.3947 108.886 34.5776 109.182 35.9084C109.567 37.7419 108.177 37.5349 106.964 37.7419C106.432 37.8306 105.988 38.0967 105.633 38.4812C103.77 40.64 105.929 43.0353 107.703 44.2774C108.147 44.6027 108.591 43.8338 108.117 43.5085Z" fill="#E8E8E8"/>
<path d="M113.943 42.6805C112.967 41.5567 112.228 40.019 114.12 39.4275C114.593 39.2796 115.126 39.3388 115.569 39.0431C116.545 38.3629 116.131 37.4461 115.954 36.4998C115.865 35.9675 115.658 35.2578 115.983 34.7255C116.22 34.341 117.078 34.1932 117.521 34.1045C118.142 33.9566 118.793 33.8679 119.325 33.513C120.124 32.9511 120.419 31.9457 119.887 31.0881C119.591 30.6149 118.822 31.0585 119.118 31.5316C120.005 32.9511 115.865 33.3356 115.155 34.3706C114.327 35.5831 116.072 37.7123 114.623 38.4812C114.061 38.7769 113.351 38.5699 112.819 38.9543C112.435 39.2205 112.169 39.6345 112.05 40.0781C111.725 41.3497 112.583 42.4439 113.351 43.3311C113.706 43.7451 114.327 43.1241 113.943 42.6805Z" fill="#E8E8E8"/>
<path d="M79.0174 35.6718C78.2486 35.1395 78.1599 34.1932 78.3964 33.3652C78.5443 32.8033 79.254 31.2655 79.9342 31.2064C81.058 31.0881 81.6198 32.5076 81.9156 33.3356C82.1817 34.1341 82.2704 34.9325 82.3 35.7606C82.3 36.3224 83.1872 36.3224 83.1872 35.7606C83.1576 34.1045 82.0634 29.018 79.3427 30.4967C78.3077 31.0585 77.5388 32.685 77.4205 33.8088C77.3022 34.8734 77.7163 35.8197 78.5739 36.4407C79.0174 36.766 79.461 35.9971 79.0174 35.6718Z" fill="#E8E8E8"/>
<path d="M78.663 36.1448C77.5984 36.411 76.5338 36.6772 75.4396 36.9433C74.8186 37.0912 73.754 37.1503 73.2512 37.6235C72.3936 38.4219 72.6302 40.8764 72.6302 41.9115C72.6302 42.2072 72.9259 42.4142 73.1921 42.3255C73.34 42.2959 73.4878 42.2368 73.6653 42.2072C74.4341 41.7932 74.8186 42.0593 74.8482 42.9465C75.4396 43.538 75.4396 43.8928 74.8482 43.952C74.4933 44.0999 74.1384 44.159 73.754 44.159C73.5174 44.1886 73.3104 44.3364 73.3104 44.6026C73.3695 46.4952 73.5174 48.3583 73.7244 50.2509C73.7835 50.8128 74.6707 50.8128 74.6116 50.2509C74.4046 48.3583 74.2567 46.4952 74.1976 44.6026C74.0497 44.7504 73.9018 44.8983 73.754 45.0462C74.996 44.8983 76.9774 44.3956 76.7112 42.7099C76.4155 40.906 74.2271 41.113 72.9851 41.4679C73.1625 41.6158 73.3695 41.7636 73.547 41.8819C73.547 41.2017 73.547 40.5511 73.6061 39.871C73.6948 38.8064 73.6357 38.4219 74.6116 38.0375C75.9423 37.5052 77.5097 37.3277 78.8996 36.9729C79.4615 36.8842 79.2249 36.0266 78.663 36.1448Z" fill="#E8E8E8"/>
<path d="M82.9213 36.4111C84.1633 36.352 85.4349 36.352 86.677 36.4998C87.8599 36.6477 87.8007 36.8251 87.9781 37.8602C88.0964 38.5108 88.126 39.1909 88.1852 39.8415C88.4217 42.3848 88.5992 44.928 88.747 47.4712C88.7766 48.0331 89.6638 48.0331 89.6342 47.4712C89.4568 44.0112 89.3385 40.4625 88.7766 37.0321C88.6287 36.1745 88.4809 35.9084 87.5937 35.7605C86.0559 35.4648 84.459 35.4648 82.9213 35.5535C82.3594 35.5535 82.3594 36.4407 82.9213 36.4111Z" fill="#E8E8E8"/>
<path d="M74.3751 50.8719C76.1199 50.5762 77.8646 50.2805 79.5799 49.9847C81.5612 49.6594 83.4538 49.8073 85.4352 49.6594C86.352 49.5707 90.6991 49.1271 89.1022 47.3232C88.7178 46.9092 88.0967 47.5302 88.4812 47.9442C88.7178 48.2104 84.6959 48.8018 84.6072 48.8018C83.3651 48.8314 82.1231 48.7723 80.881 48.9201C78.6335 49.1863 76.386 49.6594 74.1385 50.0439C73.5766 50.103 73.8132 50.9606 74.3751 50.8719Z" fill="#E8E8E8"/>
<path d="M231.464 221.18C231.375 224.285 231.287 227.39 231.198 230.525C235.131 230.791 239.035 231.028 242.968 231.294C242.968 228.1 242.968 224.906 242.968 221.712C239.123 221.535 235.308 221.358 231.464 221.18Z" fill="white" stroke="#2825A6" stroke-width="0.510197" stroke-miterlimit="10"/>
<path d="M236.58 255.691C237.112 259.122 237.349 261.961 237.467 264.001C237.851 270.773 237.556 272.341 236.964 273.583C235.515 276.629 232.883 277.9 233.12 278.314C233.297 278.58 234.598 278.285 240.395 275.239C240.04 268.496 239.714 261.783 239.36 255.041C238.443 255.277 237.526 255.484 236.58 255.691Z" fill="white" stroke="#2825A6" stroke-width="0.510197" stroke-miterlimit="10"/>
<path d="M228.921 233.955C233.948 233.985 238.975 234.044 244.003 234.074C243.441 240.816 242.909 247.529 242.347 254.272C237.97 253.917 233.564 253.592 229.187 253.237C229.069 246.82 228.98 240.402 228.921 233.955Z" fill="white" stroke="#2825A6" stroke-width="0.510197" stroke-miterlimit="10"/>
<path d="M230.961 255.455C232.558 259.329 233.09 262.67 233.268 264.918C233.534 268.23 233.711 270.773 232.114 272.459C231.523 273.11 230.547 273.731 228.654 275.002C226.969 276.126 226.17 276.54 226.229 276.658C226.318 276.836 227.945 276.481 235.042 273.967C235.515 271.572 235.9 268.496 235.811 264.888C235.693 261.044 235.072 257.761 234.391 255.307C233.268 255.366 232.114 255.396 230.961 255.455Z" fill="white" stroke="#2825A6" stroke-width="0.510197" stroke-miterlimit="10"/>
<path d="M233.535 278.58C234.422 277.841 235.25 277.043 236.048 276.185C236.965 275.18 238.325 273.642 239.745 274.973C239.774 274.736 239.804 274.499 239.833 274.263C237.734 275.298 235.664 276.333 233.564 277.338C233.15 277.545 233.357 278.166 233.801 278.166C235.782 278.196 237.024 274.736 239.065 275.387C239.597 275.564 239.834 274.706 239.301 274.529C238.414 274.263 237.734 274.499 236.995 275.032C236.137 275.653 234.924 277.279 233.83 277.279C233.919 277.545 233.978 277.841 234.067 278.107C236.167 277.072 238.237 276.037 240.336 275.032C240.602 274.913 240.632 274.529 240.425 274.322C239.626 273.583 238.207 273.317 237.202 273.79C236.462 274.115 235.989 274.973 235.457 275.534C234.658 276.392 233.83 277.161 232.943 277.93C232.47 278.314 233.091 278.965 233.535 278.58Z" fill="#2825A6"/>
<path d="M237.171 273.967C238.058 273.997 238.916 274.174 239.744 274.529C240.247 274.766 240.72 273.997 240.187 273.76C239.212 273.317 238.236 273.08 237.171 273.05C236.609 273.08 236.609 273.967 237.171 273.967Z" fill="#2825A6"/>
<path d="M232.322 272.932C233.002 273.109 233.593 273.464 234.067 273.997C234.451 274.411 235.072 273.79 234.688 273.376C234.096 272.755 233.357 272.311 232.529 272.104C232.026 271.927 231.789 272.784 232.322 272.932Z" fill="#2825A6"/>
<path d="M227.531 276.51C228.447 275.83 229.394 275.209 230.37 274.618C230.813 274.352 231.286 273.997 231.76 273.849C232.499 273.583 232.943 273.76 233.623 274.056C233.623 273.79 233.623 273.553 233.623 273.287C232.676 273.701 231.612 273.671 230.636 274.085C229.69 274.47 228.802 275.416 227.826 275.594C227.945 275.86 228.063 276.126 228.181 276.392C229.926 275.535 231.878 275.387 233.623 274.529C234.125 274.263 233.682 273.524 233.179 273.76C231.434 274.618 229.483 274.766 227.738 275.623C227.265 275.86 227.619 276.51 228.093 276.422C229.157 276.244 230.015 275.268 231.02 274.884C232.026 274.499 233.12 274.47 234.096 274.056C234.392 273.938 234.392 273.405 234.096 273.287C232.972 272.784 232.469 272.489 231.346 273.08C229.867 273.849 228.477 274.766 227.146 275.742C226.614 276.067 227.058 276.836 227.531 276.51Z" fill="#2825A6"/>
<path d="M232.587 259.979C233.327 259.713 234.066 259.743 234.746 260.097C235.249 260.364 235.693 259.595 235.19 259.329C234.303 258.855 233.297 258.767 232.351 259.122C231.819 259.329 232.055 260.186 232.587 259.979Z" fill="#2825A6"/>
<path d="M233.327 262.937C233.948 262.877 234.539 263.025 235.013 263.439C235.456 263.794 236.077 263.173 235.634 262.818C234.983 262.286 234.185 261.99 233.327 262.049C232.765 262.079 232.765 262.966 233.327 262.937Z" fill="#2825A6"/>
<path d="M233.652 266.633C234.214 266.574 234.747 266.781 235.072 267.254C235.368 267.727 236.137 267.284 235.841 266.811C235.397 266.071 234.54 265.628 233.682 265.746C233.445 265.776 233.238 265.923 233.238 266.19C233.209 266.397 233.416 266.663 233.652 266.633Z" fill="#2825A6"/>
<path d="M237.467 259.772C237.999 259.477 238.68 259.506 239.182 259.92C239.626 260.275 240.247 259.654 239.803 259.299C239.005 258.649 237.94 258.501 237.023 259.004C236.521 259.299 236.964 260.068 237.467 259.772Z" fill="#2825A6"/>
<path d="M237.97 265.362C238.443 265.155 238.976 265.243 239.36 265.598C239.774 265.983 240.425 265.362 239.981 264.977C239.301 264.356 238.355 264.208 237.497 264.622C236.994 264.829 237.467 265.598 237.97 265.362Z" fill="#2825A6"/>
<path d="M238.089 270.093C238.562 269.798 239.153 269.798 239.597 270.152C240.04 270.507 240.661 269.886 240.218 269.531C239.478 268.91 238.443 268.822 237.645 269.354C237.172 269.65 237.615 270.419 238.089 270.093Z" fill="#2825A6"/>
<path d="M244.713 234.044C244.121 240.846 243.53 247.648 242.938 254.449" stroke="#2825A6" stroke-width="1.53059" stroke-miterlimit="10"/>
<path d="M229.098 253.503C234.037 253.858 238.975 254.183 243.914 254.538" stroke="#2825A6" stroke-width="1.53059" stroke-miterlimit="10"/>
<path d="M243.943 221.446C243.825 224.817 243.677 228.159 243.559 231.53" stroke="#2825A6" stroke-width="1.53059" stroke-miterlimit="10"/>
<path d="M244.564 238.036C247.315 237.534 250.242 239.693 250.449 242.532C250.745 246.08 246.694 246.701 244.032 246.317C243.47 246.228 243.234 247.086 243.795 247.174C247.048 247.648 251.632 246.731 251.336 242.532C251.1 239.072 247.64 236.558 244.328 237.179C243.766 237.268 244.002 238.125 244.564 238.036Z" fill="#2825A6"/>
<path d="M243.914 247.884C245.068 248.121 245.985 248.949 246.31 250.072C246.458 250.634 247.315 250.398 247.167 249.836C246.783 248.416 245.63 247.292 244.181 247.026C243.589 246.938 243.353 247.766 243.914 247.884Z" fill="#2825A6"/>
<path d="M243.471 247.588C244.18 248.623 244.506 249.777 244.387 251.048C244.358 251.61 245.245 251.61 245.274 251.048C245.363 249.658 245.008 248.298 244.21 247.145C243.914 246.672 243.145 247.115 243.471 247.588Z" fill="#2825A6"/>
<path d="M228.891 237.623C226.939 236.381 223.361 239.959 222.917 241.704C222.03 245.252 226.584 244.838 228.477 246.021C228.95 246.317 229.394 245.548 228.921 245.252C227.56 244.395 225.549 244.72 224.366 243.655C222.917 242.354 224.248 240.787 225.254 239.87C225.786 239.397 227.59 237.83 228.447 238.362C228.921 238.717 229.394 237.948 228.891 237.623Z" fill="#2825A6"/>
<path d="M228.418 245.607C227.649 245.903 226.939 246.346 226.348 246.967C225.904 247.44 225.342 248.18 225.786 248.83C226.111 249.303 226.88 248.86 226.555 248.387C226.348 248.091 227.117 247.44 227.324 247.263C227.708 246.908 228.152 246.642 228.655 246.465C229.187 246.258 228.98 245.4 228.418 245.607Z" fill="#2825A6"/>
<path d="M228.063 246.228C227.501 247.115 227.324 248.121 227.531 249.126C227.649 249.688 228.507 249.452 228.388 248.89C228.211 248.091 228.388 247.352 228.832 246.672C229.157 246.199 228.388 245.755 228.063 246.228Z" fill="#2825A6"/>
<path d="M230.872 237.06C230.724 239.219 230.754 241.408 230.902 243.566C230.961 244.128 231.848 244.128 231.789 243.566C231.612 241.408 231.612 239.219 231.76 237.06C231.819 236.499 230.931 236.499 230.872 237.06Z" fill="#2825A6"/>
<path d="M231.523 237.297C234.658 237.475 237.763 237.593 240.898 237.652C240.75 237.504 240.602 237.356 240.454 237.208C240.365 239.426 240.277 241.674 240.158 243.892C240.129 244.454 241.016 244.454 241.046 243.892C241.134 241.674 241.223 239.426 241.341 237.208C241.341 236.972 241.134 236.765 240.898 236.765C237.763 236.706 234.658 236.587 231.523 236.41C230.961 236.38 230.961 237.268 231.523 237.297Z" fill="#2825A6"/>
<path d="M231.168 243.951C232.47 244.306 233.919 244.217 235.22 244.306C236.817 244.395 238.443 244.513 240.04 244.602C240.602 244.631 240.602 243.744 240.04 243.714C238.621 243.626 237.201 243.537 235.782 243.448C234.362 243.36 232.765 243.448 231.375 243.093C230.873 242.946 230.636 243.803 231.168 243.951Z" fill="#2825A6"/>
<path d="M232.174 248.535C232.706 249.688 233.86 248.683 234.747 249.097C235.161 249.274 235.072 249.54 235.634 249.57C236.285 249.599 237.881 248.298 238.207 249.511C238.296 249.836 238.71 249.925 238.946 249.718C239.242 249.629 239.567 249.54 239.863 249.481C240.218 249.925 240.868 249.274 240.484 248.86C239.804 248.062 238.946 248.505 238.296 249.097C238.532 249.156 238.798 249.215 239.035 249.304C238.769 248.269 237.675 247.588 236.639 248.062C236.137 248.298 236.078 248.742 235.309 248.446C235.161 248.387 235.102 248.15 234.954 248.091C234.629 247.973 232.913 248.15 232.913 248.121C232.706 247.559 231.937 248.002 232.174 248.535Z" fill="#2825A6"/>
<path d="M233.741 225.261C233.8 224.936 234.185 224.847 234.451 224.966C234.835 225.113 235.042 225.557 235.22 225.882C235.456 226.385 236.225 225.941 235.989 225.439C235.663 224.788 235.161 224.108 234.362 224.019C233.712 223.96 233.031 224.345 232.913 224.995C232.765 225.587 233.623 225.823 233.741 225.261Z" fill="#2825A6"/>
<path d="M239.182 225.675C239.242 225.38 239.508 225.202 239.803 225.32C240.158 225.439 240.306 225.882 240.365 226.208C240.454 226.769 241.312 226.533 241.223 225.971C241.105 225.261 240.631 224.522 239.863 224.404C239.182 224.315 238.443 224.729 238.325 225.439C238.236 226.001 239.094 226.237 239.182 225.675Z" fill="#2825A6"/>
<path d="M234.185 227.124C235.19 228.899 237.586 229.165 238.887 227.568C239.242 227.124 238.621 226.503 238.266 226.947C237.32 228.1 235.693 228.011 234.954 226.681C234.688 226.178 233.919 226.622 234.185 227.124Z" fill="#2825A6"/>
<path d="M203.163 66.4272C199.437 64.919 197.19 61.3112 195.829 57.7033C194.38 53.9476 193.759 49.8666 193.966 45.8448C194.321 38.4221 197.485 30.9106 203.341 26.179C208.871 21.684 217.062 20.4124 223.213 24.4934C229.631 28.7518 230.784 37.5349 230.843 44.6027C230.902 52.469 229.069 60.7197 223.243 66.3681C222.829 66.7525 223.45 67.4031 223.864 66.9891C229.394 61.6069 231.494 53.9181 231.701 46.4066C231.908 39.0431 231.021 29.7277 224.958 24.6708C219.28 19.9392 210.852 20.1758 204.79 24.0202C198.077 28.2787 194.114 35.9971 193.257 43.7747C192.724 48.595 193.316 53.5928 195.09 58.1469C196.598 61.9913 198.994 65.6583 202.956 67.2553C203.459 67.4918 203.666 66.6342 203.163 66.4272Z" fill="#2825A6"/>
<path d="M202.749 66.9891C201.744 68.4086 201.951 70.5082 203.429 71.5728C204.553 72.3713 206.209 72.4896 207.54 72.667C209.137 72.9036 210.763 72.9923 212.39 72.9923C215.288 72.9627 218.6 72.7557 221.291 71.632C223.243 70.804 224.722 68.8522 223.687 66.7525C223.45 66.2498 222.681 66.6934 222.918 67.1961C225.136 71.7207 214.637 72.1051 212.36 72.1051C210.261 72.1051 208.161 71.9277 206.12 71.5433C205.145 71.3658 204.05 71.1884 203.429 70.3308C202.808 69.4436 202.927 68.2903 203.518 67.4623C203.843 66.9595 203.074 66.5159 202.749 66.9891Z" fill="#2825A6"/>
<path d="M203.696 71.7798C203.696 73.2585 203.725 74.7667 203.903 76.2453C203.991 76.9255 204.139 77.5169 204.701 77.9309C205.499 78.5224 206.83 78.4928 207.777 78.5815C209.373 78.6998 211 78.6998 212.597 78.6407C214.105 78.5815 215.613 78.4632 217.121 78.3154C218.009 78.2267 219.014 78.2562 219.694 77.5761C221.202 76.0974 221.232 73.288 220.848 71.425C220.729 70.8631 219.872 71.0997 219.99 71.6616C220.197 72.667 220.256 73.6725 220.049 74.7075C219.753 76.1566 219.339 77.1029 217.713 77.3986C215.82 77.7535 213.691 77.7535 211.769 77.7831C209.876 77.8126 207.747 77.9014 205.884 77.4578C204.169 77.0438 204.612 73.1993 204.612 71.7798C204.583 71.218 203.696 71.218 203.696 71.7798Z" fill="#2825A6"/>
<path d="M203.991 39.9304C207.54 42.1483 210.231 45.4013 211.739 49.3049C211.946 49.8372 212.804 49.6006 212.597 49.0683C211 44.9282 208.19 41.4977 204.464 39.1615C203.961 38.8362 203.518 39.6051 203.991 39.9304Z" fill="#2825A6"/>
<path d="M212.449 49.3047C214.194 45.6377 216.737 42.503 219.99 40.078C220.433 39.7527 219.99 38.9543 219.546 39.3092C216.175 41.8228 213.513 45.0758 211.68 48.8611C211.443 49.3638 212.212 49.8074 212.449 49.3047Z" fill="#2825A6"/>
<path d="M211.739 48.2698C212.183 54.3617 212.39 60.4536 212.301 66.5456C212.301 67.1075 213.188 67.1075 213.188 66.5456C213.277 60.4536 213.07 54.3321 212.626 48.2698C212.567 47.6783 211.68 47.6783 211.739 48.2698Z" fill="#2825A6"/>
<path d="M177.11 63.1742C181.043 61.8435 184.947 60.5127 188.88 59.182C189.412 59.0045 189.176 58.1469 188.643 58.3244C184.71 59.6551 180.807 60.9859 176.873 62.3166C176.312 62.4941 176.548 63.3517 177.11 63.1742Z" fill="#2825A6"/>
<path d="M181.604 57.2597C182.965 56.8752 184.325 56.4612 185.685 56.0768C186.218 55.9289 186.011 55.0713 185.449 55.2192C184.088 55.6036 182.728 56.0176 181.368 56.4021C180.835 56.5795 181.042 57.4371 181.604 57.2597Z" fill="#2825A6"/>
<path d="M171.757 47.4121C176.962 47.3529 182.137 47.5008 187.312 47.8261C187.874 47.8557 187.874 46.9685 187.312 46.9389C182.137 46.6136 176.933 46.4953 171.757 46.5249C171.195 46.5249 171.195 47.4121 171.757 47.4121Z" fill="#2825A6"/>
<path d="M182.758 43.3902C184 43.7155 185.271 43.8633 186.543 43.8929C187.105 43.8929 187.105 43.0057 186.543 43.0057C185.331 42.9762 184.148 42.8283 182.994 42.5326C182.433 42.3847 182.196 43.2423 182.758 43.3902Z" fill="#2825A6"/>
<path d="M180.836 15.8581C185.479 19.8504 189.708 24.2272 193.523 29.0179C193.877 29.4615 194.498 28.8405 194.144 28.3969C190.329 23.6061 186.1 19.1998 181.457 15.2371C181.043 14.8527 180.392 15.4737 180.836 15.8581Z" fill="#2825A6"/>
<path d="M193.818 24.2569C194.616 25.0849 195.385 25.9129 196.184 26.7705C196.568 27.1846 197.189 26.5635 196.805 26.1495C196.006 25.3215 195.237 24.4935 194.439 23.6359C194.055 23.2218 193.434 23.8429 193.818 24.2569Z" fill="#2825A6"/>
<path d="M175.809 25.9128C177.258 26.7704 178.736 27.5689 180.245 28.3082C180.747 28.5743 181.191 27.8054 180.688 27.5393C179.18 26.7704 177.701 25.9719 176.252 25.1439C175.75 24.8482 175.306 25.6171 175.809 25.9128Z" fill="#2825A6"/>
<path d="M227.265 19.1704C231.641 14.7936 236.018 10.4169 240.395 6.04018C240.809 5.62617 240.158 5.00514 239.774 5.41916C235.397 9.79589 231.02 14.1726 226.644 18.5494C226.23 18.9634 226.851 19.5844 227.265 19.1704Z" fill="#2825A6"/>
<path d="M231.671 21.2108C232.795 20.3827 233.919 19.5843 235.043 18.7562C235.486 18.4309 235.072 17.6621 234.599 17.9873C233.475 18.8154 232.352 19.6138 231.228 20.4419C230.755 20.7672 231.198 21.536 231.671 21.2108Z" fill="#2825A6"/>
<path d="M213.602 13.3742C214.489 9.08615 215.17 4.76857 215.584 0.421408C215.643 -0.140469 214.756 -0.140469 214.696 0.421408C214.282 4.67985 213.632 8.93829 212.745 13.1376C212.626 13.6995 213.484 13.936 213.602 13.3742Z" fill="#2825A6"/>
<path d="M238.472 40.5809C246.516 39.8416 254.53 39.1022 262.574 38.3629C263.136 38.3038 263.136 37.4166 262.574 37.4758C254.53 38.2151 246.516 38.9544 238.472 39.6937C237.91 39.7233 237.881 40.6104 238.472 40.5809Z" fill="#2825A6"/>
<path d="M204.671 68.0536C209.669 69.1478 214.756 69.1182 219.724 67.9944C220.286 67.8762 220.049 67.0186 219.487 67.1368C214.667 68.231 209.728 68.2606 204.908 67.196C204.346 67.0777 204.109 67.9353 204.671 68.0536Z" fill="#2825A6"/>
<path d="M205.411 75.5652C209.226 76.0679 213.041 76.1862 216.885 75.92C217.447 75.8905 217.447 75.0033 216.885 75.0329C213.041 75.299 209.226 75.1807 205.411 74.678C204.849 74.6189 204.849 75.506 205.411 75.5652Z" fill="#2825A6"/>
<path d="M232.883 65.0669C238.886 69.2958 245.008 73.3768 251.218 77.31C251.691 77.6057 252.135 76.8368 251.662 76.5411C245.452 72.6079 239.33 68.5269 233.327 64.298C232.854 63.9728 232.41 64.7416 232.883 65.0669Z" fill="#2825A6"/>
<path d="M157.326 273.08C151.707 279.97 146.118 286.831 140.499 293.722C147.094 316.906 150.82 322.998 153.038 322.673C154.634 322.436 155.403 318.976 156.261 315.102C158.39 305.432 157.119 297.122 155.817 291.947C159.366 287.985 162.885 283.992 166.434 280.029C163.388 277.723 160.372 275.416 157.326 273.08Z" fill="#2825A6" stroke="#2825A6" stroke-width="0.510197" stroke-miterlimit="10"/>
<path d="M136.595 237.593C140.114 240.314 143.485 239.338 150.465 240.521C156.409 241.526 163.092 243.744 170.189 248.18C162.619 257.052 155.048 266.426 147.537 276.303C145.733 278.699 143.929 281.094 142.184 283.49C145.082 284.17 148.572 285.234 152.357 286.95C156.054 288.606 159.07 290.469 161.466 292.154C172.733 282.336 182.787 272.843 191.748 263.883C195.888 259.743 201.743 253.414 202.66 244.454C202.719 243.951 202.719 243.508 202.719 243.064C202.512 228.189 183.793 217.425 172.407 213.462C159.957 209.144 138.547 206.808 132.573 217.129C129.054 223.221 131.124 233.364 136.595 237.593Z" fill="#FFDC68"/>
<path opacity="0.26" d="M158.45 222.718C158.243 225.528 157.74 228.869 156.705 232.566C155.966 235.198 155.079 237.534 154.192 239.515C153.216 239.9 152.269 240.284 151.293 240.669C157.652 243.182 164.039 245.696 170.397 248.21C165.666 253.621 160.905 259.299 156.114 265.214C151.175 271.306 146.473 277.279 142.008 283.164C145.172 284.199 148.307 285.234 151.471 286.24C162.797 273.76 174.123 261.251 185.45 248.772C186.633 245.371 186.573 242.709 186.219 240.846C184.592 231.738 173.443 224.315 158.45 222.718Z" fill="#6D6C6C"/>
<path opacity="0.23" d="M170.337 248.15C171.372 249.718 172.378 251.315 173.413 252.882C164.6 263.499 155.788 274.086 146.975 284.702C145.408 284.288 143.811 283.844 142.243 283.43C147.892 275.682 153.984 267.727 160.578 259.713C163.861 255.721 167.114 251.877 170.337 248.15Z" fill="#6D6C6C"/>
<path d="M140.913 261.842C149.637 263.439 158.39 265.007 167.114 266.604C177.199 288.606 178.322 295.703 176.43 296.915C175.069 297.773 172.23 295.644 169.066 293.248C161.141 287.245 156.734 280.089 154.339 275.268C149.075 274.559 143.811 273.819 138.547 273.11C139.316 269.354 140.115 265.598 140.913 261.842Z" fill="#2825A6" stroke="#2825A6" stroke-width="0.510197" stroke-miterlimit="10"/>
<path d="M122.933 212.841C107.023 217.513 97.3228 227.213 91.083 233.6C82.6548 242.265 72.3044 252.882 75.2913 260.718C76.829 264.711 81.5015 267.165 103.267 270.951C119.709 273.819 133.963 275.357 145.082 276.214C146.472 271.128 147.862 266.071 149.223 260.985C138.044 257.377 126.895 253.799 115.717 250.191C122.578 248.742 129.793 247.026 137.305 244.927C143.012 243.33 148.454 241.674 153.629 239.929C158.42 230.259 159.455 219.82 154.457 213.905C147.478 205.625 131.834 210.209 122.933 212.841Z" fill="#FFDC68"/>
<path opacity="0.29" d="M158.331 223.073C158.183 226 157.681 229.756 156.32 233.896C155.492 236.41 154.546 238.598 153.6 240.402C152.801 240.461 152.003 240.55 151.204 240.609C144.462 242.827 137.276 244.927 129.676 246.878C124.767 248.15 119.976 249.244 115.333 250.25C126.541 253.769 137.749 257.258 148.957 260.778C148.72 261.99 148.425 263.262 148.07 264.592C147.656 266.13 147.183 267.55 146.739 268.851C131.273 265.036 115.806 261.221 100.34 257.406C99.6299 256.549 97.2937 253.444 97.6486 249.333C98.033 244.868 102.291 241.703 107.733 238.805C123.465 230.466 149.844 224.817 158.331 223.073Z" fill="#6D6C6C"/>
<path opacity="0.24" d="M107.378 250.871C110.187 250.664 113.026 250.457 115.836 250.22C126.866 253.887 137.897 257.584 148.927 261.251C148.454 262.996 147.981 264.77 147.508 266.515C134.141 261.28 120.745 256.076 107.378 250.871Z" fill="#6D6C6C"/>
<path d="M118.764 145.829C123.14 143.257 130.74 139.59 140.854 138.525C156.35 136.899 168.238 142.458 172.94 144.972C172.083 156.594 170.752 165.88 169.687 172.267C168.416 179.897 167.381 184.126 166.908 191.134C166.316 199.918 167.055 207.133 167.736 211.865C162.59 213.462 154.812 215.207 145.231 215C136.004 214.792 128.552 212.782 123.554 211.037C124.885 200.45 124.442 192.051 123.791 186.344C123.052 179.986 122.046 176.881 120.834 169.192C119.266 159.255 118.852 151.123 118.764 145.829Z" fill="white" stroke="#2825A6" stroke-width="0.510197" stroke-miterlimit="10"/>
<path opacity="0.14" d="M150.761 142.044C151.382 144.292 152.091 147.397 152.565 151.123C152.89 153.637 154.221 165.022 150.08 180.045C147.537 189.301 144.846 199.09 136.033 207.133C133.195 209.736 130.444 211.48 128.433 212.575C132.899 213.728 138.725 214.822 145.615 214.881C154.635 214.97 162.087 213.344 167.262 211.747C166.966 209.529 166.582 206.187 166.434 202.165C166.316 198.646 166.316 193.027 168.741 177.206C170.663 164.756 172.023 159.403 172.703 148.136C172.792 146.835 172.822 145.741 172.881 145.001C170.722 143.73 167.913 142.34 164.453 141.216C161.259 140.181 158.39 139.649 156.024 139.412C154.309 140.27 152.535 141.157 150.761 142.044Z" fill="#6D6C6C"/>
<path opacity="0.17" d="M172.023 149.822C170.367 159.196 168.179 166.767 166.464 172.031C161.436 187.409 157.917 197.759 148.425 205.329C142.54 210.031 136.418 212.013 132.485 212.959C136.477 214.083 142.126 215.177 148.957 215.029C156.823 214.852 163.181 213.077 167.351 211.569C166.789 207.961 166.138 202.55 166.316 195.955C166.523 187.408 167.913 182.263 169.451 172.888C170.308 167.388 171.402 159.522 172.023 149.822Z" fill="#6D6C6C"/>
<path d="M118.586 145.682C114.742 148.343 109.803 152.543 105.485 158.782C95.756 172.918 96.0222 187.911 96.4066 193.441C98.1809 198.203 101.227 204.442 106.55 210.564C109.655 214.142 114.209 219.288 121.987 222.6C124.589 223.724 126.866 224.345 128.522 224.7C129.942 223.428 131.332 222.156 132.751 220.885C128.197 215.562 123.613 209.972 119.03 204.206C115.51 199.799 112.139 195.423 108.886 191.105C109.004 187.468 109.773 180.873 113.736 173.983C115.984 170.079 118.616 167.24 120.715 165.318C120.005 158.782 119.296 152.247 118.586 145.682Z" fill="white" stroke="#2825A6" stroke-width="0.510197" stroke-miterlimit="10"/>
<path opacity="0.13" d="M119.147 152.276C110.63 161.887 106.579 170.995 104.568 176.733C101.049 186.669 101.788 191.874 102.321 194.358C102.764 196.31 103.74 199.651 107.318 204.738C110.423 209.144 116.959 217.04 129.409 223.546C130.503 222.481 131.597 221.446 132.692 220.382C129.172 216.419 125.624 212.249 122.045 207.902C117.343 202.194 112.967 196.576 108.915 191.075C109.034 188.088 109.536 183.919 111.281 179.246C113.913 172.237 118.053 167.624 120.626 165.17C120.094 160.882 119.621 156.594 119.147 152.276Z" fill="#6D6C6C"/>
<path opacity="0.16" d="M108.886 191.46C109.418 194.92 110.512 199.326 112.819 204.087C117.906 214.438 125.861 220.145 129.912 222.629C130.71 221.919 131.479 221.239 132.278 220.529C124.471 210.83 116.693 201.13 108.886 191.46Z" fill="#6D6C6C"/>
<path d="M173.384 145.149C177.701 147.781 183.261 151.892 188.081 158.013C199.023 171.883 198.698 186.61 198.284 192.051C196.273 196.724 192.872 202.845 186.898 208.878C183.409 212.368 178.293 217.425 169.569 220.707C166.641 221.801 164.068 222.422 162.205 222.777C160.638 221.535 159.041 220.293 157.474 219.051C162.56 213.817 167.735 208.346 172.881 202.668C176.814 198.321 180.599 194.033 184.266 189.804C184.118 186.255 183.29 179.779 178.825 172.977C176.282 169.133 173.354 166.353 170.988 164.46C171.816 158.013 172.615 151.596 173.384 145.149Z" fill="white" stroke="#2825A6" stroke-width="0.510197" stroke-miterlimit="10"/>
<path opacity="0.16" d="M173.177 152.335C176.932 156.268 182.048 162.567 186.041 171.35C187.933 175.52 191.009 182.292 191.068 188.68C191.275 208.109 163.773 221.476 162.176 222.245C160.608 221.239 159.071 220.263 157.503 219.258C166.404 209.499 175.276 199.74 184.178 189.981C184 186.787 183.261 180.843 179.712 174.515C176.784 169.31 173.147 165.939 170.752 164.075C171.58 160.172 172.378 156.268 173.177 152.335Z" fill="#6D6C6C"/>
<path opacity="0.12" d="M184.474 190.07C184.03 192.643 183.291 195.452 182.137 198.35C176.933 211.481 166.405 218.667 161.082 221.742C159.81 220.914 158.568 220.086 157.297 219.258C166.346 209.529 175.395 199.799 184.474 190.07Z" fill="#6D6C6C"/>
<path d="M107.466 192.258H180.185V238.303H107.466V192.258Z" fill="white" stroke="#2825A6" stroke-width="0.510197" stroke-miterlimit="10"/>
<path d="M142.776 219.672C138.932 220.145 137.069 215.473 138.074 212.368C139.05 209.292 142.688 207.843 145.645 208.908C148.573 209.972 149.992 213.551 148.957 216.419C147.804 219.613 143.782 220.914 140.825 219.495C140.322 219.258 139.849 220.027 140.381 220.264C143.013 221.535 146.236 221.062 148.336 218.992C150.376 216.951 150.672 213.728 149.401 211.214C146.502 205.477 137.542 207.311 136.921 213.61C136.596 216.981 139.021 221.032 142.776 220.589C143.338 220.5 143.338 219.613 142.776 219.672Z" fill="#2825A6"/>
<path opacity="0.14" d="M134.762 192.14C144.61 195.571 151.322 204.354 151.529 213.787C151.796 225.616 141.859 236.735 128.315 237.859C145.556 238.007 162.797 238.155 180.067 238.303C180.008 222.866 179.978 207.429 179.919 192.022C164.867 192.022 149.814 192.081 134.762 192.14Z" fill="#6D6C6C"/>
<path opacity="0.26" d="M180.067 191.992C179.801 201.396 177.938 208.73 176.371 213.55C174.064 220.559 172.408 225.675 167.647 230.2C161.17 236.41 153.097 237.563 149.548 237.859C159.633 237.948 169.717 238.036 179.801 238.155C179.831 229.372 179.89 220.589 179.949 211.776C179.949 205.181 180.008 198.587 180.067 191.992Z" fill="#6D6C6C"/>
<path d="M141.682 121.964C140.056 123.946 141.623 126.371 141.327 132.847C141.179 136.07 140.647 138.673 140.233 140.418C141.623 141.068 144.078 141.985 147.242 142.074C151.145 142.162 154.103 140.95 155.552 140.24C154.901 138.939 154.043 136.928 153.511 134.326C152.18 127.701 154.546 124.596 152.594 122.142C150.317 119.303 143.871 119.273 141.682 121.964Z" fill="white" stroke="#2825A6" stroke-width="0.510197" stroke-miterlimit="10"/>
<path d="M131.361 93.5156C129.498 98.3063 130.208 102.624 130.622 104.487C130.444 104.517 126.984 105.256 126.038 107.917C125.092 110.609 127.043 114.423 131.124 115.665C132.603 119.273 136.181 126.252 143.722 130.067C144.994 130.688 146.206 131.191 147.419 131.546C148.513 131.132 149.992 130.481 151.677 129.505C156.941 126.459 159.869 122.674 160.549 121.757C161.791 120.101 163.477 117.44 164.66 113.773C165.31 113.891 166.464 113.95 167.587 113.388C170.131 112.087 171.402 108.036 169.628 105.404C168.149 103.215 165.281 103.127 164.926 103.127C165.31 101.589 166.493 96.0588 163.506 90.5879C160.076 84.289 152.712 80.9769 145.792 81.9232C135.56 83.2539 131.538 93.0424 131.361 93.5156Z" fill="white" stroke="#2825A6" stroke-width="0.510197" stroke-miterlimit="10"/>
<path d="M141.298 129.801C143.102 130.866 145.083 132.522 147.301 132.344C149.134 132.197 151.175 131.132 152.565 130.008C153.008 129.653 152.387 129.032 151.944 129.387C150.643 130.422 148.543 131.516 146.828 131.487C145.024 131.457 143.19 129.949 141.712 129.032C141.268 128.737 140.825 129.505 141.298 129.801Z" fill="#2825A6"/>
<path d="M141.179 130.186C142.865 131.635 144.787 133.261 147.153 133.143C149.459 133.025 151.618 131.487 153.126 129.831C153.511 129.417 152.89 128.796 152.505 129.21C151.204 130.629 149.37 132.019 147.36 132.226C145.142 132.433 143.367 130.925 141.8 129.565C141.386 129.18 140.765 129.801 141.179 130.186Z" fill="#2825A6"/>
<path d="M142.303 130.363C142.303 130.333 142.303 130.333 142.303 130.363C142.126 130.097 141.8 130.038 141.593 130.245C141.593 130.245 141.593 130.245 141.564 130.274C141.386 130.422 141.386 130.747 141.564 130.895C144.817 134 150.79 135.006 153.127 130.245C153.363 129.742 152.624 129.269 152.358 129.801C150.288 134.06 145.053 133.025 142.214 130.274V130.895C142.214 130.895 142.214 130.895 142.244 130.866C142.007 130.836 141.771 130.807 141.534 130.777V130.807C141.83 131.28 142.599 130.836 142.303 130.363Z" fill="#2825A6"/>
<path d="M145.852 103.008C145.467 107.799 145.674 112.56 146.443 117.292C146.473 117.528 146.768 117.676 146.975 117.588C148.129 117.203 148.957 116.523 149.578 115.488C149.873 114.985 149.105 114.542 148.809 115.044C148.306 115.902 147.685 116.405 146.739 116.73C146.916 116.819 147.094 116.937 147.271 117.026C146.502 112.383 146.325 107.681 146.709 102.979C146.798 102.417 145.911 102.417 145.852 103.008Z" fill="#2825A6"/>
<path d="M140.588 107.71C140.647 107.977 141.091 109.633 140.588 109.899C140.085 110.165 138.666 109.1 138.222 107.71C137.867 106.527 138.163 105.049 138.725 104.931C139.316 104.783 140.233 106.409 140.588 107.71Z" fill="#2825A6" stroke="#2825A6" stroke-width="0.255098" stroke-miterlimit="10"/>
<path d="M155.847 107.71C155.906 107.977 156.35 109.633 155.847 109.899C155.344 110.165 153.925 109.1 153.481 107.71C153.127 106.527 153.422 105.049 153.984 104.931C154.576 104.783 155.492 106.409 155.847 107.71Z" fill="#2825A6" stroke="#2825A6" stroke-width="0.255098" stroke-miterlimit="10"/>
<path d="M144.787 121.196C148.395 122.733 151.677 120.574 154.339 118.238C154.782 117.854 154.132 117.233 153.718 117.617C151.411 119.628 148.454 121.787 145.26 120.427C144.698 120.22 144.254 120.989 144.787 121.196Z" fill="#2825A6"/>
<path d="M155.197 112.413C155.759 112.413 155.759 111.525 155.197 111.525C154.635 111.525 154.635 112.413 155.197 112.413Z" fill="#2825A6"/>
<path d="M158.479 110.756C158.508 110.727 158.538 110.697 158.568 110.668C158.745 110.49 158.745 110.224 158.568 110.047C158.39 109.869 158.124 109.869 157.947 110.047C157.917 110.076 157.887 110.106 157.858 110.135C157.68 110.313 157.68 110.579 157.858 110.756C158.035 110.934 158.301 110.934 158.479 110.756Z" fill="#2825A6"/>
<path d="M157.504 112.915H157.592C157.829 112.915 158.036 112.708 158.036 112.472C158.036 112.235 157.829 112.028 157.592 112.028C157.563 112.028 157.533 112.028 157.504 112.028C157.267 112.028 157.06 112.235 157.06 112.472C157.06 112.708 157.237 112.915 157.504 112.915Z" fill="#2825A6"/>
<path d="M137.098 102.417C138.222 101.47 139.878 101.441 141.002 102.358C141.445 102.713 142.066 102.092 141.623 101.737C140.085 100.495 137.956 100.495 136.447 101.796C136.033 102.151 136.684 102.772 137.098 102.417Z" fill="#2825A6"/>
<path d="M151.529 102.092C152.801 100.968 154.605 100.761 156.113 101.559C156.616 101.826 157.06 101.057 156.557 100.791C154.694 99.7851 152.476 100.051 150.908 101.471C150.465 101.855 151.086 102.476 151.529 102.092Z" fill="#2825A6"/>
<path d="M137.335 112.324C137.896 112.324 137.896 111.437 137.335 111.437C136.773 111.437 136.773 112.324 137.335 112.324Z" fill="#2825A6"/>
<path d="M140.469 111.91C141.031 111.91 141.031 111.022 140.469 111.022C139.907 111.022 139.907 111.91 140.469 111.91Z" fill="#2825A6"/>
<path d="M138.902 112.59C138.872 112.62 138.843 112.649 138.813 112.679C138.636 112.856 138.636 113.122 138.813 113.3C138.991 113.477 139.257 113.477 139.434 113.3C139.464 113.27 139.493 113.241 139.523 113.211C139.7 113.034 139.7 112.767 139.523 112.59C139.346 112.413 139.079 112.413 138.902 112.59Z" fill="#2825A6"/>
<path d="M136.181 83.9047C134.407 84.9989 130.533 87.3942 127.901 92.3033C125.269 97.1827 125.299 101.796 125.417 103.777C121.099 111.555 119.147 118.416 118.201 123.088C116.663 130.511 117.491 133.232 118.556 135.036C121.158 139.471 126.393 140.566 127.664 140.832C134.2 142.222 139.405 138.88 140.588 138.111C140.913 137.135 141.238 135.923 141.416 134.562C141.741 132.226 141.563 130.215 141.297 128.766C139.819 127.554 138.103 125.927 136.447 123.798C133.934 120.545 132.514 117.351 131.716 115.045C129.113 114.778 127.162 113.004 126.984 111.023C126.807 109.16 128.108 106.764 129.823 106.764C131.095 106.764 132.012 108.065 132.189 108.302C133.165 107.74 134.525 106.764 135.738 105.226C137.482 103.009 137.778 101.027 138.577 98.9571C139.345 96.9462 140.824 94.1664 144.018 91.2682C147.093 92.3624 149.548 93.427 151.234 94.2255C156.645 96.7392 159.721 98.2178 162.116 101.441C163.447 103.216 164.127 104.96 164.482 106.055C167.232 103.955 168.356 104.517 168.593 104.635C170.337 105.611 170.278 110.964 167.558 112.442C166.523 113.004 165.34 112.856 164.6 112.679C163.743 115.666 161.85 120.545 157.503 124.863C156.054 126.312 154.575 127.435 153.245 128.293C153.126 129.387 153.067 130.895 153.363 132.67C153.629 134.296 154.102 135.627 154.546 136.573C161.732 141.305 170.663 140.447 175.513 135.361C179.83 130.807 179.83 123.916 178.204 119.214C176.725 114.926 173.857 112.353 172.437 111.23C172.822 109.574 174.951 99.7556 168.77 90.7359C167.173 88.3997 162.708 82.7514 154.664 80.7996C146.147 78.7295 139.138 82.1008 136.181 83.9047Z" fill="#BB07BE"/>
<path opacity="0.17" d="M154.93 96.0589C158.272 100.258 159.159 104.132 159.455 106.143C160.667 114.601 155.758 121.462 153.274 124.981C151.234 127.849 149.134 129.89 147.626 131.221C148.927 134.71 150.199 138.17 151.5 141.66L155.492 140.329C154.871 139.235 154.221 137.874 153.718 136.218C152.801 133.261 152.742 130.659 152.831 128.884C154.457 127.731 156.35 126.164 158.183 124.094C161.85 119.954 163.684 115.695 164.63 112.827C165.222 112.945 166.493 113.093 167.706 112.413C170.249 110.963 169.835 107.356 169.805 107.119C169.717 106.35 169.539 105.108 168.652 104.605C167.617 104.044 165.902 104.576 164.541 106.173C164.127 104.724 162.944 101.382 159.751 98.7205C157.976 97.2418 156.172 96.4729 154.93 96.0589Z" fill="#6D6C6C"/>
<path opacity="0.19" d="M146.265 103.275C146.088 103.245 145.497 105.818 143.693 117.174H146.798C146.591 115.665 146.354 113.477 146.236 110.816C146.088 106.261 146.443 103.304 146.265 103.275Z" fill="#6D6C6C"/>
<path opacity="0.54" d="M172.26 111.525C171.757 111.821 173.65 114.364 173.384 118.15C173.295 119.332 173.118 122.024 170.989 123.827C170.841 123.946 167.676 126.548 164.542 124.892C162.679 123.916 161.555 121.846 161.614 119.599C160.727 121.255 159.278 123.443 157.001 125.572C155.581 126.903 154.191 127.879 152.979 128.618C152.89 129.919 152.89 131.694 153.363 133.705C153.629 134.799 153.955 135.745 154.28 136.514C155.197 137.105 156.557 137.904 158.331 138.525C159.455 138.909 165.636 141.068 171.669 138.081C172.733 137.549 175.099 136.337 176.814 133.734C177.021 133.409 177.79 132.256 178.352 130.304C180.363 123.62 177.406 117.588 177.14 117.085C175.513 113.802 172.881 111.17 172.26 111.525Z" fill="#BB07BE"/>
<path opacity="0.35" d="M131.686 115.163C131.42 115.192 132.012 117.617 131.361 120.013C130.888 121.787 129.38 124.685 126.807 125.277C124.116 125.868 120.774 123.887 119.236 120.19C118.527 121.817 117.58 124.419 117.432 127.731C117.344 129.89 117.225 132.197 118.29 134.474C120.685 139.56 127.724 141.541 132.958 141.068C136.448 140.743 139.08 139.383 140.499 138.466C140.854 137.46 141.209 136.248 141.445 134.858C141.83 132.463 141.741 130.363 141.534 128.825C139.198 127.14 137.601 125.395 136.595 124.123C135.176 122.319 133.254 119.894 132.278 116.523C132.13 116.139 131.864 115.133 131.686 115.163Z" fill="#BB07BE"/>
</svg>
