<svg width="240" height="325" viewBox="0 0 240 325" fill="none" xmlns="http://www.w3.org/2000/svg">
<path d="M202.743 295.4C202.743 295.4 203.577 257.692 168.767 239.173C168.767 239.173 168.284 274.801 202.743 295.4Z" fill="#A6C17F"/>
<path d="M200.134 291.831C200.201 291.831 200.268 291.815 200.327 291.784C200.386 291.753 200.435 291.709 200.469 291.655C200.504 291.601 200.523 291.54 200.524 291.477C200.525 291.415 200.509 291.353 200.476 291.298L172.287 243.756C172.238 243.672 172.154 243.61 172.055 243.583C171.955 243.556 171.848 243.566 171.758 243.612C171.667 243.658 171.599 243.735 171.57 243.827C171.541 243.918 171.552 244.017 171.602 244.101L199.791 291.644C199.824 291.7 199.874 291.748 199.934 291.781C199.995 291.814 200.063 291.831 200.134 291.831Z" fill="white"/>
<path d="M206.233 289.169C206.233 289.169 214.801 252.296 184.423 228.014C184.423 228.014 176.634 262.908 206.233 289.169Z" fill="white"/>
<path d="M204.512 285.212H204.629C204.727 285.182 204.808 285.118 204.855 285.033C204.902 284.948 204.91 284.849 204.878 284.758L186.963 233.137C186.947 233.089 186.922 233.045 186.888 233.007C186.855 232.969 186.813 232.937 186.766 232.914C186.719 232.89 186.668 232.876 186.614 232.871C186.561 232.866 186.508 232.871 186.457 232.885C186.405 232.899 186.358 232.922 186.316 232.953C186.275 232.985 186.241 233.023 186.215 233.066C186.19 233.11 186.174 233.157 186.169 233.206C186.163 233.256 186.169 233.305 186.184 233.352L204.099 284.974C204.128 285.051 204.185 285.117 204.26 285.16C204.335 285.203 204.424 285.221 204.512 285.212Z" fill="#2A27B0"/>
<path d="M205.595 297.371C205.595 297.371 209.162 266.16 240 254.203C240 254.231 236.37 283.694 205.595 297.371Z" fill="#96BF8B"/>
<path d="M208.19 294.737C208.252 294.737 208.314 294.724 208.369 294.697C208.425 294.671 208.473 294.633 208.509 294.586L237.158 258.058C237.188 258.02 237.21 257.977 237.222 257.931C237.234 257.885 237.236 257.837 237.228 257.79C237.22 257.743 237.202 257.699 237.175 257.658C237.149 257.618 237.113 257.583 237.072 257.555C237.031 257.527 236.984 257.507 236.934 257.496C236.884 257.485 236.832 257.483 236.782 257.49C236.731 257.497 236.682 257.514 236.639 257.539C236.595 257.563 236.557 257.596 236.527 257.634L207.878 294.169C207.837 294.222 207.812 294.285 207.807 294.35C207.802 294.416 207.816 294.481 207.848 294.54C207.88 294.598 207.929 294.648 207.989 294.682C208.049 294.717 208.119 294.736 208.19 294.737Z" fill="white"/>
<path d="M207.386 290.867C207.386 290.867 179.766 252.303 202.713 212.049C202.705 212.049 228.479 248.67 207.386 290.867Z" fill="#A6C17F"/>
<path d="M207.3 285.579C207.351 285.576 207.401 285.564 207.447 285.543C207.494 285.522 207.535 285.494 207.569 285.458C207.603 285.423 207.629 285.381 207.646 285.337C207.662 285.292 207.669 285.245 207.666 285.197L203.164 218.841C203.161 218.793 203.148 218.747 203.125 218.705C203.103 218.662 203.072 218.624 203.033 218.593C202.995 218.561 202.95 218.537 202.902 218.522C202.854 218.506 202.802 218.5 202.751 218.503C202.7 218.505 202.65 218.518 202.604 218.538C202.558 218.559 202.517 218.588 202.483 218.623C202.449 218.659 202.423 218.7 202.406 218.745C202.389 218.789 202.382 218.837 202.385 218.884L206.911 285.212C206.91 285.26 206.919 285.307 206.938 285.352C206.957 285.396 206.986 285.437 207.022 285.471C207.058 285.505 207.101 285.532 207.149 285.551C207.197 285.569 207.248 285.579 207.3 285.579Z" fill="white"/>
<path d="M208.571 289.529C208.571 289.529 200.003 252.656 230.381 228.374C230.381 228.374 238.17 263.268 208.571 289.529Z" fill="white"/>
<path d="M210.323 285.572C210.406 285.573 210.487 285.548 210.555 285.503C210.622 285.458 210.672 285.394 210.697 285.32L228.612 233.698C228.627 233.651 228.632 233.602 228.627 233.553C228.622 233.503 228.606 233.456 228.58 233.412C228.555 233.369 228.521 233.331 228.479 233.299C228.438 233.268 228.39 233.245 228.339 233.231C228.288 233.217 228.234 233.212 228.181 233.217C228.128 233.222 228.077 233.236 228.03 233.26C227.983 233.283 227.941 233.315 227.907 233.353C227.874 233.391 227.848 233.435 227.833 233.483L209.918 285.104C209.886 285.195 209.894 285.294 209.941 285.379C209.988 285.464 210.069 285.528 210.167 285.558L210.323 285.572Z" fill="#2A27B0"/>
<path d="M180.756 286.952L185.624 324.962H228.854L233.722 286.952C216.218 283.931 198.26 283.931 180.756 286.952Z" fill="#FFDC68"/>
<path d="M193.863 305.299C201.715 306.076 203.405 307.22 205.352 315.25C206.349 319.351 210.314 322.682 213.983 324.963H205.5C202.326 322.412 200.285 318.869 199.768 315.012C198.661 307.58 193.014 308.177 186.915 308.839C185.805 308.967 184.683 308.998 183.566 308.933L182.701 302.184C184.914 304.112 188.598 304.774 193.863 305.299Z" fill="#FCD03E"/>
<path d="M211.85 306.379C212.107 298.285 211.266 295.047 199.644 294.809C192.112 294.651 189.035 289.514 187.789 285.917C189.975 285.643 192.162 285.404 194.348 285.197C195.204 288.118 198.048 291.831 207.036 291.536C221.703 291.054 212.94 303.587 220.216 307.602C224.531 309.983 228.62 308.206 231.222 306.371L230.443 312.602C222.685 317.372 211.609 313.811 211.85 306.379Z" fill="#FCD03E"/>
<path d="M223.924 296.781C226.946 297.5 228.535 303.313 223.791 303.313C219.048 303.313 218.861 295.586 223.924 296.781Z" fill="#FCD03E"/>
<path d="M44.7936 87.387L49.0543 96.294H56.7734L60.4655 88.5597L52.9099 87.7467L44.7936 87.387Z" fill="#2A27B0"/>
<path d="M32.9244 48.5067C32.8611 51.0057 33.3491 53.4905 34.3588 55.8097C35.3685 58.1289 36.8787 60.234 38.7975 61.9968C40.939 64.0208 42.2901 66.6458 42.6375 69.4577L44.1408 80.4799H61.7366L63.2399 69.4505C63.6047 66.6077 64.9735 63.9552 67.1345 61.9032C69.4423 59.7593 71.1457 57.1254 72.0956 54.2322C73.0454 51.339 73.2127 48.2748 72.5829 45.308C71.953 42.3412 70.5452 39.5624 68.4826 37.2148C66.4201 34.8673 63.7659 33.0227 60.7524 31.8426C57.7389 30.6626 54.4581 30.183 51.1974 30.446C47.9367 30.709 44.7956 31.7065 42.0491 33.3512C39.3027 34.9958 37.0348 37.2374 35.444 39.8796C33.8532 42.5218 32.988 45.484 32.9244 48.5067Z" fill="#FFDC68"/>
<path d="M52.9354 61.169C53.4514 61.169 53.9559 61.0277 54.3851 60.7628C54.8142 60.498 55.1486 60.1216 55.3461 59.6812C55.5436 59.2408 55.5953 58.7562 55.4946 58.2886C55.3939 57.8211 55.1454 57.3916 54.7805 57.0545C54.4155 56.7175 53.9506 56.4879 53.4444 56.3949C52.9383 56.3019 52.4136 56.3496 51.9368 56.5321C51.46 56.7145 51.0525 57.0234 50.7657 57.4198C50.479 57.8161 50.326 58.2821 50.326 58.7588C50.326 59.0753 50.3935 59.3888 50.5246 59.6812C50.6557 59.9736 50.8479 60.2393 51.0902 60.4631C51.3325 60.6869 51.6202 60.8644 51.9368 60.9856C52.2534 61.1067 52.5927 61.169 52.9354 61.169ZM52.9354 56.9745C53.319 56.9745 53.6939 57.0796 54.0129 57.2765C54.3318 57.4733 54.5804 57.7531 54.7272 58.0804C54.874 58.4078 54.9124 58.768 54.8376 59.1155C54.7628 59.463 54.578 59.7822 54.3068 60.0328C54.0356 60.2833 53.69 60.4539 53.3137 60.5231C52.9375 60.5922 52.5475 60.5567 52.1931 60.4211C51.8387 60.2855 51.5358 60.0559 51.3227 59.7613C51.1096 59.4667 50.9959 59.1203 50.9959 58.766C50.9938 58.5295 51.0425 58.295 51.139 58.076C51.2355 57.857 51.3781 57.6578 51.5584 57.4899C51.7387 57.3221 51.9532 57.1888 52.1895 57.0979C52.4259 57.007 52.6793 56.9601 52.9354 56.9602V56.9745Z" fill="white" fill-opacity="0.25"/>
<path d="M52.9341 80.1347C53.0229 80.1347 53.1082 80.1021 53.171 80.044C53.2338 79.986 53.269 79.9073 53.269 79.8253V60.8601C53.269 60.778 53.2338 60.6994 53.171 60.6413C53.1082 60.5833 53.0229 60.5507 52.9341 60.5507C52.8453 60.5507 52.7601 60.5833 52.6973 60.6413C52.6345 60.6994 52.5992 60.778 52.5992 60.8601V79.8325C52.6012 79.9133 52.6374 79.9901 52.7 80.0466C52.7626 80.1031 52.8466 80.1347 52.9341 80.1347Z" fill="white" fill-opacity="0.25"/>
<path d="M52.9341 55.2342C53.0229 55.2342 53.1082 55.2016 53.171 55.1435C53.2338 55.0855 53.269 55.0068 53.269 54.9248V51.8023C53.269 51.7202 53.2338 51.6416 53.171 51.5835C53.1082 51.5255 53.0229 51.4929 52.9341 51.4929C52.8453 51.4929 52.7601 51.5255 52.6973 51.5835C52.6345 51.6416 52.5992 51.7202 52.5992 51.8023V54.9176C52.5981 54.9588 52.606 54.9998 52.6224 55.0382C52.6388 55.0766 52.6633 55.1115 52.6945 55.141C52.7257 55.1705 52.763 55.1939 52.8041 55.2099C52.8453 55.2259 52.8895 55.2342 52.9341 55.2342Z" fill="white" fill-opacity="0.25"/>
<path d="M49.999 56.3562C50.0644 56.355 50.1279 56.3363 50.1819 56.3022C50.2358 56.2682 50.2778 56.2203 50.3026 56.1644C50.3275 56.1086 50.3341 56.0473 50.3217 55.988C50.3092 55.9288 50.2783 55.8742 50.2327 55.8309L47.8492 53.6294C47.818 53.6006 47.781 53.5777 47.7402 53.5621C47.6995 53.5465 47.6558 53.5385 47.6117 53.5385C47.5675 53.5385 47.5238 53.5465 47.4831 53.5621C47.4423 53.5777 47.4053 53.6006 47.3741 53.6294C47.3429 53.6582 47.3181 53.6924 47.3013 53.7301C47.2844 53.7677 47.2757 53.8081 47.2757 53.8488C47.2757 53.8896 47.2844 53.9299 47.3013 53.9676C47.3181 54.0052 47.3429 54.0394 47.3741 54.0683L49.7653 56.241C49.7938 56.2739 49.8292 56.301 49.8693 56.3208C49.9095 56.3406 49.9537 56.3527 49.999 56.3562Z" fill="white" fill-opacity="0.25"/>
<path d="M45.403 59.0685H48.7757C48.8646 59.0685 48.9497 59.0359 49.0126 58.9779C49.0754 58.9199 49.1107 58.8412 49.1107 58.7592C49.1107 58.6771 49.0754 58.5984 49.0126 58.5404C48.9497 58.4824 48.8646 58.4498 48.7757 58.4498H45.403C45.3142 58.4498 45.229 58.4824 45.1662 58.5404C45.1034 58.5984 45.0681 58.6771 45.0681 58.7592C45.0681 58.8412 45.1034 58.9199 45.1662 58.9779C45.229 59.0359 45.3142 59.0685 45.403 59.0685Z" fill="white" fill-opacity="0.25"/>
<path d="M47.6076 63.982C47.6958 63.9805 47.7798 63.9469 47.8413 63.8885L50.2248 61.6869C50.2878 61.6287 50.3232 61.5498 50.3232 61.4675C50.3232 61.3852 50.2878 61.3062 50.2248 61.248C50.1618 61.1898 50.0763 61.1571 49.9872 61.1571C49.8981 61.1571 49.8126 61.1898 49.7496 61.248L47.3662 63.4496C47.3174 63.4929 47.2839 63.5488 47.2702 63.6099C47.2564 63.6711 47.2631 63.7347 47.2892 63.7923C47.3153 63.8499 47.3597 63.8989 47.4166 63.9327C47.4734 63.9666 47.54 63.9838 47.6076 63.982Z" fill="white" fill-opacity="0.25"/>
<path d="M58.2629 63.9827C58.3282 63.9816 58.3918 63.9628 58.4457 63.9288C58.4997 63.8947 58.5416 63.8468 58.5665 63.791C58.5913 63.7352 58.5979 63.6739 58.5855 63.6146C58.5731 63.5553 58.5422 63.5007 58.4966 63.4575L56.1131 61.2559C56.0819 61.2271 56.0448 61.2043 56.0041 61.1887C55.9633 61.1731 55.9196 61.165 55.8755 61.165C55.8314 61.165 55.7877 61.1731 55.747 61.1887C55.7062 61.2043 55.6691 61.2271 55.6379 61.2559C55.6067 61.2848 55.582 61.319 55.5651 61.3566C55.5482 61.3943 55.5395 61.4346 55.5395 61.4754C55.5395 61.5161 55.5482 61.5565 55.5651 61.5941C55.582 61.6318 55.6067 61.666 55.6379 61.6948L58.0214 63.8964C58.0535 63.9249 58.0913 63.9472 58.1328 63.962C58.1742 63.9768 58.2185 63.9838 58.2629 63.9827Z" fill="white" fill-opacity="0.25"/>
<path d="M57.0859 59.0685H60.4586C60.5474 59.0685 60.6326 59.0359 60.6954 58.9779C60.7582 58.9199 60.7935 58.8412 60.7935 58.7592C60.7935 58.6771 60.7582 58.5984 60.6954 58.5404C60.6326 58.4824 60.5474 58.4498 60.4586 58.4498H57.0859C56.9971 58.4498 56.9118 58.4824 56.849 58.5404C56.7862 58.5984 56.7509 58.6771 56.7509 58.7592C56.7509 58.8412 56.7862 58.9199 56.849 58.9779C56.9118 59.0359 56.9971 59.0685 57.0859 59.0685Z" fill="white" fill-opacity="0.25"/>
<path d="M55.87 56.3559C55.9582 56.3544 56.0421 56.3208 56.1037 56.2624L58.4949 54.0824C58.5261 54.0536 58.5509 54.0194 58.5678 53.9817C58.5847 53.9441 58.5933 53.9037 58.5933 53.863C58.5933 53.8222 58.5847 53.7819 58.5678 53.7442C58.5509 53.7066 58.5261 53.6724 58.4949 53.6435C58.4637 53.6147 58.4267 53.5919 58.3859 53.5763C58.3452 53.5607 58.3015 53.5526 58.2573 53.5526C58.2132 53.5526 58.1696 53.5607 58.1288 53.5763C58.088 53.5919 58.051 53.6147 58.0198 53.6435L55.6363 55.8451C55.5955 55.8888 55.5688 55.9421 55.5591 55.9991C55.5494 56.0561 55.5572 56.1144 55.5815 56.1675C55.6058 56.2206 55.6456 56.2664 55.6966 56.2997C55.7476 56.333 55.8077 56.3525 55.87 56.3559Z" fill="white" fill-opacity="0.25"/>
<path d="M43.1502 84.559C43.3948 84.7924 43.7095 84.9528 44.0537 85.0194C43.6777 85.0344 43.3227 85.1839 43.0639 85.4364C42.8051 85.6888 42.6629 86.0244 42.6673 86.3721C42.6724 86.7687 42.8393 87.1489 43.1346 87.4369C43.4365 87.7277 43.8446 87.9046 44.2796 87.9333L61.5093 89.0629C61.713 89.082 61.9188 89.0614 62.1134 89.0025C62.308 88.9436 62.487 88.8477 62.6389 88.7209C62.7909 88.5941 62.9123 88.4393 62.9955 88.2664C63.0786 88.0936 63.1216 87.9066 63.1217 87.7175C63.1192 87.319 62.9488 86.937 62.6465 86.6526C62.4017 86.4142 62.0837 86.251 61.7352 86.185C62.1106 86.1683 62.4644 86.0182 62.7228 85.7661C62.9812 85.5141 63.1241 85.1795 63.1217 84.8324C63.1139 84.466 62.9692 84.1134 62.7123 83.8341C62.4554 83.5549 62.102 83.3662 61.7118 83.2999C62.0913 83.2887 62.4511 83.141 62.7144 82.8883C62.9778 82.6357 63.1239 82.298 63.1217 81.9473C63.118 81.5512 62.9476 81.1719 62.6465 80.8897C62.3505 80.5944 61.9439 80.4143 61.5093 80.3861L44.2952 79.2637C44.0908 79.2445 43.8844 79.2653 43.6893 79.3246C43.4941 79.3839 43.3147 79.4805 43.1627 79.6081C43.0106 79.7357 42.8893 79.8913 42.8066 80.065C42.724 80.2387 42.6818 80.4266 42.6828 80.6163C42.686 81.0112 42.8533 81.3898 43.1502 81.6739C43.391 81.9133 43.707 82.0769 44.0537 82.1416C43.6736 82.151 43.3127 82.2981 43.0489 82.5512C42.7851 82.8042 42.6397 83.1429 42.6439 83.4942C42.6555 83.8966 42.8372 84.2788 43.1502 84.559Z" fill="white"/>
<path d="M61.1057 83.58C61.2089 83.58 61.308 83.5421 61.381 83.4747C61.4541 83.4072 61.4951 83.3157 61.4951 83.2203C61.4951 83.1249 61.4541 83.0334 61.381 82.9659C61.308 82.8985 61.2089 82.8606 61.1057 82.8606L44.834 81.7813C44.7311 81.7753 44.6297 81.8065 44.5512 81.8682C44.4728 81.93 44.4233 82.0175 44.4134 82.1123C44.4092 82.1596 44.4151 82.2072 44.4308 82.2523C44.4465 82.2975 44.4718 82.3393 44.5051 82.3754C44.5384 82.4115 44.5791 82.4412 44.6248 82.4627C44.6706 82.4842 44.7205 82.4972 44.7717 82.5008L61.0745 83.58H61.1057Z" fill="#2A27B0"/>
<path d="M61.1057 86.4586C61.2089 86.4586 61.308 86.4207 61.381 86.3532C61.4541 86.2858 61.4951 86.1943 61.4951 86.0989C61.4951 86.0035 61.4541 85.912 61.381 85.8445C61.308 85.777 61.2089 85.7391 61.1057 85.7391L45.0366 84.6312C44.9333 84.6245 44.8313 84.656 44.7532 84.7187C44.675 84.7815 44.6271 84.8703 44.6198 84.9657C44.6126 85.0611 44.6467 85.1553 44.7146 85.2275C44.7826 85.2996 44.8787 85.344 44.982 85.3506L61.0745 86.4586H61.1057Z" fill="#2A27B0"/>
<path d="M39.2558 43.4006C37.8347 42.1286 38.5417 39.3255 40.8349 37.1398C43.1281 34.954 46.139 34.2133 47.5601 35.4853C48.9812 36.7573 48.2742 39.5603 45.981 41.7461C43.6878 43.9319 40.6768 44.6726 39.2558 43.4006Z" fill="#FCD03E"/>
<path d="M50.0285 0L51.485 24.8289H54.4138L55.8704 0H50.0285Z" fill="#FCD03E"/>
<path d="M88.3126 12.425L70.3429 30.9297L72.4071 32.8435L92.4409 16.2454L88.3126 12.425Z" fill="#FCD03E"/>
<path d="M105.871 46.2185L78.9979 47.5639V50.2691L105.871 51.6145V46.2185Z" fill="#FCD03E"/>
<path d="M92.4261 81.5802L72.3845 64.9749L70.3204 66.8887L88.29 85.3934L92.4261 81.5802Z" fill="#FCD03E"/>
<path d="M17.5549 85.3722L35.5323 66.8674L33.4604 64.9536L13.4266 81.559L17.5549 85.3722Z" fill="#FCD03E"/>
<path d="M-6.67274e-05 51.5862L26.8726 50.2408V47.5356L-6.67274e-05 46.1902V51.5862Z" fill="#FCD03E"/>
<path d="M13.4443 16.2241L33.4859 32.8222L35.55 30.9084L17.5804 12.4037L13.4443 16.2241Z" fill="#FCD03E"/>
<path d="M90.2677 280.175L90.5559 287.118L90.9532 296.723H97.9634L98.6801 289.737L99.716 279.635L90.2677 280.175Z" fill="#ECBDBB"/>
<path d="M90.2677 280.175L90.5559 287.118L98.6801 289.737L99.716 279.635L90.2677 280.175Z" fill="#2A27B0"/>
<path d="M104.033 323.286L69.6591 323.38C69.6591 323.38 68.2259 310.76 79.4267 309.141C79.7638 309.091 80.095 309.012 80.4159 308.904C86.4759 306.839 89.2956 294.392 89.2956 294.392C89.2956 294.392 96.5006 292.774 100.785 295.025C100.785 295.025 103.69 308.048 104.157 319.214C104.227 320.703 104.079 321.898 104.033 323.286Z" fill="#2825A6"/>
<path d="M84.6764 311.609C84.7253 311.618 84.7755 311.618 84.8244 311.609C87.0059 310.6 88.85 309.063 90.16 307.162C93.2757 302.975 95.3865 295.234 95.4722 294.932C95.497 294.836 95.4797 294.735 95.4242 294.652C95.3687 294.568 95.2795 294.508 95.1762 294.485C95.0729 294.463 94.964 294.478 94.8735 294.53C94.7829 294.581 94.7181 294.663 94.6933 294.759C94.6933 294.838 92.5357 302.673 89.4901 306.781C88.2664 308.538 86.5667 309.969 84.5596 310.932C84.4861 310.967 84.4263 311.022 84.3889 311.09C84.3514 311.158 84.3382 311.235 84.3512 311.31C84.3642 311.385 84.4027 311.455 84.4611 311.508C84.5196 311.562 84.5949 311.597 84.6764 311.609Z" fill="white"/>
<path d="M104.382 323.61H69.4321C69.4321 323.61 68.069 310.574 79.2698 308.955C79.6069 308.904 79.9381 308.825 80.2591 308.717C83.515 309.818 87.8224 312.545 89.4269 319.265H104.351C104.413 320.761 104.429 322.222 104.382 323.61Z" fill="white"/>
<path d="M98.4242 312.019C97.1207 312.019 96.0641 310.125 96.0641 307.788C96.0641 305.452 97.1207 303.558 98.4242 303.558C99.7276 303.558 100.784 305.452 100.784 307.788C100.784 310.125 99.7276 312.019 98.4242 312.019Z" fill="white"/>
<path d="M101.439 277.24C101.439 277.24 110.521 214.286 113.379 197.494C113.379 197.494 117.274 144.735 102.475 143.771C87.6752 142.807 81.7009 157.923 80.6649 168.233C79.629 178.543 86.1174 264.16 88.976 277.592L101.439 277.24Z" fill="#FFDC68"/>
<path d="M82.5093 166.989C82.5605 167 82.6139 167 82.6651 166.989C88.7718 164.111 90.3686 156.657 90.4543 156.341C90.461 156.265 90.437 156.189 90.387 156.128C90.3369 156.067 90.2643 156.026 90.1831 156.012C90.1019 155.997 90.0179 156.011 89.9471 156.051C89.8764 156.09 89.824 156.153 89.8 156.226C89.8 156.297 88.1954 163.665 82.3769 166.442C82.3265 166.478 82.2883 166.526 82.2667 166.582C82.2451 166.637 82.241 166.697 82.2549 166.754C82.2688 166.812 82.3001 166.864 82.3452 166.906C82.3902 166.947 82.4471 166.976 82.5093 166.989Z" fill="#ECBDBB"/>
<path d="M85.1949 224.41C85.1823 219.244 88.1153 215.051 91.746 215.043C95.3768 215.035 98.3304 219.217 98.3431 224.382C98.3557 229.548 95.4227 233.742 91.792 233.749C88.1612 233.757 85.2076 229.575 85.1949 224.41Z" fill="#FCD03E"/>
<path d="M97.8003 276.708C97.8839 276.709 97.9647 276.68 98.0267 276.628C98.0887 276.576 98.1274 276.505 98.1352 276.428C101.407 239.627 107.809 188.278 107.872 187.76C107.882 187.718 107.882 187.675 107.873 187.632C107.863 187.59 107.844 187.55 107.817 187.515C107.79 187.48 107.755 187.45 107.715 187.428C107.675 187.406 107.63 187.392 107.584 187.387C107.537 187.382 107.49 187.386 107.445 187.399C107.401 187.412 107.359 187.433 107.324 187.461C107.289 187.49 107.261 187.524 107.241 187.564C107.221 187.603 107.21 187.645 107.21 187.688C107.147 188.199 100.745 239.562 97.4731 276.37C97.4666 276.451 97.4948 276.531 97.5517 276.593C97.6085 276.655 97.6894 276.694 97.7769 276.701L97.8003 276.708Z" fill="#ECBDBB"/>
<path d="M105.332 276.52C105.332 276.52 93.9049 273.16 85.2122 276.88L86.513 286.355L104.685 286.478L105.332 276.52Z" fill="#FCD03E"/>
<path d="M106.852 178.946C106.931 178.948 107.008 178.924 107.07 178.879C107.132 178.834 107.174 178.77 107.19 178.699C107.206 178.627 107.194 178.553 107.156 178.489C107.119 178.425 107.058 178.375 106.984 178.349C104.57 177.421 101.875 176.133 101.727 175.665C101.516 174.989 101.041 162.974 100.769 155.059C100.77 155.018 100.762 154.977 100.745 154.939C100.728 154.901 100.702 154.867 100.67 154.838C100.638 154.81 100.599 154.788 100.557 154.774C100.515 154.76 100.47 154.754 100.426 154.757C100.382 154.758 100.338 154.767 100.298 154.784C100.258 154.8 100.222 154.824 100.191 154.853C100.161 154.882 100.137 154.917 100.121 154.955C100.105 154.993 100.098 155.033 100.099 155.074C100.169 157.103 100.792 174.924 101.088 175.838C101.384 176.751 105.489 178.435 106.735 178.91C106.771 178.929 106.811 178.941 106.852 178.946Z" fill="#ECBDBB"/>
<path d="M129.931 153.822C129.931 153.822 133.825 157.693 133.919 158.499C134.012 159.304 151.055 254.821 153.392 281.197H141.965C141.965 281.197 105.878 186.227 105.099 182.148C104.32 178.068 103.541 154.326 103.798 147.613C104.055 140.9 122.336 141.8 129.931 153.822Z" fill="#FFDC68"/>
<path d="M105.068 182.457H105.13C105.173 182.45 105.215 182.435 105.252 182.413C105.29 182.391 105.322 182.363 105.347 182.329C105.373 182.296 105.39 182.258 105.4 182.218C105.409 182.179 105.41 182.137 105.402 182.097C104.81 179.011 104.18 163.873 104.071 153.649C104.074 153.608 104.068 153.566 104.052 153.527C104.037 153.488 104.012 153.453 103.98 153.423C103.948 153.394 103.91 153.371 103.868 153.357C103.826 153.343 103.78 153.337 103.736 153.34C103.648 153.342 103.565 153.375 103.504 153.433C103.443 153.491 103.408 153.569 103.408 153.649C103.502 162.815 104.109 178.831 104.748 182.198C104.761 182.269 104.799 182.333 104.858 182.38C104.916 182.427 104.99 182.455 105.068 182.457Z" fill="#ECBDBB"/>
<path d="M133.436 168.787C133.524 168.787 133.61 168.755 133.672 168.697C133.735 168.639 133.771 168.56 133.771 168.478C133.771 168.396 133.735 168.317 133.672 168.259C133.61 168.201 133.524 168.168 133.436 168.168C133.132 168.168 125.896 167.614 124.4 158.894C124.395 158.854 124.38 158.815 124.358 158.78C124.335 158.744 124.305 158.714 124.269 158.689C124.234 158.665 124.193 158.648 124.15 158.639C124.107 158.629 124.062 158.628 124.019 158.635C123.931 158.648 123.852 158.692 123.799 158.758C123.747 158.824 123.725 158.907 123.738 158.988C125.296 168.212 133.311 168.773 133.397 168.78L133.436 168.787Z" fill="#ECBDBB"/>
<path d="M142.198 274.909H142.307C142.391 274.883 142.46 274.827 142.499 274.755C142.538 274.682 142.545 274.598 142.518 274.521L109.998 186.026C109.987 185.985 109.966 185.946 109.937 185.912C109.909 185.878 109.873 185.85 109.832 185.83C109.791 185.81 109.747 185.798 109.7 185.794C109.654 185.791 109.608 185.796 109.564 185.81C109.52 185.824 109.48 185.846 109.446 185.875C109.412 185.904 109.385 185.94 109.366 185.979C109.348 186.018 109.338 186.06 109.338 186.103C109.339 186.146 109.348 186.188 109.367 186.227L141.887 274.722C141.913 274.778 141.957 274.826 142.012 274.859C142.067 274.892 142.132 274.91 142.198 274.909Z" fill="#ECBDBB"/>
<path d="M130.316 225.404C129.4 220.308 131.562 215.732 135.144 215.183C138.726 214.634 142.371 218.32 143.287 223.416C144.202 228.512 142.04 233.088 138.459 233.637C134.877 234.186 131.231 230.499 130.316 225.404Z" fill="#FCD03E"/>
<path d="M143.173 279.635L145.604 289.571L147.356 296.723H154.366L153.214 285.765L152.622 280.175L143.173 279.635Z" fill="#ECBDBB"/>
<path d="M152.621 280.175L143.173 279.635L145.603 289.571L153.213 285.765L152.621 280.175Z" fill="#2A27B0"/>
<path d="M141.371 323.164L175.402 323.344C175.402 323.344 177.163 310.933 165.954 309.314C165.571 309.237 165.196 309.131 164.832 308.997C158.772 306.933 156.023 294.385 156.023 294.385C156.023 294.385 148.818 292.766 144.534 295.018C144.534 295.018 141.691 307.969 141.223 319.164C141.161 320.66 141.325 321.775 141.371 323.164Z" fill="#2825A6"/>
<path d="M160.651 311.609C160.754 311.627 160.861 311.606 160.948 311.552C161.035 311.497 161.095 311.413 161.114 311.317C161.134 311.222 161.112 311.123 161.053 311.043C160.993 310.963 160.902 310.907 160.799 310.889C158.767 309.923 157.047 308.479 155.814 306.702C152.776 302.622 150.634 294.759 150.611 294.679C150.586 294.584 150.521 294.502 150.43 294.45C150.34 294.399 150.231 294.383 150.128 294.406C150.024 294.429 149.935 294.489 149.88 294.572C149.824 294.656 149.807 294.757 149.832 294.852C149.917 295.183 152.028 302.925 155.144 307.083C156.454 308.984 158.298 310.521 160.48 311.529C160.529 311.569 160.588 311.596 160.651 311.609Z" fill="white"/>
<path d="M140.936 323.61H175.886C175.886 323.61 177.249 310.574 166.049 308.955C165.711 308.904 165.38 308.825 165.059 308.717C161.803 309.818 157.496 312.545 155.891 319.265H140.967C140.905 320.761 140.89 322.222 140.936 323.61Z" fill="white"/>
<path d="M146.896 312.019C145.592 312.019 144.535 310.125 144.535 307.788C144.535 305.452 145.592 303.558 146.896 303.558C148.199 303.558 149.256 305.452 149.256 307.788C149.256 310.125 148.199 312.019 146.896 312.019Z" fill="white"/>
<path d="M156.477 275.556L157.778 285.874L140.509 286.953L137.783 277.362C137.783 277.362 147.52 273.398 156.477 275.556Z" fill="#FCD03E"/>
<path d="M83.1961 92.1282C83.1961 92.1282 67.0959 109.77 60.2492 128.519C59.6628 130.131 59.7574 131.889 60.514 133.44C62.8508 138.196 67.2127 148.096 69.8611 149.535C72.5094 150.973 82.7132 147.973 82.5185 143.656C82.3238 139.34 78.8965 128.728 78.8965 128.728C78.8965 128.728 88.0488 119.015 94.8643 110.201C101.68 101.388 94.2957 84.8399 83.1961 92.1282Z" fill="white"/>
<path d="M67.0324 129.626C67.1003 129.628 67.1674 129.613 67.2271 129.583C73.4974 126.317 77.6724 128.936 77.7192 128.964C77.7609 128.994 77.8088 129.016 77.86 129.028C77.9112 129.041 77.9645 129.043 78.0167 129.036C78.069 129.028 78.119 129.011 78.1639 128.985C78.2087 128.96 78.2474 128.926 78.2776 128.885C78.3077 128.845 78.3287 128.8 78.3393 128.752C78.3499 128.704 78.3499 128.655 78.3391 128.607C78.3284 128.559 78.3073 128.514 78.2771 128.474C78.2468 128.434 78.2081 128.4 78.1632 128.374C77.9762 128.252 73.5364 125.497 66.8455 128.957C66.7729 128.997 66.7162 129.057 66.684 129.129C66.6517 129.201 66.6457 129.281 66.6668 129.357C66.6879 129.432 66.7349 129.499 66.8009 129.548C66.8668 129.597 66.9481 129.624 67.0324 129.626Z" fill="#2A27B0"/>
<path d="M81.4895 143.836L83.3199 148.692C82.6275 150.428 81.2307 151.848 79.4254 152.649C77.6559 153.506 75.6373 153.821 73.6614 153.549L70.1406 147.793C70.1406 147.793 74.0274 141.44 81.4895 143.836Z" fill="#2A27B0"/>
<path d="M75.3276 152.347C77.3527 156.024 82.3378 163.801 83.8957 165.888C85.867 164.487 87.4325 162.658 88.4523 160.564C85.804 156.096 82.517 148.98 82.517 148.98C77.2125 147.671 75.3276 152.347 75.3276 152.347Z" fill="#ECBDBB"/>
<path d="M110.068 81.3362L117.125 81.1491L115.723 67.9828L115.669 67.436L110.17 68.1987L110.131 72.8249L110.068 81.3362Z" fill="#ECBDBB"/>
<path d="M110.131 72.7886C113.698 71.7741 115.147 69.6517 115.724 67.9466L115.669 67.3998L110.17 68.1624L110.131 72.7886Z" fill="#2A27B0"/>
<path d="M132.073 146.088C131.777 146.088 131.972 154.901 131.684 154.901C131.395 154.901 125.156 157.153 118.535 156.88C111.915 156.607 91.2733 156.074 85.6262 152.477L85.3302 143.484C100.137 148.002 115.716 148.549 132.073 146.088Z" fill="#2A27B0"/>
<path d="M108.527 147.534C108.527 147.534 108.332 156.448 108.34 156.808C108.348 157.168 96.9832 156.492 96.5393 156.326C96.0953 156.161 96.3757 146.793 96.3757 146.793C96.3757 146.793 100.722 147.297 108.527 147.534Z" fill="#FCD03E"/>
<path d="M126.13 146.354C126.13 146.354 126.278 156.7 126.13 156.923C125.982 157.146 123.302 157.377 123.302 157.377C123.302 157.377 123.349 146.448 123.497 146.405C123.645 146.362 125.888 146.038 126.13 146.354Z" fill="#FCD03E"/>
<path d="M118.145 146.851C118.145 146.851 118.293 157.197 118.145 157.42C117.997 157.643 115.512 157.42 115.512 157.42C115.512 157.42 115.364 146.944 115.512 146.901C115.66 146.858 117.903 146.534 118.145 146.851Z" fill="#FCD03E"/>
<path d="M89.1153 144.188C89.1153 144.188 89.0062 154.513 89.1153 154.757C89.2243 155.002 91.1015 155.074 91.1015 155.074C91.1015 155.074 91.2105 144.613 91.1015 144.548C90.9924 144.483 89.3022 143.908 89.1153 144.188Z" fill="#FCD03E"/>
<path d="M122.773 76.5665C119.52 75.34 116.004 74.824 112.499 75.0586C108.995 75.2932 105.596 76.2721 102.568 77.9191L103.152 83.7684L121.504 84.8907L122.773 76.5665Z" fill="#2A27B0"/>
<path d="M82.2209 142.577L85.0406 144.462C85.0406 144.462 104.615 150.851 132.165 147.433L138.108 142.397C138.009 136.891 138.297 131.385 138.973 125.914C139.269 123.551 139.762 121.213 140.445 118.921C140.445 118.87 140.445 118.813 140.5 118.748C141.543 115.316 142.057 110.021 142.369 104.848C142.587 100.711 142.642 96.6602 142.642 93.7032C142.642 90.9476 142.587 89.1561 142.587 89.1561C142.291 89.1561 127.203 81.3355 113.082 81.1484C98.9598 80.9614 83.1945 92.1275 83.1945 92.1275C83.1945 92.1275 79.6894 120.273 82.2209 142.577Z" fill="white"/>
<path d="M81.3025 124.317C81.4058 124.317 81.5048 124.279 81.5779 124.212C81.6509 124.144 81.6919 124.053 81.6919 123.957C81.6919 110.92 82.8447 98.8837 83.3355 94.3223C83.3408 94.275 83.336 94.2272 83.3213 94.1817C83.3065 94.1361 83.2821 94.0937 83.2495 94.0569C83.217 94.0201 83.1768 93.9897 83.1314 93.9673C83.086 93.9449 83.0362 93.9311 82.985 93.9266C82.882 93.9185 82.7796 93.9478 82.6996 94.0082C82.6196 94.0687 82.5683 94.1555 82.5565 94.2504C82.0658 98.8262 80.9208 110.884 80.9052 123.957C80.9052 124.053 80.9463 124.144 81.0193 124.212C81.0923 124.279 81.1914 124.317 81.2947 124.317H81.3025Z" fill="#2A27B0"/>
<path d="M135.125 107.201C135.522 112.381 136.519 121.101 138.973 125.907C139.269 123.544 139.762 121.207 140.445 118.914C140.445 118.863 140.445 118.806 140.5 118.741C141.543 115.309 142.057 110.014 142.369 104.841C142.587 100.704 142.642 96.6533 142.642 93.6963C140.742 95.0279 139.09 96.6366 137.75 98.4591C135.811 101.007 134.884 104.095 135.125 107.201Z" fill="#2A27B0"/>
<path d="M99.5527 145.994C99.6039 145.992 99.6541 145.981 99.7006 145.961C99.7471 145.942 99.7889 145.914 99.8236 145.879C99.8584 145.844 99.8853 145.803 99.903 145.759C99.9207 145.715 99.9287 145.667 99.9266 145.62C98.1974 110.676 111.828 83.1991 111.961 82.9257C111.982 82.8827 111.994 82.8362 111.997 82.7889C111.999 82.7416 111.99 82.6944 111.973 82.6499C111.955 82.6055 111.928 82.5647 111.893 82.5299C111.858 82.4952 111.817 82.4671 111.77 82.4472C111.724 82.4274 111.673 82.4162 111.622 82.4143C111.571 82.4124 111.52 82.4199 111.472 82.4363C111.423 82.4526 111.379 82.4776 111.342 82.5097C111.304 82.5418 111.274 82.5805 111.252 82.6235C111.112 82.8969 97.4029 110.539 99.1399 145.656C99.1429 145.703 99.1559 145.75 99.1783 145.792C99.2007 145.835 99.2319 145.873 99.2703 145.904C99.3087 145.936 99.3533 145.96 99.4018 145.975C99.4503 145.991 99.5016 145.997 99.5527 145.994Z" fill="#2A27B0"/>
<path d="M96.631 145.995C96.6822 145.993 96.7324 145.982 96.7789 145.962C96.8254 145.942 96.8672 145.914 96.9019 145.879C96.9367 145.845 96.9636 145.804 96.9813 145.759C96.999 145.715 97.007 145.668 97.0049 145.621C95.2757 110.69 108.619 83.5521 108.751 83.2859C108.772 83.2429 108.785 83.1964 108.787 83.1491C108.789 83.1018 108.781 83.0546 108.763 83.0101C108.745 82.9657 108.718 82.9249 108.683 82.8901C108.649 82.8554 108.607 82.8273 108.56 82.8074C108.514 82.7876 108.463 82.7764 108.412 82.7745C108.361 82.7726 108.31 82.7801 108.262 82.7965C108.214 82.8128 108.169 82.8378 108.132 82.8699C108.094 82.902 108.064 82.9407 108.042 82.9837C107.91 83.2571 94.489 110.539 96.226 145.657C96.232 145.751 96.2779 145.839 96.3536 145.902C96.4294 145.965 96.529 145.999 96.631 145.995Z" fill="#2A27B0"/>
<path d="M132.072 141.555C132.123 141.554 132.173 141.544 132.22 141.525C132.267 141.506 132.309 141.479 132.345 141.445C132.38 141.411 132.408 141.371 132.427 141.327C132.445 141.283 132.454 141.236 132.453 141.188C132.259 133.159 135.405 114.338 135.436 114.151C135.452 114.055 135.426 113.958 135.364 113.881C135.302 113.803 135.209 113.751 135.105 113.737C135.002 113.723 134.897 113.747 134.813 113.804C134.729 113.862 134.673 113.947 134.658 114.043C134.658 114.23 131.472 133.116 131.667 141.203C131.668 141.251 131.679 141.298 131.7 141.342C131.721 141.385 131.751 141.425 131.789 141.458C131.827 141.491 131.871 141.516 131.92 141.533C131.968 141.55 132.02 141.557 132.072 141.555Z" fill="#2A27B0"/>
<path d="M142.589 89.1563L164.983 110.114L174.135 135.382C174.135 135.382 156.118 133.137 139.372 116.59C136.354 112.15 134.798 106.996 134.893 101.754C134.887 99.219 135.593 96.7257 136.942 94.5177C138.291 92.3097 140.236 90.4625 142.589 89.1563Z" fill="white"/>
<path d="M139.377 116.949C139.449 116.949 139.519 116.931 139.581 116.897C139.642 116.863 139.692 116.814 139.725 116.755C139.758 116.696 139.773 116.63 139.768 116.564C139.763 116.498 139.738 116.434 139.697 116.38C136.739 111.996 135.209 106.919 135.288 101.754C135.288 99.6184 135.802 97.5099 136.794 95.5811C137.785 93.6523 139.229 91.9514 141.021 90.6019C141.089 90.5388 141.129 90.4546 141.134 90.3656C141.139 90.2766 141.107 90.1891 141.046 90.1202C140.985 90.0512 140.899 90.0056 140.803 89.9923C140.708 89.9789 140.61 89.9988 140.53 90.048C138.649 91.4644 137.133 93.2496 136.092 95.2742C135.05 97.2989 134.51 99.5122 134.509 101.754C134.438 107.07 136.025 112.292 139.081 116.798C139.115 116.842 139.159 116.878 139.21 116.905C139.262 116.931 139.319 116.946 139.377 116.949Z" fill="#2A27B0"/>
<path d="M169.46 89.5165C169.46 89.5165 174.329 93.6535 176.369 96.9846C178.41 100.316 182.11 121.087 181.043 126.576C179.976 132.066 174.134 135.383 174.134 135.383C174.134 135.383 163.229 131.605 161.282 122.346C159.334 113.086 158.649 101.841 158.945 99.143C159.241 96.445 161.476 92.4016 161.476 92.4016L169.46 89.5165Z" fill="white"/>
<path d="M168.13 132.505C168.21 132.504 168.289 132.481 168.354 132.438C168.419 132.394 168.469 132.333 168.495 132.263C168.522 132.193 168.524 132.117 168.502 132.046C168.48 131.974 168.434 131.911 168.371 131.864C164.687 129.173 162.436 125.957 161.665 122.31C160.69 117.456 160.004 112.556 159.608 107.633C159.605 107.585 159.592 107.538 159.569 107.496C159.546 107.453 159.514 107.415 159.475 107.384C159.435 107.353 159.39 107.33 159.34 107.316C159.291 107.301 159.239 107.297 159.188 107.302C159.137 107.305 159.087 107.318 159.041 107.34C158.995 107.361 158.954 107.391 158.921 107.427C158.888 107.463 158.863 107.505 158.847 107.55C158.831 107.595 158.825 107.643 158.829 107.69C159.226 112.635 159.916 117.556 160.894 122.432C161.672 126.252 164.009 129.627 167.904 132.418C167.967 132.469 168.046 132.499 168.13 132.505Z" fill="#2A27B0"/>
<path d="M168.744 85.6162L171.081 91.5518C169.728 92.7776 168.107 93.7218 166.327 94.3212C164.547 94.9206 162.649 95.1612 160.76 95.0269L158.555 89.1488C158.555 89.1488 161.539 84.0622 168.744 85.6162Z" fill="#2A27B0"/>
<path d="M153.641 72.9259L157.582 81.466L160.309 89.2003C165.325 89.4233 167.42 86.416 167.42 86.416L163.915 81.1494L164.009 72.6094C164.009 72.6094 162.061 67.6163 161.625 67.4796C160.329 67.3802 159.026 67.3802 157.73 67.4796L156.383 57.2055C156.364 57.0565 156.313 56.9124 156.233 56.7816C156.153 56.6509 156.046 56.536 155.918 56.4437C155.789 56.3514 155.643 56.2834 155.486 56.2438C155.329 56.2041 155.165 56.1936 155.004 56.2127C154.709 56.2456 154.437 56.3759 154.238 56.5795C154.039 56.7832 153.927 57.0464 153.922 57.3207L153.641 72.9259Z" fill="#ECBDBB"/>
<path d="M157.684 75.192C157.8 75.2006 157.918 75.2006 158.034 75.192C159.522 74.969 159.662 72.8034 159.678 72.5587C159.678 72.4633 159.637 72.3718 159.564 72.3044C159.491 72.2369 159.392 72.199 159.288 72.199C159.185 72.199 159.086 72.2369 159.013 72.3044C158.94 72.3718 158.899 72.4633 158.899 72.5587C158.899 73.0336 158.649 74.4006 157.91 74.5157C157.368 74.5336 156.835 74.3891 156.39 74.1037C155.945 73.8184 155.612 73.4076 155.44 72.9329C155.319 71.4014 155.461 69.8619 155.861 68.3714C155.993 68.0549 157.076 67.8462 157.777 67.8318C157.828 67.83 157.879 67.8188 157.925 67.799C157.971 67.7792 158.013 67.7511 158.048 67.7164C158.083 67.6816 158.11 67.6409 158.127 67.5965C158.145 67.5521 158.153 67.505 158.151 67.4577C158.138 67.3653 158.091 67.28 158.017 67.2169C157.943 67.1537 157.847 67.1167 157.746 67.1124C157.372 67.1124 155.487 67.2203 155.121 68.1196C154.674 69.7424 154.522 71.4223 154.669 73.0911C154.878 73.6845 155.279 74.2043 155.818 74.58C156.357 74.9558 157.009 75.1694 157.684 75.192Z" fill="#2A27B0"/>
<path d="M158.884 79.084H158.946C158.997 79.0762 159.045 79.0592 159.089 79.0339C159.132 79.0086 159.17 78.9757 159.2 78.9369C159.23 78.8981 159.251 78.8542 159.262 78.8078C159.273 78.7615 159.274 78.7135 159.265 78.6667C158.935 77.0748 159.045 75.4317 159.585 73.8895C159.623 73.8007 159.621 73.7016 159.581 73.6139C159.54 73.5262 159.463 73.4571 159.367 73.4218C159.271 73.3865 159.163 73.3879 159.068 73.4257C158.973 73.4635 158.899 73.5345 158.86 73.6233C158.263 75.2883 158.14 77.0672 158.502 78.789C158.518 78.8716 158.566 78.9463 158.635 79.0002C158.705 79.0541 158.793 79.0837 158.884 79.084Z" fill="#2A27B0"/>
<path d="M159.336 74.1191C159.829 74.1218 160.309 73.9724 160.699 73.6946C160.778 73.6326 160.826 73.5443 160.835 73.4492C160.843 73.3541 160.809 73.2599 160.742 73.1874C160.675 73.1149 160.579 73.07 160.477 73.0626C160.374 73.0551 160.272 73.0858 160.193 73.1478C160.039 73.2521 159.864 73.3268 159.678 73.3675C159.492 73.4083 159.299 73.4143 159.11 73.3852C159.007 73.3709 158.902 73.3951 158.818 73.4525C158.734 73.5098 158.678 73.5956 158.662 73.691C158.647 73.7864 158.673 73.8836 158.735 73.9612C158.797 74.0388 158.89 74.0904 158.994 74.1047C159.107 74.1173 159.222 74.1221 159.336 74.1191Z" fill="#2A27B0"/>
<path d="M157.131 73.2135C157.233 73.2135 157.331 73.1766 157.403 73.1107C157.476 73.0448 157.518 72.9551 157.52 72.861C157.478 72.1011 157.608 71.3414 157.902 70.6306C159.025 70.5954 160.149 70.6605 161.259 70.8249C161.31 70.831 161.362 70.8278 161.412 70.8154C161.462 70.803 161.508 70.7816 161.549 70.7526C161.632 70.6939 161.686 70.6073 161.699 70.5119C161.712 70.4165 161.684 70.3201 161.621 70.2438C161.557 70.1676 161.464 70.1178 161.36 70.1054C160.628 70.0191 158.198 69.7529 157.59 69.9687C156.983 70.1845 156.765 71.6595 156.741 72.8466C156.74 72.8938 156.749 72.9408 156.768 72.9848C156.787 73.0288 156.814 73.069 156.85 73.1031C156.885 73.1371 156.928 73.1644 156.974 73.1834C157.021 73.2023 157.072 73.2126 157.123 73.2135H157.131Z" fill="#2A27B0"/>
<path d="M156.024 71.5151C156.125 71.5152 156.222 71.4793 156.294 71.4149C156.367 71.3505 156.41 71.2627 156.414 71.1698C156.453 70.2848 156.702 69.1984 156.99 69.0617C158.068 68.8827 159.169 68.8584 160.254 68.9898C160.305 68.994 160.357 68.9889 160.406 68.9748C160.455 68.9606 160.5 68.9377 160.54 68.9073C160.619 68.8459 160.669 68.7578 160.678 68.6624C160.688 68.567 160.656 68.4721 160.589 68.3986C160.523 68.325 160.427 68.2789 160.324 68.2703C159.841 68.2343 157.372 68.0545 156.624 68.4214C155.876 68.7883 155.666 70.5798 155.643 71.1338C155.641 71.181 155.649 71.2282 155.666 71.2726C155.684 71.317 155.711 71.3577 155.746 71.3925C155.78 71.4272 155.822 71.4553 155.869 71.4751C155.915 71.4949 155.965 71.5061 156.017 71.5079L156.024 71.5151Z" fill="#2A27B0"/>
<path d="M156.85 72.6521C156.788 73.064 156.618 73.4555 156.354 73.7928C156.091 74.1301 155.743 74.4029 155.339 74.5875C156.736 75.515 157.735 76.8677 158.159 78.4079C158.938 81.0627 158.252 81.5591 158.252 81.5591L154.42 80.3432C154.015 80.2153 153.641 80.0129 153.323 79.7483C153.004 79.4837 152.747 79.1624 152.566 78.8036C151.546 76.7603 149.497 72.6305 149.388 72.0262C149.24 71.2204 150.315 70.7239 151.53 71.0837C152.745 71.4434 156.757 72.2492 156.85 72.6521Z" fill="#ECBDBB"/>
<path d="M154.084 75.0697C154.294 75.0822 154.505 75.0822 154.715 75.0697C155.375 75.0433 156.001 74.7892 156.468 74.3576C156.935 73.9261 157.21 73.3484 157.239 72.7386C157.252 72.6472 157.227 72.5545 157.169 72.4796C157.083 72.3717 156.53 71.8249 154.053 71.3716C153.95 71.3535 153.843 71.374 153.756 71.4287C153.669 71.4833 153.609 71.5676 153.59 71.663C153.57 71.7584 153.592 71.8571 153.651 71.9374C153.711 72.0177 153.802 72.073 153.905 72.0911C154.794 72.2045 155.653 72.4627 156.444 72.8537C156.404 73.2624 156.203 73.6431 155.878 73.9231C155.553 74.2032 155.128 74.3629 154.684 74.3718C153.854 74.4474 153.015 74.3616 152.223 74.12C152.125 74.0895 152.017 74.0962 151.925 74.1387C151.832 74.1812 151.761 74.256 151.728 74.3466C151.695 74.4373 151.702 74.5363 151.748 74.622C151.794 74.7077 151.875 74.773 151.973 74.8035C152.657 74.9953 153.37 75.0852 154.084 75.0697Z" fill="#2A27B0"/>
<path d="M120.91 63.133C120.91 63.133 117.342 67.5074 115.457 68.7665C113.572 70.0255 107.403 71.3493 105.588 70.2701C103.773 69.1909 104.872 56.0031 104.872 56.0031C104.872 56.0031 109.678 49.5854 116.75 52.4057C123.823 55.2261 120.91 63.133 120.91 63.133Z" fill="#ECBDBB"/>
<path d="M100.393 57.4419C107.279 59.1183 115.847 55.3986 115.847 55.3986C115.922 57.1081 116.318 58.7925 117.015 60.3773L115.621 63.2552L119.22 65.4712C119.22 65.4712 131.355 62.2983 131.425 60.8594C131.495 59.4205 129.089 49.463 127.85 49.0457C125.903 48.6784 123.93 48.438 121.946 48.3263C120.908 45.4678 119.577 42.707 117.973 40.0811C115.146 41.2467 116.517 44.8224 116.602 45.0455L106.998 34.9297C99.4039 36.1241 100.899 42.5993 100.899 42.5993C98.9174 41.1924 96.5182 40.3767 94.0216 40.261C91.1785 44.9663 93.5153 55.7584 100.393 57.4419Z" fill="#BB07BE"/>
<path d="M117.452 64.939C117.821 64.0399 118.497 63.2767 119.379 62.7651C120.26 62.2535 121.298 62.0215 122.335 62.1043C123.015 62.1656 123.661 62.4095 124.192 62.8059C124.724 63.2022 125.118 63.7337 125.327 64.3347C127.079 68.4141 118.838 70.3278 116.626 66.8528L117.452 64.939Z" fill="#ECBDBB"/>
<path d="M117.857 66.7167C117.919 66.717 117.981 66.7034 118.036 66.6771C118.092 66.6508 118.14 66.6126 118.176 66.5656C120.232 63.8532 123.543 65.1914 123.683 65.249C123.776 65.2814 123.878 65.2799 123.97 65.2448C124.061 65.2098 124.135 65.1438 124.176 65.0603C124.216 64.9768 124.221 64.8821 124.189 64.7955C124.157 64.7089 124.09 64.6369 124.002 64.5942C123.963 64.5942 119.952 62.9539 117.537 66.1555C117.498 66.2094 117.475 66.2721 117.471 66.3371C117.467 66.402 117.482 66.4668 117.515 66.5243C117.548 66.5819 117.597 66.6302 117.657 66.6641C117.717 66.6979 117.786 66.7161 117.857 66.7167Z" fill="#2A27B0"/>
<path d="M121.269 67.4576C121.362 67.4567 121.452 67.425 121.522 67.3683C121.592 67.3115 121.638 67.2334 121.651 67.1482C121.781 66.2462 121.702 65.3287 121.417 64.4574C121.377 64.3754 121.305 64.3102 121.216 64.2748C121.126 64.2394 121.025 64.2363 120.933 64.2661C120.841 64.2959 120.765 64.3565 120.719 64.4359C120.673 64.5152 120.661 64.6076 120.685 64.6948C120.928 65.4552 120.997 66.254 120.888 67.0403C120.88 67.0871 120.882 67.1348 120.894 67.1808C120.907 67.2267 120.929 67.27 120.959 67.3081C120.989 67.3461 121.028 67.3783 121.071 67.4028C121.115 67.4272 121.164 67.4434 121.215 67.4504H121.269V67.4576Z" fill="#2A27B0"/>
<path d="M114.539 60.3278C114.539 60.3278 114.127 58.1693 112.351 58.4643C112.351 58.4643 112.46 57.5002 112.062 57.3851C111.665 57.27 111.229 58.9464 111.229 58.9464C112.421 59.1977 113.547 59.6674 114.539 60.3278Z" fill="#2A27B0"/>
<path d="M105.94 58.6513C105.94 58.6513 106.532 56.7591 107.443 57.6152C107.443 57.6152 107.552 56.6655 107.786 56.6943C108.316 56.7663 107.965 58.4282 107.965 58.4282C107.283 58.276 106.564 58.3552 105.94 58.6513Z" fill="#2A27B0"/>
<path d="M106.788 66.4501C107.186 66.9494 107.652 67.3992 108.175 67.7883C109.039 68.407 110.122 68.7308 110.808 67.3782C111.055 66.8709 111.22 66.3327 111.298 65.7809C111.298 65.7809 109.951 66.6371 106.788 66.4501Z" fill="#2A27B0"/>
<path d="M108.167 67.7525C109.032 68.3712 110.115 68.695 110.8 67.3424C110.356 67.2221 109.889 67.1965 109.433 67.2675C108.977 67.3386 108.544 67.5044 108.167 67.7525Z" fill="white" fill-opacity="0.25"/>
<path d="M111.593 62.9494C111.105 62.8738 110.791 62.3615 110.892 61.805C110.993 61.2485 111.471 60.8587 111.959 60.9343C112.446 61.0098 112.76 61.5222 112.659 62.0787C112.558 62.6352 112.081 63.025 111.593 62.9494Z" fill="#2A27B0"/>
<path d="M111.604 61.7731C111.477 61.7534 111.391 61.6421 111.413 61.5245C111.434 61.407 111.554 61.3276 111.682 61.3474C111.809 61.3671 111.895 61.4784 111.874 61.5959C111.852 61.7135 111.732 61.7928 111.604 61.7731Z" fill="white" fill-opacity="0.25"/>
<path d="M106.41 62.1538C105.922 62.0782 105.609 61.5658 105.71 61.0093C105.811 60.4529 106.288 60.063 106.776 60.1386C107.264 60.2142 107.578 60.7266 107.477 61.283C107.376 61.8395 106.898 62.2293 106.41 62.1538Z" fill="#2A27B0"/>
<path d="M106.414 60.9701C106.287 60.9503 106.201 60.8391 106.222 60.7215C106.244 60.6039 106.364 60.5246 106.491 60.5443C106.619 60.564 106.705 60.6753 106.683 60.7929C106.662 60.9105 106.541 60.9898 106.414 60.9701Z" fill="white" fill-opacity="0.25"/>
<path d="M108.518 64.9824H108.705C108.756 64.9787 108.806 64.9658 108.851 64.9443C108.897 64.9227 108.938 64.8931 108.971 64.857C109.005 64.8208 109.03 64.779 109.046 64.7339C109.061 64.6887 109.067 64.6411 109.063 64.5938C109.053 64.499 109.004 64.4115 108.925 64.3498C108.847 64.288 108.745 64.2568 108.642 64.2629C108.642 64.2629 107.747 64.3133 107.622 63.7952C107.607 63.7581 107.607 63.7173 107.622 63.6801C107.898 63.5648 108.206 63.5345 108.502 63.5938C108.603 63.6084 108.706 63.5856 108.79 63.5304C108.873 63.4752 108.929 63.392 108.946 63.2988L109.32 61.3347C109.329 61.2879 109.328 61.2399 109.316 61.1935C109.305 61.1472 109.284 61.1033 109.254 61.0645C109.225 61.0257 109.187 60.9927 109.143 60.9675C109.1 60.9422 109.051 60.9252 109.001 60.9174C108.899 60.9026 108.794 60.9252 108.71 60.9803C108.626 61.0353 108.568 61.1186 108.549 61.2123L108.237 62.8527C108.026 62.8328 107.813 62.8518 107.609 62.9086C107.406 62.9654 107.217 63.0589 107.053 63.1837C106.952 63.2843 106.88 63.4072 106.845 63.5407C106.809 63.6742 106.811 63.8138 106.851 63.9463C106.959 64.2685 107.184 64.5468 107.487 64.7351C107.79 64.9235 108.154 65.0107 108.518 64.9824Z" fill="#2A27B0"/>
</svg>
