<svg width="159" height="140" viewBox="0 0 159 140" fill="none" xmlns="http://www.w3.org/2000/svg">
<path d="M42.3581 0.411158C40.9094 0.634309 39.9466 2.03004 40.2526 3.46355L44.3006 22.4267C44.4593 23.17 45.1703 23.6604 45.9214 23.5447C46.6726 23.429 47.2031 22.7474 47.1307 21.9908L45.2845 2.68847C45.1449 1.22933 43.8068 0.188006 42.3581 0.411158Z" fill="#FCD03E"/>
<path d="M78.9373 7.58303C77.7902 6.74081 76.1712 7.03458 75.3932 8.2261L64.3558 25.1288C63.9544 25.7434 64.103 26.5646 64.6943 26.9996C65.287 27.4356 66.1172 27.3315 66.5838 26.7626L79.387 11.1548C80.2888 10.0555 80.0835 8.42456 78.9373 7.58303Z" fill="#FCD03E"/>
<path d="M98.2852 38.2503C98.0617 36.7997 96.6671 35.8335 95.2305 36.134L74.4913 40.4724C73.7482 40.6278 73.2565 41.3374 73.3721 42.0878C73.4877 42.8381 74.1701 43.3669 74.9255 43.2915L96.0089 41.1877C97.4694 41.042 98.5086 39.7009 98.2852 38.2503Z" fill="#FCD03E"/>
<path d="M88.6611 71.8971C89.5697 70.7761 89.2677 69.1093 88.0236 68.3782L71.3903 58.6042C70.8279 58.2738 70.1083 58.4052 69.699 58.9131C69.2304 59.4946 69.3392 60.3492 69.9386 60.7948L85.4213 72.3049C86.436 73.0593 87.865 72.8794 88.6611 71.8971Z" fill="#FCD03E"/>
<path d="M19.7105 82.5165C20.7644 83.2146 22.1813 82.9569 22.922 81.9326L34.2266 66.2994C34.6656 65.6923 34.5109 64.8418 33.8863 64.4281C33.3423 64.0678 32.6164 64.1597 32.1795 64.6444L19.2614 78.9731C18.2966 80.0432 18.5092 81.7209 19.7105 82.5165Z" fill="#FCD03E"/>
<path d="M0.411178 53.3266C0.634616 54.7771 2.02927 55.7433 3.46585 55.4428L24.2051 51.1045C24.9482 50.9491 25.4398 50.2394 25.3242 49.4891C25.2087 48.7387 24.5263 48.21 23.7708 48.2853L2.68741 50.3891C1.22698 50.5349 0.18774 51.876 0.411178 53.3266Z" fill="#FCD03E"/>
<path d="M9.63656 18.2565C8.79489 19.4047 9.08968 21.0241 10.282 21.802L27.1858 32.8313C27.802 33.2333 28.6251 33.0827 29.059 32.4885C29.4918 31.8958 29.3864 31.0683 28.8189 30.603L13.2116 17.8047C12.1109 16.9021 10.4781 17.1085 9.63656 18.2565Z" fill="#FCD03E"/>
<path d="M115.935 139.249C109.28 139.249 103.887 132.414 103.887 123.998V87.0892C103.887 81.8621 107.228 77.6333 111.346 77.6333H116.226C132.684 77.6333 147.215 88.1013 155.908 104.074C163.88 118.743 155.506 138.736 141.461 138.93L115.935 139.249Z" fill="#E46A5D"/>
<path d="M123.588 134.674H112.011C111.209 134.674 110.44 134.356 109.874 133.789C109.307 133.222 108.988 132.453 108.988 131.651V118.785C108.988 117.983 109.307 117.214 109.874 116.648C110.44 116.081 111.209 115.762 112.011 115.762C112.812 115.762 113.581 116.081 114.148 116.648C114.715 117.214 115.033 117.983 115.033 118.785V128.629H123.588C124.39 128.629 125.158 128.947 125.725 129.514C126.292 130.081 126.611 130.85 126.611 131.651C126.611 132.453 126.292 133.222 125.725 133.789C125.158 134.356 124.39 134.674 123.588 134.674Z" fill="#EFAFAB"/>
<path d="M146.41 134.674H132.919C132.117 134.674 131.349 134.355 130.782 133.788C130.215 133.221 129.896 132.453 129.896 131.651C129.896 130.849 130.215 130.081 130.782 129.514C131.349 128.947 132.117 128.628 132.919 128.628H146.41C147.211 128.628 147.98 128.947 148.547 129.514C149.114 130.081 149.432 130.849 149.432 131.651C149.432 132.453 149.114 133.221 148.547 133.788C147.98 134.355 147.211 134.674 146.41 134.674Z" fill="#EFAFAB"/>
<path d="M153.827 124.83H122.215C121.413 124.83 120.644 124.511 120.077 123.945C119.51 123.378 119.192 122.609 119.192 121.807V112.448H110.665C109.863 112.448 109.095 112.13 108.528 111.563C107.961 110.996 107.643 110.227 107.643 109.426C107.643 108.624 107.961 107.855 108.528 107.289C109.095 106.722 109.863 106.403 110.665 106.403H122.215C123.016 106.403 123.785 106.722 124.352 107.289C124.919 107.855 125.237 108.624 125.237 109.426V118.785H150.804V113.239C150.804 112.437 151.122 111.668 151.689 111.101C152.256 110.535 153.025 110.216 153.827 110.216C154.628 110.216 155.397 110.535 155.964 111.101C156.531 111.668 156.849 112.437 156.849 113.239V121.835C156.842 122.632 156.52 123.394 155.954 123.954C155.388 124.515 154.623 124.83 153.827 124.83Z" fill="#EFAFAB"/>
<path d="M143.109 115.485H129.632C128.83 115.485 128.061 115.166 127.495 114.599C126.928 114.032 126.609 113.264 126.609 112.462C126.609 111.66 126.928 110.892 127.495 110.325C128.061 109.758 128.83 109.439 129.632 109.439H140.086V96.5035C140.058 96.0903 140.115 95.6757 140.254 95.2855C140.393 94.8953 140.61 94.5379 140.893 94.2352C141.176 93.9326 141.518 93.6914 141.898 93.5264C142.278 93.3615 142.688 93.2764 143.102 93.2764C143.516 93.2764 143.926 93.3615 144.306 93.5264C144.685 93.6914 145.027 93.9326 145.31 94.2352C145.593 94.5379 145.81 94.8953 145.949 95.2855C146.088 95.6757 146.145 96.0903 146.117 96.5035V112.462C146.117 113.261 145.801 114.028 145.237 114.594C144.673 115.161 143.908 115.481 143.109 115.485Z" fill="#EFAFAB"/>
<path d="M132.92 101.453H121.938C121.138 101.449 120.371 101.13 119.805 100.564C119.239 99.9976 118.92 99.2309 118.916 98.4304V88.2536H113.744V98.4304C113.744 99.232 113.426 100.001 112.859 100.568C112.292 101.135 111.523 101.453 110.722 101.453C109.92 101.453 109.151 101.135 108.584 100.568C108.018 100.001 107.699 99.232 107.699 98.4304V85.231C107.699 84.4294 108.018 83.6606 108.584 83.0938C109.151 82.5269 109.92 82.2085 110.722 82.2085H121.994C122.794 82.2121 123.561 82.5317 124.127 83.0978C124.693 83.6638 125.013 84.4305 125.017 85.231V95.4079H129.952V87.699C129.952 86.8974 130.271 86.1285 130.838 85.5617C131.405 84.9949 132.173 84.6764 132.975 84.6764C133.777 84.6764 134.545 84.9949 135.112 85.5617C135.679 86.1285 135.998 86.8974 135.998 87.699V98.4304C135.996 98.8315 135.914 99.2283 135.758 99.5978C135.602 99.9673 135.375 100.302 135.089 100.583C134.802 100.864 134.463 101.086 134.091 101.235C133.719 101.384 133.321 101.458 132.92 101.453Z" fill="#EFAFAB"/>
<g style="mix-blend-mode:multiply" opacity="0.5">
<path d="M115.935 139.249C109.28 139.249 103.887 132.414 103.887 123.998V87.0892C103.887 81.8621 107.228 77.6333 111.346 77.6333H116.226C132.684 77.6333 147.215 88.1013 155.908 104.074C163.88 118.743 155.506 138.736 141.461 138.93L115.935 139.249Z" fill="#E46A5D"/>
</g>
<path d="M91.8361 139.249C98.4912 139.249 103.885 132.414 103.885 123.998V87.0892C103.885 81.8621 100.543 77.6333 96.4254 77.6333H91.5588C75.1011 77.6333 60.5707 88.1013 51.8774 104.074C43.9051 118.743 52.2656 138.736 66.3247 138.93L91.8361 139.249Z" fill="#E46A5D"/>
<path d="M95.7179 134.674H84.1407C83.3391 134.674 82.5703 134.356 82.0034 133.789C81.4366 133.222 81.1182 132.453 81.1182 131.651C81.1182 130.85 81.4366 130.081 82.0034 129.514C82.5703 128.947 83.3391 128.629 84.1407 128.629H92.6954V118.785C92.6954 117.983 93.0138 117.214 93.5807 116.648C94.1475 116.081 94.9163 115.762 95.7179 115.762C96.5195 115.762 97.2883 116.081 97.8552 116.648C98.422 117.214 98.7405 117.983 98.7405 118.785V131.651C98.7405 132.453 98.422 133.222 97.8552 133.789C97.2883 134.356 96.5195 134.674 95.7179 134.674Z" fill="#EFAFAB"/>
<path d="M74.9215 134.674H61.4171C60.6154 134.674 59.8466 134.355 59.2798 133.788C58.713 133.221 58.3945 132.453 58.3945 131.651C58.3945 130.849 58.713 130.081 59.2798 129.514C59.8466 128.947 60.6154 128.628 61.4171 128.628H74.9215C75.7231 128.628 76.4919 128.947 77.0588 129.514C77.6256 130.081 77.944 130.849 77.944 131.651C77.944 132.453 77.6256 133.221 77.0588 133.788C76.4919 134.355 75.7231 134.674 74.9215 134.674Z" fill="#EFAFAB"/>
<path d="M85.5554 124.829H53.9434C53.1418 124.829 52.373 124.511 51.8062 123.944C51.2393 123.377 50.9209 122.608 50.9209 121.807V113.28C50.9209 112.478 51.2393 111.709 51.8062 111.142C52.373 110.576 53.1418 110.257 53.9434 110.257C54.7451 110.257 55.5139 110.576 56.0807 111.142C56.6476 111.709 56.966 112.478 56.966 113.28V118.826H82.5329V109.467C82.5329 108.665 82.8513 107.896 83.4182 107.33C83.985 106.763 84.7538 106.444 85.5554 106.444H97.1049C97.9066 106.444 98.6753 106.763 99.2422 107.33C99.809 107.896 100.127 108.665 100.127 109.467C100.127 110.269 99.809 111.037 99.2422 111.604C98.6753 112.171 97.9066 112.489 97.1049 112.489H88.578V121.834C88.5707 122.631 88.249 123.393 87.683 123.954C87.1169 124.515 86.3523 124.829 85.5554 124.829Z" fill="#EFAFAB"/>
<path d="M78.1241 115.485H64.6613C63.8597 115.485 63.0909 115.166 62.524 114.599C61.9572 114.032 61.6388 113.264 61.6388 112.462V96.5035C61.6107 96.0903 61.6679 95.6757 61.8068 95.2855C61.9456 94.8953 62.1632 94.5379 62.446 94.2352C62.7288 93.9326 63.0707 93.6914 63.4506 93.5264C63.8305 93.3615 64.2402 93.2764 64.6544 93.2764C65.0686 93.2764 65.4783 93.3615 65.8582 93.5264C66.2381 93.6914 66.58 93.9326 66.8628 94.2352C67.1456 94.5379 67.3631 94.8953 67.502 95.2855C67.6408 95.6757 67.698 96.0903 67.67 96.5035V109.439H78.1241C78.9258 109.439 79.6946 109.758 80.2614 110.325C80.8282 110.892 81.1467 111.66 81.1467 112.462C81.1467 113.264 80.8282 114.032 80.2614 114.599C79.6946 115.166 78.9258 115.485 78.1241 115.485Z" fill="#EFAFAB"/>
<path d="M97.1058 101.453C96.3053 101.449 95.5386 101.13 94.9726 100.564C94.4065 99.9976 94.0869 99.2309 94.0833 98.4304V88.2536H88.8562V98.4304C88.8526 99.2309 88.5329 99.9976 87.9669 100.564C87.4008 101.13 86.6341 101.449 85.8336 101.453H74.922C74.1214 101.449 73.3548 101.13 72.7887 100.564C72.2227 99.9976 71.9031 99.2309 71.8994 98.4304V87.699C71.8994 86.8974 72.2179 86.1285 72.7847 85.5617C73.3515 84.9949 74.1203 84.6764 74.922 84.6764C75.7236 84.6764 76.4924 84.9949 77.0592 85.5617C77.6261 86.1285 77.9445 86.8974 77.9445 87.699V95.4079H82.8804V85.231C82.8841 84.4305 83.2037 83.6638 83.7697 83.0978C84.3358 82.5317 85.1025 82.2121 85.903 82.2085H97.1058C97.9074 82.2085 98.6762 82.5269 99.2431 83.0938C99.8099 83.6606 100.128 84.4294 100.128 85.231V98.4304C100.128 99.232 99.8099 100.001 99.2431 100.568C98.6762 101.135 97.9074 101.453 97.1058 101.453Z" fill="#EFAFAB"/>
<path d="M71.001 42.8107C71.7503 46.4754 71.3818 50.2928 69.9369 53.8309C68.492 57.369 66.0284 60.4869 62.8248 62.8318C61.0488 64.1392 59.0703 65.1808 56.963 65.918C56.7302 66.0074 56.4871 66.0906 56.251 66.164C54.7016 66.6484 53.1055 66.9756 51.4905 67.1399C51.2408 67.191 50.9883 67.1844 50.7391 67.1938C48.5089 67.3476 46.277 67.169 44.1272 66.6647C40.4293 65.8077 37.0723 64.0346 34.4041 61.5292C31.7359 59.0238 29.8536 55.8772 28.9522 52.4155C28.0508 48.9538 28.1632 45.3029 29.2776 41.8413C30.392 38.3796 32.468 35.2332 35.2904 32.7279C38.1128 30.2227 41.5789 28.4498 45.3295 27.5931C49.0801 26.7364 52.9787 26.827 56.6214 27.8555C60.264 28.884 63.5181 30.813 66.0465 33.4425C68.5748 36.0721 70.2854 39.3065 71.001 42.8107Z" fill="#FDBC00"/>
<path d="M60.2856 50.4435L41.5879 54.2764L46.0761 76.171L64.7738 72.3381L60.2856 50.4435Z" fill="#FDBC00"/>
<path d="M64.2302 69.6897L65.5425 76.0916C65.5819 76.2391 65.6126 76.3887 65.6344 76.5397C65.6806 77.1599 65.5624 77.7855 65.2902 78.3614C65.021 78.9143 64.6164 79.4029 64.11 79.7866C63.6036 80.1703 63.01 80.4381 62.3786 80.5676L51.5749 82.7823C50.9446 82.9121 50.2946 82.8995 49.6793 82.7456C49.064 82.5917 48.5015 82.301 48.0387 81.8978C47.5587 81.478 47.2033 80.9485 47.0056 80.3585C46.9661 80.211 46.9355 80.0614 46.9137 79.9103L45.6014 73.5084L64.2302 69.6897Z" fill="#1B95A2"/>
<path d="M61.3051 79.3199L61.3199 79.3919C61.4051 79.8617 61.4161 80.3427 61.3524 80.8195C61.2178 81.7189 60.7877 82.5647 60.1221 83.2392C59.4565 83.9137 58.5884 84.3833 57.6387 84.5827L57.544 84.6021C56.4249 84.8325 55.2661 84.6761 54.2842 84.1622C53.3022 83.6484 52.5643 82.8122 52.2085 81.81C52.1393 81.634 52.087 81.4522 52.0522 81.2667L52.0424 81.2187L61.3051 79.3199Z" fill="#1B95A2"/>
<path d="M64.7709 72.3385L46.0732 76.1714L46.5654 78.5721L65.263 74.7393L64.7709 72.3385Z" fill="#046266"/>
<path d="M65.6377 76.5469C65.7638 77.164 65.6296 77.8097 65.2627 78.3499C64.8726 78.892 64.2746 79.2752 63.5977 79.4167L49.979 82.2084C49.6433 82.2786 49.298 82.2859 48.9631 82.23C48.6282 82.1741 48.3105 82.0561 48.0285 81.8828C47.4758 81.5323 47.0952 80.9921 46.9658 80.3745L65.6377 76.5469Z" fill="#046266"/>
<path d="M57.6891 71.3391C57.5924 71.3589 57.4923 71.3428 57.4102 71.2942C57.3282 71.2455 57.2707 71.1683 57.25 71.0788L53.6411 53.4735C53.6275 53.4043 53.6378 53.3321 53.6706 53.2674L57.4802 44.9399C57.3675 45.0464 57.2667 45.1671 57.1486 45.2914C56.7778 45.8093 56.2095 46.1772 55.5647 46.3165C54.6436 46.5054 54.0655 45.8734 53.5641 45.3091C53.0627 44.7448 52.7204 44.4313 52.2642 44.5249C51.8079 44.6184 51.6284 45.0555 51.3862 45.7555C51.144 46.4556 50.8559 47.2818 49.9434 47.4689C49.0308 47.6559 48.4425 47.0177 47.9428 46.4614C47.443 45.9051 47.0991 45.5837 46.6428 45.6772C46.1866 45.7707 46.007 46.2078 45.7648 46.9079C45.5226 47.6079 45.2345 48.4341 44.322 48.6212C43.968 48.676 43.6077 48.6586 43.2659 48.5703C42.9241 48.482 42.6091 48.3249 42.3424 48.1098C42.2399 48.0474 42.1358 47.977 42.0263 47.9244L48.7711 54.0466C48.8209 54.0967 48.8553 54.1587 48.8707 54.2263L52.5223 72.0396C52.5255 72.1236 52.4964 72.2068 52.4403 72.2741C52.3841 72.3414 52.3047 72.3883 52.2163 72.4064C52.1278 72.4245 52.0363 72.4127 51.9582 72.3729C51.8802 72.3331 51.8207 72.2681 51.7906 72.1896L48.162 54.4883L40.6013 47.6244C40.5536 47.5807 40.5198 47.5253 40.5034 47.4642C40.487 47.4031 40.4887 47.3386 40.5083 47.2773C40.5279 47.2161 40.5647 47.1604 40.6148 47.1163C40.6648 47.0722 40.7263 47.0411 40.7927 47.0265C41.1467 46.9734 41.5066 46.9916 41.8481 47.0798C42.1896 47.168 42.5047 47.3242 42.7724 47.538C42.9593 47.6991 43.1823 47.8199 43.4261 47.8922C43.6699 47.9644 43.929 47.9866 44.1858 47.957C44.6421 47.8635 44.8216 47.4264 45.0638 46.7263C45.306 46.0263 45.5942 45.2001 46.5067 45.013C47.4192 44.826 48.0058 45.4562 48.5072 46.0205C49.0086 46.5848 49.3509 46.8982 49.8072 46.8047C50.2634 46.7111 50.443 46.2741 50.6852 45.574C50.9274 44.8739 51.2155 44.0477 52.128 43.8607C53.0405 43.6736 53.6272 44.3038 54.1286 44.8681C54.63 45.4325 54.9723 45.7459 55.4285 45.6523C55.6623 45.5991 55.8837 45.503 56.0798 45.3698C56.2758 45.2365 56.4425 45.0687 56.5702 44.8763C56.9442 44.3623 57.5124 43.9978 58.1557 43.8592C58.222 43.8463 58.2902 43.8506 58.353 43.8715C58.4158 43.8924 58.4708 43.9292 58.5119 43.9779C58.5587 44.0215 58.5903 44.0774 58.6028 44.1386C58.6154 44.1998 58.6083 44.2636 58.5825 44.322L54.4011 53.4178L57.9854 70.9031C57.9986 70.9491 58.0013 70.9975 57.9933 71.0452C57.9852 71.0928 57.9667 71.1387 57.9388 71.1797C57.9108 71.2208 57.8742 71.2562 57.8312 71.2836C57.7882 71.3111 57.7398 71.3299 57.6891 71.3391Z" fill="#4C080D"/>
<g style="mix-blend-mode:multiply">
<path d="M57.5451 84.6021L57.6398 84.5827C58.5895 84.3833 59.4576 83.9136 60.1232 83.2391C60.7888 82.5646 61.2189 81.7188 61.3535 80.8195L62.3263 80.62C62.9577 80.4905 63.5513 80.2227 64.0577 79.839C64.5641 79.4553 64.9687 78.9667 65.2379 78.4138C65.6047 77.8736 65.739 77.2279 65.6128 76.6109C65.591 76.4598 65.5603 76.3102 65.5209 76.1627L64.2004 69.7208L54.8516 71.6372L57.5451 84.6021Z" fill="#1B95A2"/>
</g>
<g style="mix-blend-mode:multiply">
<path d="M71.0019 42.8102C70.4731 40.2303 69.4027 37.7877 67.8521 35.6218C66.3014 33.456 64.3007 31.6094 61.9643 30.1874C59.6278 28.7654 57.0014 27.7958 54.235 27.3342C51.4685 26.8725 48.6162 26.9277 45.8408 27.4966L54.8796 71.5899L64.2284 69.6734L62.834 62.8714C66.0436 60.5221 68.5102 57.3971 69.954 53.8512C71.3977 50.3052 71.7608 46.4802 71.0019 42.8102Z" fill="#FF931E"/>
</g>
</svg>
