<svg width="113" height="162" viewBox="0 0 113 162" fill="none" xmlns="http://www.w3.org/2000/svg">
<path d="M103.225 0.0263672H9.5845C4.29115 0.0263672 0 4.31748 0 9.61082V151.814C0 157.108 4.29115 161.399 9.5845 161.399H103.225C108.518 161.399 112.809 157.108 112.809 151.814V9.61082C112.809 4.31748 108.518 0.0263672 103.225 0.0263672Z" fill="#957BFD"/>
<path d="M26.959 47.3584H19.1172C16.8385 47.3584 14.9912 49.2056 14.9912 51.4843V59.3262C14.9912 61.6049 16.8385 63.4521 19.1172 63.4521H26.959C29.2377 63.4521 31.0849 61.6049 31.0849 59.3262V51.4843C31.0849 49.2056 29.2377 47.3584 26.959 47.3584Z" fill="#622D7B"/>
<path d="M49.4345 47.3584H41.5927C39.314 47.3584 37.4668 49.2056 37.4668 51.4843V59.3262C37.4668 61.6049 39.314 63.4521 41.5927 63.4521H49.4345C51.7132 63.4521 53.5605 61.6049 53.5605 59.3262V51.4843C53.5605 49.2056 51.7132 47.3584 49.4345 47.3584Z" fill="#622D7B"/>
<path d="M71.9355 47.3584H64.0937C61.815 47.3584 59.9678 49.2056 59.9678 51.4843V59.3262C59.9678 61.6049 61.815 63.4521 64.0937 63.4521H71.9355C74.2142 63.4521 76.0614 61.6049 76.0614 59.3262V51.4843C76.0614 49.2056 74.2142 47.3584 71.9355 47.3584Z" fill="#622D7B"/>
<path d="M26.959 68.936H19.1172C16.8385 68.936 14.9912 70.7832 14.9912 73.0619V80.9038C14.9912 83.1825 16.8385 85.0297 19.1172 85.0297H26.959C29.2377 85.0297 31.0849 83.1825 31.0849 80.9038V73.0619C31.0849 70.7832 29.2377 68.936 26.959 68.936Z" fill="#FABCFF"/>
<path d="M49.4345 68.936H41.5927C39.314 68.936 37.4668 70.7832 37.4668 73.0619V80.9038C37.4668 83.1825 39.314 85.0297 41.5927 85.0297H49.4345C51.7132 85.0297 53.5605 83.1825 53.5605 80.9038V73.0619C53.5605 70.7832 51.7132 68.936 49.4345 68.936Z" fill="#FABCFF"/>
<path d="M71.9355 68.936H64.0937C61.815 68.936 59.9678 70.7832 59.9678 73.0619V80.9038C59.9678 83.1825 61.815 85.0297 64.0937 85.0297H71.9355C74.2142 85.0297 76.0614 83.1825 76.0614 80.9038V73.0619C76.0614 70.7832 74.2142 68.936 71.9355 68.936Z" fill="#FABCFF"/>
<path d="M26.959 90.4888H19.1172C16.8385 90.4888 14.9912 92.336 14.9912 94.6147V102.457C14.9912 104.735 16.8385 106.582 19.1172 106.582H26.959C29.2377 106.582 31.0849 104.735 31.0849 102.457V94.6147C31.0849 92.336 29.2377 90.4888 26.959 90.4888Z" fill="#FABCFF"/>
<path d="M49.4345 90.4888H41.5927C39.314 90.4888 37.4668 92.336 37.4668 94.6147V102.457C37.4668 104.735 39.314 106.582 41.5927 106.582H49.4345C51.7132 106.582 53.5605 104.735 53.5605 102.457V94.6147C53.5605 92.336 51.7132 90.4888 49.4345 90.4888Z" fill="#FABCFF"/>
<path d="M71.9355 90.4888H64.0937C61.815 90.4888 59.9678 92.336 59.9678 94.6147V102.457C59.9678 104.735 61.815 106.582 64.0937 106.582H71.9355C74.2142 106.582 76.0614 104.735 76.0614 102.457V94.6147C76.0614 92.336 74.2142 90.4888 71.9355 90.4888Z" fill="#FABCFF"/>
<path d="M26.959 112.066H19.1172C16.8385 112.066 14.9912 113.914 14.9912 116.192V124.034C14.9912 126.313 16.8385 128.16 19.1172 128.16H26.959C29.2377 128.16 31.0849 126.313 31.0849 124.034V116.192C31.0849 113.914 29.2377 112.066 26.959 112.066Z" fill="#FABCFF"/>
<path d="M49.4345 112.066H41.5927C39.314 112.066 37.4668 113.914 37.4668 116.192V124.034C37.4668 126.313 39.314 128.16 41.5927 128.16H49.4345C51.7132 128.16 53.5605 126.313 53.5605 124.034V116.192C53.5605 113.914 51.7132 112.066 49.4345 112.066Z" fill="#FABCFF"/>
<path d="M71.9355 112.066H64.0937C61.815 112.066 59.9678 113.914 59.9678 116.192V124.034C59.9678 126.313 61.815 128.16 64.0937 128.16H71.9355C74.2142 128.16 76.0614 126.313 76.0614 124.034V116.192C76.0614 113.914 74.2142 112.066 71.9355 112.066Z" fill="#FABCFF"/>
<path d="M49.4337 133.644H19.1172C16.8385 133.644 14.9912 135.491 14.9912 137.769V145.611C14.9912 147.89 16.8385 149.737 19.1172 149.737H49.4337C51.7124 149.737 53.5597 147.89 53.5597 145.611V137.769C53.5597 135.491 51.7124 133.644 49.4337 133.644Z" fill="#FABCFF"/>
<path d="M71.9355 133.644H64.0937C61.815 133.644 59.9678 135.491 59.9678 137.769V145.611C59.9678 147.89 61.815 149.737 64.0937 149.737H71.9355C74.2142 149.737 76.0614 147.89 76.0614 145.611V137.769C76.0614 135.491 74.2142 133.644 71.9355 133.644Z" fill="#FABCFF"/>
<path d="M93.7187 47.3584H85.8769C83.5982 47.3584 81.751 49.2056 81.751 51.4843V59.3262C81.751 61.6049 83.5982 63.4521 85.8769 63.4521H93.7187C95.9974 63.4521 97.8446 61.6049 97.8446 59.3262V51.4843C97.8446 49.2056 95.9974 47.3584 93.7187 47.3584Z" fill="#622D7B"/>
<path d="M93.7187 68.936H85.8769C83.5982 68.936 81.751 70.7832 81.751 73.0619V80.9038C81.751 83.1825 83.5982 85.0297 85.8769 85.0297H93.7187C95.9974 85.0297 97.8446 83.1825 97.8446 80.9038V73.0619C97.8446 70.7832 95.9974 68.936 93.7187 68.936Z" fill="#FABCFF"/>
<path d="M93.7187 90.4888H85.8769C83.5982 90.4888 81.751 92.336 81.751 94.6147V102.457C81.751 104.735 83.5982 106.582 85.8769 106.582H93.7187C95.9974 106.582 97.8446 104.735 97.8446 102.457V94.6147C97.8446 92.336 95.9974 90.4888 93.7187 90.4888Z" fill="#FABCFF"/>
<path d="M93.6934 112.066H85.8515C83.5728 112.066 81.7256 113.914 81.7256 116.192V145.612C81.7256 147.891 83.5728 149.738 85.8515 149.738H93.6934C95.972 149.738 97.8192 147.891 97.8192 145.612V116.192C97.8192 113.914 95.972 112.066 93.6934 112.066Z" fill="#FABCFF"/>
<g style="mix-blend-mode:multiply" opacity="0.5">
<path d="M112.809 9.58459V151.814C112.812 153.08 112.565 154.334 112.082 155.505C111.599 156.676 110.89 157.739 109.994 158.635C109.099 159.53 108.035 160.24 106.865 160.723C105.694 161.206 104.44 161.453 103.173 161.449H56.4043V0.000137053H103.173C104.436 -0.0066168 105.688 0.23631 106.857 0.714949C108.026 1.19359 109.088 1.89848 109.984 2.78915C110.879 3.67982 111.59 4.73869 112.075 5.90488C112.559 7.07107 112.809 8.32162 112.809 9.58459Z" fill="#957BFD"/>
</g>
<path d="M91.5643 9.8916H21.2698C17.8023 9.8916 14.9912 12.7026 14.9912 16.1702V33.0583C14.9912 36.5259 17.8023 39.3369 21.2698 39.3369H91.5643C95.0318 39.3369 97.8429 36.5259 97.8429 33.0583V16.1702C97.8429 12.7026 95.0318 9.8916 91.5643 9.8916Z" fill="#FF6565"/>
<path d="M91.539 8.71293H21.1676C20.1862 8.70956 19.2137 8.89999 18.306 9.27325C17.3982 9.64651 16.5731 10.1953 15.8779 10.8881C15.1827 11.5809 14.6311 12.4042 14.2547 13.3106C13.8783 14.2171 13.6846 15.1889 13.6846 16.1704V33.0329C13.6914 35.0131 14.4828 36.9098 15.8854 38.3076C17.288 39.7054 19.1875 40.4902 21.1676 40.4902H91.4365C93.4123 40.4835 95.3051 39.6956 96.7022 38.2985C98.0993 36.9015 98.8871 35.0086 98.8939 33.0329V16.1704C98.894 14.2102 98.1225 12.3287 96.7461 10.9331C95.3696 9.53745 93.499 8.73988 91.539 8.71293ZM96.6643 33.0329C96.6643 34.3922 96.1243 35.6958 95.1631 36.657C94.202 37.6182 92.8983 38.1582 91.539 38.1582H21.1676C19.8083 38.1582 18.5047 37.6182 17.5435 36.657C16.5823 35.6958 16.0423 34.3922 16.0423 33.0329V16.1704C16.0423 14.811 16.5823 13.5074 17.5435 12.5462C18.5047 11.585 19.8083 11.045 21.1676 11.045H91.4365C92.7958 11.045 94.0995 11.585 95.0607 12.5462C96.0219 13.5074 96.5619 14.811 96.5619 16.1704L96.6643 33.0329Z" fill="#622D7B"/>
<g style="mix-blend-mode:multiply" opacity="0.5">
<path d="M98.9961 16.1703V33.0328C98.9894 35.0086 98.2015 36.9014 96.8044 38.2985C95.4074 39.6956 93.5144 40.4834 91.5387 40.4902H56.4043V8.71289H91.5387C93.5165 8.71289 95.4133 9.4986 96.8119 10.8971C98.2104 12.2957 98.9961 14.1925 98.9961 16.1703Z" fill="#FF569D"/>
</g>
<path d="M69.3452 31.0592H66.7825V21.5773C66.5078 21.8839 66.2079 22.1668 65.8857 22.423L64.5018 23.5506L63.2461 21.9873L67.1926 18.8608H69.294L69.3452 31.0592Z" fill="#622D7B"/>
<path d="M76.0102 25.9599H72.7812V24.1404H76.0102V20.8857H77.8553V24.1404H81.0843V25.9599H77.8553V29.1889H76.0102V25.9599Z" fill="#622D7B"/>
<path d="M91.0262 31.0604H82.4924V29.2666L85.5676 26.1913C86.4646 25.2431 87.054 24.6024 87.3359 24.2437C87.5845 23.9394 87.7914 23.6033 87.9509 23.2442C88.0619 22.94 88.1226 22.6197 88.1303 22.296C88.1471 22.0935 88.119 21.8898 88.0481 21.6993C87.9772 21.5089 87.8653 21.3364 87.7203 21.1941C87.4156 20.9502 87.0339 20.823 86.6439 20.8353C86.1636 20.842 85.6909 20.9558 85.2601 21.1684C84.7721 21.4338 84.3089 21.7425 83.8762 22.091L82.4668 20.4253C82.9222 20.0143 83.4205 19.6534 83.9531 19.3489C84.3654 19.1298 84.8049 18.9661 85.2601 18.862C85.7729 18.7445 86.2972 18.6843 86.8233 18.6826C87.5225 18.6725 88.2148 18.8215 88.8479 19.1183C89.4021 19.3641 89.8737 19.7645 90.2061 20.2715C90.536 20.7825 90.7055 21.3804 90.693 21.9885C90.6978 22.5334 90.5932 23.0736 90.3855 23.5773C90.168 24.1311 89.8558 24.6427 89.4629 25.0893C88.7879 25.8808 88.0601 26.6257 87.2846 27.3189L85.7214 28.7796H91.0262V31.0604Z" fill="#622D7B"/>
</svg>
