<svg width="173" height="187" viewBox="0 0 173 187" fill="none" xmlns="http://www.w3.org/2000/svg">
<path d="M167.593 17.8623L147.83 26.8186L115.422 34.9405C112.317 35.7183 109.306 36.8374 106.446 38.2776L89.789 46.645C87.5049 47.7885 85.3624 49.1967 83.4053 50.8409L81.4486 46.5468L77.2905 37.3207C77.188 37.1002 77.1301 36.8614 77.1202 36.6183C77.1103 36.3752 77.1485 36.1325 77.2327 35.9043C77.3168 35.6762 77.4452 35.467 77.6105 35.2889C77.7758 35.1108 77.9746 34.9674 78.1955 34.8669C78.4162 34.7614 78.656 34.7018 78.9003 34.6918C79.1447 34.6818 79.3885 34.7215 79.6171 34.8087C79.8457 34.8958 80.0543 35.0285 80.2303 35.1988C80.4064 35.3691 80.5462 35.5733 80.6414 35.7993L81.0083 36.5845L159.937 0.833106C161.042 0.328034 162.235 0.0467549 163.448 0.00534928C164.661 -0.0360564 165.871 0.163238 167.007 0.591833C168.143 1.02043 169.184 1.66989 170.069 2.50292C170.955 3.33595 171.668 4.33616 172.167 5.4462V5.61798C172.671 6.72283 172.952 7.91663 172.994 9.13082C173.037 10.345 172.84 11.5557 172.415 12.6934C171.99 13.8311 171.346 14.8733 170.518 15.7603C169.691 16.6473 168.697 17.3617 167.593 17.8623Z" fill="#9EE8DF"/>
<path d="M85.7041 55.9682C85.8039 56.1899 85.947 56.3892 86.1251 56.5544C86.3031 56.7195 86.5125 56.847 86.7406 56.9294C86.9687 57.0118 87.2111 57.0473 87.4532 57.034C87.6953 57.0206 87.9323 56.9586 88.15 56.8516C88.3731 56.7538 88.5742 56.6118 88.7414 56.4342C88.9085 56.2565 89.0383 56.0469 89.1227 55.8178C89.2072 55.5887 89.2448 55.3449 89.2331 55.1009C89.2215 54.8569 89.1609 54.6177 89.055 54.3978L88.737 53.6616L85.8508 54.9867L85.7041 55.9682Z" fill="#CDEDEA"/>
<path d="M88.688 53.7106L147.83 26.8174L88.6636 53.637L88.688 53.7106Z" fill="#FF7171"/>
<path d="M83.3808 50.9385C79.2712 54.3059 76.0045 58.5917 73.8418 63.4527L33.4111 154.389H77.1193L85.7044 56.0668L83.3808 50.9385Z" fill="#FF7171"/>
<path d="M106.421 38.2773L89.7642 46.6447C87.4852 47.7971 85.3436 49.2047 83.3804 50.8406L85.6795 55.9445V54.9875L88.5657 53.6624L147.707 26.8428L115.299 34.9647C112.228 35.7415 109.251 36.8523 106.421 38.2773Z" fill="#FF7171"/>
<path opacity="0.3" d="M106.421 38.2773L89.7642 46.6447C87.4852 47.7971 85.3436 49.2047 83.3804 50.8406L85.6795 55.9445V54.9875L88.5657 53.6624L147.707 26.8428L115.299 34.9647C112.228 35.7415 109.251 36.8523 106.421 38.2773Z" fill="#CDEDEA"/>
<path d="M85.9138 154.292C87.8757 154.292 89.3096 156.144 88.8182 158.043L81.9078 184.752C81.5653 186.075 80.3709 187 79.0035 187H10.7854C9.41793 187 8.22353 186.075 7.88101 184.752L0.970619 158.043C0.479201 156.144 1.91311 154.292 3.87498 154.292H85.9138Z" fill="#284C60"/>
<path d="M43.8306 154.291L47.426 78.1997L51.0215 154.291H43.8306Z" fill="#03A677"/>
<path d="M68.4857 116.258L49.6767 137.311L45.1763 132.134L68.4857 116.258Z" fill="#03A677"/>
<path d="M33.4111 135.619L49.872 146.194L44.9558 151.445L33.4111 135.619Z" fill="#03A677"/>
<path d="M47.4261 44.6567C47.4261 44.6567 31.332 66.0781 31.332 74.9853C31.332 83.8924 38.523 94.6154 47.4261 94.6154C56.3291 94.6154 63.4955 83.8188 63.4955 74.9853C63.4955 66.1517 47.4261 44.6567 47.4261 44.6567Z" fill="#03A677"/>
<path d="M38.1567 113.24C32.8002 106.124 7.06934 98.7627 7.06934 98.7627C7.06934 98.7627 7.06935 125.582 12.4748 132.698C17.8802 139.814 30.0608 144.035 37.1539 138.661C44.247 133.287 43.4643 120.331 38.1567 113.24Z" fill="#03A677"/>
<path d="M62.8837 99.0324C56.2064 104.872 52.8311 117.411 58.6768 124.134C64.5225 130.858 77.339 129.214 84.0408 123.349C90.7425 117.485 96.2702 91.2539 96.2702 91.2539C96.2702 91.2539 69.5855 93.1679 62.8837 99.0324Z" fill="#03A677"/>
<g style="mix-blend-mode:multiply" opacity="0.8">
<path d="M84.0417 123.349C77.3399 129.214 64.4745 130.858 58.6777 124.134L96.2711 91.2539C96.2711 91.2539 90.7434 117.509 84.0417 123.349Z" fill="#3BE8FF"/>
</g>
<g style="mix-blend-mode:multiply" opacity="0.8">
<path d="M47.4263 44.6567V94.689C56.3049 94.689 63.4958 83.8924 63.4958 75.0589C63.4958 66.2253 47.4263 44.6567 47.4263 44.6567Z" fill="#3BE8FF"/>
</g>
<g style="mix-blend-mode:multiply" opacity="0.8">
<path d="M7.02002 98.7627L37.1045 138.661C44.1976 133.287 43.4639 120.331 38.1074 113.24C32.7509 106.149 7.02002 98.7627 7.02002 98.7627Z" fill="#3BE8FF"/>
</g>
<g style="mix-blend-mode:multiply" opacity="0.5">
<path d="M89.7884 154.292L81.3256 187H44.9062V154.292H89.7884Z" fill="#3BE8FF"/>
</g>
<g style="mix-blend-mode:multiply" opacity="0.5">
<path d="M172.191 5.61798L81.4241 46.5468L77.2905 37.3207C77.188 37.1002 77.1301 36.8614 77.1202 36.6183C77.1103 36.3752 77.1485 36.1325 77.2327 35.9043C77.3168 35.6762 77.4452 35.467 77.6105 35.2889C77.7758 35.1108 77.9746 34.9674 78.1955 34.8669C78.4162 34.7614 78.656 34.7018 78.9003 34.6918C79.1447 34.6818 79.3885 34.7215 79.6171 34.8087C79.8457 34.8958 80.0543 35.0285 80.2303 35.1988C80.4064 35.3691 80.5462 35.5733 80.6414 35.7993L81.0083 36.5845L159.937 0.833106C161.042 0.328034 162.235 0.0467549 163.448 0.00534928C164.661 -0.0360564 165.871 0.163238 167.007 0.591833C168.143 1.02043 169.184 1.66989 170.069 2.50292C170.955 3.33595 171.668 4.33616 172.167 5.4462L172.191 5.61798Z" fill="#3BE8FF"/>
</g>
</svg>
