<svg width="171" height="138" viewBox="0 0 171 138" fill="none" xmlns="http://www.w3.org/2000/svg">
<path d="M36.1613 137.045H9.96877C7.32912 137.045 4.79721 135.999 2.92841 134.134C1.0596 132.27 0.00646975 129.741 0 127.101V38.9458C0.00646975 36.3061 1.0596 33.7768 2.92841 31.9126C4.79721 30.0484 7.32912 29.0015 9.96877 29.0015H160.356C162.991 29.0079 165.517 30.0577 167.38 31.9212C169.244 33.7847 170.294 36.3103 170.3 38.9458V58.3702C170.305 60.8437 169.385 63.2298 167.722 65.0604C166.058 66.891 163.771 68.0342 161.309 68.2657H160.356H156.055V64.9916H160.942C162.575 64.8276 164.088 64.0607 165.186 62.8409C166.284 61.6211 166.888 60.0358 166.879 58.3947V38.9702C166.873 37.2161 166.173 35.5356 164.933 34.2952C163.692 33.0549 162.012 32.3553 160.258 32.3488H9.96877C8.21041 32.3488 6.5237 33.0456 5.27806 34.2867C4.03242 35.5277 3.32939 37.2119 3.32293 38.9702V127.125C3.35494 128.867 4.06923 130.526 5.31212 131.746C6.55501 132.966 8.22715 133.649 9.96877 133.649H36.1613C37.9174 133.649 39.6015 132.952 40.8433 131.71C42.0851 130.468 42.7827 128.784 42.7827 127.028V125.22C42.7789 123.12 43.4417 121.073 44.6755 119.374C45.9093 117.674 47.6505 116.411 49.6484 115.764C50.6508 115.44 51.6979 115.275 52.7515 115.275V118.598C52.0141 118.585 51.2796 118.692 50.5769 118.916C49.2534 119.37 48.1078 120.232 47.3045 121.378C46.5012 122.523 46.0815 123.894 46.1056 125.293V127.101C46.1056 129.738 45.0579 132.268 43.193 134.133C41.328 135.998 38.7987 137.045 36.1613 137.045Z" fill="#02B98D"/>
<path d="M88.5451 116.033V118.037L84.3181 118.256L71.7594 118.794L69.6826 118.892V115.007L71.7594 115.129L84.3181 115.813L88.5451 116.033Z" fill="#648FFF"/>
<path d="M127.199 6.64502H41.4138C28.5674 6.64502 18.1533 17.0591 18.1533 29.9055V69.7562C18.1533 82.6026 28.5674 93.0167 41.4138 93.0167H127.199C140.045 93.0167 150.46 82.6026 150.46 69.7562V29.9055C150.46 17.0591 140.045 6.64502 127.199 6.64502Z" fill="#02B98D"/>
<mask id="mask0_245_617" style="mask-type:luminance" maskUnits="userSpaceOnUse" x="18" y="6" width="133" height="88">
<path d="M127.175 6.64502H41.3894C28.543 6.64502 18.1289 17.0591 18.1289 29.9056V69.7562C18.1289 82.6026 28.543 93.0167 41.3894 93.0167H127.175C140.021 93.0167 150.435 82.6026 150.435 69.7562V29.9056C150.435 17.0591 140.021 6.64502 127.175 6.64502Z" fill="white"/>
</mask>
<g mask="url(#mask0_245_617)">
<path d="M84.2954 161.65C73.6137 161.655 63.1704 158.491 54.2868 152.56C45.4032 146.628 38.4784 138.195 34.3885 128.328C30.2985 118.46 29.2271 107.601 31.3098 97.1239C33.3925 86.6472 38.5358 77.0235 46.089 69.4703C53.6421 61.9171 63.2658 56.7739 73.7426 54.6912C84.2194 52.6084 95.0785 53.6798 104.946 57.7698C114.814 61.8598 123.247 68.7845 129.179 77.6681C135.11 86.5517 138.273 96.995 138.269 107.677C138.249 121.985 132.557 135.702 122.439 145.82C112.321 155.938 98.604 161.63 84.2954 161.65ZM84.2954 54.8032C73.838 54.8032 63.6155 57.9041 54.9204 63.7139C46.2254 69.5237 39.4485 77.7815 35.4466 87.4429C31.4447 97.1043 30.3976 107.735 32.4378 117.992C34.4779 128.248 39.5136 137.67 46.9081 145.064C54.3027 152.459 63.7238 157.494 73.9803 159.534C84.2368 161.575 94.8679 160.528 104.529 156.526C114.191 152.524 122.448 145.747 128.258 137.052C134.068 128.357 137.169 118.134 137.169 107.677C137.15 93.6598 131.573 80.2224 121.661 70.3109C111.75 60.3993 98.3124 54.8226 84.2954 54.8032Z" fill="white"/>
<path d="M84.2948 162.187C73.5129 162.163 62.9802 158.944 54.0275 152.936C45.0748 146.927 38.104 138.4 33.9958 128.432C29.8876 118.463 28.8265 107.501 30.9465 96.9294C33.0665 86.358 38.2725 76.6523 45.9066 69.0386C53.5408 61.4249 63.2605 56.245 73.8375 54.1534C84.4145 52.0618 95.3742 53.1523 105.332 57.2873C115.289 61.4222 123.797 68.416 129.781 77.3848C135.766 86.3536 138.957 96.8949 138.952 107.677C138.942 114.845 137.521 121.941 134.769 128.56C132.017 135.178 127.988 141.19 122.913 146.252C117.838 151.314 111.815 155.326 105.189 158.061C98.5626 160.795 91.4628 162.197 84.2948 162.187ZM84.2948 55.3651C73.9444 55.3458 63.8208 58.3973 55.2054 64.1337C46.5899 69.87 39.8698 78.0332 35.8955 87.5901C31.9211 97.1471 30.8712 107.668 32.8786 117.822C34.8861 127.976 39.8605 137.306 47.1725 144.632C54.4846 151.958 63.8054 156.95 73.9555 158.976C84.1057 161.002 94.6288 159.972 104.193 156.016C113.758 152.059 121.933 145.354 127.686 136.75C133.438 128.145 136.509 118.027 136.509 107.677C136.47 93.8407 130.956 80.5823 121.173 70.7987C111.389 61.015 98.1309 55.5015 84.2948 55.4628V55.3651ZM84.2948 54.2412C98.4586 54.2606 112.036 59.8974 122.049 69.915C132.062 79.9326 137.693 93.513 137.706 107.677C137.858 100.565 136.589 93.4944 133.972 86.8796C131.356 80.2649 127.445 74.2392 122.469 69.1557C117.493 64.0723 111.552 60.0335 104.995 57.2762C98.4378 54.5189 91.396 53.0986 84.2826 53.0986C77.1691 53.0986 70.1273 54.5189 63.57 57.2762C57.0127 60.0335 51.0719 64.0723 46.0961 69.1557C41.1202 74.2392 37.2094 80.2649 34.5929 86.8796C31.9765 93.4944 30.7071 100.565 30.8592 107.677C30.8721 93.5087 36.5061 79.9247 46.5244 69.9064C56.5427 59.8881 70.1267 54.2541 84.2948 54.2412Z" fill="white"/>
<path d="M35.1119 89.6694C35.1119 89.6694 35.1119 89.9382 34.892 90.2069L34.721 90.7689L28.124 88.4966L28.3195 87.8614C28.3889 87.6611 28.4705 87.4652 28.5638 87.2749L35.1119 89.6694Z" fill="white"/>
<path d="M38.0434 83.17L37.5059 84.1718L31.2754 81.0444L31.8862 79.896L38.0434 83.17Z" fill="white"/>
<path d="M41.7326 77.1356L41.1217 78.0884L35.3555 74.1302L36.064 73.0552L41.7326 77.1356Z" fill="white"/>
<path d="M46.2762 71.6869L45.4699 72.4932L40.29 67.8264L41.1941 66.8979L46.2762 71.6869Z" fill="white"/>
<path d="M51.48 66.8732L50.6004 67.6063L42.1465 57.613L43.246 56.6846L51.48 66.8732Z" fill="white"/>
<path d="M52.3353 66.1405L51.4801 66.8735L43.2461 56.6848L44.3456 55.7563L52.3353 66.1405Z" fill="white"/>
<path d="M58.2487 62.2553L57.247 62.7928L53.6309 56.8066L54.7792 56.1958L58.2487 62.2553Z" fill="white"/>
<path d="M64.6007 59.1525L63.55 59.5923L60.7891 53.1908L61.9863 52.6777L64.6007 59.1525Z" fill="white"/>
<path d="M71.3217 56.9047L70.2222 57.2223L68.3408 50.5765L68.9761 50.381C69.1758 50.3173 69.38 50.2682 69.5869 50.2344L71.3217 56.9047Z" fill="white"/>
<path d="M78.3093 55.6827L77.1609 55.8048L76.208 48.8658L77.503 48.7437L78.3093 55.6827Z" fill="white"/>
<path d="M85.3691 55.3164H84.2207L84.1963 42.2447L85.6379 42.2202L85.3691 55.3164Z" fill="white"/>
<path d="M86.5185 55.3164H85.3701L85.6389 42.2202H87.056L86.5185 55.3164Z" fill="white"/>
<path d="M93.5546 56.1228L92.4307 55.9029L93.5057 48.9883L94.7763 49.2571L93.5546 56.1228Z" fill="white"/>
<path d="M100.396 57.8332L99.3213 57.5156L101.325 50.8208L102.571 51.2117L100.396 57.8332Z" fill="white"/>
<path d="M106.993 60.3501L106.48 60.0813L105.942 59.8614L108.826 53.5088L109.436 53.7531L110.023 54.0463L106.993 60.3501Z" fill="white"/>
<path d="M113.126 63.9655L112.173 63.3547L115.887 57.4419L116.962 58.1504L113.126 63.9655Z" fill="white"/>
<path d="M118.794 68.2419L117.89 67.5333L126.295 57.4668L127.394 58.3708L118.794 68.2419Z" fill="white"/>
<path d="M119.625 68.999L119.234 68.6081C119.098 68.4732 118.951 68.3506 118.794 68.2416L127.394 58.4683C127.583 58.6119 127.762 58.7669 127.932 58.9325L128.445 59.4211L119.625 68.999Z" fill="white"/>
<path d="M124.511 74.1303L123.778 73.2751L129.031 68.6816L129.862 69.659L124.511 74.1303Z" fill="white"/>
<path d="M128.714 79.8231L128.055 78.8946L133.894 75.0586L134.627 76.1337L128.714 79.8231Z" fill="white"/>
<path d="M132.014 86.1023L131.574 85.0272L137.854 82.022L138.367 83.2192L132.014 86.1023Z" fill="white"/>
<path d="M134.481 92.7242L134.139 91.6247L140.785 89.499L141.175 90.7451L134.481 92.7242Z" fill="white"/>
<path d="M81.5833 83.9527L85.2238 107.922L76.1835 85.4188L72.543 61.4497L81.5833 83.9527Z" fill="#C1272D"/>
</g>
<path d="M127.2 0H41.3907C33.4653 0.00645919 25.8659 3.15605 20.2595 8.75789C14.6531 14.3597 11.4973 21.9565 11.4844 29.8819V69.7571C11.4973 77.6825 14.6531 85.2793 20.2595 90.8811C25.8659 96.483 33.4653 99.6325 41.3907 99.6389H127.2C135.126 99.6325 142.725 96.483 148.332 90.8811C153.938 85.2793 157.094 77.6825 157.107 69.7571V29.8819C157.094 21.9565 153.938 14.3597 148.332 8.75789C142.725 3.15605 135.126 0.00645919 127.2 0ZM143.839 69.7571C143.833 74.1593 142.08 78.379 138.965 81.4896C135.849 84.6001 131.627 86.3473 127.225 86.3473H41.3907C36.9885 86.3473 32.7662 84.6001 29.651 81.4896C26.5359 78.379 24.7826 74.1593 24.7761 69.7571V29.8819C24.7826 25.4797 26.5359 21.26 29.651 18.1494C32.7662 15.0389 36.9885 13.2917 41.3907 13.2917H127.2C131.603 13.2917 135.825 15.0389 138.94 18.1494C142.055 21.26 143.809 25.4797 143.815 29.8819L143.839 69.7571Z" fill="#648FFF"/>
<path d="M161.162 63.5757H151.193V69.7573H161.162V63.5757Z" fill="#02B98D"/>
<path d="M85.371 40.0461H80.7042V39.0443L82.3901 37.3584C82.8788 36.8453 83.1964 36.5032 83.3674 36.2833C83.4959 36.1185 83.6026 35.9378 83.6851 35.7458C83.7199 35.5765 83.7199 35.402 83.6851 35.2327C83.6927 35.1212 83.6772 35.0093 83.6393 34.9042C83.6014 34.799 83.5421 34.7029 83.4652 34.6219C83.2998 34.4879 83.0914 34.4185 82.8788 34.4264C82.6176 34.4335 82.3602 34.4916 82.1213 34.5974C81.8472 34.734 81.5924 34.9066 81.3639 35.1106L80.582 34.2065C80.8313 33.9746 81.1107 33.7773 81.4128 33.6201C81.632 33.4911 81.8716 33.4002 82.1213 33.3514C82.405 33.3113 82.6928 33.3113 82.9765 33.3514C83.3546 33.3435 83.7299 33.4186 84.076 33.5713C84.384 33.7063 84.6469 33.9267 84.8334 34.2065C85.0099 34.4929 85.103 34.823 85.1022 35.1594C85.0969 35.4524 85.039 35.7421 84.9312 36.0146C84.8178 36.3232 84.6432 36.6057 84.4181 36.8453C84.0597 37.2906 83.6588 37.6997 83.2208 38.067L82.3657 38.8732H85.2732L85.371 40.0461Z" fill="white"/>
<path d="M90.6943 36.6982C90.7596 37.6005 90.5555 38.5019 90.1079 39.2881C89.9145 39.5699 89.6497 39.7953 89.3407 39.9413C89.0316 40.0873 88.6893 40.1485 88.3487 40.1188C88.0072 40.1362 87.6668 40.0669 87.3592 39.9174C87.0516 39.7678 86.7869 39.543 86.5895 39.2637C86.2034 38.4549 86.0029 37.57 86.0029 36.6737C86.0029 35.7775 86.2034 34.8926 86.5895 34.0838C86.7818 33.7993 87.0457 33.5705 87.3545 33.4203C87.6633 33.2702 88.0062 33.2041 88.3487 33.2286C88.6929 33.2116 89.0355 33.2836 89.3437 33.4377C89.6519 33.5918 89.9151 33.8228 90.1079 34.1083C90.5475 34.8976 90.751 35.7965 90.6943 36.6982ZM87.4203 36.6982C87.4016 37.2603 87.4759 37.8217 87.6402 38.3596C87.683 38.5145 87.7756 38.651 87.9036 38.7481C88.0316 38.8452 88.188 38.8976 88.3487 38.8972C88.5075 38.8902 88.6603 38.835 88.7869 38.7389C88.9135 38.6429 89.0078 38.5106 89.0573 38.3596C89.2326 37.7905 89.307 37.1952 89.2772 36.6004C89.3084 35.9976 89.234 35.394 89.0573 34.8168C89.0078 34.6658 88.9135 34.5335 88.7869 34.4375C88.6603 34.3414 88.5075 34.2862 88.3487 34.2792C88.189 34.2827 88.0345 34.3365 87.9073 34.4331C87.78 34.5296 87.6865 34.6639 87.6402 34.8168C87.4519 35.4251 87.3773 36.0629 87.4203 36.6982Z" fill="white"/>
<path d="M131.843 49.2329C131.856 49.6282 131.716 50.0132 131.452 50.308C131.177 50.6147 130.807 50.8209 130.402 50.8944C130.854 50.9092 131.286 51.0821 131.623 51.383C131.763 51.5185 131.873 51.6823 131.945 51.8635C132.016 52.0447 132.048 52.2391 132.039 52.4337C132.052 52.7211 131.994 53.0073 131.87 53.2671C131.747 53.527 131.561 53.7525 131.33 53.9241C130.742 54.3242 130.036 54.5136 129.327 54.4616C128.667 54.4792 128.01 54.3628 127.396 54.1196V53.0201C127.671 53.1591 127.957 53.2737 128.252 53.3622C128.556 53.4372 128.867 53.4781 129.18 53.4843C129.546 53.503 129.91 53.4183 130.231 53.24C130.341 53.1491 130.428 53.0326 130.483 52.9006C130.539 52.7686 130.561 52.6251 130.548 52.4825C130.557 52.3456 130.528 52.209 130.463 52.088C130.398 51.9671 130.301 51.8667 130.182 51.7984C129.784 51.65 129.36 51.5835 128.936 51.603H128.447V50.5767H128.96C129.348 50.6028 129.735 50.527 130.084 50.3569C130.205 50.2908 130.304 50.1909 130.369 50.0694C130.435 49.9479 130.463 49.8101 130.451 49.6727C130.451 49.1596 130.133 48.9153 129.498 48.9153C129.279 48.8797 129.057 48.8797 128.838 48.9153C128.565 49.0002 128.308 49.1326 128.081 49.3062L127.421 48.3289C128.057 47.8826 128.819 47.6514 129.595 47.6692C130.171 47.6381 130.742 47.783 131.233 48.0846C131.422 48.2103 131.576 48.381 131.683 48.5815C131.79 48.782 131.845 49.0059 131.843 49.2329Z" fill="white"/>
<path d="M137.415 51.0894C137.47 51.988 137.275 52.8842 136.853 53.6793C136.652 53.9595 136.382 54.1832 136.07 54.3288C135.758 54.4743 135.413 54.5367 135.069 54.51C134.73 54.5327 134.392 54.4656 134.087 54.3154C133.782 54.1653 133.523 53.9375 133.334 53.6549C132.957 52.8438 132.761 51.9598 132.761 51.065C132.761 50.1702 132.957 49.2862 133.334 48.4751C133.542 48.2063 133.809 47.9886 134.114 47.8389C134.419 47.6892 134.754 47.6113 135.094 47.6113C135.433 47.6113 135.769 47.6892 136.074 47.8389C136.378 47.9886 136.645 48.2063 136.853 48.4751C137.289 49.2741 137.484 50.182 137.415 51.0894ZM134.141 51.0894C134.111 51.6841 134.185 52.2795 134.361 52.8486C134.4 53.0056 134.491 53.1446 134.62 53.2424C134.749 53.3402 134.907 53.3909 135.069 53.3861C135.229 53.3827 135.383 53.3288 135.511 53.2323C135.638 53.1358 135.731 53.0015 135.778 52.8486C135.953 52.2795 136.028 51.6841 135.998 51.0894C136.029 50.4866 135.954 49.883 135.778 49.3058C135.731 49.1529 135.638 49.0186 135.511 48.9221C135.383 48.8256 135.229 48.7717 135.069 48.7683C134.91 48.7753 134.758 48.8304 134.631 48.9264C134.504 49.0225 134.41 49.1548 134.361 49.3058C134.159 49.8786 134.06 50.4823 134.067 51.0894H134.141Z" fill="white"/>
<path d="M38.0671 54.4364H36.65V49.2322L36.1613 49.6964L35.3794 50.3072L34.6953 49.4521L36.8454 47.7417H38.0182L38.0671 54.4364Z" fill="white"/>
<path d="M44.5674 51.0893C44.6326 51.9916 44.4286 52.893 43.981 53.6792C43.7705 53.9438 43.503 54.1576 43.1984 54.3046C42.8938 54.4515 42.56 54.5277 42.2218 54.5277C41.8836 54.5277 41.5498 54.4515 41.2452 54.3046C40.9406 54.1576 40.6731 53.9438 40.4626 53.6792C40.0764 52.8704 39.876 51.9855 39.876 51.0893C39.876 50.193 40.0764 49.3081 40.4626 48.4993C40.6549 48.2148 40.9187 47.986 41.2275 47.8359C41.5364 47.6857 41.8793 47.6196 42.2218 47.6442C42.5656 47.6295 42.9074 47.7026 43.2152 47.8564C43.5229 48.0103 43.7865 48.24 43.981 48.5238C44.416 49.306 44.6193 50.1958 44.5674 51.0893ZM41.2933 51.0893C41.2635 51.684 41.3379 52.2794 41.5132 52.8485C41.5561 53.0033 41.6486 53.1399 41.7767 53.237C41.9047 53.3341 42.0611 53.3865 42.2218 53.386C42.3805 53.379 42.5334 53.3239 42.66 53.2278C42.7865 53.1318 42.8809 52.9994 42.9304 52.8485C43.1057 52.2794 43.1801 51.684 43.1503 51.0893C43.1814 50.4864 43.107 49.8829 42.9304 49.3057C42.8809 49.1547 42.7865 49.0223 42.66 48.9263C42.5334 48.8303 42.3805 48.7751 42.2218 48.7681C42.0621 48.7716 41.9076 48.8254 41.7803 48.922C41.653 49.0185 41.5596 49.1528 41.5132 49.3057C41.3117 49.8784 41.2125 50.4821 41.22 51.0893H41.2933Z" fill="white"/>
<path d="M64.5514 120.137L50.1602 119.013V114.86L64.5514 113.76V120.137Z" fill="#02B98D"/>
<path d="M71.759 113.077H62.7676V120.822H71.759V113.077Z" fill="#02B98D"/>
<g style="mix-blend-mode:multiply" opacity="0.5">
<path d="M161.161 63.5755V69.7571H157.105C157.092 77.6825 153.936 85.2793 148.33 90.8811C142.724 96.483 135.124 99.6325 127.199 99.6389H84.3184V0H127.199C135.124 0.00645919 142.724 3.15605 148.33 8.75789C153.936 14.3597 157.092 21.9565 157.105 29.8819V63.5755H161.161Z" fill="#02B98D"/>
</g>
</svg>
