<svg width="1025" height="640" viewBox="0 0 1025 640" fill="none" xmlns="http://www.w3.org/2000/svg">
<mask id="mask0_286_264" style="mask-type:luminance" maskUnits="userSpaceOnUse" x="0" y="0" width="1025" height="640">
<path d="M1024.97 0H0V639.75H1024.97V0Z" fill="white"/>
</mask>
<g mask="url(#mask0_286_264)">
<path d="M505.056 -69.0298C505.056 -69.0298 452.416 -1.68978 467.126 55.2702C481.836 112.23 514.346 141.41 497.316 200.34C480.286 259.27 430.736 254.21 421.446 319.87C412.156 385.53 441.576 410.78 422.976 456.24C404.376 501.7 291.376 523.58 319.246 688.56H1085.65V-68.1898L505.056 -69.0298Z" fill="#004B91"/>
<path d="M519.206 118.96C526.886 118.96 533.136 112.17 533.136 103.81C533.136 95.4504 526.886 88.6904 519.206 88.6904C511.526 88.6904 505.266 95.4904 505.266 103.84C505.266 112.19 511.526 118.99 519.206 118.99M519.206 95.4204C523.476 95.4204 526.946 99.2004 526.946 103.84C526.946 108.48 523.476 112.26 519.206 112.26C514.936 112.26 511.466 108.48 511.466 103.84C511.466 99.2004 514.936 95.4204 519.206 95.4204Z" fill="#7BD0E2"/>
<path d="M788.396 44.8901C781.276 44.8901 775.496 51.1801 775.496 58.8901C775.496 66.6001 781.276 72.8901 788.396 72.8901C795.516 72.8901 801.296 66.6001 801.296 58.8901C801.296 51.1801 795.506 44.8901 788.396 44.8901ZM788.396 66.2201C784.696 66.2201 781.686 62.9401 781.686 58.9201C781.686 54.9001 784.686 51.6201 788.396 51.6201C792.106 51.6201 795.106 54.9001 795.106 58.9201C795.106 62.9401 792.106 66.2201 788.396 66.2201Z" fill="#7BD0E2"/>
<path d="M1028.38 314.82C1016.15 314.82 1006.19 325.64 1006.19 338.95C1006.19 352.26 1016.19 363.08 1028.38 363.08C1040.57 363.08 1050.57 352.25 1050.57 338.95C1050.57 325.65 1040.62 314.82 1028.38 314.82ZM1028.38 356.35C1019.56 356.35 1012.38 348.54 1012.38 338.95C1012.38 329.36 1019.56 321.55 1028.38 321.55C1037.2 321.55 1044.38 329.36 1044.38 338.95C1044.38 348.54 1037.2 356.35 1028.38 356.35Z" fill="#7BD0E2"/>
<path d="M241.196 554.96C228.676 554.96 218.486 566.04 218.486 579.65C218.486 593.26 228.676 604.35 241.196 604.35C253.716 604.35 263.906 593.27 263.906 579.65C263.906 566.03 253.716 554.96 241.196 554.96ZM241.196 597.61C232.096 597.61 224.686 589.61 224.686 579.61C224.686 569.61 232.096 561.61 241.196 561.61C250.296 561.61 257.716 569.61 257.716 579.61C257.716 589.61 250.306 597.61 241.196 597.61Z" fill="#7BD0E2"/>
<path d="M746.076 194.69H708.396C707.834 194.703 707.286 194.869 706.812 195.17C706.338 195.472 705.955 195.897 705.706 196.4C705.427 196.922 705.282 197.504 705.282 198.095C705.282 198.687 705.427 199.269 705.706 199.79L724.286 233.46C724.533 233.947 724.909 234.357 725.373 234.646C725.836 234.935 726.37 235.092 726.916 235.1C727.458 235.092 727.988 234.939 728.452 234.658C728.916 234.377 729.297 233.977 729.556 233.5L748.646 199.83C748.938 199.312 749.097 198.729 749.109 198.134C749.121 197.539 748.986 196.951 748.716 196.42C748.469 195.911 748.086 195.48 747.609 195.175C747.133 194.87 746.582 194.702 746.016 194.69M726.976 225.28L713.826 201.46H740.486L726.976 225.28Z" fill="#7BD0E2"/>
<path d="M371.636 354.02C371.361 353.711 371.024 353.463 370.646 353.294C370.269 353.124 369.86 353.037 369.446 353.037C369.032 353.037 368.623 353.124 368.246 353.294C367.868 353.463 367.531 353.711 367.256 354.02L349.456 373.39C348.871 374.045 348.547 374.892 348.547 375.77C348.547 376.648 348.871 377.496 349.456 378.15L367.256 397.51C367.532 397.819 367.869 398.067 368.246 398.239C368.623 398.412 369.032 398.504 369.446 398.51C369.861 398.507 370.271 398.417 370.648 398.245C371.025 398.072 371.362 397.822 371.636 397.51L389.446 378.15C390.031 377.496 390.355 376.648 390.355 375.77C390.355 374.892 390.031 374.045 389.446 373.39L371.636 354.02ZM369.446 390.37L356.026 375.77L369.446 361.16L382.876 375.77L369.446 390.37Z" fill="#7BD0E2"/>
<path d="M965.076 101.19L941.556 91.4102C941.18 91.2489 940.773 91.1707 940.364 91.1811C939.955 91.1914 939.553 91.2901 939.186 91.4702C938.416 91.8576 937.83 92.5332 937.556 93.3502L928.556 118.92C928.248 119.736 928.26 120.638 928.59 121.445C928.921 122.252 929.544 122.904 930.336 123.27L953.856 133.06C954.208 133.205 954.585 133.28 954.966 133.28C955.612 133.265 956.238 133.049 956.756 132.662C957.274 132.275 957.658 131.736 957.856 131.12L966.856 105.54C967.152 104.702 967.13 103.784 966.796 102.96C966.475 102.169 965.858 101.534 965.076 101.19ZM953.176 125.57L935.446 118.19L942.226 98.9002L959.966 106.28L953.176 125.57Z" fill="#7BD0E2"/>
<path d="M353.836 312.57C354.25 312.564 354.658 312.472 355.035 312.3C355.412 312.128 355.749 311.879 356.026 311.57L372.546 293.57C373.131 292.916 373.455 292.069 373.455 291.19C373.455 290.312 373.131 289.465 372.546 288.81C372.272 288.5 371.935 288.251 371.557 288.08C371.179 287.91 370.77 287.822 370.356 287.822C369.941 287.822 369.532 287.91 369.154 288.08C368.777 288.251 368.44 288.5 368.166 288.81L351.646 306.76C351.066 307.419 350.746 308.267 350.746 309.145C350.746 310.023 351.066 310.871 351.646 311.53C351.922 311.839 352.259 312.088 352.636 312.26C353.013 312.432 353.421 312.524 353.836 312.53" fill="#7BD0E2"/>
<path d="M699.366 53.3201L675.626 82.5001C675.08 83.1891 674.807 84.0541 674.856 84.9314C674.906 85.8086 675.276 86.6372 675.896 87.2601C676.191 87.5489 676.544 87.7723 676.932 87.9155C677.32 88.0587 677.733 88.1186 678.145 88.0912C678.558 88.0638 678.96 87.9498 679.325 87.7567C679.69 87.5635 680.011 87.2955 680.266 86.9701L703.976 57.7801C704.527 57.0953 704.804 56.2306 704.754 55.3531C704.704 54.4757 704.331 53.648 703.706 53.0301C703.411 52.7397 703.058 52.5151 702.67 52.371C702.282 52.2269 701.868 52.1665 701.455 52.1939C701.043 52.2213 700.64 52.3358 700.275 52.5299C699.91 52.724 699.589 52.9933 699.336 53.3201" fill="#7BD0E2"/>
<path d="M654.366 32.04C654.117 31.7059 653.799 31.4288 653.434 31.2272C653.069 31.0256 652.666 30.9042 652.25 30.8711C651.835 30.838 651.417 30.8939 651.025 31.0351C650.633 31.1763 650.275 31.3996 649.976 31.69C649.347 32.3023 648.964 33.1245 648.902 34.0003C648.839 34.876 649.1 35.7443 649.636 36.44L662.026 52.15C662.274 52.4823 662.589 52.7582 662.952 52.9596C663.314 53.161 663.715 53.2832 664.128 53.3182C664.541 53.3531 664.957 53.3001 665.348 53.1625C665.739 53.0249 666.096 52.8059 666.396 52.52C667.026 51.9076 667.408 51.0844 667.469 50.208C667.529 49.3317 667.265 48.4636 666.726 47.77L654.366 32.04Z" fill="#7BD0E2"/>
<path d="M949.416 51.0602C949.86 51.0635 950.299 50.9607 950.696 50.7602L962.056 45.1502C962.82 44.731 963.401 44.0414 963.684 43.2165C963.967 42.3915 963.932 41.4905 963.586 40.6902C963.441 40.2996 963.217 39.9433 962.927 39.6441C962.638 39.3449 962.289 39.1092 961.904 38.9521C961.518 38.795 961.104 38.7199 960.687 38.7317C960.271 38.7434 959.862 38.8416 959.486 39.0202L948.136 44.6302C947.367 45.0459 946.783 45.7347 946.498 46.5605C946.213 47.3862 946.248 48.2889 946.596 49.0902C946.813 49.6666 947.197 50.1651 947.7 50.5214C948.202 50.8778 948.8 51.0759 949.416 51.0902" fill="#7BD0E2"/>
<path d="M994.026 592.02C993.767 591.698 993.444 591.433 993.076 591.245C992.708 591.056 992.305 590.947 991.892 590.925C991.479 590.904 991.067 590.97 990.681 591.119C990.296 591.268 989.946 591.497 989.656 591.79C989.043 592.42 988.682 593.253 988.644 594.13C988.605 595.008 988.89 595.869 989.445 596.55L999.766 608.9C1000.04 609.24 1000.39 609.515 1000.79 609.705C1001.18 609.895 1001.62 609.996 1002.06 610C1002.44 609.999 1002.83 609.921 1003.18 609.77C1003.54 609.619 1003.86 609.398 1004.14 609.12C1004.75 608.494 1005.11 607.662 1005.15 606.786C1005.19 605.909 1004.9 605.049 1004.35 604.37L994.026 592.02Z" fill="#7BD0E2"/>
<path d="M507.216 238.22C506.209 238.229 505.206 238.323 504.216 238.5C504.286 237.57 504.346 236.64 504.346 235.7C504.346 218.61 491.606 204.76 475.896 204.76C460.976 204.76 448.766 217.25 447.566 233.13C446.144 231.437 444.371 230.074 442.37 229.134C440.368 228.195 438.186 227.702 435.976 227.69C427.216 227.69 420.106 235.42 420.106 244.95C420.11 245.619 420.15 246.286 420.226 246.95C418.743 246.451 417.19 246.198 415.626 246.2C406.986 246.2 399.976 253.82 399.976 263.2C399.976 272.58 406.976 272.97 415.626 272.97H507.196C518.426 272.97 527.516 272.48 527.516 260.28C527.516 248.08 518.426 238.18 507.196 238.18" fill="#7BD0E2"/>
<path d="M1005.9 188.12C1003.62 188.12 1001.37 188.618 999.306 189.58C999.477 188.448 999.568 187.305 999.576 186.16C999.576 173.79 990.346 163.75 978.966 163.75C969.326 163.75 961.256 170.96 958.966 180.68C956.423 178.904 953.398 177.948 950.296 177.94C941.296 177.94 934.036 185.85 934.036 195.62C934.036 196.28 934.036 196.93 934.136 197.62C932.075 196.139 929.604 195.338 927.066 195.33C919.636 195.33 913.606 202.16 913.606 210.59C913.606 219.02 919.606 219.36 927.066 219.36H1003.32C1004.15 219.36 1004.99 219.36 1005.86 219.36C1015.51 219.36 1023.34 218.91 1023.34 207.97C1023.34 197.03 1015.51 188.16 1005.86 188.16" fill="#7BD0E2"/>
<path d="M495.116 600.15C495.116 589.05 487.426 579.91 477.446 578.43C476.188 575.681 474.263 573.29 471.846 571.474C469.429 569.658 466.596 568.474 463.606 568.03C464.767 564.651 465.361 561.103 465.366 557.53C465.366 540.65 452.586 526.96 436.816 526.96C433.057 526.985 429.343 527.779 425.904 529.294C422.464 530.809 419.371 533.013 416.816 535.77C412.226 531.774 406.352 529.562 400.266 529.54C399.656 529.54 399.056 529.6 398.456 529.64C395.336 517.64 385.096 508.88 372.916 508.88C358.646 508.88 347.036 520.96 346.446 536.09C343.706 535.174 340.835 534.707 337.946 534.71C322.176 534.71 309.396 548.4 309.396 565.28C309.386 570.487 310.642 575.617 313.056 580.23C304.576 581.84 298.136 589.75 298.136 599.29C298.134 601.183 298.394 603.068 298.906 604.89C290.346 607.52 284.066 615.96 284.066 625.98C284.066 638.11 293.246 647.98 304.566 647.98C307.85 647.948 311.076 647.111 313.962 645.542C316.847 643.973 319.304 641.72 321.116 638.98C321.756 650.98 331.006 660.49 342.366 660.49C350.956 660.49 358.366 655.03 361.716 647.19C372.945 649.475 384.377 650.615 395.836 650.59C416.026 650.59 434.666 647.21 449.786 641.51C452.376 650.98 460.536 657.91 470.226 657.91C481.986 657.91 491.536 647.69 491.536 635.09C491.573 629.116 489.339 623.35 485.286 618.96C488.355 616.9 490.863 614.108 492.585 610.837C494.306 607.565 495.186 603.917 495.146 600.22" fill="#187389"/>
<path d="M363.646 430.52C344.746 438.7 353.196 513.62 381.736 566.57C410.276 619.52 447.676 662.14 488.286 676.78C488.286 676.78 501.556 641.48 467.776 550.21C433.996 458.94 391.886 418.3 363.646 430.52Z" fill="#168983"/>
<path d="M392.396 449.9C392.956 449.97 391.926 461.39 386.626 474.35L386.106 475.52C386.006 475.67 385.976 475.99 385.806 476.01L385.206 475.96L383.506 475.79C382.706 475.72 381.936 475.58 381.166 475.48C379.626 475.24 378.166 474.94 376.766 474.62C374.307 474.046 371.886 473.321 369.516 472.45C365.516 470.96 363.116 469.6 363.246 469.27C363.376 468.94 365.896 469.67 369.986 470.68C371.986 471.19 374.476 471.76 377.196 472.27C378.566 472.51 379.996 472.76 381.476 472.96C382.226 473.04 382.976 473.16 383.746 473.22L384.416 473.27C389.536 460.78 391.646 449.71 392.416 449.9" fill="#0A4269"/>
<path d="M410.886 480.69C411.146 480.69 411.066 484.06 409.176 488.96C408.085 491.801 406.697 494.52 405.036 497.07C404.06 498.564 402.998 499.999 401.856 501.37L400.946 502.44L400.466 502.96L399.746 503.69C399.681 503.78 399.592 503.85 399.49 503.892C399.388 503.934 399.275 503.947 399.166 503.93H398.596L397.906 503.98L396.496 504.07C390.111 504.197 383.744 503.347 377.616 501.55C372.926 500.19 370.176 498.85 370.276 498.55C370.376 498.25 373.276 498.91 377.986 499.79C384.051 501.014 390.229 501.587 396.416 501.5L398.516 501.37L399.226 500.63L400.096 499.63C401.236 498.31 402.276 496.96 403.216 495.63C404.891 493.268 406.362 490.77 407.616 488.16C409.816 483.68 410.486 480.56 410.886 480.66" fill="#0A4269"/>
<path d="M430.186 501.13C430.436 501.18 429.946 505.44 427.356 511.71C425.838 515.356 423.969 518.846 421.776 522.13C420.5 524.057 419.125 525.917 417.656 527.7C416.896 528.63 416.096 529.56 415.246 530.46L414.596 531.13L413.796 531.93C413.476 532.53 412.626 532.31 412.306 532.35H411.406C403.138 532.329 394.893 531.501 386.786 529.88C380.566 528.62 376.786 527.31 376.916 526.96C377.046 526.61 380.826 527.28 387.046 528.06C395.123 529.131 403.259 529.692 411.406 529.74H412.406L413.516 528.61C414.326 527.75 415.106 526.87 415.856 526C417.336 524.23 418.716 522.46 419.936 520.7C422.14 517.591 424.093 514.31 425.776 510.89C428.686 505.02 429.776 501 430.156 501.12" fill="#0A4269"/>
<path d="M445.666 534.07C445.906 534.07 445.666 538.4 443.296 544.8C441.897 548.523 440.057 552.065 437.816 555.35C436.521 557.287 435.08 559.123 433.506 560.84C432.678 561.755 431.803 562.626 430.886 563.45L430.486 563.8C430.292 564.025 430.021 564.168 429.726 564.2L428.726 564.4L426.936 564.75C418.723 566.222 410.319 566.283 402.086 564.93C395.786 563.93 392.086 562.39 392.156 562.05C392.226 561.71 396.056 562.54 402.286 563.05C410.367 563.839 418.517 563.532 426.516 562.14L428.256 561.8L429.036 561.64L429.316 561.4C430.176 560.65 430.996 559.82 431.776 559C433.291 557.387 434.694 555.673 435.976 553.87C438.211 550.789 440.121 547.485 441.676 544.01C444.376 538.01 445.216 533.91 445.676 534.01" fill="#0A4269"/>
<path d="M459.976 567C460.206 567 460.436 570.86 458.256 576.45C457.011 579.68 455.375 582.747 453.386 585.58C452.246 587.247 451.011 588.846 449.686 590.37C449.019 591.163 448.299 591.943 447.526 592.71L446.356 593.85L445.546 594.59C445.366 594.82 445.046 594.72 444.826 594.8L444.386 594.86C437.238 596.009 429.961 596.104 422.786 595.14C417.276 594.34 414.036 592.97 414.146 592.61C414.256 592.25 417.536 592.99 422.956 593.31C430.001 593.721 437.071 593.385 444.046 592.31H444.396L444.756 591.97L445.866 590.89C446.596 590.17 447.286 589.43 447.956 588.68C449.249 587.251 450.468 585.756 451.606 584.2C453.576 581.563 455.278 578.736 456.686 575.76C459.156 570.65 459.536 566.99 459.976 567.07" fill="#0A4269"/>
<path d="M471.796 602.95C472.086 603.05 471.626 605.88 470.156 610.25C469.29 612.809 468.226 615.296 466.976 617.69C466.217 619.107 465.372 620.477 464.446 621.79C463.941 622.487 463.397 623.155 462.816 623.79C462.507 624.147 462.173 624.481 461.816 624.79C461.306 625.48 460.226 625.39 460.006 625.41C454.388 625.877 448.736 625.747 443.146 625.02C438.846 624.41 436.286 623.35 436.386 623.02C436.486 622.69 439.066 623.09 443.306 623.23C448.822 623.4 454.343 623.276 459.846 622.86C460.426 622.81 460.226 622.86 460.286 622.86C460.546 622.63 460.816 622.36 461.076 622.08C461.598 621.518 462.089 620.927 462.546 620.31C463.437 619.107 464.264 617.859 465.026 616.57C466.315 614.317 467.49 612.001 468.546 609.63C470.386 605.54 471.426 602.92 471.766 603.05" fill="#0A4269"/>
<path d="M371.286 445.16C371.436 444.91 373.726 449.32 377.586 457.16C381.446 465 387.116 476.31 393.796 489.71C407.246 516.6 425.306 552.22 443.086 587.14C460.866 622.06 469.976 640.031 474.376 649.34C478.776 658.65 478.666 659.34 478.236 659.56C477.806 659.78 477.236 659.56 472.176 650.63C467.116 641.7 457.766 623.92 439.976 588.99C422.186 554.06 404.546 518.62 391.676 491.6C385.246 478.09 380.026 466.67 376.456 458.54C372.886 450.41 371.066 445.54 371.286 445.16Z" fill="#0A4269"/>
<path d="M518.436 664.69C518.436 664.69 553.496 634.92 553.016 588.05C552.616 548.88 526.076 537.68 526.076 537.68C526.076 537.68 543.366 504.53 517.236 480.85C517.236 480.85 529.296 435.65 501.146 428.33C501.146 428.33 503.966 390.88 478.236 390.88C478.236 390.88 479.036 344.81 444.866 350.4C419.536 355.14 428.776 397.76 428.776 397.76C428.776 397.76 405.056 417.14 422.346 450.76C422.346 450.76 399.826 469.27 431.186 498.97C431.186 498.97 409.476 533.42 445.666 563.13C445.666 563.13 406.266 632.87 518.436 664.73" fill="#168983"/>
<path d="M491.436 576.29C481.906 536.95 474.216 497.22 465.576 457.66C457.826 422.14 449.186 386.75 443.846 350.66C419.846 356.36 428.776 397.77 428.776 397.77C428.776 397.77 405.056 417.15 422.346 450.77C422.346 450.77 399.826 469.28 431.186 498.98C431.186 498.98 409.476 533.43 445.666 563.14C445.666 563.14 407.176 631.29 514.666 663.63C506.259 634.723 498.516 605.61 491.436 576.29Z" fill="#187389"/>
<path d="M464.166 376.06C464.756 376.4 461.166 384.79 456.166 394.8C455.776 395.57 455.406 396.33 455.026 397.07L450.666 395.16L447.566 393.74C445.566 392.82 443.846 391.97 442.396 391.22C439.486 389.72 437.766 388.65 437.886 388.33C438.006 388.01 439.946 388.51 443.016 389.57C444.546 390.1 446.366 390.78 448.376 391.57L453.916 393.81C453.916 393.81 453.866 393.89 454.016 393.58C459.016 383.58 463.526 375.73 464.126 376.07" fill="#0A4269"/>
<path d="M470.496 402.22C470.786 402.35 470.026 405.13 468.546 409.58C467.806 411.81 466.886 414.45 465.816 417.38C465.286 418.85 464.716 420.38 464.126 421.98L461.736 428.29L458.796 426.49C446.106 418.7 436.086 411.88 436.416 411.26C436.746 410.64 447.306 416.44 459.996 424.26L460.556 424.6C461.706 421.72 462.806 419 463.806 416.52C464.986 413.64 466.076 411.07 467.016 408.94C468.896 404.66 470.196 402.12 470.496 402.25" fill="#0A4269"/>
<path d="M482.856 436.12C483.126 436.29 481.856 439.2 479.546 443.84C478.396 446.16 476.986 448.92 475.376 451.98C474.566 453.51 473.706 455.12 472.826 456.79L469.436 463.03L465.436 460.74C450.436 452.24 438.546 444.83 438.866 444.19C439.186 443.55 451.576 449.94 466.566 458.44C467.566 458.98 468.996 459.82 468.566 459.59C470.336 456.45 472.026 453.49 473.566 450.81C475.286 447.81 476.856 445.16 478.196 442.96C480.876 438.55 482.636 435.96 482.906 436.12" fill="#0A4269"/>
<path d="M493.716 474.22C493.996 474.39 492.556 477.86 489.976 483.39C488.686 486.15 487.106 489.39 485.316 493.06L478.826 505.99L476.106 504.47C467.816 499.82 460.386 495.47 455.106 492.23C449.826 488.99 446.566 486.81 446.716 486.49C446.866 486.17 450.376 487.77 455.906 490.6C461.436 493.43 468.996 497.52 477.276 502.16L477.706 502.4L477.896 502.5L483.436 491.92C485.336 488.35 487.076 485.17 488.556 482.52C491.556 477.21 493.476 474.05 493.766 474.21" fill="#0A4269"/>
<path d="M506.076 519.75C506.326 519.94 504.616 523.05 501.596 528C500.086 530.47 498.246 533.4 496.166 536.67L488.736 548.1L484.106 546.34C475.106 542.9 466.936 539.65 461.106 537.18C455.276 534.71 451.706 533 451.816 532.66C451.926 532.32 455.696 533.41 461.686 535.45C467.676 537.49 475.906 540.45 484.936 543.88L487.846 545C490.196 541.55 492.416 538.28 494.436 535.33C496.626 532.15 498.606 529.33 500.296 526.99C503.666 522.31 505.846 519.56 506.096 519.75" fill="#0A4269"/>
<path d="M519.646 550.1C519.926 550.3 518.006 553.94 514.646 559.67C511.286 565.4 506.576 573.21 501.216 581.75L497.216 588.07L485.546 584.34L476.976 581.4C472.126 579.69 469.246 578.5 469.326 578.19C469.406 577.88 472.446 578.51 477.406 579.79L486.186 582.18L496.266 585.1C497.266 583.55 498.266 581.94 499.266 580.3C504.626 571.76 509.596 564.11 513.266 558.65C516.936 553.19 519.386 549.9 519.666 550.1" fill="#0A4269"/>
<path d="M448.486 368.32C448.576 368.19 449.016 369.61 449.756 372.39C450.496 375.17 451.516 379.27 452.756 384.54C455.316 395.07 458.866 410.2 463.056 428.3C471.326 464.61 482.286 512.75 493.056 559.99C503.826 607.23 508.986 631.58 511.476 644.08C513.966 656.58 513.666 657.28 513.196 657.41C512.726 657.54 512.196 657.05 509.036 644.71C505.876 632.37 500.266 608.18 489.606 560.88C478.946 513.58 468.366 465.81 460.606 429.67C456.736 411.6 453.546 396.44 451.406 385.67C449.266 374.9 448.156 368.67 448.406 368.28" fill="#0A4269"/>
<path d="M920.726 603.52C920.741 598.216 922.672 593.096 926.164 589.103C929.655 585.111 934.471 582.513 939.726 581.79C941.177 578.976 943.292 576.559 945.889 574.746C948.485 572.934 951.484 571.782 954.626 571.39C952.286 564.855 952.233 557.719 954.473 551.149C956.713 544.58 961.115 538.963 966.96 535.219C972.804 531.474 979.746 529.822 986.651 530.532C993.556 531.243 1000.02 534.274 1004.98 539.13C1010.04 535.097 1016.32 532.904 1022.79 532.91C1023.44 532.91 1024.09 532.97 1024.73 533.01C1026.55 526.469 1030.65 520.795 1036.29 517.006C1041.93 513.217 1048.73 511.563 1055.48 512.34C1062.22 513.117 1068.47 516.275 1073.1 521.246C1077.73 526.217 1080.43 532.675 1080.73 539.46C1085.32 538.034 1090.18 537.705 1094.92 538.498C1099.66 539.291 1104.15 541.185 1108.03 544.027C1111.9 546.87 1115.06 550.581 1117.24 554.864C1119.43 559.148 1120.57 563.883 1120.6 568.69C1120.61 573.947 1119.25 579.117 1116.66 583.69C1119.36 584.156 1121.93 585.191 1124.2 586.725C1126.47 588.26 1128.38 590.259 1129.82 592.59C1131.26 594.922 1132.19 597.533 1132.54 600.25C1132.9 602.967 1132.67 605.728 1131.88 608.35C1135.25 609.312 1138.35 611.068 1140.91 613.471C1143.47 615.874 1145.41 618.854 1146.59 622.163C1147.76 625.473 1148.12 629.014 1147.65 632.492C1147.17 635.971 1145.87 639.284 1143.85 642.157C1141.83 645.029 1139.15 647.377 1136.04 649.004C1132.93 650.63 1129.48 651.489 1125.97 651.508C1122.46 651.527 1118.99 650.706 1115.86 649.112C1112.74 647.519 1110.03 645.201 1107.99 642.35C1107.67 647.442 1105.66 652.283 1102.29 656.106C1098.91 659.929 1094.35 662.517 1089.34 663.458C1084.32 664.399 1079.14 663.641 1074.61 661.303C1070.07 658.965 1066.45 655.181 1064.31 650.55C1052.2 652.846 1039.91 653.988 1027.59 653.96C1005.87 653.96 985.806 650.58 969.586 644.88C968.615 648.238 966.889 651.329 964.54 653.917C962.191 656.505 959.281 658.521 956.033 659.811C952.784 661.101 949.284 661.631 945.799 661.36C942.315 661.089 938.938 660.024 935.929 658.247C932.919 656.47 930.356 654.028 928.435 651.108C926.515 648.188 925.288 644.867 924.848 641.399C924.409 637.932 924.769 634.41 925.9 631.103C927.031 627.796 928.904 624.792 931.376 622.32C928.143 620.377 925.468 617.631 923.609 614.349C921.75 611.068 920.771 607.362 920.766 603.59" fill="#187389"/>
<path d="M1062.2 433.89C1082.53 442.07 1073.44 516.98 1042.73 569.89C1012.02 622.8 971.726 665.47 928.076 680.11C928.076 680.11 913.806 644.81 950.146 553.54C986.486 462.27 1031.81 421.62 1062.15 433.85" fill="#168983"/>
<path d="M1011.36 484.05C1011.09 484.05 1011.17 487.42 1013.2 492.32C1014.38 495.177 1015.88 497.897 1017.66 500.43C1018.71 501.93 1019.85 503.366 1021.08 504.73L1022.08 505.79L1022.6 506.32L1023.37 507.05C1023.44 507.142 1023.54 507.213 1023.65 507.255C1023.76 507.297 1023.88 507.309 1024 507.29H1024.61L1025.35 507.34L1026.86 507.43C1033.71 507.56 1040.56 506.711 1047.18 504.91C1052.18 503.55 1055.18 502.21 1055.08 501.91C1054.98 501.61 1051.84 502.27 1046.78 503.15C1040.24 504.379 1033.6 504.955 1026.96 504.87L1024.69 504.74L1023.93 504L1022.99 503C1021.76 501.68 1020.65 500.33 1019.64 499C1017.85 496.647 1016.26 494.148 1014.9 491.53C1012.54 487.05 1011.81 483.93 1011.38 484.03" fill="#0A4269"/>
<path d="M990.596 504.5C990.326 504.55 990.846 508.81 993.646 515.08C995.289 518.747 997.299 522.238 999.646 525.5C1001.03 527.431 1002.5 529.291 1004.08 531.07C1004.9 532 1005.76 532.92 1006.67 533.83L1007.37 534.5L1008.23 535.3C1008.58 535.9 1009.49 535.67 1009.84 535.72H1010.84C1019.72 535.707 1028.59 534.883 1037.33 533.26C1044.01 532 1048.04 530.68 1047.95 530.34C1047.86 530 1043.74 530.65 1037.04 531.44C1028.34 532.506 1019.59 533.067 1010.84 533.12H1009.73L1008.53 531.99C1007.66 531.14 1006.82 530.26 1006.02 529.38C1004.42 527.61 1002.94 525.85 1001.62 524.09C999.26 520.996 997.159 517.715 995.336 514.28C992.206 508.41 991.056 504.38 990.626 504.51" fill="#0A4269"/>
<path d="M973.976 537.43C973.716 537.43 973.976 541.77 976.536 548.17C978.988 554.127 982.559 559.558 987.056 564.17C987.946 565.06 988.856 565.94 989.876 566.78L990.316 567.13C990.532 567.358 990.823 567.5 991.136 567.53L992.136 567.72L994.066 568.08C1002.91 569.552 1011.93 569.613 1020.8 568.26C1027.58 567.21 1031.59 565.72 1031.48 565.37C1031.37 565.02 1027.29 565.87 1020.58 566.43C1011.88 567.219 1003.12 566.913 994.506 565.52L992.636 565.17L991.806 565.02L991.516 564.78C990.576 564.03 989.706 563.2 988.856 562.37C987.232 560.767 985.722 559.053 984.336 557.24C981.941 554.186 979.886 550.879 978.206 547.38C975.306 541.38 974.396 537.29 973.956 537.38" fill="#0A4269"/>
<path d="M958.576 570.37C958.336 570.37 958.086 574.22 960.436 579.81C961.789 583.064 963.546 586.134 965.666 588.95C966.902 590.622 968.238 592.218 969.666 593.73C970.406 594.53 971.176 595.31 971.996 596.07L973.246 597.22L974.116 597.96C974.316 598.18 974.656 598.09 974.896 598.17L975.366 598.23C983.064 599.375 990.882 599.469 998.606 598.51C1004.54 597.71 1008.03 596.33 1007.91 595.98C1007.79 595.63 1004.26 596.36 998.426 596.67C990.848 597.086 983.247 596.751 975.736 595.67L975.356 595.62L974.966 595.29L973.776 594.21C972.996 593.49 972.246 592.74 971.526 592C970.138 590.577 968.826 589.082 967.596 587.52C965.485 584.9 963.652 582.068 962.126 579.07C959.476 573.96 959.066 570.31 958.586 570.39" fill="#0A4269"/>
<path d="M945.816 606.32C945.506 606.42 945.996 609.24 947.586 613.61C948.515 616.185 949.66 618.677 951.006 621.06C951.826 622.482 952.734 623.852 953.726 625.16C954.27 625.86 954.854 626.528 955.476 627.16C955.79 627.512 956.124 627.846 956.476 628.16C957.026 628.85 958.186 628.75 958.416 628.78C964.46 629.243 970.536 629.112 976.556 628.39C981.186 627.77 983.956 626.72 983.836 626.39C983.716 626.06 980.956 626.46 976.396 626.6C970.46 626.771 964.519 626.644 958.596 626.22C957.966 626.22 958.186 626.22 958.126 626.22C957.826 625.979 957.542 625.719 957.276 625.44C956.715 624.882 956.184 624.295 955.686 623.68C954.686 622.45 953.836 621.17 953.026 619.93C951.638 617.687 950.373 615.37 949.236 612.99C947.236 608.91 946.146 606.29 945.766 606.42" fill="#0A4269"/>
<path d="M1053.98 448.53C1053.81 448.27 1051.35 452.69 1047.19 460.53L1029.76 493.08C1015.28 519.97 995.846 555.59 976.756 590.51C957.666 625.43 947.866 643.37 943.096 652.67C938.326 661.97 938.486 662.67 938.946 662.9C939.406 663.13 940.076 662.9 945.456 653.97C950.836 645.04 960.966 627.26 980.106 592.33C999.246 557.4 1018.24 521.96 1032.11 494.93C1039.03 481.42 1044.65 470.01 1048.49 461.93C1052.33 453.85 1054.29 448.93 1054.06 448.55" fill="#0A4269"/>
<path d="M895.636 668.09C895.636 668.09 857.906 638.32 858.426 591.46C858.856 552.28 887.426 541.09 887.426 541.09C887.426 541.09 868.816 507.94 896.936 484.26C896.936 484.26 883.936 439.06 914.246 431.74C914.246 431.74 911.246 394.28 938.906 394.28C938.906 394.28 938.036 348.22 974.816 353.81C1002.07 358.55 992.116 401.17 992.116 401.17C992.116 401.17 1017.65 420.54 999.036 454.17C999.036 454.17 1023.27 472.68 989.526 502.38C989.526 502.38 1012.89 536.83 973.946 566.53C973.946 566.53 1016.35 636.28 895.646 668.13" fill="#168983"/>
<path d="M924.686 579.69C934.946 540.35 943.216 500.62 952.506 461.06C960.856 425.53 970.156 390.15 975.896 354.06C1001.76 359.76 992.106 401.17 992.106 401.17C992.106 401.17 1017.64 420.54 999.026 454.17C999.026 454.17 1023.26 472.68 989.516 502.38C989.516 502.38 1012.88 536.83 973.936 566.53C973.936 566.53 1015.35 634.69 899.676 667.02C908.729 638.133 917.066 609.023 924.686 579.69Z" fill="#187389"/>
<path d="M954.036 379.43C953.396 379.77 957.236 388.16 962.596 398.17C963.016 398.93 963.416 399.7 963.816 400.44C965.436 399.79 967.006 399.14 968.516 398.52L971.856 397.11C973.966 396.19 975.856 395.34 977.416 394.59C980.546 393.09 982.416 392.02 982.266 391.7C982.116 391.38 980.046 391.87 976.746 392.93C975.096 393.47 973.146 394.14 970.976 394.93L964.976 397.16C964.976 397.16 964.976 397.24 964.866 396.94C959.496 386.94 954.636 379.09 953.996 379.43" fill="#0A4269"/>
<path d="M947.226 405.58C946.906 405.72 947.726 408.5 949.316 412.95C950.116 415.17 951.106 417.81 952.256 420.75C952.826 422.21 953.436 423.75 954.066 425.35L956.646 431.66L959.816 429.86C973.466 422.07 984.246 415.25 983.886 414.62C983.526 413.99 972.166 419.81 958.516 427.62L957.916 427.96C956.676 425.08 955.496 422.35 954.416 419.87C953.146 417 951.976 414.43 950.966 412.29C948.966 408.02 947.546 405.47 947.226 405.6" fill="#0A4269"/>
<path d="M933.916 439.49C933.626 439.66 934.996 442.57 937.486 447.21C938.726 449.53 940.246 452.29 941.976 455.35C942.846 456.87 943.766 458.48 944.716 460.16L948.356 466.39L952.696 464.11C968.836 455.61 981.626 448.2 981.296 447.56C980.966 446.92 967.606 453.31 951.476 461.81L949.336 462.95L943.966 454.17C942.116 451.17 940.426 448.53 938.966 446.32C936.086 441.92 934.186 439.32 933.896 439.49" fill="#0A4269"/>
<path d="M922.236 477.59C921.936 477.75 923.486 481.23 926.236 486.76C927.626 489.52 929.316 492.76 931.236 496.43C933.386 500.43 935.746 504.76 938.236 509.36L941.166 507.84C950.076 503.19 958.076 498.84 963.806 495.6C969.536 492.36 973.006 490.18 972.806 489.86C972.606 489.54 968.876 491.13 962.926 493.97C956.976 496.81 948.836 500.89 939.926 505.53L939.466 505.77L939.266 505.87C937.136 502.11 935.126 498.54 933.266 495.29C931.266 491.73 929.356 488.54 927.766 485.89C924.576 480.59 922.466 477.42 922.156 477.59" fill="#0A4269"/>
<path d="M908.976 523.11C908.706 523.31 910.546 526.41 913.796 531.36C915.416 533.84 917.396 536.77 919.636 540.03L927.636 551.46L932.636 549.7C942.366 546.27 951.116 543.02 957.406 540.55C963.696 538.08 967.516 536.37 967.406 536.03C967.296 535.69 963.246 536.78 956.796 538.81C950.346 540.84 941.496 543.81 931.796 547.25L928.666 548.37L921.576 538.7C919.216 535.52 917.086 532.7 915.266 530.36C911.636 525.67 909.266 522.92 909.026 523.11" fill="#0A4269"/>
<path d="M894.336 553.47C894.036 553.67 896.106 557.31 899.686 563.04C903.266 568.77 908.376 576.58 914.146 585.11L918.446 591.44L930.976 587.69L940.256 584.75C945.476 583.03 948.576 581.85 948.496 581.54C948.416 581.23 945.136 581.86 939.796 583.14L930.356 585.53L919.506 588.45L916.286 583.64C910.516 575.1 905.176 567.46 901.196 561.99C897.216 556.52 894.606 553.25 894.306 553.45" fill="#0A4269"/>
<path d="M970.906 371.69C970.806 371.57 970.326 372.99 969.546 375.76C968.766 378.53 967.646 382.65 966.266 387.92C963.516 398.45 959.686 413.57 955.186 431.68C946.286 467.99 934.496 516.13 922.926 563.37C911.356 610.61 905.776 634.96 903.096 647.46C900.416 659.96 900.746 660.66 901.256 660.79C901.766 660.92 902.376 660.42 905.726 648.08C909.076 635.74 915.166 611.55 926.636 564.26C938.106 516.97 949.486 469.19 957.816 433.05C961.986 414.98 965.416 399.82 967.726 389.05C970.036 378.28 971.216 372.05 970.906 371.65" fill="#0A4269"/>
<path d="M902.316 241.06C904.896 242.18 915.996 248.92 918.576 268.28C921.156 287.64 918.576 432.14 918.576 432.14H896.386L882.446 239.38L902.316 241.06Z" fill="#20366A"/>
<path d="M796.266 413.06L793.946 666.15H841.166L846.066 485.17H864.386L870.066 666.99H904.386L901.286 411.66L796.266 413.06Z" fill="#212F3F"/>
<path d="M813.416 270.1C813.416 267.58 809.936 238.95 809.936 238.95C809.936 238.95 805.296 238.53 802.196 239.8C799.096 241.07 791.486 246.11 781.806 261.54C772.126 276.97 754.196 306.72 752.396 307.28C750.596 307.84 686.076 285.95 686.076 285.95L678.846 310.95C678.846 310.95 735.356 335.64 753.426 338.16C771.496 340.68 813.426 270.16 813.426 270.16" fill="#20366A"/>
<path d="M857.415 423.69V464.94C857.415 464.94 848.126 467.75 847.866 459.33C847.606 450.91 847.866 424.25 847.866 424.25L857.415 423.69Z" fill="#212F3F"/>
<path d="M851.356 234.05C883.226 234.05 896.516 238.39 902.356 241.05L901.356 416.42L796.356 416.98L802.296 239.79C802.296 239.79 808.486 234.04 851.456 234.04" fill="#1A4696"/>
<path d="M847.486 256.63L842.066 357.64L852.716 371.95L861.226 357.64L855.416 256.42L847.486 256.63Z" fill="#B52A3E"/>
<path d="M796.116 429.33H901.506L901.336 415.3H796.246L796.116 429.33Z" fill="#212F3F"/>
<path d="M841.676 429.33H862.586L862.546 415.3H841.706L841.676 429.33Z" fill="#212F3F"/>
<path d="M688.166 303.28C692.086 293.7 691.776 289.2 687.386 279.11C682.996 269.02 676.386 261.9 672.626 263.64C668.866 265.38 673.276 274.19 677.946 281.25C677.946 281.25 670.266 303.46 688.166 303.25" fill="#F4E09C"/>
<path d="M686.286 284.49C686.286 284.49 657.726 271.56 649.286 268.69C640.846 265.82 641.006 277.12 646.286 278.69C651.566 280.26 660.696 286.8 659.756 292.48C658.816 298.16 650.506 293.78 645.656 292.74C640.806 291.7 638.846 294.74 639.376 297.88C639.906 301.02 649.466 305.63 661.226 310.51C672.986 315.39 682.636 317.71 688.136 303.28C693.636 288.85 686.256 284.49 686.256 284.49" fill="#F4E09C"/>
<path d="M664.906 283.69C664.906 283.69 652.096 278.25 644.596 275.39C637.096 272.53 636.226 282.25 641.316 284.78C646.406 287.31 661.506 293.56 661.506 293.56" fill="#F4E09C"/>
<path d="M841.866 253.05C841.866 253.05 844.776 258.11 847.096 259.79C849.416 261.47 855.806 261.47 857.156 259.79C858.506 258.11 863.156 249.27 863.156 249.27L859.286 243.8L848.286 241.48L841.286 244.48L841.866 253.05Z" fill="#B52A3E"/>
<path d="M662.486 292.38C662.486 292.38 646.736 286.33 641.216 283.67C635.696 281.01 633.126 288.93 638.426 291.52C643.726 294.11 659.666 300.87 659.666 300.87" fill="#F4E09C"/>
<path d="M839.356 259.37L850.196 244.85H852.516L862.576 259.16C862.576 259.16 874.386 250.74 876.316 245.27C878.246 239.8 877.316 232.85 876.126 229.48C874.936 226.11 866.836 214.54 851.126 214.54C835.416 214.54 826.356 226.12 825.196 230.12C824.036 234.12 824.616 242.74 826.356 246.95C828.096 251.16 833.356 256 839.356 259.37Z" fill="#20366A"/>
<path d="M835.866 233.9H866.866C866.866 233.9 860.286 248 851.766 248C843.246 248 838.766 240.22 835.896 233.9" fill="#E39F7A"/>
<path d="M864.126 212.02H838.196V235.59H864.126V212.02Z" fill="#E39F7A"/>
<path d="M801.296 133.17C800.906 133.17 790.586 136.17 790.586 136.17C790.586 136.17 798.586 144.45 802.836 147.25C802.836 147.25 801.166 150.25 796.256 153.42C796.256 153.42 805.036 162.42 814.326 166.33C823.616 170.24 817.936 129.33 817.936 129.33L801.296 133.17Z" fill="#1C242E"/>
<path d="M810.196 102.69V186.02C810.196 209.73 826.066 223.34 847.866 223.34C877.026 221.94 892.516 201.03 889.156 177.61C886.066 156 889.156 102.69 889.156 102.69H810.196Z" fill="#F7CE95"/>
<path d="M869.416 132.03C869.504 131.976 869.602 131.941 869.705 131.927C869.807 131.913 869.912 131.92 870.011 131.948C870.111 131.976 870.204 132.025 870.283 132.09C870.363 132.156 870.429 132.238 870.476 132.33C874.076 138.11 881.086 142.25 887.796 144.22C887.956 123.4 889.156 102.73 889.156 102.73H810.156V145.69C830.226 149.97 852.036 142.5 869.416 132.03Z" fill="#E39F7A"/>
<path d="M790.586 136.12C790.586 136.12 830.586 148.74 872.126 113.67C872.126 113.67 872.646 133.03 886.836 140.89C886.836 140.89 885.836 164.74 890.706 171.47C895.576 178.2 906.186 167.55 910.576 138.36C914.966 109.17 898.186 83.9304 877.026 86.7404C877.026 86.7404 872.896 70.7404 848.386 74.9504C823.876 79.1604 797.806 101.05 793.676 119.28C796.398 119.938 799.071 120.783 801.676 121.81C801.676 121.81 795.486 133.31 790.586 136.12Z" fill="#212F3F"/>
<path d="M885.286 166.98C885.286 166.98 886.576 155.2 894.286 152.11C901.996 149.02 912.606 163.62 904.096 176.52C895.586 189.42 886.036 181.29 886.036 181.29L885.286 166.98Z" fill="#F7CE95"/>
<path d="M821.286 145.1C821.156 144.99 821.826 143.45 823.606 142.19C824.574 141.497 825.745 141.145 826.936 141.19C828.09 141.237 829.213 141.581 830.196 142.19C831.299 142.81 832.212 143.719 832.836 144.82C833.096 145.37 832.956 145.58 832.776 145.73C832.596 145.88 832.406 145.99 831.956 145.73C831.506 145.47 830.816 144.73 829.356 143.82C828.611 143.289 827.74 142.961 826.83 142.87C825.919 142.779 825.001 142.927 824.166 143.3C822.546 144.06 821.496 145.3 821.286 145.05" fill="#212F3F"/>
<path d="M873.676 146.69C873.456 146.91 872.236 145.45 870.246 144.46C869.211 143.961 868.079 143.695 866.93 143.681C865.781 143.668 864.643 143.906 863.596 144.38C861.596 145.21 860.696 145.95 860.126 146.18C859.556 146.41 859.386 146.32 859.226 146.13C859.066 145.94 858.966 145.71 859.386 145.13C860.343 144.088 861.514 143.264 862.819 142.717C864.124 142.17 865.532 141.912 866.946 141.96C868.331 142.035 869.668 142.496 870.806 143.29C872.926 144.77 873.806 146.58 873.676 146.68" fill="#212F3F"/>
<path d="M820.126 166.69C820.306 166.86 819.396 168.2 818.376 169.35C817.356 170.5 817.206 170.35 817.036 170.2C816.866 170.05 816.746 169.85 817.766 168.7C818.786 167.55 819.866 166.45 820.126 166.7" fill="#E39F7A"/>
<path d="M823.976 167.12C824.156 167.29 823.246 168.63 822.226 169.78C821.206 170.93 821.056 170.78 820.886 170.63C820.716 170.48 820.606 170.28 821.616 169.13C822.626 167.98 823.716 166.88 823.976 167.13" fill="#E39F7A"/>
<path d="M875.976 166.14C876.156 166.31 875.236 167.65 874.226 168.79C873.216 169.93 873.046 169.79 872.876 169.65C872.706 169.51 872.596 169.3 873.606 168.15C874.616 167 875.716 165.9 875.976 166.15" fill="#E39F7A"/>
<path d="M879.866 166.56C880.046 166.73 879.136 168.07 878.116 169.21C877.096 170.35 876.936 170.21 876.776 170.07C876.616 169.93 876.486 169.72 877.506 168.57C878.526 167.42 879.606 166.32 879.866 166.57" fill="#E39F7A"/>
<path d="M845.036 183.4C844.896 183.58 843.956 183.05 842.606 181.93C841.793 181.267 841.04 180.535 840.356 179.74C840.145 179.495 839.948 179.238 839.766 178.97C839.499 178.605 839.327 178.179 839.266 177.73C839.225 177.447 839.256 177.159 839.356 176.89L839.556 176.35C839.696 176.03 839.836 175.7 839.996 175.35C842.546 170.43 845.206 166.99 845.546 167.22C845.886 167.45 843.826 171.41 841.376 176.15C841.216 176.44 841.096 176.73 840.966 177.01L840.806 177.4C840.815 177.44 840.815 177.481 840.806 177.52C840.867 177.694 840.944 177.861 841.036 178.02C841.176 178.24 841.326 178.47 841.486 178.69C842.146 179.57 842.826 180.35 843.386 181C844.516 182.32 845.206 183.17 845.076 183.36" fill="#212F3F"/>
<path d="M859.356 193.5C859.526 193.59 858.106 195.75 855.146 197.98C853.482 199.244 851.611 200.208 849.616 200.83C847.339 201.485 844.938 201.581 842.616 201.11C840.722 200.753 838.958 199.897 837.506 198.63C836.72 197.93 836.081 197.08 835.626 196.13C835.076 194.86 835.316 194.67 835.486 194.62C835.656 194.57 835.786 194.57 836.486 195.55C837.016 196.292 837.637 196.964 838.336 197.55C839.669 198.594 841.233 199.304 842.896 199.62C845.004 200.051 847.184 199.993 849.266 199.45C851.135 198.938 852.911 198.132 854.526 197.06C857.456 195.18 859.116 193.36 859.366 193.53" fill="#212F3F"/>
<path d="M899.476 165.58C899.371 164.878 899.304 164.17 899.276 163.46C899.211 162.696 898.972 161.957 898.576 161.3C898.126 160.6 897.216 160.59 896.296 161.07C894.456 162.01 892.966 164.36 892.186 167.07C891.769 168.436 891.593 169.864 891.666 171.29C891.69 171.964 891.857 172.626 892.156 173.23C892.409 173.769 892.86 174.188 893.416 174.4C894.416 174.7 895.416 173.75 895.746 172.85C896.098 172.043 896.137 171.135 895.856 170.3C895.475 169.272 894.751 168.406 893.806 167.85C892.556 167.13 892.466 167.08 892.516 166.85C892.566 166.62 892.676 166.44 894.156 167.03C894.769 167.299 895.323 167.687 895.783 168.173C896.243 168.66 896.601 169.233 896.836 169.86C897.249 170.986 897.22 172.225 896.756 173.33C896.487 174.003 896.049 174.595 895.486 175.05C895.161 175.319 894.776 175.506 894.363 175.595C893.951 175.683 893.523 175.672 893.116 175.56C891.326 174.96 890.606 172.95 890.546 171.37C890.475 169.793 890.681 168.216 891.156 166.71C892.046 163.87 893.666 161.32 895.866 160.27C896.136 160.14 896.426 160.06 896.696 159.96C896.988 159.897 897.287 159.874 897.586 159.89C897.881 159.915 898.167 160.005 898.423 160.154C898.679 160.303 898.898 160.506 899.066 160.75C899.527 161.528 899.769 162.416 899.766 163.32C899.876 164.089 899.776 164.874 899.476 165.59" fill="#212F3F"/>
<path d="M821.976 156.88C821.976 154.25 822.976 152.11 824.166 152.11C825.356 152.11 826.366 154.25 826.366 156.88C826.366 159.51 825.366 161.65 824.166 161.65C822.966 161.65 821.976 159.52 821.976 156.88Z" fill="#212F3F"/>
<path d="M862.316 156.46C862.316 153.83 863.316 151.69 864.516 151.69C865.716 151.69 866.706 153.83 866.706 156.46C866.706 159.09 865.706 161.23 864.516 161.23C863.326 161.23 862.316 159.1 862.316 156.46Z" fill="#212F3F"/>
<path d="M606.336 227.59C606.336 227.59 564.146 236.43 558.146 237.9C552.146 239.37 540.146 246.11 538.986 278.9C537.826 311.69 535.506 419.47 535.506 419.47L561.046 420.74L573.046 383.28L586.206 297.84L641.946 303.31L648.136 353.82L684.136 432.1L706.976 418.25C706.976 418.25 679.876 355.96 679.106 353.01C678.336 350.06 677.756 286.73 674.456 266.73C671.156 246.73 661.456 239.8 656.266 238.11C651.076 236.42 606.336 227.59 606.336 227.59Z" fill="#20366A"/>
<mask id="mask1_286_264" style="mask-type:luminance" maskUnits="userSpaceOnUse" x="535" y="227" width="172" height="206">
<path d="M606.336 227.59C606.336 227.59 564.146 236.43 558.146 237.9C552.146 239.37 540.146 246.11 538.986 278.9C537.826 311.69 535.506 419.47 535.506 419.47L561.046 420.74L573.046 383.28L586.206 297.84L641.946 303.31L648.136 353.82L684.136 432.1L706.976 418.25C706.976 418.25 679.876 355.96 679.106 353.01C678.336 350.06 677.756 286.73 674.456 266.73C671.156 246.73 661.456 239.8 656.266 238.11C651.076 236.42 606.336 227.59 606.336 227.59Z" fill="white"/>
</mask>
<g mask="url(#mask1_286_264)">
<path d="M562.776 241.48H522.926V255.42H562.776V241.48Z" fill="#A6DCE3"/>
<path d="M561.206 268.271H524.496V282.211H561.206V268.271Z" fill="#A6DCE3"/>
<path d="M561.206 295.061H524.496V309.001H561.206V295.061Z" fill="#A6DCE3"/>
<path d="M561.206 321.851H524.496V335.791H561.206V321.851Z" fill="#A6DCE3"/>
<path d="M561.206 348.63H524.496V362.57H561.206V348.63Z" fill="#A6DCE3"/>
<path d="M561.206 375.42H524.496V389.36H561.206V375.42Z" fill="#A6DCE3"/>
<path d="M561.206 402.21H524.496V416.15H561.206V402.21Z" fill="#A6DCE3"/>
</g>
<path d="M655.626 409.69V672.61H620.276L615.376 462.44H600.916L596.016 672.05H562.476L561.176 412.22L655.626 409.69Z" fill="#212F3F"/>
<path d="M610.466 407.45V444.45C610.466 449.22 600.916 448.94 600.916 439.12V402.69L610.466 407.45Z" fill="#212F3F"/>
<mask id="mask2_286_264" style="mask-type:luminance" maskUnits="userSpaceOnUse" x="535" y="227" width="172" height="206">
<path d="M606.336 227.59C606.336 227.59 564.146 236.43 558.146 237.9C552.146 239.37 540.146 246.11 538.986 278.9C537.826 311.69 535.506 419.47 535.506 419.47L561.046 420.74L573.046 383.28L586.206 297.84L641.946 303.31L648.136 353.82L684.136 432.1L706.976 418.25C706.976 418.25 679.876 355.96 679.106 353.01C678.336 350.06 677.756 286.73 674.456 266.73C671.156 246.73 661.456 239.8 656.266 238.11C651.076 236.42 606.336 227.59 606.336 227.59Z" fill="white"/>
</mask>
<g mask="url(#mask2_286_264)">
<path d="M685.876 309.03C682.786 310.93 645.816 322.71 645.816 322.71L648.916 335.76L688.786 322.29L685.876 309.03Z" fill="#A6DCE3"/>
<path d="M690.376 286.87C687.056 288.25 648.906 294.05 648.906 294.05L650.216 307.45L691.466 300.45L690.376 286.87Z" fill="#A6DCE3"/>
<path d="M688.666 262.28C685.246 263.28 646.756 265.13 646.756 265.13L646.896 278.6L688.566 275.91L688.666 262.28Z" fill="#A6DCE3"/>
<path d="M682.976 337.69C679.876 339.59 642.916 351.37 642.916 351.37L646.016 364.42L685.876 350.95L682.976 337.69Z" fill="#A6DCE3"/>
<path d="M693.426 362.48C690.326 364.38 653.366 376.16 653.366 376.16L656.466 389.16L696.326 375.69L693.426 362.48Z" fill="#A6DCE3"/>
<path d="M704.846 387.74C701.746 389.63 664.786 401.42 664.786 401.42L667.876 414.42L707.746 400.96L704.846 387.74Z" fill="#A6DCE3"/>
</g>
<path d="M645.976 96.49C650.976 98.8 660.296 107.01 663.196 125.11C666.096 143.21 659.136 151.83 659.136 151.83C659.136 151.83 671.906 163.2 664.356 177.93C664.356 177.93 673.646 187.61 669.586 199.18C665.526 210.75 659.716 210.55 659.716 210.55C659.716 210.55 660.486 231.17 637.456 227.38C637.456 227.38 633.586 233.27 619.846 234.75C606.106 236.23 604.946 233.48 604.946 233.48C604.946 233.48 597.946 239.8 586.166 234.75C586.166 234.75 571.266 240.43 567.166 225.7C567.166 225.7 551.876 227.8 552.066 213.07C552.066 213.07 533.296 207.81 541.226 186.55C541.226 186.55 526.716 163.2 546.456 149.31L568.516 98.8L595.416 87.23L616.516 92.23L645.976 96.49Z" fill="#212F3F"/>
<path d="M607.306 225.91C621.236 225.91 643.886 233.48 656.306 238.11L658.246 417.83H556.976L558.136 237.9C558.136 237.9 584.636 225.9 607.296 225.9" fill="#1A4696"/>
<mask id="mask3_286_264" style="mask-type:luminance" maskUnits="userSpaceOnUse" x="556" y="225" width="103" height="193">
<path d="M607.306 225.91C621.236 225.91 643.886 233.48 656.306 238.11L658.246 417.83H556.976L558.136 237.9C558.136 237.9 584.636 225.9 607.296 225.9" fill="white"/>
</mask>
<g mask="url(#mask3_286_264)">
<path d="M674.856 238.11H522.926V252.05H674.856V238.11Z" fill="#C5E8F1"/>
<path d="M668.856 264.9H528.926V278.84H668.856V264.9Z" fill="#C5E8F1"/>
<path d="M668.856 291.69H528.926V305.63H668.856V291.69Z" fill="#C5E8F1"/>
<path d="M668.856 318.48H528.926V332.42H668.856V318.48Z" fill="#C5E8F1"/>
<path d="M668.856 345.271H528.926V359.211H668.856V345.271Z" fill="#C5E8F1"/>
<path d="M668.856 372.05H528.926V385.99H668.856V372.05Z" fill="#C5E8F1"/>
<path d="M668.856 398.84H528.926V412.78H668.856V398.84Z" fill="#C5E8F1"/>
</g>
<path d="M632.556 230.33C623.556 227.83 614.316 225.91 607.306 225.91C598.026 225.91 588.106 227.91 579.626 230.29C580.526 237.47 585.086 251.37 606.916 251.37C628.046 251.37 631.996 237.91 632.556 230.37" fill="#C5E8F1"/>
<path d="M626.726 228.81C619.726 227.1 612.806 225.91 607.306 225.91C600.057 226.033 592.844 226.972 585.806 228.71C588.336 236.11 594.036 243.8 606.806 243.8C619.216 243.8 624.526 236.27 626.806 228.8" fill="#E39F7A"/>
<path d="M618.146 212.86H594.726V233.9H618.146V212.86Z" fill="#E39F7A"/>
<path d="M568.406 101.33C568.406 101.33 572.656 143.83 568.406 176.33C565.116 201.33 584.316 220.47 612.146 221.1C632.146 221.55 646.786 205.82 646.786 184.1V101.33H568.406Z" fill="#F7CE95"/>
<path d="M570.296 143.48C577.566 142.06 584.106 137.38 588.596 130.81C589.746 129.14 591.226 127.34 593.366 127.7C595.506 128.06 597.586 129.11 599.766 129.48C602.249 129.844 604.783 129.656 607.186 128.93C610.086 128.21 613.546 127.36 616.186 129.35C619.696 131.98 622.186 134.94 626.386 136.48C632.576 138.76 640.266 140.73 646.746 138.48V101.33H568.366C568.366 101.33 570.356 120.82 570.296 143.48Z" fill="#E39F7A"/>
<path d="M572.466 161.93C572.466 161.93 568.596 150.78 561.826 150.57C552.486 150.28 548.666 164.67 554.466 174.77C560.266 184.87 569.956 180.87 569.956 180.87L572.466 161.93Z" fill="#F7CE95"/>
<path d="M588.146 109.11C588.146 109.11 589.496 142.57 546.536 149.31C546.536 149.31 545.956 123.42 553.536 105.53C555.588 100.449 558.966 96.0109 563.317 92.6796C567.669 89.3482 572.835 87.2453 578.276 86.5903C578.276 86.5903 586.596 67.8703 609.436 72.9203C632.276 77.9703 629.176 86.1703 645.976 96.4903C662.776 106.81 664.356 129.74 649.846 134.15C635.336 138.56 624.846 131.21 618.106 122.79C615.776 120.69 610.556 121.95 602.616 120.48C594.676 119.01 588.106 109.11 588.106 109.11" fill="#212F3F"/>
<path d="M636.726 143.2C636.506 143.42 635.476 142.2 633.836 141.36C632.98 140.981 632.038 140.84 631.109 140.951C630.18 141.062 629.298 141.421 628.556 141.99C627.086 142.99 626.396 143.74 625.936 143.99C625.476 144.24 625.296 144.18 625.106 143.99C624.916 143.8 624.786 143.63 625.046 143.07C625.673 141.946 626.583 141.004 627.686 140.34C628.663 139.675 629.797 139.275 630.976 139.18C632.198 139.101 633.409 139.455 634.396 140.18C636.206 141.49 636.856 143.09 636.726 143.18" fill="#212F3F"/>
<path d="M584.915 144.54C584.785 144.42 585.696 142.75 587.706 141.33C588.795 140.565 590.069 140.103 591.396 139.99C592.775 139.928 594.149 140.207 595.395 140.804C596.641 141.4 597.72 142.296 598.536 143.41C598.896 144.01 598.766 144.23 598.596 144.41C598.426 144.59 598.236 144.68 597.716 144.41C596.709 143.691 595.653 143.043 594.556 142.47C593.585 141.968 592.508 141.705 591.415 141.705C590.323 141.705 589.246 141.968 588.276 142.47C586.366 143.47 585.125 144.75 584.915 144.53" fill="#212F3F"/>
<path d="M588.146 151.13C588.336 150.96 588.876 151.32 589.606 151.68C590.336 152.04 591.256 152.43 591.986 152.75C593.436 153.35 593.426 153.7 593.306 154.22C593.186 154.74 592.966 155.14 591.306 154.46C590.388 154.051 589.559 153.467 588.866 152.74C588.206 152.03 587.926 151.28 588.106 151.13" fill="#212F3F"/>
<path d="M636.656 149.45C636.876 149.5 636.946 150.22 636.656 151.11C636.369 152.049 635.838 152.895 635.116 153.56C633.806 154.68 633.436 154.23 633.276 153.8C633.116 153.37 632.996 153.02 634.026 152.15C634.596 151.643 635.121 151.088 635.596 150.49C636.056 149.91 636.386 149.38 636.596 149.49" fill="#212F3F"/>
<path d="M578.976 165.16C579.156 165 580.276 166.3 581.206 167.68C582.136 169.06 582.006 169.22 581.816 169.37C581.626 169.52 581.446 169.61 580.516 168.23C579.586 166.85 578.706 165.4 578.976 165.16Z" fill="#E39F7A"/>
<path d="M583.116 164.6C583.296 164.44 584.416 165.74 585.346 167.12C586.276 168.5 586.136 168.66 585.946 168.81C585.756 168.96 585.586 169.05 584.656 167.67C583.726 166.29 582.846 164.83 583.116 164.6Z" fill="#E39F7A"/>
<path d="M633.976 165.16C634.156 165 635.276 166.3 636.206 167.68C637.136 169.06 637.006 169.22 636.816 169.37C636.626 169.52 636.446 169.61 635.516 168.23C634.586 166.85 633.716 165.4 633.976 165.16Z" fill="#E39F7A"/>
<path d="M638.076 164.6C638.256 164.44 639.376 165.74 640.306 167.12C641.236 168.5 641.106 168.66 640.916 168.81C640.726 168.96 640.546 169.05 639.616 167.67C638.686 166.29 637.816 164.83 638.076 164.6Z" fill="#E39F7A"/>
<path d="M612.396 181.44C612.236 181.28 612.606 180.51 613.306 179.36C613.686 178.78 614.106 178.12 614.566 177.36C614.796 176.99 615.026 176.61 615.276 176.22C615.386 176.03 615.496 175.82 615.576 175.67C615.246 175.01 614.626 174.1 614.176 173.41C613.726 172.72 613.266 172.01 612.916 171.41C612.216 170.26 611.846 169.48 612.016 169.33C612.186 169.18 612.836 169.68 613.766 170.64C614.226 171.12 614.766 171.72 615.306 172.41C615.576 172.76 615.866 173.13 616.146 173.54C616.483 173.99 616.774 174.472 617.016 174.98C617.115 175.214 617.166 175.466 617.166 175.72C617.134 175.962 617.066 176.198 616.966 176.42C616.838 176.672 616.694 176.916 616.536 177.15C616.256 177.58 615.976 177.95 615.706 178.31C615.146 179.02 614.616 179.61 614.156 180.09C613.226 181.09 612.566 181.55 612.396 181.4" fill="#212F3F"/>
<path d="M559.116 164.18C558.717 163.587 558.488 162.895 558.456 162.18C558.31 161.35 558.341 160.498 558.546 159.68C558.679 159.136 558.984 158.648 559.416 158.29C559.657 158.105 559.937 157.977 560.235 157.917C560.533 157.856 560.841 157.864 561.136 157.94C562.339 158.303 563.392 159.047 564.136 160.06C565.009 161.138 565.708 162.346 566.206 163.64C566.749 165.024 567.124 166.468 567.326 167.94C567.446 168.733 567.446 169.538 567.326 170.33C567.25 171.194 566.899 172.01 566.326 172.66C566.052 172.964 565.709 173.197 565.326 173.34C564.943 173.483 564.532 173.531 564.126 173.48C563.417 173.381 562.769 173.025 562.306 172.48C561.565 171.623 561.163 170.524 561.176 169.39C561.118 168.716 561.224 168.038 561.483 167.414C561.742 166.789 562.148 166.236 562.666 165.8C563.027 165.481 563.477 165.279 563.956 165.22C564.176 165.22 564.216 165.29 564.236 165.37C564.256 165.45 564.166 165.57 563.176 166.48C562.808 166.851 562.528 167.3 562.355 167.793C562.182 168.286 562.121 168.811 562.176 169.33C562.176 170.17 562.481 170.98 563.036 171.61C563.181 171.79 563.363 171.938 563.569 172.043C563.775 172.148 564.001 172.209 564.232 172.221C564.463 172.233 564.694 172.197 564.91 172.114C565.126 172.031 565.322 171.904 565.486 171.74C566.256 170.94 566.296 169.4 566.136 168.08C565.962 166.712 565.626 165.37 565.136 164.08C564.216 161.64 562.676 159.42 560.926 158.83C560.742 158.766 560.547 158.742 560.354 158.759C560.16 158.775 559.972 158.833 559.802 158.927C559.632 159.022 559.484 159.151 559.367 159.307C559.251 159.462 559.169 159.641 559.126 159.83C558.892 160.536 558.797 161.279 558.846 162.02C558.941 162.723 558.998 163.431 559.016 164.14" fill="#212F3F"/>
<path d="M590.976 155.13C590.976 152.46 591.976 150.29 593.296 150.29C594.616 150.29 595.616 152.46 595.616 155.13C595.616 157.8 594.616 159.97 593.296 159.97C591.976 159.97 590.976 157.8 590.976 155.13Z" fill="#212F3F"/>
<path d="M631.236 155.13C631.236 152.46 632.236 150.29 633.556 150.29C634.876 150.29 635.886 152.46 635.886 155.13C635.886 157.8 634.886 159.97 633.556 159.97C632.226 159.97 631.236 157.8 631.236 155.13Z" fill="#212F3F"/>
<path d="M600.886 191.54H620.976C622.726 191.54 623.586 192.66 623.816 195.13C624.176 199.01 621.306 204.58 613.516 204.58C603.226 204.58 598.516 201.58 597.976 194.9C597.926 194.488 597.962 194.069 598.082 193.672C598.202 193.274 598.403 192.905 598.673 192.59C598.943 192.274 599.275 192.017 599.649 191.837C600.023 191.656 600.431 191.555 600.846 191.54" fill="#B52A3E"/>
<path d="M610.196 196.6C608.283 196.22 606.311 196.255 604.413 196.704C602.515 197.152 600.736 198.004 599.196 199.2C601.196 202.87 605.816 204.58 613.546 204.58C616.143 204.685 618.694 203.867 620.746 202.27C619.056 200.13 615.916 197.58 610.186 196.6" fill="#EF4352"/>
<path d="M690.856 417.78C699.416 412.96 703.556 413.04 713.056 417.22C722.556 421.4 729.486 428.14 728.106 432.32C726.726 436.5 717.976 433.24 711.226 428.59C711.226 428.59 691.736 437.18 690.856 417.78Z" fill="#F7CE95"/>
<path d="M708.196 418.69C708.196 418.69 721.706 448.89 724.826 457.89C727.946 466.89 717.576 467.35 715.826 461.67C714.076 455.99 707.546 446.53 702.396 447.88C697.246 449.23 701.746 457.97 702.986 463.18C704.226 468.39 701.536 470.67 698.636 470.28C695.736 469.89 690.936 459.79 685.786 447.33C680.636 434.87 677.936 424.54 690.846 417.75C703.756 410.96 708.185 418.69 708.185 418.69" fill="#F7CE95"/>
<path d="M710.166 441.85C710.166 441.85 715.906 455.41 718.956 463.38C722.006 471.35 713.156 472.85 710.536 467.48C707.916 462.11 701.316 446.11 701.316 446.11" fill="#F7CE95"/>
<path d="M702.346 444.97C702.346 444.97 708.806 461.69 711.566 467.53C714.326 473.37 707.216 476.6 704.566 471C701.916 465.4 694.766 448.53 694.766 448.53" fill="#F7CE95"/>
<path d="M911.546 406.47C911.546 406.47 894.546 406.68 886.966 407.73C879.386 408.78 862.576 416.15 860.646 450.45C858.716 484.75 854.256 621.12 854.256 621.12H881.976L911.546 406.47Z" fill="#8D1C32"/>
<path d="M874.976 587.59C874.976 587.59 871.876 619.01 873.166 663.07H974.326C974.326 663.07 973.036 603.86 970.966 585.9C968.896 567.94 879.106 565.14 874.966 587.59" fill="#212F3F"/>
<path d="M918.706 405.2H959.346C967.866 405.2 973.276 409.83 973.276 437.61V593.34C973.276 593.34 971.346 601.34 926.446 600.07L919.866 590.81L916.766 599.23C901.878 599.327 887.002 598.344 872.256 596.29C872.256 596.29 874.186 458.66 874.186 440.98C874.186 423.3 880.766 409.83 886.966 407.73C893.166 405.63 918.706 405.2 918.706 405.2Z" fill="#B52A3E"/>
<path d="M947.466 405.2H918.706C918.706 405.2 904.856 405.43 895.086 406.39C894.296 411.14 893.746 424.05 909.026 431.51L920.256 419.09L921.996 419.51L933.416 432.35C933.416 432.35 949.836 428.42 947.416 405.2" fill="white"/>
<path d="M938.446 406.05C938.446 405.76 938.446 405.48 938.446 405.2H918.756C918.756 405.2 911.676 405.32 904.076 405.74C904.076 405.91 904.076 406.08 904.076 406.26C904.076 414.51 911.616 421.2 920.916 421.2C930.216 421.2 938.526 414.3 938.526 406.05" fill="#E39F7A"/>
<path d="M917.976 440.14C918.015 439.65 918.196 439.181 918.497 438.792C918.798 438.403 919.206 438.11 919.67 437.949C920.135 437.788 920.637 437.766 921.114 437.886C921.591 438.006 922.023 438.263 922.357 438.624C922.691 438.986 922.912 439.436 922.993 439.922C923.074 440.407 923.012 440.905 922.815 441.356C922.617 441.806 922.293 442.19 921.881 442.458C921.469 442.727 920.988 442.87 920.496 442.87C919.801 442.839 919.146 442.535 918.674 442.023C918.202 441.512 917.951 440.835 917.976 440.14Z" fill="white"/>
<path d="M917.976 468.13C918.015 467.64 918.196 467.171 918.497 466.782C918.798 466.393 919.206 466.1 919.67 465.939C920.135 465.779 920.637 465.757 921.114 465.877C921.591 465.996 922.023 466.253 922.357 466.614C922.691 466.976 922.912 467.427 922.993 467.912C923.074 468.397 923.012 468.895 922.815 469.346C922.617 469.797 922.293 470.18 921.881 470.449C921.469 470.718 920.988 470.861 920.496 470.86C919.801 470.829 919.146 470.525 918.674 470.014C918.202 469.502 917.951 468.826 917.976 468.13Z" fill="white"/>
<path d="M843.616 455.29L904.386 439.72L925.286 536.1L864.516 552.51L843.616 455.29Z" fill="#1A4696"/>
<path d="M930.506 494.43C930.506 494.43 929.506 493.38 925.866 485.8C922.226 478.22 910.966 466.02 908.056 464.97C905.146 463.92 902.256 467.5 904.766 471.07C907.276 474.64 912.506 482.02 912.506 482.02C912.506 482.02 895.676 474.65 889.096 472.76C882.516 470.87 878.836 479.7 888.096 483.07C897.356 486.44 898.356 500.32 890.416 498.22C882.476 496.12 878.996 498.01 878.806 501.8C878.616 505.59 882.866 507.06 893.126 511.06C903.386 515.06 913.646 519.47 920.226 517.79C924.04 516.88 927.484 514.824 930.096 511.9L930.506 494.43Z" fill="#F7CE95"/>
<path d="M903.516 487.28C903.516 487.28 890.636 482.12 883.186 479.18C875.736 476.24 873.706 485.28 879.896 487.59C886.086 489.9 899.896 495.59 899.896 495.59" fill="#F7CE95"/>
<path d="M903.406 496.69C903.406 496.69 890.646 491.21 883.266 488.08C875.886 484.95 873.656 493.94 879.796 496.41C885.936 498.88 899.646 504.91 899.646 504.91" fill="#F7CE95"/>
<path d="M962.826 437.82L983.346 503.48L931.866 490.69C931.866 490.69 921.996 497.85 925.476 519.1C925.476 519.1 967.476 531.94 987.026 535.52C1006.58 539.1 1016.44 528.99 1010.64 503.95C1004.84 478.91 993.216 438.29 984.316 422.09C975.416 405.89 962.826 405.89 959.316 405.25C955.806 404.61 957.766 425.25 962.796 437.87" fill="#8D1C32"/>
<path d="M929.676 390.47H910.576V412.36H929.676V390.47Z" fill="#E39F7A"/>
<path d="M929.856 283.99H907.756C893.816 283.99 882.516 296.75 882.516 312.5V366.61C882.516 389.26 898.186 397 918.226 397C938.266 397 956.636 384.26 956.636 361.62L955.096 312.5C955.096 296.75 943.796 283.99 929.856 283.99Z" fill="#F7CE95"/>
<path d="M896.896 318.78C905.896 318.66 914.476 316.24 923.066 313.52C926.866 312.32 930.586 310.84 934.386 309.66C936.206 309.1 938.776 308.14 940.616 309.21C942.926 310.56 944.526 313.21 946.546 314.95C949.043 317.342 952.047 319.14 955.336 320.21L955.096 312.5C955.096 296.75 943.796 283.99 929.856 283.99H907.756C893.816 283.99 882.516 296.75 882.516 312.5V318.82C887.076 320 892.626 318.84 896.896 318.78Z" fill="#E39F7A"/>
<path d="M954.506 347.75C954.506 347.75 958.186 334.5 965.736 334.07C973.286 333.64 978.316 342.91 973.866 354.7C969.416 366.49 956.866 363.54 955.286 361.85C953.706 360.16 954.506 347.75 954.506 347.75Z" fill="#F7CE95"/>
<path d="M890.736 323.13C890.596 322.99 891.496 321.28 893.366 319.5C894.387 318.516 895.655 317.825 897.036 317.5C897.8 317.339 898.594 317.398 899.326 317.67C899.967 317.895 900.576 318.205 901.136 318.59C902.408 319.388 903.496 320.448 904.326 321.7C904.676 322.32 904.556 322.54 904.386 322.7C904.216 322.86 904.016 322.98 903.476 322.63C902.936 322.28 902.046 321.4 900.256 320.16C899.412 319.471 898.344 319.115 897.256 319.16C896.095 319.349 894.997 319.815 894.056 320.52C892.176 321.87 890.906 323.31 890.706 323.1" fill="#212F3F"/>
<path d="M943.286 325.13C943.096 325.31 941.896 323.96 940.116 322.65C939.303 321.959 938.29 321.545 937.226 321.47C936.203 321.709 935.25 322.185 934.446 322.86C932.766 324.16 931.926 324.99 931.446 325.3C930.966 325.61 930.736 325.52 930.556 325.3C930.376 325.08 930.266 324.92 930.556 324.3C931.34 323.129 932.333 322.113 933.486 321.3C934.543 320.42 935.837 319.874 937.206 319.73C938.607 319.883 939.904 320.541 940.856 321.58C942.606 323.29 943.466 324.95 943.296 325.1" fill="#212F3F"/>
<path d="M893.446 330.69C893.706 330.5 894.656 331.45 895.756 331.92C896.856 332.39 896.866 332.52 896.836 332.92C896.806 333.32 896.676 333.65 895.306 333.07C893.936 332.49 893.056 330.98 893.446 330.71" fill="#212F3F"/>
<path d="M941.246 331.76C941.376 331.85 941.316 332.25 941.026 332.76C940.665 333.342 940.153 333.815 939.546 334.13C938.216 334.72 938.076 334.29 938.056 333.99C938.036 333.69 938.056 333.48 939.056 332.99C940.056 332.5 940.856 331.51 941.246 331.76Z" fill="#212F3F"/>
<path d="M935.156 336.07C935.156 333.17 936.016 330.81 937.086 330.81C938.156 330.81 939.026 333.17 939.026 336.07C939.026 338.97 938.156 341.34 937.086 341.34C936.016 341.34 935.156 338.98 935.156 336.07Z" fill="#212F3F"/>
<path d="M895.286 334.18C895.286 331.28 896.156 328.92 897.226 328.92C898.296 328.92 899.156 331.28 899.156 334.18C899.156 337.08 898.286 339.44 897.226 339.44C896.166 339.44 895.286 337.09 895.286 334.18Z" fill="#212F3F"/>
<path d="M892.576 341.69C892.756 341.85 891.686 343.46 890.516 344.87C889.346 346.28 889.176 346.18 888.996 346.01C888.816 345.84 888.706 345.66 889.876 344.25C891.046 342.84 892.306 341.46 892.576 341.69Z" fill="#E39F7A"/>
<path d="M895.976 342.49C896.156 342.65 895.086 344.26 893.906 345.67C892.726 347.08 892.566 346.98 892.396 346.81C892.226 346.64 892.106 346.46 893.276 345.05C894.446 343.64 895.706 342.26 895.976 342.49Z" fill="#E39F7A"/>
<path d="M943.766 343.97C943.956 344.13 942.876 345.73 941.706 347.14C940.536 348.55 940.366 348.45 940.186 348.28C940.006 348.11 939.896 347.93 941.066 346.52C942.236 345.11 943.496 343.73 943.766 343.97Z" fill="#E39F7A"/>
<path d="M947.156 344.81C947.336 344.97 946.266 346.57 945.096 347.99C943.926 349.41 943.746 349.29 943.576 349.12C943.406 348.95 943.286 348.77 944.456 347.36C945.626 345.95 946.886 344.58 947.156 344.81Z" fill="#E39F7A"/>
<path d="M918.196 359.17C918.116 359.39 917.306 359.17 916.196 358.47C915.571 358.054 914.982 357.586 914.436 357.07C914.083 356.757 913.749 356.423 913.436 356.07C913.268 355.86 913.115 355.64 912.976 355.41C912.75 355.028 912.626 354.594 912.616 354.15L912.676 353.81C912.733 353.716 912.797 353.626 912.866 353.54C912.936 353.34 913.206 353.21 913.316 353.09C913.426 352.97 913.606 352.83 913.756 352.68L914.606 351.77L916.076 350.16C916.936 349.25 917.536 348.74 917.706 348.88C917.876 349.02 917.586 349.8 916.936 350.88C916.548 351.532 916.128 352.162 915.676 352.77C915.416 353.12 915.136 353.47 914.816 353.83C914.645 354.026 914.461 354.21 914.266 354.38V354.45C914.362 354.623 914.472 354.787 914.596 354.94C914.836 355.28 915.106 355.6 915.356 355.94C915.886 356.54 916.356 357.08 916.796 357.52C917.636 358.43 918.166 358.96 918.076 359.17" fill="#212F3F"/>
<path d="M969.116 346.81C968.996 346.81 969.236 346.02 969.116 344.7C969.028 343.937 968.674 343.229 968.116 342.7C967.783 342.408 967.371 342.219 966.932 342.159C966.493 342.098 966.046 342.168 965.646 342.36C963.756 343.1 962.446 345.71 961.436 348.3C960.914 349.627 960.663 351.045 960.696 352.47C960.688 353.105 960.892 353.725 961.276 354.23C961.468 354.438 961.704 354.6 961.967 354.704C962.231 354.808 962.514 354.851 962.796 354.83C963.335 354.772 963.842 354.549 964.249 354.191C964.655 353.833 964.941 353.357 965.066 352.83C965.213 352.437 965.268 352.015 965.227 351.597C965.185 351.179 965.048 350.777 964.826 350.42C964.433 349.959 963.921 349.613 963.346 349.42C962.952 349.281 962.533 349.223 962.116 349.25C961.707 349.29 961.302 349.367 960.906 349.48C960.706 349.53 960.656 349.48 960.606 349.41C960.556 349.34 960.526 349.25 960.676 349.07C961.036 348.701 961.506 348.459 962.016 348.38C962.54 348.273 963.082 348.293 963.596 348.44C964.101 348.546 964.576 348.762 964.988 349.073C965.4 349.384 965.738 349.782 965.979 350.238C966.219 350.695 966.357 351.198 966.38 351.714C966.404 352.229 966.314 352.744 966.116 353.22C965.915 353.925 965.54 354.568 965.026 355.09C964.452 355.693 963.668 356.052 962.836 356.09C962.388 356.113 961.941 356.035 961.527 355.861C961.114 355.688 960.744 355.425 960.446 355.09C959.895 354.368 959.59 353.488 959.576 352.58C959.545 350.982 959.834 349.395 960.426 347.91C960.931 346.57 961.581 345.289 962.366 344.09C963.04 342.948 964.059 342.048 965.276 341.52C965.806 341.292 966.391 341.221 966.961 341.317C967.53 341.413 968.06 341.671 968.486 342.06C969.134 342.721 969.518 343.596 969.566 344.52C969.687 345.309 969.527 346.116 969.116 346.8" fill="#212F3F"/>
<path d="M929.666 370.88C929.682 370.662 929.655 370.443 929.585 370.235C929.516 370.027 929.406 369.835 929.262 369.671C929.117 369.506 928.942 369.371 928.745 369.275C928.548 369.179 928.334 369.123 928.116 369.11H907.376C901.766 369.11 904.156 382.57 916.716 382.57C927.716 382.57 929.626 375.39 929.716 370.88" fill="#B52A3E"/>
<path d="M907.646 379.1C908.85 380.255 910.273 381.156 911.83 381.752C913.388 382.348 915.049 382.626 916.716 382.57C923.596 382.57 926.926 379.74 928.466 376.52C925.813 374.727 922.668 373.801 919.466 373.87C914.586 373.87 910.466 376.63 907.696 379.1" fill="#EF4352"/>
<path d="M941.909 303.037C941.909 303.037 936.282 325.173 958.265 337.142C968.31 342.61 975.681 339.818 980 332.282C979.475 308.718 975.899 286.847 956.729 284.513C956.729 284.513 954.688 260 929.119 260C903.55 260 892.821 281.231 881.566 287.519C872.888 292.358 863.794 298.454 861 307.982C863.655 316.988 869.916 325.035 883.865 326.101C916.844 328.499 936.777 314.739 941.899 303.069" fill="#56302E"/>
<path d="M596.076 589.76H491.956V660.68H596.076V589.76Z" fill="#212F3F"/>
<path d="M491.976 614.85C497.886 609.01 506.246 599.53 509.676 589.76H491.976V614.85Z" fill="#212F3F"/>
<path d="M596.076 611.76V589.76H579.846C582.676 595.5 588.676 606.31 596.076 611.76Z" fill="#212F3F"/>
<path d="M450.536 529.37L503.766 442.03L583.116 450.66C583.116 450.66 614.116 507.9 618.116 514.85C622.116 521.8 640.366 529.79 647.336 510.43C654.306 491.07 666.106 442.43 666.106 442.43L645.206 430.23L632.076 474.69C632.076 474.69 610.396 422.5 606.526 415.98C602.656 409.46 596.706 407.35 593.296 407.35H495.826C486.536 407.35 479.766 417.87 465.636 443.12C451.506 468.37 437.376 495.69 437.376 500.96C437.376 510.22 438.536 516.11 450.536 529.37Z" fill="#B52A3E"/>
<path d="M508.216 408.78L496.796 593.55H593.756V408.78H508.216Z" fill="white"/>
<path d="M522.536 588.29L525.446 591.87V599.44H490.996V591.87V587.66L522.536 588.29Z" fill="#B52A3E"/>
<path d="M525.436 422.69V591.89H490.976C489.69 590.046 488.77 587.972 488.266 585.78C487.686 582.63 490.786 433.63 490.786 427.53C490.786 421.43 493.106 407.75 495.786 407.33C498.466 406.91 522.496 407.33 522.496 407.33L525.436 422.69Z" fill="#8D1C32"/>
<path d="M566.596 588.29L563.686 591.87V599.44H598.136V591.87V587.66L566.596 588.29Z" fill="#B52A3E"/>
<path d="M563.686 422.69V591.89H598.136C599.422 590.046 600.342 587.972 600.846 585.78C601.426 582.63 598.326 433.63 598.326 427.53C598.326 421.43 596.006 407.75 593.326 407.33C590.646 406.91 566.616 407.33 566.616 407.33L563.686 422.69Z" fill="#8D1C32"/>
<path d="M578.196 535.89C577.816 536.1 581.616 545.36 586.696 556.57C591.776 567.78 596.196 576.71 596.586 576.5C596.976 576.29 593.176 567.04 588.096 555.82C583.016 544.6 578.586 535.68 578.196 535.89Z" fill="#212F3F"/>
<path d="M525.636 408.57C525.636 402.57 534.036 397.63 544.406 397.63C554.776 397.63 563.176 402.53 563.176 408.57C563.176 414.61 554.776 419.51 544.406 419.51C534.036 419.51 525.636 414.62 525.636 408.57Z" fill="#C27858"/>
<path d="M510.146 535.47C510.536 535.68 506.736 544.93 501.656 556.15C496.576 567.37 492.146 576.29 491.766 576.08C491.386 575.87 495.176 566.62 500.256 555.4C505.336 544.18 509.766 535.26 510.146 535.47Z" fill="#212F3F"/>
<path d="M525.436 422.69L513.056 410.49C513.056 410.49 513.826 386.07 538.986 385.49C564.146 384.91 570.726 388.44 576.146 409.27L563.756 422.95C563.756 422.95 564.336 401.49 549.046 401.49C533.756 401.49 525.046 403.59 525.436 422.74" fill="#B52A3E"/>
<path d="M555.826 383.32H533.566V406.89H555.826V383.32Z" fill="#C27858"/>
<path d="M466.286 503.52L444.436 483.13C440.136 491.99 437.376 498.63 437.376 500.96C437.376 510.22 438.536 516.11 450.536 529.37C463.536 542.62 494.276 570.19 494.276 570.19L507.056 541.57L466.286 503.52Z" fill="#B52A3E"/>
<path d="M670.976 420.99C670.976 420.99 685.686 406.68 688.396 403.52C691.106 400.36 689.556 392.16 682.586 396.58C675.616 401 663.816 412.15 663.816 412.15L670.976 420.99Z" fill="#E39F7A"/>
<path d="M678.716 429.62C678.716 429.62 690.136 414.25 693.036 409.62C695.936 404.99 693.816 399.52 686.656 402.89C679.496 406.26 669.426 419.51 669.426 419.51L678.716 429.62Z" fill="#E39F7A"/>
<path d="M644.266 426.53C644.266 426.53 644.786 434.95 649.176 439.72C653.566 444.49 662.586 448.13 672.396 442.8C682.206 437.47 693.236 421.8 694.006 416.8C694.776 411.8 690.716 409.85 688.006 413.64C685.296 417.43 679.106 425.85 679.106 425.85L665.756 411.96C665.756 411.96 678.526 401.23 681.426 398.7C684.326 396.17 680.076 390.07 675.236 393.65C670.396 397.23 646.976 416.15 646.976 416.15L644.266 426.53Z" fill="#E39F7A"/>
<path d="M649.176 439.69C642.726 432.69 642.176 426.5 641.436 414.99C640.696 403.48 642.976 397.32 647.366 397.6C651.756 397.88 650.976 412.47 651.756 416.68C651.756 416.68 662.076 422.57 660.266 430.99C658.456 439.41 649.176 439.69 649.176 439.69Z" fill="#E39F7A"/>
<path d="M597.866 304.13C599.486 301.722 600.347 298.883 600.336 295.98C600.394 293.149 599.579 290.369 598.003 288.017C596.427 285.664 594.166 283.854 591.526 282.83C592.85 280.565 593.541 277.985 593.526 275.36C593.526 267.69 587.756 261.48 580.636 261.48H580.556C580.556 253.81 574.786 247.6 567.676 247.6C565.833 247.606 564.017 248.033 562.366 248.85C561.49 246.373 559.88 244.222 557.75 242.684C555.62 241.146 553.072 240.293 550.446 240.24C548.316 240.266 546.228 240.829 544.375 241.878C542.521 242.927 540.963 244.428 539.846 246.24C538.687 244.898 537.256 243.818 535.647 243.073C534.038 242.328 532.289 241.935 530.516 241.92C527.802 241.979 525.176 242.889 523.008 244.522C520.84 246.155 519.241 248.428 518.436 251.02C517.055 250.427 515.568 250.121 514.066 250.12C511.54 250.177 509.097 251.029 507.085 252.555C505.072 254.081 503.592 256.204 502.856 258.62C502.026 258.427 501.177 258.33 500.326 258.33C493.746 258.33 488.406 264.07 488.406 271.16C488.412 272.27 488.553 273.375 488.826 274.45C486.259 275.484 484.067 277.272 482.54 279.58C481.013 281.887 480.224 284.604 480.276 287.37C480.254 290.915 481.559 294.34 483.936 296.97C482.334 297.945 480.991 299.292 480.021 300.897C479.052 302.502 478.484 304.318 478.367 306.19C478.25 308.061 478.588 309.934 479.35 311.647C480.112 313.36 481.277 314.864 482.746 316.03C482.343 316.581 481.979 317.159 481.656 317.76C478.156 324.37 479.596 332.41 484.886 335.76C490.176 339.11 526.346 343.04 529.886 336.43L583.776 337.88C590.896 337.88 596.656 331.67 596.656 324.01C596.652 322.934 596.535 321.862 596.306 320.81C598.549 318.182 599.774 314.836 599.756 311.38C599.76 308.854 599.109 306.37 597.866 304.17" fill="#3A2525"/>
<path d="M585.636 301.46C585.694 299.585 585.368 297.718 584.677 295.975C583.986 294.231 582.945 292.647 581.618 291.321C580.291 289.995 578.706 288.955 576.962 288.266C575.218 287.576 573.351 287.251 571.476 287.31H523.676C517.196 287.31 511.826 291.8 511.936 298.85C512.146 311.33 512.276 323.72 512.276 329C512.276 331.53 506.276 333.63 506.276 333.63L507.276 355.21C507.276 377.98 526.606 393.47 548.276 393.46C569.946 393.45 585.666 382.81 585.666 360.03L585.636 301.46Z" fill="#E39F7A"/>
<path d="M517.826 307.01C520.146 305.09 521.826 304.01 524.826 304.33C526.358 304.591 527.874 304.942 529.366 305.38C532.106 305.95 533.466 305.22 536.046 304.19C539.616 302.77 540.366 305.92 543.606 306.75C545.889 307.364 548.278 307.478 550.61 307.085C552.941 306.691 555.16 305.799 557.116 304.47C559.256 303.07 561.386 304.63 563.246 305.75C568.606 308.97 571.406 304.59 576.456 304.97C579.616 305.2 582.536 306.63 585.676 306.76V301.46C585.734 299.585 585.408 297.718 584.717 295.975C584.025 294.231 582.984 292.647 581.658 291.321C580.331 289.995 578.746 288.955 577.002 288.266C575.258 287.576 573.391 287.251 571.516 287.31H523.716C517.236 287.31 511.866 291.8 511.976 298.85C512.036 302.12 512.076 305.39 512.126 308.53C513.129 308.685 514.154 308.631 515.135 308.369C516.117 308.107 517.033 307.645 517.826 307.01Z" fill="#C27858"/>
<path d="M535.086 367.36C535.058 366.86 535.23 366.368 535.564 365.994C535.897 365.619 536.365 365.391 536.866 365.36H560.666C567.106 365.36 564.366 380.77 549.946 380.77C537.366 380.77 535.136 372.55 535.086 367.38" fill="#B52A3E"/>
<path d="M508.756 331.9C508.756 331.9 506.366 322.9 498.326 322.9C490.286 322.9 487.246 339.44 494.196 349.12C501.146 358.8 509.406 353.12 509.406 353.12L508.756 331.9Z" fill="#E39F7A"/>
<path d="M521.756 317.24C521.626 317.14 522.486 315.37 524.526 313.88C525.622 313.077 526.913 312.583 528.266 312.45C529.588 312.317 530.923 312.506 532.156 313C533.546 313.469 534.783 314.305 535.736 315.42C536.146 315.98 536.046 316.22 535.886 316.42C535.726 316.62 535.556 316.73 535.006 316.48C533.901 315.849 532.763 315.278 531.596 314.77C530.563 314.334 529.446 314.133 528.326 314.179C527.205 314.226 526.109 314.52 525.116 315.04C523.176 316.04 521.976 317.48 521.756 317.26" fill="#212F3F"/>
<path d="M573.976 315.98C573.766 316.2 572.706 314.93 570.976 314.19C569.246 313.45 567.106 313.95 565.616 314.97C564.126 315.99 563.416 316.73 562.946 316.97C562.476 317.21 562.306 317.16 562.116 316.97C561.926 316.78 561.796 316.61 562.116 316.05C562.769 314.932 563.69 313.994 564.796 313.32C565.782 312.665 566.91 312.253 568.086 312.12C569.304 311.983 570.532 312.277 571.556 312.95C573.436 314.21 574.106 315.82 573.976 315.95" fill="#212F3F"/>
<path d="M551.976 354.07C551.856 353.86 552.566 353.17 553.636 352.07C554.248 351.468 554.788 350.797 555.246 350.07C555.345 349.907 555.416 349.728 555.456 349.54C555.456 349.4 555.456 349.34 555.456 349.12C555.283 348.594 555.076 348.08 554.836 347.58C552.726 343.22 550.836 339.63 551.236 339.37C551.636 339.11 554.026 342.26 556.236 346.82C556.521 347.415 556.752 348.034 556.926 348.67C556.982 348.869 557.015 349.074 557.026 349.28C557.029 349.51 556.999 349.739 556.936 349.96C556.846 350.318 556.694 350.656 556.486 350.96C555.909 351.78 555.191 352.491 554.366 353.06C553.046 353.99 552.116 354.32 552.016 354.13" fill="#212F3F"/>
<path d="M521.176 337.23C521.356 337.4 520.176 338.98 518.906 340.36C517.636 341.74 517.476 341.62 517.306 341.44C517.136 341.26 517.036 341.08 518.306 339.7C519.576 338.32 520.926 336.98 521.176 337.23Z" fill="#C27858"/>
<path d="M525.246 337.23C525.426 337.4 524.246 338.98 522.976 340.36C521.706 341.74 521.536 341.62 521.376 341.44C521.216 341.26 521.106 341.08 522.376 339.7C523.646 338.32 524.996 336.98 525.256 337.23" fill="#C27858"/>
<path d="M574.976 337.23C575.146 337.4 573.976 338.98 572.706 340.36C571.436 341.74 571.266 341.62 571.106 341.44C570.946 341.26 570.836 341.08 572.106 339.7C573.376 338.32 574.726 336.98 574.986 337.23" fill="#C27858"/>
<path d="M579.046 337.23C579.226 337.4 578.046 338.98 576.776 340.36C575.506 341.74 575.346 341.62 575.176 341.44C575.006 341.26 574.906 341.08 576.176 339.7C577.446 338.32 578.786 336.98 579.046 337.23Z" fill="#C27858"/>
<path d="M497.376 337.02C497.376 337.09 496.686 336.53 496.486 335.02C496.372 334.139 496.485 333.244 496.816 332.42C497.024 331.881 497.399 331.422 497.886 331.11C498.441 330.845 499.073 330.788 499.666 330.95C500.913 331.358 501.976 332.194 502.666 333.31C503.47 334.511 504.105 335.817 504.556 337.19C505.085 338.646 505.441 340.16 505.616 341.7C505.695 342.553 505.62 343.413 505.396 344.24C505.276 344.686 505.055 345.099 504.75 345.446C504.445 345.793 504.064 346.065 503.636 346.24C503.253 346.367 502.849 346.416 502.447 346.383C502.045 346.351 501.653 346.237 501.296 346.05C500.678 345.759 500.129 345.339 499.686 344.82C499.237 344.343 498.92 343.757 498.766 343.12C498.67 342.544 498.719 341.953 498.906 341.4C499.377 340.166 500.184 339.089 501.236 338.29C502.496 337.29 502.676 337.47 502.746 337.6C502.816 337.73 502.816 337.88 501.746 338.96C500.929 339.746 500.294 340.702 499.886 341.76C499.782 342.117 499.759 342.493 499.816 342.86C499.94 343.277 500.163 343.658 500.466 343.97C500.788 344.394 501.22 344.722 501.716 344.916C502.212 345.11 502.752 345.163 503.276 345.07C504.276 344.73 504.606 343.19 504.486 341.8C504.333 340.372 504.018 338.966 503.546 337.61C502.706 334.98 501.346 332.48 499.476 331.87C499.073 331.739 498.639 331.739 498.236 331.87C497.882 332.054 497.597 332.349 497.426 332.71C497.083 333.389 496.908 334.14 496.916 334.9C496.978 335.615 497.112 336.322 497.316 337.01" fill="#212F3F"/>
<path d="M528.976 330.6C528.976 327.87 530.066 325.66 531.396 325.66C532.726 325.66 533.816 327.87 533.816 330.6C533.816 333.33 532.736 335.55 531.396 335.55C530.056 335.55 528.976 333.33 528.976 330.6Z" fill="#212F3F"/>
<path d="M569.366 329.76C569.366 327.03 570.456 324.82 571.786 324.82C573.116 324.82 574.206 327.03 574.206 329.76C574.206 332.49 573.126 334.71 571.786 334.71C570.446 334.71 569.366 332.49 569.366 329.76Z" fill="#212F3F"/>
<path d="M573.826 292.62C573.826 287.15 577.896 282.73 582.916 282.73C587.936 282.73 592.016 287.15 592.016 292.62C592.016 298.09 587.946 302.51 582.916 302.51C577.886 302.51 573.826 298.08 573.826 292.62Z" fill="#3A2525"/>
<path d="M559.646 284.15C562.746 278.31 569.056 275.96 573.726 278.89C578.396 281.82 579.726 288.94 576.576 294.77C573.426 300.6 567.176 302.97 562.496 300.03C557.816 297.09 556.496 290.03 559.646 284.15Z" fill="#3A2525"/>
<path d="M539.766 282.82C543.266 276.21 550.406 273.55 555.696 276.87C560.986 280.19 562.426 288.24 558.916 294.87C555.406 301.5 548.276 304.14 542.986 300.87C537.696 297.6 536.256 289.5 539.766 282.87" fill="#3A2525"/>
<path d="M522.146 281.34C525.656 274.74 532.786 272.07 538.076 275.4C543.366 278.73 544.816 286.76 541.306 293.4C537.796 300.04 530.666 302.67 525.376 299.35C520.086 296.03 518.646 287.98 522.146 281.35" fill="#3A2525"/>
<path d="M501.246 282.82C504.756 276.21 511.886 273.55 517.176 276.87C522.466 280.19 523.906 288.24 520.406 294.87C516.906 301.5 509.766 304.14 504.476 300.87C499.186 297.6 497.746 289.5 501.246 282.87" fill="#3A2525"/>
<path d="M560.356 376.78C558.973 378.105 557.341 379.141 555.553 379.828C553.766 380.515 551.859 380.838 549.946 380.78C542.046 380.78 538.236 377.54 536.476 373.85C539.539 371.793 543.168 370.744 546.856 370.85C552.456 370.85 557.186 374 560.356 376.85" fill="#EF4352"/>
<path d="M801.936 587.87H706.716V674.01H801.936V587.87Z" fill="#212F3F"/>
<path d="M705.036 277.26C705.036 277.26 724.586 277.04 747.816 274.52C771.046 272 805.296 277.89 814.386 318.52C816.326 334.31 815.386 399.12 815.166 410.52C814.946 421.92 800.256 437.87 758.066 437.87C715.876 437.87 699.236 431.77 699.236 410.94C699.236 390.11 702.326 327.6 702.326 327.6C702.326 327.6 698.456 327.18 693.626 332.02C693.626 332.02 690.916 301.09 712.396 288.25C708.589 285.724 705.941 281.789 705.036 277.31" fill="#212F3F"/>
<path d="M715.486 529.79C715.486 529.79 709.296 544.1 696.916 551.11C684.536 558.12 641.916 582.54 641.916 582.54L627.976 558.69L688.096 522.77C688.096 522.77 695.326 458.52 699.706 444.21C704.086 429.9 713.646 424.28 716.486 423.72C719.326 423.16 724.486 436.07 724.486 436.07L721.386 466.93L715.486 529.79Z" fill="#20366A"/>
<path d="M732.266 422.04H774.066L797.066 423.44L789.066 594.32C789.066 594.32 744.676 598.25 718.066 591.8L718.316 427.09C718.316 427.09 719.096 422.88 732.256 422.09" fill="#B52A3E"/>
<path d="M802.706 424.85C802.706 424.85 819.226 431.58 821.286 453.75C823.346 475.92 822.586 624.06 822.586 624.06H800.386L794.196 436.63L797.036 423.44L802.706 424.85Z" fill="#20366A"/>
<path d="M732.266 422.04C732.266 422.04 737.166 487.14 737.936 503.97C738.706 520.8 738.936 604.97 738.936 604.97C738.936 604.97 719.836 606.97 705.386 599.91C705.386 599.91 706.156 513.77 706.156 510.69C706.156 507.61 702.036 494.13 702.036 484.59C702.036 475.05 714.156 425.39 716.486 423.7C718.816 422.01 729.646 422.02 732.226 422.02" fill="#1A4696"/>
<path d="M774.066 422.04C774.066 422.04 767.876 489.1 767.876 500.04C767.876 510.98 768.136 606.39 768.136 606.39C768.136 606.39 794.966 606.67 803.226 602.18L802.706 424.85C802.706 424.85 802.456 422.32 774.066 422.04Z" fill="#1A4696"/>
<path d="M768.806 422.04H736.196C737.106 427.56 740.596 440.94 753.426 450.1C753.426 450.1 767.426 442.32 768.806 422.04Z" fill="#E39F7A"/>
<path d="M762.466 406.89H743.366V428.78H762.466V406.89Z" fill="#E39F7A"/>
<path d="M762.646 300.4H740.536C726.596 300.4 715.296 313.17 715.296 328.92V383.03C715.296 405.67 730.966 413.41 751.016 413.41C771.066 413.41 789.426 400.67 789.426 378.03L787.886 328.92C787.886 313.17 776.586 300.4 762.646 300.4Z" fill="#F7CE95"/>
<path d="M718.486 317.69C724.866 314.39 728.626 322.24 733.166 325.61C742.291 332.246 753.244 335.899 764.526 336.07C769.246 336.22 773.966 336.26 778.686 336.44C781.832 336.646 784.992 336.498 788.106 336L787.886 328.91C787.886 313.16 776.586 300.39 762.646 300.39H740.536C729.776 300.39 720.616 308.02 716.986 318.73C717.44 318.322 717.944 317.973 718.486 317.69Z" fill="#E39F7A"/>
<path d="M814.386 318.5C805.296 277.89 771.036 271.99 747.816 274.5C737.186 275.65 727.336 276.32 719.816 276.71C721.166 288.14 730.596 336.12 793.526 334.27C802.526 334 809.666 332.85 815.206 331.06C815.026 325.7 814.776 321.3 814.426 318.48" fill="#212F3F"/>
<path d="M787.295 364.17C787.295 364.17 790.966 350.91 798.516 350.49C806.066 350.07 811.096 359.33 806.646 371.11C802.196 382.89 789.645 379.95 788.065 378.27C786.485 376.59 787.295 364.17 787.295 364.17Z" fill="#F7CE95"/>
<path d="M723.526 339.55C723.376 339.4 724.276 337.69 726.146 335.91C727.17 334.924 728.441 334.233 729.826 333.91C730.589 333.746 731.383 333.802 732.116 334.07C732.755 334.302 733.362 334.611 733.926 334.99C735.196 335.792 736.28 336.856 737.106 338.11C737.456 338.73 737.336 338.95 737.166 339.11C736.996 339.27 736.806 339.38 736.256 339.03C735.706 338.68 734.836 337.81 733.046 336.57C732.203 335.879 731.135 335.523 730.046 335.57C728.885 335.764 727.788 336.234 726.846 336.94C724.976 338.28 723.696 339.72 723.506 339.52" fill="#212F3F"/>
<path d="M776.066 341.55C775.876 341.72 774.686 340.37 772.896 339.07C772.087 338.377 771.078 337.96 770.016 337.88C768.989 338.117 768.033 338.593 767.226 339.27C765.556 340.57 764.716 341.4 764.226 341.71C763.736 342.02 763.516 341.93 763.346 341.76C763.176 341.59 763.056 341.37 763.346 340.76C764.124 339.584 765.118 338.566 766.276 337.76C767.326 336.874 768.619 336.327 769.986 336.19C771.391 336.339 772.693 336.997 773.646 338.04C775.396 339.75 776.246 341.41 776.076 341.56" fill="#212F3F"/>
<path d="M726.236 347.12C726.486 346.93 727.436 347.89 728.546 348.35C729.656 348.81 729.656 348.96 729.616 349.35C729.576 349.74 729.466 350.08 728.086 349.51C726.706 348.94 725.836 347.41 726.236 347.14" fill="#212F3F"/>
<path d="M774.036 348.17C774.166 348.26 774.096 348.66 773.806 349.17C773.442 349.75 772.932 350.222 772.326 350.54C771.006 351.13 770.856 350.69 770.836 350.39C770.816 350.09 770.836 349.88 771.836 349.39C772.836 348.9 773.636 347.9 774.026 348.15" fill="#212F3F"/>
<path d="M767.976 352.49C767.976 349.58 768.846 347.23 769.916 347.23C770.986 347.23 771.846 349.58 771.846 352.49C771.846 355.4 770.986 357.75 769.916 357.75C768.846 357.75 767.976 355.39 767.976 352.49Z" fill="#212F3F"/>
<path d="M728.066 350.59C728.066 347.69 728.936 345.33 730.006 345.33C731.076 345.33 731.976 347.69 731.976 350.59C731.976 353.49 731.106 355.86 730.036 355.86C728.966 355.86 728.096 353.5 728.096 350.59" fill="#212F3F"/>
<path d="M725.366 358.07C725.546 358.22 724.466 359.83 723.296 361.24C722.126 362.65 721.956 362.55 721.776 362.38C721.596 362.21 721.496 362.03 722.666 360.62C723.836 359.21 725.096 357.83 725.366 358.07Z" fill="#E39F7A"/>
<path d="M728.746 358.91C728.936 359.07 727.856 360.67 726.686 362.09C725.516 363.51 725.346 363.39 725.166 363.22C724.986 363.05 724.876 362.87 726.056 361.46C727.236 360.05 728.476 358.68 728.746 358.91Z" fill="#E39F7A"/>
<path d="M776.556 360.38C776.736 360.54 775.656 362.15 774.486 363.56C773.316 364.97 773.146 364.87 772.966 364.7C772.786 364.53 772.686 364.35 773.856 362.94C775.026 361.53 776.286 360.15 776.556 360.38Z" fill="#E39F7A"/>
<path d="M779.976 361.22C780.166 361.38 779.086 362.99 777.916 364.4C776.746 365.81 776.576 365.71 776.396 365.54C776.216 365.37 776.106 365.19 777.286 363.78C778.466 362.37 779.706 360.99 779.976 361.22Z" fill="#E39F7A"/>
<path d="M750.616 374.69C750.536 374.91 749.726 374.69 748.616 373.99C747.987 373.576 747.397 373.104 746.856 372.58C746.503 372.267 746.169 371.933 745.856 371.58C745.688 371.37 745.535 371.15 745.396 370.92C745.171 370.537 745.047 370.104 745.036 369.66L745.096 369.32C745.15 369.224 745.213 369.134 745.286 369.05C745.356 368.85 745.626 368.72 745.736 368.6C745.846 368.48 746.026 368.34 746.176 368.19L747.026 367.28L748.496 365.67C749.356 364.76 749.956 364.25 750.126 364.39C750.296 364.53 750.006 365.31 749.356 366.39C748.968 367.041 748.548 367.672 748.096 368.28C747.828 368.648 747.541 369.002 747.236 369.34C747.065 369.532 746.881 369.713 746.686 369.88V369.95C746.782 370.122 746.892 370.286 747.016 370.44C747.256 370.77 747.526 371.09 747.776 371.44C748.306 372.04 748.776 372.57 749.216 373.02C750.056 373.93 750.586 374.45 750.496 374.67" fill="#212F3F"/>
<path d="M761.456 388.37C761.636 388.5 760.146 390.24 757.196 391.37C753.632 392.685 749.764 392.946 746.056 392.12C742.056 391.2 740.326 389.31 739.676 388.39C739.026 387.47 739.236 387.16 739.396 387.09C739.556 387.02 739.686 386.96 740.396 387.65C742.056 389.181 744.109 390.22 746.326 390.65C749.791 391.394 753.385 391.281 756.796 390.32C759.616 389.49 761.226 388.2 761.436 388.39" fill="#212F3F"/>
<path d="M801.906 363.22C801.786 363.22 802.026 362.43 801.906 361.12C801.825 360.355 801.47 359.644 800.906 359.12C800.575 358.825 800.163 358.634 799.724 358.571C799.284 358.509 798.836 358.578 798.436 358.77C796.546 359.52 795.236 362.12 794.226 364.71C793.715 366.04 793.464 367.456 793.486 368.88C793.489 369.518 793.696 370.138 794.076 370.65C794.27 370.855 794.507 371.015 794.769 371.119C795.032 371.223 795.314 371.267 795.596 371.25C796.134 371.193 796.641 370.97 797.046 370.612C797.451 370.253 797.734 369.777 797.856 369.25C798.006 368.857 798.062 368.435 798.02 368.017C797.978 367.598 797.84 367.196 797.616 366.84C797.225 366.375 796.713 366.029 796.136 365.84C795.743 365.697 795.324 365.636 794.906 365.66C794.496 365.703 794.091 365.783 793.696 365.9C793.496 365.9 793.446 365.9 793.396 365.82C793.346 365.74 793.316 365.67 793.476 365.48C793.836 365.117 794.301 364.876 794.806 364.79C795.33 364.688 795.871 364.708 796.386 364.85C796.891 364.957 797.366 365.173 797.778 365.483C798.19 365.794 798.529 366.192 798.77 366.648C799.012 367.104 799.15 367.607 799.175 368.123C799.2 368.638 799.112 369.153 798.916 369.63C798.709 370.335 798.331 370.977 797.816 371.5C797.239 372.099 796.456 372.456 795.626 372.5C795.18 372.521 794.735 372.442 794.323 372.269C793.911 372.096 793.543 371.833 793.246 371.5C792.685 370.783 792.376 369.901 792.366 368.99C792.336 367.392 792.624 365.805 793.216 364.32C793.746 362.98 794.416 361.699 795.216 360.5C795.89 359.361 796.904 358.462 798.116 357.93C798.648 357.701 799.236 357.631 799.807 357.728C800.379 357.826 800.91 358.087 801.336 358.48C801.987 359.134 802.369 360.008 802.406 360.93C802.521 361.718 802.366 362.521 801.966 363.21" fill="#212F3F"/>
<path d="M639.626 569.07C644.626 580.8 644.526 583.8 632.786 593.2C621.046 602.6 613.306 605.69 610.076 605.12C606.846 604.55 603.626 601.48 606.596 598.67C609.566 595.86 615.756 594.18 615.756 589.41C615.756 584.64 615.236 575.8 613.046 576.36C610.856 576.92 601.436 584.08 597.436 585.62C593.436 587.16 588.276 581.42 593.306 576.62C598.336 571.82 625.046 557.26 627.106 556.84C629.166 556.42 636.916 562.74 639.626 569.05" fill="#F7CE95"/>
<path d="M613.686 574.54C613.686 574.54 603.496 580.43 595.886 584.92C588.276 589.41 593.046 596.85 599.496 593.2C605.946 589.55 618.076 582.54 618.076 582.54" fill="#F7CE95"/>
<path d="M622.726 590.11C622.726 590.11 611.886 596.71 605.436 600.36C598.986 604.01 592.916 598.95 598.206 594.36C603.496 589.77 617.046 582.3 617.046 582.3" fill="#F7CE95"/>
<path d="M639.626 569.07C636.786 563.46 634.466 557.14 629.946 554.62C625.426 552.1 609.436 548.45 606.856 549.85C604.276 551.25 604.276 556.3 610.726 557.85C617.176 559.4 620.526 559.39 620.916 561.49C621.306 563.59 627.496 580.29 639.626 569.07Z" fill="#F7CE95"/>
</g>
</svg>
