<svg width="174" height="188" viewBox="0 0 174 188" fill="none" xmlns="http://www.w3.org/2000/svg">
<path d="M103.735 93.9389C103.735 97.2713 102.744 100.529 100.889 103.298C99.0331 106.067 96.3961 108.224 93.312 109.495C90.2279 110.765 86.8355 111.093 83.5649 110.435C80.2943 109.778 77.2926 108.166 74.9405 105.803C72.5884 103.439 70.9917 100.432 70.3528 97.1611C69.7139 93.8905 70.0616 90.5041 71.3518 87.431C72.642 84.358 74.8166 81.7368 77.6 79.8996C80.3834 78.0625 83.6502 77.0922 86.9863 77.1116C91.4373 77.1376 95.6971 78.9219 98.8353 82.0748C101.973 85.2277 103.735 89.493 103.735 93.9389Z" fill="#7CE3EE"/>
<path d="M75.4271 28.988C75.4271 30.7479 74.9043 32.4681 73.925 33.9311C72.9456 35.394 71.5537 36.5338 69.9255 37.2061C68.2972 37.8784 66.5058 38.0531 64.7782 37.708C63.0505 37.3629 61.4642 36.5135 60.22 35.2674C58.9759 34.0212 58.1299 32.4344 57.7892 30.7078C57.4484 28.9811 57.6283 27.1923 58.3059 25.5678C58.9835 23.9433 60.1284 22.5562 61.5958 21.582C63.0631 20.6078 64.7868 20.0904 66.5487 20.0952C68.9057 20.1018 71.1639 21.0416 72.8282 22.7086C74.4925 24.3756 75.4272 26.6337 75.4271 28.988Z" fill="#FD0098"/>
<path d="M26.7555 120.297C26.7798 122.377 26.1847 124.417 25.0457 126.158C23.9067 127.899 22.2752 129.263 20.3586 130.075C18.4419 130.888 16.3266 131.114 14.2815 130.723C12.2363 130.332 10.3537 129.343 8.87265 127.881C7.39164 126.419 6.37918 124.55 5.96391 122.512C5.54863 120.474 5.74929 118.359 6.54039 116.435C7.33149 114.511 8.67732 112.865 10.4069 111.707C12.1364 110.549 14.1716 109.931 16.2538 109.931C19.0179 109.93 21.6705 111.019 23.6365 112.959C25.6024 114.9 26.7231 117.537 26.7555 120.297Z" fill="#7CE3EE"/>
<path d="M116.179 81.3363C116.179 80.6239 116.179 79.9361 116.179 79.2728L115.958 75.1458C115.958 74.4334 115.958 73.7456 115.958 73.0577C115.417 65.6881 114.63 58.8343 113.499 52.349C113.499 51.7349 113.326 51.1207 113.228 50.5066C113.031 49.2783 112.81 48.05 112.564 46.8955C112.564 46.3059 112.343 45.7163 112.244 45.1021C106.932 19.0381 97.6601 1.84229 86.9863 1.84229C75.3533 1.84229 65.5158 21.6913 60.6462 51.3173C60.6462 51.9069 60.4494 52.4964 60.351 53.1105C60.1789 54.2651 60.0313 55.4197 59.8591 56.5989C59.8591 57.1884 59.687 57.8025 59.6132 58.4167C58.8754 63.9439 58.3097 69.7905 57.9654 75.8336C57.9654 76.6197 57.9654 77.4059 57.8178 78.1674C57.8178 79.6659 57.6703 81.189 57.6211 82.712C57.6211 83.4736 57.6211 84.235 57.6211 85.0211C57.6211 87.969 57.6211 90.9415 57.6211 93.9876C57.6211 98.262 57.6211 102.463 57.8916 106.59C57.8916 107.302 57.8916 107.965 57.8916 108.653L58.113 112.78C58.113 113.493 58.113 114.18 58.113 114.868C58.654 122.238 59.441 129.116 60.5724 135.602C60.5724 136.216 60.7445 136.83 60.8429 137.419C61.0396 138.648 61.261 139.876 61.5069 141.031C61.5069 141.645 61.7283 142.234 61.8513 142.824C66.8192 168.888 76.0912 186.084 86.9863 186.084C98.5947 186.084 108.432 166.259 113.302 136.609C113.302 136.019 113.499 135.43 113.597 134.815C113.769 133.661 113.917 132.506 114.089 131.327C114.089 130.713 114.261 130.123 114.335 129.534C115.073 123.982 115.638 118.16 115.983 112.092C115.983 111.331 115.983 110.545 116.13 109.759C116.13 108.26 116.278 106.762 116.327 105.239C116.327 104.477 116.327 103.716 116.327 102.954C116.327 99.9816 116.327 96.9845 116.327 93.9384C116.499 89.664 116.352 85.365 116.179 81.3363ZM112.712 105.607C112.712 106.369 112.712 107.13 112.712 107.867C112.712 109.415 112.564 110.913 112.466 112.387C112.466 113.173 112.466 113.935 112.293 114.696C111.949 119.609 111.506 124.179 110.941 128.576C110.941 129.19 110.793 129.78 110.695 130.394C110.523 131.573 110.375 132.727 110.178 133.882C110.178 134.496 110.006 135.086 109.908 135.7C105.21 164.81 95.8647 182.571 86.9863 182.571C78.6981 182.571 70.0165 167.119 65.0731 141.399C64.9255 140.809 64.8271 140.195 64.7288 139.581C64.5074 138.402 64.2861 137.125 64.0893 135.945C64.0893 135.331 63.8926 134.742 63.7942 134.128C62.958 128.674 62.2693 122.852 61.8021 116.686C61.8021 116.023 61.8021 115.31 61.6545 114.598C61.6545 113.271 61.4578 111.896 61.384 110.52C61.384 109.832 61.384 109.12 61.384 108.408C61.1626 103.765 61.0397 98.9252 61.0397 93.9384C61.0397 89.9588 61.1134 86.0775 61.261 82.2944C61.261 81.5083 61.261 80.7468 61.261 80.0098C61.261 78.4867 61.3348 76.9882 61.4823 75.5143C61.4823 74.7282 61.4823 73.9666 61.6545 73.2051C61.9988 68.292 62.4415 63.7228 63.0072 59.3256C63.0072 58.7115 63.1547 58.0973 63.2531 57.4832C63.4253 56.304 63.5728 55.1495 63.7696 53.9949C63.7696 53.3808 63.9417 52.7912 64.0401 52.177C68.7376 23.0914 78.0833 5.33059 86.9863 5.33059C95.2745 5.33059 103.956 20.7823 108.875 46.5024C109.022 47.0674 109.121 47.6816 109.244 48.2957C109.441 49.4748 109.662 50.7523 109.859 51.9314C109.859 52.5456 110.055 53.1597 110.154 53.7738C111.015 59.2028 111.679 65.0248 112.171 71.1662C112.171 71.854 112.171 72.5664 112.171 73.2788C112.171 74.6053 112.392 75.981 112.441 77.3567C112.441 78.0445 112.441 78.7324 112.441 79.4448C112.662 84.1122 112.785 88.927 112.785 93.9384C112.933 97.918 112.859 101.824 112.712 105.607Z" fill="#7CE3EE"/>
<path d="M118.048 82.3682C118.048 81.6558 118.048 80.968 118.048 80.2801C118.048 78.8799 117.901 77.4797 117.803 76.1285C117.803 75.4407 117.803 74.7284 117.803 74.0405C117.286 66.1059 116.45 58.5888 115.343 51.6122L115.048 49.7943C114.851 48.566 114.63 47.3623 114.384 46.1832C114.384 45.569 114.187 44.9794 114.04 44.4144C108.678 17.3924 98.8406 0 86.9863 0C74.345 0 63.9172 20.1192 58.8508 50.777C58.8508 51.3666 58.6786 51.9806 58.5803 52.5702C58.3835 53.7248 58.236 54.8794 58.0638 56.0586C58.0638 56.6481 57.9162 57.2376 57.8424 57.8518C57.0308 63.944 56.416 70.4294 56.0471 77.1603C56.0471 77.9464 56.0471 78.708 55.9241 79.6169C55.9241 81.1154 55.9241 82.6139 55.752 84.1369V86.4461C55.752 88.9518 55.752 91.482 55.752 94.0368C55.752 97.9673 55.752 101.824 55.9487 105.607C55.9487 106.32 55.9487 107.007 55.9487 107.72C55.9487 109.12 56.0963 110.471 56.1701 111.822L56.3176 113.935C56.8341 121.894 57.6949 129.387 58.777 136.388L59.0721 138.181L59.7362 141.792C59.7362 142.382 59.9575 142.996 60.0805 143.586C65.4666 170.608 75.3042 188 87.1339 188C99.7752 188 110.203 167.856 115.245 137.198C115.245 136.609 115.442 136.019 115.515 135.405C115.712 134.251 115.86 133.096 116.032 131.917C116.032 131.327 116.179 130.738 116.278 130.124C117.065 124.031 117.68 117.571 118.048 110.815C118.048 110.054 118.048 109.243 118.048 108.359C118.048 106.885 118.048 105.386 118.221 103.863V101.578C118.221 99.1219 118.221 96.5179 118.221 93.9386C118.27 90.0081 118.196 86.1267 118.048 82.3682ZM86.9863 180.753C80.3213 180.753 71.6643 166.8 66.6963 140.687C66.5733 140.073 66.4749 139.458 66.352 138.844C66.1552 137.665 65.9339 136.388 65.7371 135.209C65.7371 134.619 65.5404 134.005 65.4666 133.366C64.7288 128.453 64.1139 123.245 63.6466 117.62L63.4991 115.532C63.4991 114.181 63.3023 112.829 63.2285 111.454C63.2285 110.791 63.2285 110.078 63.2285 109.366C62.9826 104.453 62.8596 99.3102 62.8596 93.9386C62.8596 89.4431 62.8596 85.1195 63.1301 80.968C63.1301 80.2064 63.1301 79.4203 63.1301 78.6588C63.1301 77.1603 63.3023 75.6619 63.3761 74.1879C63.3761 73.4018 63.3761 72.6648 63.5482 71.9033C63.868 67.678 64.2615 63.6493 64.7533 59.8171L64.9747 57.9992C65.1469 56.7955 65.2944 55.5426 65.4912 54.4863C65.4912 53.8722 65.6633 53.2827 65.7617 52.6931C70.4837 23.0425 79.8786 7.12399 87.0109 7.12399C93.6513 7.12399 102.308 21.0772 107.276 47.1904C107.276 47.8045 107.498 48.4186 107.621 49.0328C107.817 50.2119 108.039 51.4893 108.235 52.6439L108.531 54.4863C109.244 59.3994 109.859 64.6319 110.326 70.2574L110.474 72.3455C110.474 73.6966 110.67 75.0477 110.744 76.4233C110.744 77.1112 110.744 77.799 110.744 78.5114C110.99 83.4245 111.113 88.5669 111.113 93.9386C111.113 98.434 111.113 102.758 110.842 106.934C110.842 107.695 110.842 108.457 110.842 109.218C110.842 110.717 110.67 112.215 110.597 113.714C110.597 114.475 110.597 115.237 110.424 115.998C110.105 120.224 109.711 124.252 109.219 128.06L108.998 129.878C108.826 131.057 108.678 132.335 108.481 133.366C108.481 133.98 108.309 134.595 108.211 135.184C103.39 164.835 93.9956 180.753 86.9863 180.753Z" fill="#FD0098"/>
<g style="mix-blend-mode:multiply">
<path d="M118.27 93.9384C118.27 96.5178 118.27 99.0727 118.27 101.578V103.863C118.27 105.386 118.147 106.884 118.098 108.358C118.098 109.144 118.098 109.955 118.098 110.815C117.729 117.57 117.114 124.031 116.327 130.123C116.327 130.738 116.18 131.327 116.082 131.917C115.909 133.096 115.762 134.25 115.565 135.405C115.565 136.019 115.393 136.609 115.295 137.198C110.376 167.856 99.8249 188 87.1836 188V180.851C94.2913 180.851 103.686 164.933 108.408 135.282C108.408 134.693 108.605 134.079 108.679 133.464C108.875 132.334 109.023 131.155 109.195 129.976L109.417 128.158C109.908 124.351 110.302 120.322 110.622 116.097C110.622 115.335 110.622 114.573 110.794 113.812C110.794 112.313 110.966 110.815 111.04 109.316C111.04 108.555 111.04 107.793 111.04 107.032C111.236 102.856 111.31 98.5322 111.31 94.0367C111.31 88.6651 111.187 83.5227 110.941 78.6096C110.941 77.8972 110.941 77.2093 110.941 76.5215C110.941 75.1458 110.769 73.7947 110.671 72.4436L110.523 70.3556C110.056 64.7301 109.441 59.473 108.728 54.5845L108.433 52.7421C108.236 51.5138 108.015 50.2855 107.818 49.131C107.818 48.5168 107.597 47.9027 107.474 47.2885C102.555 21.1754 93.8485 7.22217 87.2082 7.22217V0.0981445C98.9395 0.0981445 108.777 17.466 114.262 44.5126C114.409 45.0776 114.508 45.6672 114.606 46.2813C114.852 47.4605 115.073 48.6642 115.27 49.8925L115.565 51.7103C116.696 58.6869 117.533 66.204 118.024 74.1386C118.024 74.8265 118.024 75.5389 118.024 76.2267C118.024 77.5778 118.197 78.9781 118.27 80.3783C118.27 81.0661 118.27 81.754 118.27 82.4664C118.197 86.1266 118.27 90.008 118.27 93.9384Z" fill="#FFA1E5"/>
</g>
<path d="M164.261 43.7516C161.654 39.7474 156.514 37.7085 149.037 37.7085C139.839 37.7085 127.739 40.73 114.163 46.1836L112.417 46.896C111.335 47.3382 110.228 47.8049 109.146 48.2962C108.58 48.5419 108.039 48.7629 107.498 49.0332C100.833 51.981 93.9223 55.4694 86.8885 59.4244C86.6917 59.4244 86.5196 59.6455 86.3228 59.7438L84.3061 60.8738L80.3956 63.1829L78.4035 64.3866C75.9441 65.9097 73.3372 67.5065 70.7794 69.1523C68.2216 70.7982 65.7376 72.4933 63.2782 74.0654L61.4091 75.392C60.1548 76.2518 58.9497 77.1362 57.7446 77.9959L55.8509 79.3962C49.1613 84.3093 43.0128 89.3452 37.5283 94.2829C37.0611 94.7005 36.5938 95.1181 36.1511 95.5603L33.5195 98.0168L32.1669 99.3188C12.9836 117.89 3.66244 134.988 9.51581 144.028C12.1474 148.032 17.2629 150.071 24.7395 150.071C33.9376 150.071 46.0379 147.05 59.6137 141.596L61.3599 140.884L64.6555 139.483L66.2787 138.747C72.9437 135.799 79.8546 132.31 86.8885 128.355C87.0951 128.268 87.2928 128.161 87.4787 128.036L89.4954 126.906L93.4059 124.597L95.398 123.418C97.8574 121.87 100.464 120.298 102.998 118.652C105.531 117.006 107.916 115.311 110.376 113.739C110.991 113.272 111.63 112.854 112.245 112.412L115.909 109.784L117.803 108.383C124.493 103.47 130.641 98.4099 136.126 93.4722C136.617 93.0546 137.06 92.6616 137.503 92.2194C138.413 91.4087 139.298 90.5981 140.159 89.7629C140.602 89.3452 141.044 88.9276 141.462 88.4854C160.769 69.8893 170.139 52.7917 164.261 43.7516ZM138.634 86.4711L137.306 87.7485C136.445 88.5591 135.56 89.3944 134.625 90.205C134.183 90.6472 133.715 91.0403 133.248 91.4579C128.698 95.5358 123.632 99.6873 118.098 103.741C117.483 104.183 116.869 104.674 116.229 105.116C115.049 106.001 113.77 106.885 112.614 107.745L110.745 109.096C107.621 111.282 104.424 113.469 101.055 115.63C97.6852 117.792 94.4634 119.831 91.217 121.772L89.2249 122.951L86.9622 124.277L85.3636 125.186L83.3223 126.316C77.346 129.584 71.4434 132.531 65.7376 135.086L64.0898 135.823L60.7697 137.248L59.0235 137.96C45.4968 143.561 33.5195 146.779 24.7149 146.779C20.4355 146.779 14.8773 145.993 12.4179 142.333C7.89261 135.381 16.1808 119.684 35.0689 101.53L36.4216 100.252C37.2824 99.4416 38.1678 98.6064 39.0778 97.7958L40.455 96.5429C45.0295 92.465 50.0713 88.3134 55.6049 84.2601C56.2198 83.7688 56.8346 83.3266 57.4741 82.8845C58.6546 81.9755 59.9335 81.0912 61.114 80.2314C61.7042 79.7647 62.3191 79.3224 62.9585 78.8803C66.0574 76.6939 69.2792 74.5322 72.6485 72.3459C76.0179 70.1596 79.2397 68.1452 82.4861 66.2045C83.1502 65.8115 83.7896 65.3939 84.4537 65.0499C85.1177 64.706 85.9785 64.141 86.7409 63.7234C87.282 63.404 87.823 63.0847 88.3641 62.8145L90.3808 61.6844C96.3571 58.4172 102.26 55.4694 107.965 52.89L109.613 52.1776C110.745 51.6617 111.851 51.195 112.933 50.7528L114.68 50.0404C128.108 44.5623 140.085 41.467 148.89 41.467C153.169 41.467 158.727 42.2531 161.187 45.938C165.811 52.6444 157.547 68.3172 138.634 86.4711Z" fill="#7CE3EE"/>
<path d="M165.688 42.793C162.737 38.1993 157.105 35.8901 148.964 35.8901C139.643 35.8901 127.445 38.9117 113.746 44.4143L112.024 45.1022L108.704 46.5024L107.081 47.1903C100.539 50.1136 93.7263 53.5036 86.8154 57.3604L84.0854 58.8835L82.0441 60.0626L78.1337 62.3718L76.1416 63.5755C74.0019 64.902 71.8622 66.2286 69.7472 67.6288C67.6321 69.029 65.4678 70.4539 63.3773 71.8787C62.7379 72.2963 62.123 72.7384 61.5082 73.1806C60.2539 74.0159 59.0488 74.9002 57.8191 75.76L55.9007 77.1356C48.9447 82.1733 42.2621 87.5771 35.8813 93.3243L34.5286 94.5526L31.897 97.0091L30.569 98.3111C10.8938 117.546 1.54806 135.159 7.94249 144.986C10.8938 149.555 16.5258 151.864 24.6664 151.864C33.9875 151.864 46.2107 148.867 59.885 143.389L61.6311 142.676C62.7133 142.234 63.82 141.792 64.9267 141.301L66.5499 140.588C73.0919 137.69 79.9045 134.275 86.8154 130.443C87.7253 129.952 88.6599 129.436 89.5699 128.895L91.6112 127.716L95.5216 125.407L97.4891 124.179C99.6288 122.901 101.769 121.55 103.884 120.174C105.999 118.799 108.163 117.349 110.253 115.925L112.123 114.623C113.377 113.763 114.582 112.903 115.812 112.019L117.73 110.643C124.686 105.605 131.369 100.202 137.749 94.4544L139.127 93.2261L141.758 90.7696L143.062 89.4676C162.934 70.3065 172.156 52.5947 165.688 42.793ZM133.052 89.2219L131.65 90.4747C127.592 94.0858 123.067 97.8444 118.099 101.578L116.254 102.954L112.639 105.607L110.77 106.934C107.376 109.39 103.785 111.847 99.9977 114.303C96.2103 116.76 92.6196 118.946 88.955 121.108L86.9875 122.213L83.2246 124.301L81.2079 125.431C75.8465 128.33 70.6079 130.934 65.4924 133.243L63.82 134.005L60.5244 135.43L58.7536 136.167C45.1778 141.866 33.3973 144.838 24.7156 144.838C21.5921 144.838 16.0339 144.371 13.9926 141.227C11.0659 136.756 15.1977 126.783 24.7156 115.188C28.4498 110.703 32.4407 106.438 36.6683 102.414L38.0209 101.136L40.7017 98.6797L42.0789 97.4514C46.2599 93.742 50.7852 90.0817 55.581 86.3477C56.1713 85.881 56.8107 85.4142 57.4256 84.972C58.6307 84.0631 59.885 83.1788 61.0409 82.2944L62.91 80.9679C66.3696 78.4949 69.9603 76.0384 73.6822 73.5982C77.3713 71.1416 81.0604 68.9553 84.7495 66.769L86.7416 65.6144C87.9959 64.8529 89.201 64.165 90.5045 63.4772L92.5458 62.3472C97.8827 59.4485 103.146 56.82 108.261 54.5108L109.909 53.7984C111.04 53.2825 112.123 52.8158 113.205 52.3736L114.975 51.6366C128.33 46.1339 140.209 43.0633 148.891 43.0633C152.014 43.0633 157.572 43.53 159.614 46.6744C163.253 52.2508 156.244 67.1375 136.987 85.5125L135.634 86.7899C134.921 87.576 134.036 88.4113 133.126 89.2219H133.052Z" fill="#7CE3EE"/>
<g style="mix-blend-mode:multiply" opacity="0.5">
<path d="M103.736 93.9387C103.736 98.3846 101.974 102.65 98.8363 105.803C95.6981 108.956 91.4383 110.74 86.9873 110.766V77.1113C91.4383 77.1373 95.6981 78.9216 98.8363 82.0745C101.974 85.2274 103.736 89.4927 103.736 93.9387Z" fill="#7CE3EE"/>
</g>
<g style="mix-blend-mode:multiply" opacity="0.8">
<path d="M143.134 89.5418L141.831 90.8438L139.199 93.3003L137.822 94.5286C131.441 100.276 124.758 105.68 117.802 110.717L115.884 112.093C114.679 112.977 113.425 113.837 112.195 114.697L110.326 115.999C108.235 117.424 106.12 118.824 103.956 120.249C101.792 121.674 99.7012 122.975 97.5615 124.253L95.594 125.481L91.6835 127.79L89.6422 128.969C88.7323 129.51 87.7977 130.026 86.8877 130.517V122.312H87.0353L89.0274 121.158C92.7165 118.996 96.4056 116.736 100.07 114.353C103.735 111.97 107.448 109.44 110.842 106.983L112.711 105.657L116.327 103.004L118.171 101.628C123.09 97.8203 127.665 94.1355 131.723 90.5244L133.124 89.2715C134.034 88.4609 134.92 87.6257 135.781 86.815L137.133 85.5376C156.39 67.1626 163.4 52.2759 159.76 46.6995C157.718 43.5551 152.16 43.0883 149.037 43.0883C140.355 43.0883 128.476 46.159 115.122 51.6617L113.351 52.3987C112.269 52.8408 111.187 53.3076 110.055 53.8235L108.407 54.5359C103.292 56.8451 98.0288 59.449 92.6919 62.3723L90.6506 63.5023C89.4209 64.1902 88.1912 64.878 86.8877 65.6395V57.4346C93.7986 53.5779 100.611 50.0649 107.153 47.2645L108.776 46.5766L112.097 45.1765L113.818 44.4886C127.517 38.9859 139.716 35.9644 149.037 35.9644C157.177 35.9644 162.809 38.2735 165.761 42.8673C172.155 52.5952 162.932 70.307 143.134 89.5418Z" fill="#7CE3EE"/>
</g>
<path d="M174 110.766C173.977 113.291 172.982 115.71 171.221 117.521C170.779 117.946 170.301 118.332 169.794 118.676C168.824 119.346 167.728 119.814 166.572 120.052C165.962 120.209 165.334 120.291 164.703 120.297H164.457C161.926 120.297 159.499 119.293 157.71 117.506C155.92 115.718 154.915 113.294 154.915 110.766C154.905 110.02 154.996 109.276 155.185 108.555C155.324 107.91 155.539 107.283 155.825 106.688C156.335 105.601 157.054 104.625 157.94 103.814C158.381 103.396 158.858 103.018 159.366 102.684C160.896 101.738 162.659 101.236 164.457 101.234C166.988 101.234 169.415 102.239 171.205 104.026C172.994 105.814 174 108.238 174 110.766Z" fill="#FFE34E"/>
<path d="M169.794 118.676C166.711 113.089 162.703 108.064 157.94 103.814C156.858 102.782 155.702 101.726 154.497 100.669C150.446 97.1799 146.218 93.9002 141.831 90.8431L140.281 89.7376L137.305 87.8215L135.781 86.8389C130.198 83.2032 124.148 79.6166 117.729 76.202L115.86 75.2194C114.654 74.5807 113.4 73.9665 112.195 73.3524C111.605 73.0085 110.99 72.7138 110.35 72.419C106.629 70.552 102.817 68.7505 98.9143 67.0145C96.1844 65.7862 93.4052 64.5579 90.6507 63.5262C89.9457 63.215 89.2325 62.9203 88.511 62.6419C87.97 62.3962 87.4289 62.1997 86.8878 62.0031C86.3468 61.8066 85.1417 61.2908 84.2809 60.9714C83.4201 60.6521 82.8298 60.4064 82.092 60.1607C76.4108 58.0235 70.8034 56.1811 65.3681 54.5598L63.6711 54.0685C62.5152 53.7492 61.3839 53.4052 60.2526 53.135C59.6623 52.9385 59.0721 52.7911 58.4818 52.6437C47.6513 49.5818 36.4823 47.8737 25.2307 47.5586C12.9338 47.5586 5.21125 50.6539 2.60429 56.5251C-0.740489 64.0667 5.06369 74.9738 19.279 87.2811C23.3192 90.7838 27.5474 94.0641 31.9449 97.1073C32.4614 97.5003 32.9779 97.8443 33.4943 98.1882L36.4702 100.203L38.0196 101.21C43.5779 104.845 49.628 108.407 55.9978 111.798L57.8915 112.805C59.0966 113.443 60.3509 114.057 61.556 114.672L63.4006 115.605C67.1143 117.472 70.9509 119.265 74.8368 121.01C77.5913 122.213 80.3704 123.466 83.1004 124.498C83.8382 124.817 84.5268 125.112 85.2646 125.382C86.0025 125.652 86.3468 125.824 86.8878 126.021L89.4948 127.053L91.6837 127.863C97.3649 129.976 102.948 131.843 108.383 133.44L110.08 133.956C111.236 134.275 112.367 134.619 113.499 134.889C114.089 135.086 114.679 135.233 115.269 135.38C126.087 138.413 137.239 140.096 148.471 140.392C160.768 140.392 168.466 137.297 171.073 131.425C172.721 127.863 172.254 123.54 169.794 118.676ZM167.925 130.001C165.957 134.422 159.071 136.854 148.545 136.854C137.463 136.584 126.458 134.933 115.786 131.941L113.99 131.45L110.596 130.516L108.899 130.001C104.571 128.699 100.119 127.249 95.5941 125.603L93.4052 124.793C92.0034 124.301 90.6015 123.761 89.1505 123.196C88.4618 122.926 87.724 122.655 87.0354 122.336C87.0123 122.347 86.9871 122.353 86.9616 122.353C86.9361 122.353 86.9109 122.347 86.8878 122.336C83.3709 120.96 79.8294 119.462 76.2878 117.89C71.7871 115.875 67.3602 113.787 63.1301 111.626C62.4906 111.331 61.8758 111.011 61.2855 110.692C60.0558 110.086 58.8507 109.447 57.6702 108.776L55.7765 107.793C50.4642 104.895 45.3978 101.898 40.7004 98.8514C40.1593 98.5321 39.6428 98.1881 39.1263 97.8442C38.118 97.181 37.085 96.5177 36.1259 95.8544L34.5765 94.749C30.0645 91.6522 25.7292 88.306 21.5908 84.7262C8.92494 73.6963 3.19455 63.9684 5.82611 58.0481C7.79362 53.6263 14.6799 51.1943 25.2307 51.1943C36.3096 51.5051 47.3063 53.1969 57.9653 56.2303L59.7607 56.7216L63.1547 57.6551L64.8516 58.1709C69.213 59.4647 73.6563 60.9305 78.1816 62.5682L80.3704 63.3788C81.7477 63.8947 83.1496 64.4106 84.576 65.0001L86.7403 65.8108H86.8878C90.413 67.2193 93.9381 68.7014 97.4633 70.2572C101.964 72.2716 106.366 74.3596 110.621 76.5214L112.466 77.4549C113.695 78.0772 114.9 78.7159 116.081 79.371L117.975 80.3782C123.312 83.2769 128.378 86.2739 133.125 89.32L134.625 90.3027C135.633 90.9659 136.666 91.6292 137.625 92.2925L139.199 93.3979C143.699 96.5007 148.026 99.8467 152.16 103.421C153.464 104.551 154.62 105.656 155.825 106.786C160.116 110.622 163.747 115.137 166.572 120.15C168.614 123.982 169.106 127.372 167.925 130.001Z" fill="#7CE3EE"/>
<path d="M171.221 117.522C168.089 112.004 164.086 107.027 159.366 102.783C158.21 101.677 156.907 100.547 155.677 99.4172C151.939 96.1745 147.733 92.8827 143.134 89.591L141.585 88.5101L138.634 86.5203C138.166 86.1764 137.65 85.857 137.133 85.5377C131.108 81.6072 124.566 77.7504 117.606 74.0901L115.737 73.1075L112.072 71.2159L110.203 70.307C106.76 68.612 103.243 66.9415 99.6522 65.3939C97.3404 64.3867 95.004 63.3796 92.6921 62.4215C91.9789 62.1267 91.2657 61.8073 90.5279 61.5371L86.9864 59.9895L86.3961 59.7684C85.6583 59.449 84.945 59.1789 84.2318 58.9086C77.9358 56.4521 71.7381 54.4623 65.7372 52.6936L64.0402 52.1776L60.6462 51.2687C60.056 51.0722 59.4657 50.9249 58.8508 50.7775C47.9297 47.7081 36.6703 46.0001 25.3293 45.6924C12.3682 45.6924 3.98169 49.1561 1.05501 55.7151C-2.65868 64.0428 3.5144 75.7114 18.2708 88.5592C22.0337 91.8018 26.2146 95.0936 30.8137 98.3854C31.3056 98.7293 31.8221 99.0732 32.3385 99.4663L35.3144 101.456L36.8638 102.463C42.8893 106.394 49.4314 110.226 56.3423 113.886L58.2114 114.869C59.4411 115.508 60.6708 116.146 61.9005 116.736L63.745 117.669C67.1882 119.364 70.7297 121.035 74.2958 122.582C76.6323 123.614 78.9441 124.621 81.2805 125.579C81.9938 125.874 82.6824 126.194 83.4202 126.464C84.6499 126.955 85.8796 127.446 87.0847 127.889C87.2671 128.001 87.4664 128.084 87.675 128.134L89.8393 128.994C96.1107 131.451 102.308 133.44 108.309 135.209L110.006 135.725L113.4 136.634L115.196 137.125C126.039 140.165 137.214 141.864 148.471 142.186C161.408 142.186 169.794 138.722 172.721 132.163C174.639 128.011 174.074 123.049 171.221 117.522ZM166.302 129.264C164.654 132.949 158.186 135.062 148.57 135.062C137.564 134.748 126.641 133.056 116.056 130.026L114.261 129.535L110.867 128.576L109.146 128.061C105.383 126.931 101.521 125.604 97.5863 124.253C96.8731 124.032 96.1353 123.762 95.4221 123.491C94.0202 122.975 92.5938 122.46 91.1673 121.895C90.4787 121.649 89.7655 121.354 89.0522 121.059C88.339 120.765 87.6258 120.519 86.9126 120.249C83.6416 118.922 80.3214 117.522 77.075 116.073C72.2546 113.911 67.5817 111.675 63.0564 109.366C62.417 109.071 61.8267 108.728 61.2119 108.408C60.0068 107.794 58.7525 107.18 57.6211 106.541L55.752 105.509C50.9808 102.881 46.4063 100.179 42.1269 97.452L40.5529 96.4202C39.5446 95.7569 38.5362 95.0936 37.5525 94.4058L35.9784 93.3495C31.41 90.2018 27.0175 86.8066 22.8207 83.1793C10.9664 72.8618 5.26057 63.6743 7.52321 58.6138C9.17101 54.929 15.6392 52.8164 25.2801 52.8164C36.2847 53.1447 47.2059 54.8362 57.7933 57.8523L59.5641 58.3682C60.6954 58.6384 61.8267 58.9823 62.958 59.3262L64.6796 59.8176C68.4671 60.9476 72.3283 62.2741 76.2388 63.6007L78.4276 64.4113C79.8295 64.9026 81.2314 65.443 82.6578 65.9835L84.7975 66.7942L86.9372 67.6294C90.2082 68.9559 93.5038 70.3561 96.7748 71.8301C101.595 73.9755 106.268 76.2027 110.793 78.5119L112.638 79.4454L116.229 81.3369L118.098 82.3687C123.017 84.9972 127.468 87.6994 131.772 90.4753L133.297 91.458L136.297 93.4478L137.871 94.5287C142.406 97.6793 146.766 101.074 150.931 104.699C152.431 106.001 153.857 107.303 155.136 108.556C158.857 111.993 162.062 115.948 164.654 120.298C166.72 123.934 167.286 127.127 166.277 129.264H166.302Z" fill="#FFE34E"/>
<g style="mix-blend-mode:multiply">
<path d="M171.22 117.521C174.073 123.048 174.639 128.011 172.794 132.261C169.867 138.82 161.481 142.283 148.544 142.283C137.195 141.976 125.928 140.268 114.998 137.198L113.203 136.707L109.809 135.798L108.112 135.282C102.111 133.513 95.8149 131.425 89.6418 129.067L87.4775 128.207C87.2689 128.157 87.0697 128.074 86.8873 127.962V120.346C87.6005 120.616 88.3137 120.911 89.0269 121.157C89.7402 121.403 90.4534 121.746 91.142 121.992C92.5685 122.557 93.9949 123.073 95.3968 123.589C96.11 123.859 96.8478 124.129 97.5611 124.35C101.496 125.775 105.357 127.028 109.12 128.158L110.842 128.674L114.236 129.632L116.031 130.123C126.596 133.114 137.494 134.773 148.471 135.061C158.087 135.061 164.555 132.948 166.203 129.264C167.211 127.003 166.646 123.933 164.629 120.297H164.383C161.852 120.297 159.425 119.293 157.635 117.505C155.846 115.718 154.84 113.294 154.84 110.766C154.83 110.02 154.921 109.276 155.111 108.555C153.832 107.302 152.406 106.098 150.905 104.698C146.709 101.071 142.316 97.6756 137.748 94.5279L136.174 93.447L133.173 91.4572L131.648 90.4745C127.344 87.6986 122.77 84.9964 117.974 82.3679L116.105 81.3361L112.514 79.4446L110.67 78.5111C106.144 76.202 101.471 73.9747 96.6511 71.8293C93.3801 70.3554 90.0845 68.9552 86.8135 67.6286V59.9888L90.4534 61.4381C91.1912 61.7083 91.9044 62.0277 92.6177 62.3224C94.9295 63.2805 97.2659 64.2877 99.5778 65.2949C103.168 66.8916 106.685 68.5621 110.129 70.208L111.998 71.117L115.662 73.0085L117.531 73.9911C124.491 77.6513 131.033 81.5081 137.059 85.4386C137.575 85.758 138.092 86.0773 138.559 86.4212L141.51 88.411L143.06 89.4919C147.659 92.7346 151.865 96.0264 155.603 99.3181C156.906 100.448 158.062 101.578 159.292 102.684C160.821 101.738 162.584 101.236 164.383 101.234C166.914 101.234 169.341 102.238 171.13 104.026C172.92 105.813 173.925 108.238 173.925 110.766C173.922 113.28 172.954 115.698 171.22 117.521Z" fill="#FFA1E5"/>
</g>
</svg>
